<?xml version="1.0" encoding="UTF-8" standalone="no"?>
<!-- Creator: CorelDRAW X8 -->

<svg
   xmlns:dc="http://purl.org/dc/elements/1.1/"
   xmlns:cc="http://creativecommons.org/ns#"
   xmlns:rdf="http://www.w3.org/1999/02/22-rdf-syntax-ns#"
   xmlns:svg="http://www.w3.org/2000/svg"
   xmlns="http://www.w3.org/2000/svg"
   xmlns:sodipodi="http://sodipodi.sourceforge.net/DTD/sodipodi-0.dtd"
   xmlns:inkscape="http://www.inkscape.org/namespaces/inkscape"
   xml:space="preserve"
   width="254.5mm"
   height="750mm"
   version="1.1"
   style="shape-rendering:geometricPrecision; text-rendering:geometricPrecision; image-rendering:optimizeQuality; fill-rule:evenodd; clip-rule:evenodd"
   viewBox="0 0 25450 75000"
   id="svg2"
   inkscape:version="0.91 r13725"
   sodipodi:docname="001.svg"><metadata
     id="metadata51242"><rdf:RDF><cc:Work
         rdf:about=""><dc:format>image/svg+xml</dc:format><dc:type
           rdf:resource="http://purl.org/dc/dcmitype/StillImage" /><dc:title></dc:title></cc:Work></rdf:RDF></metadata><sodipodi:namedview
     pagecolor="#ffffff"
     bordercolor="#666666"
     borderopacity="1"
     objecttolerance="10"
     gridtolerance="10"
     guidetolerance="10"
     inkscape:pageopacity="0"
     inkscape:pageshadow="2"
     inkscape:window-width="1920"
     inkscape:window-height="1018"
     id="namedview51240"
     showgrid="false"
     inkscape:zoom="4.0188974"
     inkscape:cx="371.76027"
     inkscape:cy="2582.1378"
     inkscape:window-x="-8"
     inkscape:window-y="-8"
     inkscape:window-maximized="1"
     inkscape:current-layer="Слой_x0020_1" /><defs
     id="defs4"><style
       type="text/css"
       id="style6"><![CDATA[
       svg {
                position: absolute;
            }
    .str16 {stroke:red;stroke-width:59.27;stroke-linecap:round;stroke-linejoin:round}
    .str17 {stroke:yellow;stroke-width:59.27;stroke-linecap:round;stroke-linejoin:round}
    .str20 {stroke:#DDA56E;stroke-width:21.17;stroke-linecap:round;stroke-linejoin:round}
    .str18 {stroke:red;stroke-width:21.17;stroke-linecap:round;stroke-linejoin:round}
    .str21 {stroke:yellow;stroke-width:21.17;stroke-linecap:round;stroke-linejoin:round}
    .str15 {stroke:black;stroke-width:8.47;stroke-linecap:round;stroke-linejoin:round}
    .str0 {stroke:black;stroke-width:29.63;stroke-linecap:round;stroke-linejoin:round}
    .str1 {stroke:black;stroke-width:16.93;stroke-linecap:round;stroke-linejoin:round}
    .str10 {stroke:gray;stroke-width:16.93;stroke-linecap:round;stroke-linejoin:round}
    .str4 {stroke:black;stroke-width:4.23;stroke-linecap:round;stroke-linejoin:round}
    .str14 {stroke:#0037DD;stroke-width:4.23;stroke-linecap:round;stroke-linejoin:round}
    .str2 {stroke:#006EDD;stroke-width:4.23;stroke-linecap:round;stroke-linejoin:round}
    .str5 {stroke:#00B85C;stroke-width:4.23;stroke-linecap:round;stroke-linejoin:round}
    .str3 {stroke:#00DD00;stroke-width:4.23;stroke-linecap:round;stroke-linejoin:round}
    .str9 {stroke:lime;stroke-width:4.23;stroke-linecap:round;stroke-linejoin:round}
    .str12 {stroke:gray;stroke-width:4.23;stroke-linecap:round;stroke-linejoin:round}
    .str13 {stroke:#989898;stroke-width:4.23;stroke-linecap:round;stroke-linejoin:round}
    .str11 {stroke:#BABABA;stroke-width:4.23;stroke-linecap:round;stroke-linejoin:round}
    .str7 {stroke:red;stroke-width:4.23;stroke-linecap:round;stroke-linejoin:round}
    .str8 {stroke:#FF7F00;stroke-width:4.23;stroke-linecap:round;stroke-linejoin:round}
    .str6 {stroke:yellow;stroke-width:4.23;stroke-linecap:round;stroke-linejoin:round}
    .str23 {stroke:#00BFFF;stroke-width:25.4;stroke-linecap:round;stroke-linejoin:round}
    .str22 {stroke:#37DD00;stroke-width:25.4;stroke-linecap:round;stroke-linejoin:round}
    .str19 {stroke:black;stroke-width:12.7;stroke-linecap:round;stroke-linejoin:round}
    .fil0 {fill:none}
    .fil1 {fill:black}
    .fil13 {fill:#0037DD}
    .fil2 {fill:#006EDD}
    .fil3 {fill:#00B85C}
    .fil4 {fill:#00DD00}
    .fil9 {fill:lime}
    .fil7 {fill:gray}
    .fil12 {fill:#989898}
    .fil11 {fill:#B85C00}
    .fil10 {fill:#BABABA}
    .fil14 {fill:#FCFCFC}
    .fil6 {fill:red}
    .fil8 {fill:#FF7F00}
    .fil5 {fill:yellow}
   ]]></style></defs><g
     id="Слой_x0020_1"><metadata
       id="CorelCorpID_0Corel-Layer" /><g
       id="g55052"
       class="sign"><polygon
         class="fil0 str1"
         points="13449,2517 12657,2517 12657,3317 13449,3317 "
         id="polygon11402"
         style="fill:#ffffff;stroke:#000000;stroke-width:16.93000031;stroke-linecap:round;stroke-linejoin:round" /><polygon
         class="fil2"
         points="13009,2868 13098,2868 13055,2859 "
         id="polygon11366"
         style="fill:#006edd" /><polygon
         class="fil2"
         points="12971,2885 13140,2885 13009,2868 "
         id="polygon11368"
         style="fill:#006edd" /><polygon
         class="fil2"
         points="13098,2868 13140,2885 13009,2868 "
         id="polygon11370"
         style="fill:#006edd" /><polygon
         class="fil2"
         points="12937,2919 13170,2919 12971,2885 "
         id="polygon11372"
         style="fill:#006edd" /><polygon
         class="fil2"
         points="13140,2885 13170,2919 12971,2885 "
         id="polygon11374"
         style="fill:#006edd" /><polygon
         class="fil2"
         points="12920,2957 13191,2957 12937,2919 "
         id="polygon11376"
         style="fill:#006edd" /><polygon
         class="fil2"
         points="13170,2919 13191,2957 12937,2919 "
         id="polygon11378"
         style="fill:#006edd" /><polygon
         class="fil2"
         points="12912,3004 13199,3004 12920,2957 "
         id="polygon11380"
         style="fill:#006edd" /><polygon
         class="fil2"
         points="13191,2957 13199,3004 12920,2957 "
         id="polygon11382"
         style="fill:#006edd" /><polygon
         class="fil2"
         points="12920,3046 13191,3046 12912,3004 "
         id="polygon11384"
         style="fill:#006edd" /><polygon
         class="fil2"
         points="13199,3004 13191,3046 12912,3004 "
         id="polygon11386"
         style="fill:#006edd" /><polygon
         class="fil2"
         points="12937,3088 13170,3088 12920,3046 "
         id="polygon11388"
         style="fill:#006edd" /><polygon
         class="fil2"
         points="13191,3046 13170,3088 12920,3046 "
         id="polygon11390"
         style="fill:#006edd" /><polygon
         class="fil2"
         points="12971,3118 13140,3118 12937,3088 "
         id="polygon11392"
         style="fill:#006edd" /><polygon
         class="fil2"
         points="13170,3088 13140,3118 12937,3088 "
         id="polygon11394"
         style="fill:#006edd" /><polygon
         class="fil2"
         points="13009,3139 13098,3139 12971,3118 "
         id="polygon11396"
         style="fill:#006edd" /><polygon
         class="fil2"
         points="13140,3118 13098,3139 12971,3118 "
         id="polygon11398"
         style="fill:#006edd" /><polygon
         class="fil2"
         points="13098,3139 13055,3147 13009,3139 "
         id="polygon11400"
         style="fill:#006edd" /><polygon
         class="fil1"
         points="12810,3147 13055,2716 12801,3144 "
         id="polygon11404"
         style="fill:#000000" /><polygon
         class="fil1"
         points="13055,2716 13055,2733 12810,3147 "
         id="polygon11406"
         style="fill:#000000" /><polygon
         class="fil1"
         points="13055,2733 13314,3152 13055,2716 "
         id="polygon11408"
         style="fill:#000000" /><polygon
         class="fil1"
         points="13314,3152 13297,3144 13055,2733 "
         id="polygon11410"
         style="fill:#000000" /><polygon
         class="fil1"
         points="13297,3144 12806,3152 13314,3152 "
         id="polygon11412"
         style="fill:#000000" /><polygon
         class="fil1"
         points="12806,3152 12806,3139 13297,3144 "
         id="polygon11414"
         style="fill:#000000" /><polygon
         class="fil1"
         points="12950,2906 13157,3101 12958,2897 "
         id="polygon11416"
         style="fill:#000000" /><polygon
         class="fil1"
         points="13157,3101 13153,3106 12950,2906 "
         id="polygon11418"
         style="fill:#000000" /><polygon
         class="fil1"
         points="13157,3101 13055,3008 13153,3106 "
         id="polygon11420"
         style="fill:#000000" /><polygon
         class="fil1"
         points="13055,3008 13055,2995 13157,3101 "
         id="polygon11422"
         style="fill:#000000" /><polygon
         class="fil1"
         points="13055,2995 12954,3106 13055,3008 "
         id="polygon11424"
         style="fill:#000000" /><polygon
         class="fil1"
         points="12954,3106 12950,3097 13055,2995 "
         id="polygon11426"
         style="fill:#000000" /><polygon
         class="fil1"
         points="12954,3106 13153,2897 12950,3097 "
         id="polygon11428"
         style="fill:#000000" /><polygon
         class="fil1"
         points="13153,2897 13157,2906 12954,3106 "
         id="polygon11430"
         style="fill:#000000" /><polygon
         class="fil1"
         points="13246,2728 13187,2856 13199,2856 13221,2818 13259,2818 13225,2804 13242,2766 13242,2766 13246,2763 13246,2758 13250,2754 13250,2742 13263,2728 "
         id="polygon11432"
         style="fill:#000000" /><polygon
         class="fil1"
         points="13250,2742 13250,2745 13254,2750 13254,2771 13259,2804 13225,2804 13259,2818 13267,2856 13280,2856 13263,2728 "
         id="polygon11434"
         style="fill:#000000" /><polygon
         class="fil1"
         points="13055,3139 13102,3144 13055,3152 "
         id="polygon11436"
         style="fill:#000000" /><polygon
         class="fil1"
         points="13102,3144 13098,3135 13055,3139 "
         id="polygon11438"
         style="fill:#000000" /><polygon
         class="fil1"
         points="13098,3135 13140,3123 13102,3144 "
         id="polygon11440"
         style="fill:#000000" /><polygon
         class="fil1"
         points="13140,3123 13136,3114 13098,3135 "
         id="polygon11442"
         style="fill:#000000" /><polygon
         class="fil1"
         points="13136,3114 13174,3088 13140,3123 "
         id="polygon11444"
         style="fill:#000000" /><polygon
         class="fil1"
         points="13174,3088 13165,3084 13136,3114 "
         id="polygon11446"
         style="fill:#000000" /><polygon
         class="fil1"
         points="13165,3084 13195,3050 13174,3088 "
         id="polygon11448"
         style="fill:#000000" /><polygon
         class="fil1"
         points="13195,3050 13187,3046 13165,3084 "
         id="polygon11450"
         style="fill:#000000" /><polygon
         class="fil1"
         points="13187,3046 13204,3004 13195,3050 "
         id="polygon11452"
         style="fill:#000000" /><polygon
         class="fil1"
         points="13204,3004 13191,3004 13187,3046 "
         id="polygon11454"
         style="fill:#000000" /><polygon
         class="fil1"
         points="13191,3004 13195,2957 13204,3004 "
         id="polygon11456"
         style="fill:#000000" /><polygon
         class="fil1"
         points="13195,2957 13187,2961 13191,3004 "
         id="polygon11458"
         style="fill:#000000" /><polygon
         class="fil1"
         points="13187,2961 13174,2915 13195,2957 "
         id="polygon11460"
         style="fill:#000000" /><polygon
         class="fil1"
         points="13174,2915 13165,2923 13187,2961 "
         id="polygon11462"
         style="fill:#000000" /><polygon
         class="fil1"
         points="13165,2923 13140,2881 13174,2915 "
         id="polygon11464"
         style="fill:#000000" /><polygon
         class="fil1"
         points="13140,2881 13136,2890 13165,2923 "
         id="polygon11466"
         style="fill:#000000" /><polygon
         class="fil1"
         points="13136,2890 13102,2864 13140,2881 "
         id="polygon11468"
         style="fill:#000000" /><polygon
         class="fil1"
         points="13102,2864 13098,2873 13136,2890 "
         id="polygon11470"
         style="fill:#000000" /><polygon
         class="fil1"
         points="13098,2873 13055,2856 13102,2864 "
         id="polygon11472"
         style="fill:#000000" /><polygon
         class="fil1"
         points="13055,2856 13055,2864 13098,2873 "
         id="polygon11474"
         style="fill:#000000" /><polygon
         class="fil1"
         points="13055,2864 13009,2864 13055,2856 "
         id="polygon11476"
         style="fill:#000000" /><polygon
         class="fil1"
         points="13009,2864 13013,2873 13055,2864 "
         id="polygon11478"
         style="fill:#000000" /><polygon
         class="fil1"
         points="13013,2873 12967,2881 13009,2864 "
         id="polygon11480"
         style="fill:#000000" /><polygon
         class="fil1"
         points="12967,2881 12975,2890 13013,2873 "
         id="polygon11482"
         style="fill:#000000" /><polygon
         class="fil1"
         points="12975,2890 12937,2915 12967,2881 "
         id="polygon11484"
         style="fill:#000000" /><polygon
         class="fil1"
         points="12937,2915 12941,2923 12975,2890 "
         id="polygon11486"
         style="fill:#000000" /><polygon
         class="fil1"
         points="12941,2923 12916,2957 12937,2915 "
         id="polygon11488"
         style="fill:#000000" /><polygon
         class="fil1"
         points="12916,2957 12924,2961 12941,2923 "
         id="polygon11490"
         style="fill:#000000" /><polygon
         class="fil1"
         points="12924,2961 12907,3004 12916,2957 "
         id="polygon11492"
         style="fill:#000000" /><polygon
         class="fil1"
         points="12907,3004 12916,3004 12924,2961 "
         id="polygon11494"
         style="fill:#000000" /><polygon
         class="fil1"
         points="12916,3004 12916,3050 12907,3004 "
         id="polygon11496"
         style="fill:#000000" /><polygon
         class="fil1"
         points="12916,3050 12924,3046 12916,3004 "
         id="polygon11498"
         style="fill:#000000" /><polygon
         class="fil1"
         points="12924,3046 12937,3088 12916,3050 "
         id="polygon11500"
         style="fill:#000000" /><polygon
         class="fil1"
         points="12937,3088 12941,3084 12924,3046 "
         id="polygon11502"
         style="fill:#000000" /><polygon
         class="fil1"
         points="12941,3084 12967,3123 12937,3088 "
         id="polygon11504"
         style="fill:#000000" /><polygon
         class="fil1"
         points="12967,3123 12975,3114 12941,3084 "
         id="polygon11506"
         style="fill:#000000" /><polygon
         class="fil1"
         points="12975,3114 13009,3144 12967,3123 "
         id="polygon11508"
         style="fill:#000000" /><polygon
         class="fil1"
         points="13009,3144 13013,3135 12975,3114 "
         id="polygon11510"
         style="fill:#000000" /><polygon
         class="fil1"
         points="13013,3135 13055,3152 13009,3144 "
         id="polygon11512"
         style="fill:#000000" /><polygon
         class="fil1"
         points="13055,3152 13055,3139 13013,3135 "
         id="polygon11514"
         style="fill:#000000" /></g></g></svg>