<?xml version="1.0" encoding="UTF-8" standalone="no"?>
<!-- Creator: CorelDRAW X8 -->

<svg
   xmlns:dc="http://purl.org/dc/elements/1.1/"
   xmlns:cc="http://creativecommons.org/ns#"
   xmlns:rdf="http://www.w3.org/1999/02/22-rdf-syntax-ns#"
   xmlns:svg="http://www.w3.org/2000/svg"
   xmlns="http://www.w3.org/2000/svg"
   xmlns:sodipodi="http://sodipodi.sourceforge.net/DTD/sodipodi-0.dtd"
   xmlns:inkscape="http://www.inkscape.org/namespaces/inkscape"
   xml:space="preserve"
   width="254.5mm"
   height="750mm"
   version="1.1"
   style="shape-rendering:geometricPrecision; text-rendering:geometricPrecision; image-rendering:optimizeQuality; fill-rule:evenodd; clip-rule:evenodd"
   viewBox="0 0 25450 75000"
   id="svg2"
   inkscape:version="0.91 r13725"
   sodipodi:docname="002.svg"><metadata
     id="metadata51242"><rdf:RDF><cc:Work
         rdf:about=""><dc:format>image/svg+xml</dc:format><dc:type
           rdf:resource="http://purl.org/dc/dcmitype/StillImage" /><dc:title></dc:title></cc:Work></rdf:RDF></metadata><sodipodi:namedview
     pagecolor="#ffffff"
     bordercolor="#666666"
     borderopacity="1"
     objecttolerance="10"
     gridtolerance="10"
     guidetolerance="10"
     inkscape:pageopacity="0"
     inkscape:pageshadow="2"
     inkscape:window-width="1920"
     inkscape:window-height="1018"
     id="namedview51240"
     showgrid="false"
     inkscape:zoom="4.0188974"
     inkscape:cx="371.76027"
     inkscape:cy="2582.1378"
     inkscape:window-x="-8"
     inkscape:window-y="-8"
     inkscape:window-maximized="1"
     inkscape:current-layer="svg2" /><defs
     id="defs4"><style
       type="text/css"
       id="style6"><![CDATA[
       svg {
                position: absolute;
            }
    .str16 {stroke:red;stroke-width:59.27;stroke-linecap:round;stroke-linejoin:round}
    .str17 {stroke:yellow;stroke-width:59.27;stroke-linecap:round;stroke-linejoin:round}
    .str20 {stroke:#DDA56E;stroke-width:21.17;stroke-linecap:round;stroke-linejoin:round}
    .str18 {stroke:red;stroke-width:21.17;stroke-linecap:round;stroke-linejoin:round}
    .str21 {stroke:yellow;stroke-width:21.17;stroke-linecap:round;stroke-linejoin:round}
    .str15 {stroke:black;stroke-width:8.47;stroke-linecap:round;stroke-linejoin:round}
    .str0 {stroke:black;stroke-width:29.63;stroke-linecap:round;stroke-linejoin:round}
    .str1 {stroke:black;stroke-width:16.93;stroke-linecap:round;stroke-linejoin:round}
    .str10 {stroke:gray;stroke-width:16.93;stroke-linecap:round;stroke-linejoin:round}
    .str4 {stroke:black;stroke-width:4.23;stroke-linecap:round;stroke-linejoin:round}
    .str14 {stroke:#0037DD;stroke-width:4.23;stroke-linecap:round;stroke-linejoin:round}
    .str2 {stroke:#006EDD;stroke-width:4.23;stroke-linecap:round;stroke-linejoin:round}
    .str5 {stroke:#00B85C;stroke-width:4.23;stroke-linecap:round;stroke-linejoin:round}
    .str3 {stroke:#00DD00;stroke-width:4.23;stroke-linecap:round;stroke-linejoin:round}
    .str9 {stroke:lime;stroke-width:4.23;stroke-linecap:round;stroke-linejoin:round}
    .str12 {stroke:gray;stroke-width:4.23;stroke-linecap:round;stroke-linejoin:round}
    .str13 {stroke:#989898;stroke-width:4.23;stroke-linecap:round;stroke-linejoin:round}
    .str11 {stroke:#BABABA;stroke-width:4.23;stroke-linecap:round;stroke-linejoin:round}
    .str7 {stroke:red;stroke-width:4.23;stroke-linecap:round;stroke-linejoin:round}
    .str8 {stroke:#FF7F00;stroke-width:4.23;stroke-linecap:round;stroke-linejoin:round}
    .str6 {stroke:yellow;stroke-width:4.23;stroke-linecap:round;stroke-linejoin:round}
    .str23 {stroke:#00BFFF;stroke-width:25.4;stroke-linecap:round;stroke-linejoin:round}
    .str22 {stroke:#37DD00;stroke-width:25.4;stroke-linecap:round;stroke-linejoin:round}
    .str19 {stroke:black;stroke-width:12.7;stroke-linecap:round;stroke-linejoin:round}
    .fil0 {fill:none}
    .fil1 {fill:black}
    .fil13 {fill:#0037DD}
    .fil2 {fill:#006EDD}
    .fil3 {fill:#00B85C}
    .fil4 {fill:#00DD00}
    .fil9 {fill:lime}
    .fil7 {fill:gray}
    .fil12 {fill:#989898}
    .fil11 {fill:#B85C00}
    .fil10 {fill:#BABABA}
    .fil14 {fill:#FCFCFC}
    .fil6 {fill:red}
    .fil8 {fill:#FF7F00}
    .fil5 {fill:yellow}
   ]]></style></defs><g
     id="Слой_x0020_1"><g
       id="g55129"><polygon
         class="fil3"
         points="13055,3961 13009,3964 13098,3964 "
         id="polygon11516" /><polygon
         class="fil3"
         points="13009,3964 12971,3986 13140,3986 "
         id="polygon11518" /><polygon
         class="fil3"
         points="13009,3964 13098,3964 13140,3986 "
         id="polygon11520" /><polygon
         class="fil3"
         points="12971,3986 12937,4019 13170,4019 "
         id="polygon11522" /><polygon
         class="fil3"
         points="12971,3986 13140,3986 13170,4019 "
         id="polygon11524" /><polygon
         class="fil3"
         points="12937,4019 12920,4057 13191,4057 "
         id="polygon11526" /><polygon
         class="fil3"
         points="12937,4019 13170,4019 13191,4057 "
         id="polygon11528" /><polygon
         class="fil3"
         points="12920,4057 12912,4104 13199,4104 "
         id="polygon11530" /><polygon
         class="fil3"
         points="12920,4057 13191,4057 13199,4104 "
         id="polygon11532" /><polygon
         class="fil3"
         points="12912,4104 12920,4147 13191,4147 "
         id="polygon11534" /><polygon
         class="fil3"
         points="12912,4104 13199,4104 13191,4147 "
         id="polygon11536" /><polygon
         class="fil3"
         points="12920,4147 12937,4185 13170,4185 "
         id="polygon11538" /><polygon
         class="fil3"
         points="12920,4147 13191,4147 13170,4185 "
         id="polygon11540" /><polygon
         class="fil3"
         points="12937,4185 12971,4219 13140,4219 "
         id="polygon11542" /><polygon
         class="fil3"
         points="12937,4185 13170,4185 13140,4219 "
         id="polygon11544" /><polygon
         class="fil3"
         points="12971,4219 13009,4240 13098,4240 "
         id="polygon11546" /><polygon
         class="fil3"
         points="12971,4219 13140,4219 13098,4240 "
         id="polygon11548" /><polygon
         class="fil3"
         points="13009,4240 13098,4240 13055,4244 "
         id="polygon11550" /><polygon
         class="fil0 str1"
         points="12657,4418 13449,4418 13449,3618 12657,3618 "
         id="polygon11552" /><polygon
         class="fil1"
         points="12801,4244 12810,4248 13055,3816 "
         id="polygon11554" /><polygon
         class="fil1"
         points="12810,4248 13055,3816 13055,3833 "
         id="polygon11556" /><polygon
         class="fil1"
         points="13055,3816 13055,3833 13314,4252 "
         id="polygon11558" /><polygon
         class="fil1"
         points="13055,3833 13314,4252 13297,4240 "
         id="polygon11560" /><polygon
         class="fil1"
         points="13314,4252 13297,4240 12806,4248 "
         id="polygon11562" /><polygon
         class="fil1"
         points="13297,4240 12806,4248 12806,4240 "
         id="polygon11564" /><polygon
         class="fil1"
         points="12958,3999 12950,4003 13157,4202 "
         id="polygon11566" /><polygon
         class="fil1"
         points="12950,4003 13157,4202 13153,4206 "
         id="polygon11568" /><polygon
         class="fil1"
         points="13153,4206 13157,4202 13055,4109 "
         id="polygon11570" /><polygon
         class="fil1"
         points="13157,4202 13055,4109 13055,4096 "
         id="polygon11572" /><polygon
         class="fil1"
         points="13055,4109 13055,4096 12954,4206 "
         id="polygon11574" /><polygon
         class="fil1"
         points="13055,4096 12954,4206 12950,4197 "
         id="polygon11576" /><polygon
         class="fil1"
         points="12950,4197 12954,4206 13153,3999 "
         id="polygon11578" /><polygon
         class="fil1"
         points="12954,4206 13153,3999 13157,4007 "
         id="polygon11580" /><polygon
         class="fil1"
         points="13305,3829 13288,3829 13246,3918 13246,3926 13242,3926 13242,3935 13237,3935 13229,3956 13242,3956 13288,3850 "
         id="polygon11582" /><polygon
         class="fil1"
         points="13305,3829 13288,3850 13271,3956 13284,3956 "
         id="polygon11584" /><polygon
         class="fil1"
         points="13229,3829 13208,3829 13187,3956 13199,3956 13221,3850 "
         id="polygon11586" /><polygon
         class="fil1"
         points="13229,3829 13221,3850 13229,3956 13237,3935 13237,3918 "
         id="polygon11588" /><polygon
         class="fil1"
         points="13055,4248 13055,4240 13102,4244 "
         id="polygon11590" /><polygon
         class="fil1"
         points="13055,4240 13102,4244 13098,4236 "
         id="polygon11592" /><polygon
         class="fil1"
         points="13102,4244 13098,4236 13140,4223 "
         id="polygon11594" /><polygon
         class="fil1"
         points="13098,4236 13140,4223 13136,4214 "
         id="polygon11596" /><polygon
         class="fil1"
         points="13140,4223 13136,4214 13174,4189 "
         id="polygon11598" /><polygon
         class="fil1"
         points="13136,4214 13174,4189 13165,4185 "
         id="polygon11600" /><polygon
         class="fil1"
         points="13174,4189 13165,4185 13195,4147 "
         id="polygon11602" /><polygon
         class="fil1"
         points="13165,4185 13195,4147 13187,4147 "
         id="polygon11604" /><polygon
         class="fil1"
         points="13195,4147 13187,4147 13204,4104 "
         id="polygon11606" /><polygon
         class="fil1"
         points="13187,4147 13204,4104 13191,4104 "
         id="polygon11608" /><polygon
         class="fil1"
         points="13204,4104 13191,4104 13195,4057 "
         id="polygon11610" /><polygon
         class="fil1"
         points="13191,4104 13195,4057 13187,4057 "
         id="polygon11612" /><polygon
         class="fil1"
         points="13195,4057 13187,4057 13174,4016 "
         id="polygon11614" /><polygon
         class="fil1"
         points="13187,4057 13174,4016 13165,4019 "
         id="polygon11616" /><polygon
         class="fil1"
         points="13174,4016 13165,4019 13140,3981 "
         id="polygon11618" /><polygon
         class="fil1"
         points="13165,4019 13140,3981 13136,3990 "
         id="polygon11620" /><polygon
         class="fil1"
         points="13140,3981 13136,3990 13102,3961 "
         id="polygon11622" /><polygon
         class="fil1"
         points="13136,3990 13102,3961 13098,3969 "
         id="polygon11624" /><polygon
         class="fil1"
         points="13102,3961 13098,3969 13055,3956 "
         id="polygon11626" /><polygon
         class="fil1"
         points="13098,3969 13055,3956 13055,3964 "
         id="polygon11628" /><polygon
         class="fil1"
         points="13055,3956 13055,3964 13009,3961 "
         id="polygon11630" /><polygon
         class="fil1"
         points="13055,3964 13009,3961 13013,3969 "
         id="polygon11632" /><polygon
         class="fil1"
         points="13009,3961 13013,3969 12967,3981 "
         id="polygon11634" /><polygon
         class="fil1"
         points="13013,3969 12967,3981 12975,3990 "
         id="polygon11636" /><polygon
         class="fil1"
         points="12967,3981 12975,3990 12937,4016 "
         id="polygon11638" /><polygon
         class="fil1"
         points="12975,3990 12937,4016 12941,4019 "
         id="polygon11640" /><polygon
         class="fil1"
         points="12937,4016 12941,4019 12916,4057 "
         id="polygon11642" /><polygon
         class="fil1"
         points="12941,4019 12916,4057 12924,4057 "
         id="polygon11644" /><polygon
         class="fil1"
         points="12916,4057 12924,4057 12907,4104 "
         id="polygon11646" /><polygon
         class="fil1"
         points="12924,4057 12907,4104 12916,4104 "
         id="polygon11648" /><polygon
         class="fil1"
         points="12907,4104 12916,4104 12916,4147 "
         id="polygon11650" /><polygon
         class="fil1"
         points="12916,4104 12916,4147 12924,4147 "
         id="polygon11652" /><polygon
         class="fil1"
         points="12916,4147 12924,4147 12937,4189 "
         id="polygon11654" /><polygon
         class="fil1"
         points="12924,4147 12937,4189 12941,4185 "
         id="polygon11656" /><polygon
         class="fil1"
         points="12937,4189 12941,4185 12967,4223 "
         id="polygon11658" /><polygon
         class="fil1"
         points="12941,4185 12967,4223 12975,4214 "
         id="polygon11660" /><polygon
         class="fil1"
         points="12967,4223 12975,4214 13009,4244 "
         id="polygon11662" /><polygon
         class="fil1"
         points="12975,4214 13009,4244 13013,4236 "
         id="polygon11664" /><polygon
         class="fil1"
         points="13009,4244 13013,4236 13055,4248 "
         id="polygon11666" /><polygon
         class="fil1"
         points="13013,4236 13055,4248 13055,4240 "
         id="polygon11668" /></g><metadata
       id="CorelCorpID_0Corel-Layer" /></g></svg>