<?xml version="1.0" encoding="UTF-8" standalone="no"?>
<!-- Creator: CorelDRAW X8 -->

<svg
   xmlns:dc="http://purl.org/dc/elements/1.1/"
   xmlns:cc="http://creativecommons.org/ns#"
   xmlns:rdf="http://www.w3.org/1999/02/22-rdf-syntax-ns#"
   xmlns:svg="http://www.w3.org/2000/svg"
   xmlns="http://www.w3.org/2000/svg"
   xmlns:sodipodi="http://sodipodi.sourceforge.net/DTD/sodipodi-0.dtd"
   xmlns:inkscape="http://www.inkscape.org/namespaces/inkscape"
   xml:space="preserve"
   width="254.5mm"
   height="750mm"
   version="1.1"
   style="shape-rendering:geometricPrecision; text-rendering:geometricPrecision; image-rendering:optimizeQuality; fill-rule:evenodd; clip-rule:evenodd"
   viewBox="0 0 25450 75000"
   id="svg2"
   inkscape:version="0.91 r13725"
   sodipodi:docname="003.svg"><metadata
     id="metadata51242"><rdf:RDF><cc:Work
         rdf:about=""><dc:format>image/svg+xml</dc:format><dc:type
           rdf:resource="http://purl.org/dc/dcmitype/StillImage" /><dc:title></dc:title></cc:Work></rdf:RDF></metadata><sodipodi:namedview
     pagecolor="#ffffff"
     bordercolor="#666666"
     borderopacity="1"
     objecttolerance="10"
     gridtolerance="10"
     guidetolerance="10"
     inkscape:pageopacity="0"
     inkscape:pageshadow="2"
     inkscape:window-width="1920"
     inkscape:window-height="1018"
     id="namedview51240"
     showgrid="false"
     inkscape:zoom="4.0188974"
     inkscape:cx="371.76027"
     inkscape:cy="2552.2788"
     inkscape:window-x="-8"
     inkscape:window-y="-8"
     inkscape:window-maximized="1"
     inkscape:current-layer="svg2" /><defs
     id="defs4"><style
       type="text/css"
       id="style6"><![CDATA[
       svg {
                position: absolute;
            }
    .str16 {stroke:red;stroke-width:59.27;stroke-linecap:round;stroke-linejoin:round}
    .str17 {stroke:yellow;stroke-width:59.27;stroke-linecap:round;stroke-linejoin:round}
    .str20 {stroke:#DDA56E;stroke-width:21.17;stroke-linecap:round;stroke-linejoin:round}
    .str18 {stroke:red;stroke-width:21.17;stroke-linecap:round;stroke-linejoin:round}
    .str21 {stroke:yellow;stroke-width:21.17;stroke-linecap:round;stroke-linejoin:round}
    .str15 {stroke:black;stroke-width:8.47;stroke-linecap:round;stroke-linejoin:round}
    .str0 {stroke:black;stroke-width:29.63;stroke-linecap:round;stroke-linejoin:round}
    .str1 {stroke:black;stroke-width:16.93;stroke-linecap:round;stroke-linejoin:round}
    .str10 {stroke:gray;stroke-width:16.93;stroke-linecap:round;stroke-linejoin:round}
    .str4 {stroke:black;stroke-width:4.23;stroke-linecap:round;stroke-linejoin:round}
    .str14 {stroke:#0037DD;stroke-width:4.23;stroke-linecap:round;stroke-linejoin:round}
    .str2 {stroke:#006EDD;stroke-width:4.23;stroke-linecap:round;stroke-linejoin:round}
    .str5 {stroke:#00B85C;stroke-width:4.23;stroke-linecap:round;stroke-linejoin:round}
    .str3 {stroke:#00DD00;stroke-width:4.23;stroke-linecap:round;stroke-linejoin:round}
    .str9 {stroke:lime;stroke-width:4.23;stroke-linecap:round;stroke-linejoin:round}
    .str12 {stroke:gray;stroke-width:4.23;stroke-linecap:round;stroke-linejoin:round}
    .str13 {stroke:#989898;stroke-width:4.23;stroke-linecap:round;stroke-linejoin:round}
    .str11 {stroke:#BABABA;stroke-width:4.23;stroke-linecap:round;stroke-linejoin:round}
    .str7 {stroke:red;stroke-width:4.23;stroke-linecap:round;stroke-linejoin:round}
    .str8 {stroke:#FF7F00;stroke-width:4.23;stroke-linecap:round;stroke-linejoin:round}
    .str6 {stroke:yellow;stroke-width:4.23;stroke-linecap:round;stroke-linejoin:round}
    .str23 {stroke:#00BFFF;stroke-width:25.4;stroke-linecap:round;stroke-linejoin:round}
    .str22 {stroke:#37DD00;stroke-width:25.4;stroke-linecap:round;stroke-linejoin:round}
    .str19 {stroke:black;stroke-width:12.7;stroke-linecap:round;stroke-linejoin:round}
    .fil0 {fill:none}
    .fil1 {fill:black}
    .fil13 {fill:#0037DD}
    .fil2 {fill:#006EDD}
    .fil3 {fill:#00B85C}
    .fil4 {fill:#00DD00}
    .fil9 {fill:lime}
    .fil7 {fill:gray}
    .fil12 {fill:#989898}
    .fil11 {fill:#B85C00}
    .fil10 {fill:#BABABA}
    .fil14 {fill:#FCFCFC}
    .fil6 {fill:red}
    .fil8 {fill:#FF7F00}
    .fil5 {fill:yellow}
   ]]></style></defs><g
     id="Слой_x0020_1"><g
       id="g55208"><polygon
         class="fil1"
         points="13352,4892 13335,4892 13276,5019 13288,5019 13309,4981 13352,4981 13314,4968 13331,4930 13331,4930 13335,4926 13335,4921 13339,4917 13339,4905 "
         id="polygon11670" /><polygon
         class="fil1"
         points="13352,4892 13339,4905 13343,4909 13343,4934 13347,4968 13314,4968 13352,4981 13356,5019 13369,5019 "
         id="polygon11672" /><polygon
         class="fil0 str1"
         points="13301,5205 13297,5193 13288,5188 13276,5193 13271,5205 13276,5214 13288,5222 13297,5214 "
         id="polygon11674" /><polyline
         class="fil0 str1"
         points="13288,5193 13288,5057 12856,5057 "
         id="polyline11676" /><polygon
         class="fil0 str1"
         points="13174,5061 13165,5010 13140,4972 13098,4947 13051,4938 13005,4947 12967,4972 12941,5010 12933,5061 12941,5108 12967,5146 13005,5171 13051,5179 13098,5171 13140,5146 13165,5108 "
         id="polygon11678" /><polyline
         class="fil0 str1"
         points="13229,4867 13229,5290 13191,5277 13157,5277 13022,5294 12992,5277 12954,5273 12920,5277 12886,5294 "
         id="polyline11680" /><polyline
         class="fil0 str1"
         points="13229,4867 13191,4854 13157,4850 13022,4867 12992,4854 12954,4850 12920,4854 12886,4867 12886,5294 "
         id="polyline11682" /><polygon
         class="fil2"
         points="13051,4938 13005,4947 13098,4947 "
         id="polygon11684" /><polygon
         class="fil2"
         points="13005,4947 12967,4972 13140,4972 "
         id="polygon11686" /><polygon
         class="fil2"
         points="13005,4947 13098,4947 13140,4972 "
         id="polygon11688" /><polygon
         class="fil2"
         points="12967,4972 12941,5010 13165,5010 "
         id="polygon11690" /><polygon
         class="fil2"
         points="12967,4972 13140,4972 13165,5010 "
         id="polygon11692" /><polygon
         class="fil2"
         points="12941,5010 12933,5057 13174,5057 "
         id="polygon11694" /><polygon
         class="fil2"
         points="12941,5010 13165,5010 13174,5057 "
         id="polygon11696" /><polygon
         class="fil2"
         points="12933,5057 13174,5057 13174,5057 "
         id="polygon11698" /><polygon
         class="fil2"
         points="12933,5057 13174,5057 13174,5057 "
         id="polygon11700" /><polyline
         class="fil0 str2"
         points="12933,5057 13174,5057 12933,5057 13174,5061 "
         id="polyline11702" /><line
         class="fil0 str2"
         x1="12933"
         y1="5057"
         x2="13174"
         y2="5057"
         id="line11704" /><polygon
         class="fil2"
         points="12933,5061 12941,5103 13165,5103 "
         id="polygon11706" /><polygon
         class="fil2"
         points="12933,5061 13174,5061 13165,5103 "
         id="polygon11708" /><polyline
         class="fil0 str2"
         points="13165,5108 12941,5103 13165,5103 "
         id="polyline11710" /><polygon
         class="fil2"
         points="12941,5108 12967,5146 13140,5146 "
         id="polygon11712" /><polygon
         class="fil2"
         points="12941,5108 13165,5108 13140,5146 "
         id="polygon11714" /><polygon
         class="fil0 str2"
         points="12967,5146 13140,5146 "
         id="polygon11716" /><polygon
         class="fil2"
         points="12967,5146 13005,5171 13102,5171 "
         id="polygon11718" /><polygon
         class="fil2"
         points="12967,5146 13140,5146 13102,5171 "
         id="polygon11720" /><polygon
         class="fil0 str2"
         points="13005,5171 13098,5171 "
         id="polygon11722" /><polygon
         class="fil2"
         points="13009,5171 13098,5171 13051,5179 "
         id="polygon11724" /><line
         class="fil0 str1"
         x1="12856"
         y1="5053"
         x2="13288"
         y2="5053"
         id="line11726" /><polygon
         class="fil0 str1"
         points="12657,5459 13449,5459 13449,4659 12657,4659 "
         id="polygon11728" /></g><metadata
       id="CorelCorpID_0Corel-Layer" /></g></svg>