<?xml version="1.0" encoding="UTF-8" standalone="no"?>
<!-- Creator: CorelDRAW X8 -->

<svg
   xmlns:dc="http://purl.org/dc/elements/1.1/"
   xmlns:cc="http://creativecommons.org/ns#"
   xmlns:rdf="http://www.w3.org/1999/02/22-rdf-syntax-ns#"
   xmlns:svg="http://www.w3.org/2000/svg"
   xmlns="http://www.w3.org/2000/svg"
   xmlns:sodipodi="http://sodipodi.sourceforge.net/DTD/sodipodi-0.dtd"
   xmlns:inkscape="http://www.inkscape.org/namespaces/inkscape"
   xml:space="preserve"
   width="254.5mm"
   height="750mm"
   version="1.1"
   style="shape-rendering:geometricPrecision; text-rendering:geometricPrecision; image-rendering:optimizeQuality; fill-rule:evenodd; clip-rule:evenodd"
   viewBox="0 0 25450 75000"
   id="svg2"
   inkscape:version="0.91 r13725"
   sodipodi:docname="004.svg"><metadata
     id="metadata51242"><rdf:RDF><cc:Work
         rdf:about=""><dc:format>image/svg+xml</dc:format><dc:type
           rdf:resource="http://purl.org/dc/dcmitype/StillImage" /><dc:title></dc:title></cc:Work></rdf:RDF></metadata><sodipodi:namedview
     pagecolor="#ffffff"
     bordercolor="#666666"
     borderopacity="1"
     objecttolerance="10"
     gridtolerance="10"
     guidetolerance="10"
     inkscape:pageopacity="0"
     inkscape:pageshadow="2"
     inkscape:window-width="1920"
     inkscape:window-height="1018"
     id="namedview51240"
     showgrid="false"
     inkscape:zoom="1.4208948"
     inkscape:cx="476.72103"
     inkscape:cy="2379.1552"
     inkscape:window-x="-8"
     inkscape:window-y="-8"
     inkscape:window-maximized="1"
     inkscape:current-layer="svg2" /><defs
     id="defs4"><style
       type="text/css"
       id="style6"><![CDATA[
       svg {
                position: absolute;
            }
    .str16 {stroke:red;stroke-width:59.27;stroke-linecap:round;stroke-linejoin:round}
    .str17 {stroke:yellow;stroke-width:59.27;stroke-linecap:round;stroke-linejoin:round}
    .str20 {stroke:#DDA56E;stroke-width:21.17;stroke-linecap:round;stroke-linejoin:round}
    .str18 {stroke:red;stroke-width:21.17;stroke-linecap:round;stroke-linejoin:round}
    .str21 {stroke:yellow;stroke-width:21.17;stroke-linecap:round;stroke-linejoin:round}
    .str15 {stroke:black;stroke-width:8.47;stroke-linecap:round;stroke-linejoin:round}
    .str0 {stroke:black;stroke-width:29.63;stroke-linecap:round;stroke-linejoin:round}
    .str1 {stroke:black;stroke-width:16.93;stroke-linecap:round;stroke-linejoin:round}
    .str10 {stroke:gray;stroke-width:16.93;stroke-linecap:round;stroke-linejoin:round}
    .str4 {stroke:black;stroke-width:4.23;stroke-linecap:round;stroke-linejoin:round}
    .str14 {stroke:#0037DD;stroke-width:4.23;stroke-linecap:round;stroke-linejoin:round}
    .str2 {stroke:#006EDD;stroke-width:4.23;stroke-linecap:round;stroke-linejoin:round}
    .str5 {stroke:#00B85C;stroke-width:4.23;stroke-linecap:round;stroke-linejoin:round}
    .str3 {stroke:#00DD00;stroke-width:4.23;stroke-linecap:round;stroke-linejoin:round}
    .str9 {stroke:lime;stroke-width:4.23;stroke-linecap:round;stroke-linejoin:round}
    .str12 {stroke:gray;stroke-width:4.23;stroke-linecap:round;stroke-linejoin:round}
    .str13 {stroke:#989898;stroke-width:4.23;stroke-linecap:round;stroke-linejoin:round}
    .str11 {stroke:#BABABA;stroke-width:4.23;stroke-linecap:round;stroke-linejoin:round}
    .str7 {stroke:red;stroke-width:4.23;stroke-linecap:round;stroke-linejoin:round}
    .str8 {stroke:#FF7F00;stroke-width:4.23;stroke-linecap:round;stroke-linejoin:round}
    .str6 {stroke:yellow;stroke-width:4.23;stroke-linecap:round;stroke-linejoin:round}
    .str23 {stroke:#00BFFF;stroke-width:25.4;stroke-linecap:round;stroke-linejoin:round}
    .str22 {stroke:#37DD00;stroke-width:25.4;stroke-linecap:round;stroke-linejoin:round}
    .str19 {stroke:black;stroke-width:12.7;stroke-linecap:round;stroke-linejoin:round}
    .fil0 {fill:none}
    .fil1 {fill:black}
    .fil13 {fill:#0037DD}
    .fil2 {fill:#006EDD}
    .fil3 {fill:#00B85C}
    .fil4 {fill:#00DD00}
    .fil9 {fill:lime}
    .fil7 {fill:gray}
    .fil12 {fill:#989898}
    .fil11 {fill:#B85C00}
    .fil10 {fill:#BABABA}
    .fil14 {fill:#FCFCFC}
    .fil6 {fill:red}
    .fil8 {fill:#FF7F00}
    .fil5 {fill:yellow}
   ]]></style></defs><g
     id="Слой_x0020_1"><g
       id="g55240"><polygon
         class="fil1"
         points="13415,5878 13394,5878 13352,5976 13352,5976 13347,5980 13347,5984 13343,5988 13343,5996 13339,6001 13331,6018 13343,6018 13398,5900 "
         id="polygon11730" /><polygon
         class="fil1"
         points="13415,5878 13398,5900 13377,6018 13390,6018 "
         id="polygon11732" /><polygon
         class="fil1"
         points="13331,5878 13305,5878 13280,6018 13297,6018 13318,5900 "
         id="polygon11734" /><polygon
         class="fil1"
         points="13331,5878 13318,5900 13331,6018 13339,6001 13339,5980 "
         id="polygon11736" /><polygon
         class="fil0 str1"
         points="13301,6205 13297,6196 13288,6191 13276,6196 13271,6205 13276,6217 13288,6221 13297,6217 "
         id="polygon11738" /><polyline
         class="fil0 str1"
         points="13288,6196 13288,6056 12856,6056 "
         id="polyline11740" /><polygon
         class="fil0 str1"
         points="13174,6060 13165,6014 13140,5972 13098,5946 13051,5938 13005,5946 12967,5972 12941,6014 12933,6060 12941,6107 12967,6145 13005,6170 13051,6183 13098,6170 13140,6145 13165,6107 "
         id="polygon11742" /><polyline
         class="fil0 str1"
         points="13229,5865 13229,6289 13191,6276 13157,6276 13022,6293 12992,6281 12954,6276 12920,6281 12886,6293 "
         id="polyline11744" /><polyline
         class="fil0 str1"
         points="13229,5865 13191,5853 13157,5848 13022,5865 12992,5853 12954,5848 12920,5853 12886,5865 12886,6293 "
         id="polyline11746" /><polygon
         class="fil4"
         points="13051,5938 13005,5946 13098,5946 "
         id="polygon11748" /><polygon
         class="fil4"
         points="13005,5946 12967,5972 13140,5972 "
         id="polygon11750" /><polygon
         class="fil4"
         points="13005,5946 13098,5946 13140,5972 "
         id="polygon11752" /><polygon
         class="fil4"
         points="12967,5972 12941,6010 13165,6010 "
         id="polygon11754" /><polygon
         class="fil4"
         points="12967,5972 13140,5972 13165,6010 "
         id="polygon11756" /><polygon
         class="fil4"
         points="12941,6010 12933,6056 13174,6056 "
         id="polygon11758" /><polygon
         class="fil4"
         points="12941,6010 13165,6010 13174,6056 "
         id="polygon11760" /><polygon
         class="fil4"
         points="12933,6056 13174,6056 13174,6056 "
         id="polygon11762" /><polygon
         class="fil4"
         points="12933,6056 13174,6056 13174,6056 "
         id="polygon11764" /><polygon
         class="fil0 str3"
         points="12933,6056 13174,6056 "
         id="polygon11766" /><polyline
         class="fil0 str3"
         points="12933,6060 13174,6060 12933,6056 "
         id="polyline11768" /><polygon
         class="fil4"
         points="12933,6060 12941,6103 13165,6103 "
         id="polygon11770" /><polygon
         class="fil4"
         points="12933,6060 13174,6060 13165,6103 "
         id="polygon11772" /><polyline
         class="fil0 str3"
         points="12941,6107 13165,6107 12941,6103 "
         id="polyline11774" /><polygon
         class="fil4"
         points="12941,6107 12967,6145 13140,6145 "
         id="polygon11776" /><polygon
         class="fil4"
         points="12941,6107 13165,6107 13140,6145 "
         id="polygon11778" /><polygon
         class="fil0 str3"
         points="12967,6145 13140,6145 "
         id="polygon11780" /><polygon
         class="fil4"
         points="12967,6145 13005,6170 13102,6170 "
         id="polygon11782" /><polygon
         class="fil4"
         points="12967,6145 13140,6145 13102,6170 "
         id="polygon11784" /><polygon
         class="fil0 str3"
         points="13005,6170 13098,6170 "
         id="polygon11786" /><polygon
         class="fil4"
         points="13009,6170 13098,6170 13051,6183 "
         id="polygon11788" /><line
         class="fil0 str1"
         x1="12856"
         y1="6056"
         x2="13288"
         y2="6056"
         id="line11790" /><polygon
         class="fil0 str1"
         points="12657,6458 13449,6458 13449,5658 12657,5658 "
         id="polygon11792" /></g><metadata
       id="CorelCorpID_0Corel-Layer" /></g></svg>