<?xml version="1.0" encoding="UTF-8" standalone="no"?>
<!-- Creator: CorelDRAW X8 -->

<svg
   xmlns:dc="http://purl.org/dc/elements/1.1/"
   xmlns:cc="http://creativecommons.org/ns#"
   xmlns:rdf="http://www.w3.org/1999/02/22-rdf-syntax-ns#"
   xmlns:svg="http://www.w3.org/2000/svg"
   xmlns="http://www.w3.org/2000/svg"
   xmlns:sodipodi="http://sodipodi.sourceforge.net/DTD/sodipodi-0.dtd"
   xmlns:inkscape="http://www.inkscape.org/namespaces/inkscape"
   xml:space="preserve"
   width="254.5mm"
   height="750mm"
   version="1.1"
   style="shape-rendering:geometricPrecision; text-rendering:geometricPrecision; image-rendering:optimizeQuality; fill-rule:evenodd; clip-rule:evenodd"
   viewBox="0 0 25450 75000"
   id="svg2"
   inkscape:version="0.91 r13725"
   sodipodi:docname="005.svg"><metadata
     id="metadata51242"><rdf:RDF><cc:Work
         rdf:about=""><dc:format>image/svg+xml</dc:format><dc:type
           rdf:resource="http://purl.org/dc/dcmitype/StillImage" /><dc:title></dc:title></cc:Work></rdf:RDF></metadata><sodipodi:namedview
     pagecolor="#ffffff"
     bordercolor="#666666"
     borderopacity="1"
     objecttolerance="10"
     gridtolerance="10"
     guidetolerance="10"
     inkscape:pageopacity="0"
     inkscape:pageshadow="2"
     inkscape:window-width="1920"
     inkscape:window-height="1018"
     id="namedview51240"
     showgrid="false"
     inkscape:zoom="1.4208948"
     inkscape:cx="476.72103"
     inkscape:cy="2379.1552"
     inkscape:window-x="-8"
     inkscape:window-y="-8"
     inkscape:window-maximized="1"
     inkscape:current-layer="svg2" /><defs
     id="defs4"><style
       type="text/css"
       id="style6"><![CDATA[
       svg {
                position: absolute;
            }
    .str16 {stroke:red;stroke-width:59.27;stroke-linecap:round;stroke-linejoin:round}
    .str17 {stroke:yellow;stroke-width:59.27;stroke-linecap:round;stroke-linejoin:round}
    .str20 {stroke:#DDA56E;stroke-width:21.17;stroke-linecap:round;stroke-linejoin:round}
    .str18 {stroke:red;stroke-width:21.17;stroke-linecap:round;stroke-linejoin:round}
    .str21 {stroke:yellow;stroke-width:21.17;stroke-linecap:round;stroke-linejoin:round}
    .str15 {stroke:black;stroke-width:8.47;stroke-linecap:round;stroke-linejoin:round}
    .str0 {stroke:black;stroke-width:29.63;stroke-linecap:round;stroke-linejoin:round}
    .str1 {stroke:black;stroke-width:16.93;stroke-linecap:round;stroke-linejoin:round}
    .str10 {stroke:gray;stroke-width:16.93;stroke-linecap:round;stroke-linejoin:round}
    .str4 {stroke:black;stroke-width:4.23;stroke-linecap:round;stroke-linejoin:round}
    .str14 {stroke:#0037DD;stroke-width:4.23;stroke-linecap:round;stroke-linejoin:round}
    .str2 {stroke:#006EDD;stroke-width:4.23;stroke-linecap:round;stroke-linejoin:round}
    .str5 {stroke:#00B85C;stroke-width:4.23;stroke-linecap:round;stroke-linejoin:round}
    .str3 {stroke:#00DD00;stroke-width:4.23;stroke-linecap:round;stroke-linejoin:round}
    .str9 {stroke:lime;stroke-width:4.23;stroke-linecap:round;stroke-linejoin:round}
    .str12 {stroke:gray;stroke-width:4.23;stroke-linecap:round;stroke-linejoin:round}
    .str13 {stroke:#989898;stroke-width:4.23;stroke-linecap:round;stroke-linejoin:round}
    .str11 {stroke:#BABABA;stroke-width:4.23;stroke-linecap:round;stroke-linejoin:round}
    .str7 {stroke:red;stroke-width:4.23;stroke-linecap:round;stroke-linejoin:round}
    .str8 {stroke:#FF7F00;stroke-width:4.23;stroke-linecap:round;stroke-linejoin:round}
    .str6 {stroke:yellow;stroke-width:4.23;stroke-linecap:round;stroke-linejoin:round}
    .str23 {stroke:#00BFFF;stroke-width:25.4;stroke-linecap:round;stroke-linejoin:round}
    .str22 {stroke:#37DD00;stroke-width:25.4;stroke-linecap:round;stroke-linejoin:round}
    .str19 {stroke:black;stroke-width:12.7;stroke-linecap:round;stroke-linejoin:round}
    .fil0 {fill:none}
    .fil1 {fill:black}
    .fil13 {fill:#0037DD}
    .fil2 {fill:#006EDD}
    .fil3 {fill:#00B85C}
    .fil4 {fill:#00DD00}
    .fil9 {fill:lime}
    .fil7 {fill:gray}
    .fil12 {fill:#989898}
    .fil11 {fill:#B85C00}
    .fil10 {fill:#BABABA}
    .fil14 {fill:#FCFCFC}
    .fil6 {fill:red}
    .fil8 {fill:#FF7F00}
    .fil5 {fill:yellow}
   ]]></style></defs><g
     id="Слой_x0020_1"><g
       id="g55274"><polygon
         class="fil2"
         points="12772,6987 13077,6987 13077,6987 "
         id="polygon11794" /><polygon
         class="fil2"
         points="12772,6987 12873,7127 13182,7127 "
         id="polygon11796" /><polygon
         class="fil2"
         points="12772,6987 13077,6987 13182,7127 "
         id="polygon11798" /><path
         class="fil0 str2"
         d="M12878 7127l203 0m-208 0l309 0"
         id="path11800" /><polygon
         class="fil2"
         points="12878,7127 13081,7127 13081,7127 "
         id="polygon11802" /><polygon
         class="fil0 str1"
         points="12657,7461 13449,7461 13449,6661 12657,6661 "
         id="polygon11804" /><polyline
         class="fil0 str1"
         points="12772,6987 12772,7191 13081,7191 13081,7127 12878,7127 12772,6987 13077,6987 13182,7127 13081,7127 "
         id="polyline11806" /><polygon
         class="fil1"
         points="13195,6979 13182,6987 13204,6987 "
         id="polygon11808" /><polygon
         class="fil1"
         points="13182,6987 13204,7000 13221,7000 "
         id="polygon11810" /><polygon
         class="fil1"
         points="13182,6987 13204,6987 13221,7000 "
         id="polygon11812" /><polyline
         class="fil0 str4"
         points="13204,7004 13225,7004 13204,7000 "
         id="polyline11814" /><polygon
         class="fil1"
         points="13208,7004 13225,7030 13242,7030 "
         id="polygon11816" /><polygon
         class="fil1"
         points="13208,7004 13225,7004 13242,7030 "
         id="polygon11818" /><polygon
         class="fil0 str4"
         points="13225,7030 13242,7030 "
         id="polygon11820" /><polygon
         class="fil1"
         points="13225,7030 13233,7063 13246,7063 "
         id="polygon11822" /><polygon
         class="fil1"
         points="13225,7030 13242,7030 13246,7063 "
         id="polygon11824" /><polygon
         class="fil0 str4"
         points="13233,7063 13246,7063 "
         id="polygon11826" /><polygon
         class="fil1"
         points="13233,7063 13229,7077 13246,7077 "
         id="polygon11828" /><polygon
         class="fil1"
         points="13233,7063 13246,7063 13246,7077 "
         id="polygon11830" /><polygon
         class="fil1"
         points="13212,7077 13212,7089 13225,7089 "
         id="polygon11832" /><polygon
         class="fil1"
         points="13229,7077 13229,7089 13242,7089 "
         id="polygon11834" /><polygon
         class="fil1"
         points="13229,7077 13246,7077 13242,7089 "
         id="polygon11836" /><polygon
         class="fil1"
         points="13212,7089 13208,7093 13229,7093 "
         id="polygon11838" /><polygon
         class="fil1"
         points="13212,7089 13225,7089 13229,7093 "
         id="polygon11840" /><polygon
         class="fil1"
         points="13229,7089 13229,7093 13242,7093 "
         id="polygon11842" /><polygon
         class="fil1"
         points="13229,7089 13242,7089 13242,7093 "
         id="polygon11844" /><line
         class="fil0 str4"
         x1="13259"
         y1="7093"
         x2="13254"
         y2="7093"
         id="line11846" /><polyline
         class="fil0 str4"
         points="13208,7098 13242,7098 13208,7093 "
         id="polyline11848" /><line
         class="fil0 str4"
         x1="13246"
         y1="7098"
         x2="13254"
         y2="7098"
         id="line11850" /><polygon
         class="fil1"
         points="13208,7098 13208,7106 13254,7106 "
         id="polygon11852" /><polygon
         class="fil1"
         points="13208,7098 13254,7098 13254,7106 "
         id="polygon11854" /><polygon
         class="fil1"
         points="13208,7106 13212,7118 13250,7118 "
         id="polygon11856" /><polygon
         class="fil1"
         points="13208,7106 13254,7106 13250,7118 "
         id="polygon11858" /><polygon
         class="fil1"
         points="13212,7118 13250,7118 13221,7139 "
         id="polygon11860" /><polygon
         class="fil1"
         points="13373,6984 13356,6984 13288,7123 13305,7123 13322,7080 13369,7080 13331,7063 13352,7022 13352,7017 13356,7013 13356,7008 13360,7004 13360,6996 "
         id="polygon11862" /><polygon
         class="fil1"
         points="13373,6984 13360,6996 13360,7008 13364,7013 13364,7025 13369,7063 13331,7063 13369,7080 13377,7123 13394,7123 "
         id="polygon11864" /></g><metadata
       id="CorelCorpID_0Corel-Layer" /></g></svg>