<?xml version="1.0" encoding="UTF-8" standalone="no"?>
<!-- Creator: CorelDRAW X8 -->

<svg
   xmlns:dc="http://purl.org/dc/elements/1.1/"
   xmlns:cc="http://creativecommons.org/ns#"
   xmlns:rdf="http://www.w3.org/1999/02/22-rdf-syntax-ns#"
   xmlns:svg="http://www.w3.org/2000/svg"
   xmlns="http://www.w3.org/2000/svg"
   xmlns:sodipodi="http://sodipodi.sourceforge.net/DTD/sodipodi-0.dtd"
   xmlns:inkscape="http://www.inkscape.org/namespaces/inkscape"
   xml:space="preserve"
   width="254.5mm"
   height="750mm"
   version="1.1"
   style="shape-rendering:geometricPrecision; text-rendering:geometricPrecision; image-rendering:optimizeQuality; fill-rule:evenodd; clip-rule:evenodd"
   viewBox="0 0 25450 75000"
   id="svg2"
   inkscape:version="0.91 r13725"
   sodipodi:docname="006.svg"><metadata
     id="metadata51242"><rdf:RDF><cc:Work
         rdf:about=""><dc:format>image/svg+xml</dc:format><dc:type
           rdf:resource="http://purl.org/dc/dcmitype/StillImage" /><dc:title></dc:title></cc:Work></rdf:RDF></metadata><sodipodi:namedview
     pagecolor="#ffffff"
     bordercolor="#666666"
     borderopacity="1"
     objecttolerance="10"
     gridtolerance="10"
     guidetolerance="10"
     inkscape:pageopacity="0"
     inkscape:pageshadow="2"
     inkscape:window-width="1920"
     inkscape:window-height="1018"
     id="namedview51240"
     showgrid="false"
     inkscape:zoom="1.4208948"
     inkscape:cx="476.72103"
     inkscape:cy="2379.1552"
     inkscape:window-x="-8"
     inkscape:window-y="-8"
     inkscape:window-maximized="1"
     inkscape:current-layer="svg2" /><defs
     id="defs4"><style
       type="text/css"
       id="style6"><![CDATA[
       svg {
                position: absolute;
            }
    .str16 {stroke:red;stroke-width:59.27;stroke-linecap:round;stroke-linejoin:round}
    .str17 {stroke:yellow;stroke-width:59.27;stroke-linecap:round;stroke-linejoin:round}
    .str20 {stroke:#DDA56E;stroke-width:21.17;stroke-linecap:round;stroke-linejoin:round}
    .str18 {stroke:red;stroke-width:21.17;stroke-linecap:round;stroke-linejoin:round}
    .str21 {stroke:yellow;stroke-width:21.17;stroke-linecap:round;stroke-linejoin:round}
    .str15 {stroke:black;stroke-width:8.47;stroke-linecap:round;stroke-linejoin:round}
    .str0 {stroke:black;stroke-width:29.63;stroke-linecap:round;stroke-linejoin:round}
    .str1 {stroke:black;stroke-width:16.93;stroke-linecap:round;stroke-linejoin:round}
    .str10 {stroke:gray;stroke-width:16.93;stroke-linecap:round;stroke-linejoin:round}
    .str4 {stroke:black;stroke-width:4.23;stroke-linecap:round;stroke-linejoin:round}
    .str14 {stroke:#0037DD;stroke-width:4.23;stroke-linecap:round;stroke-linejoin:round}
    .str2 {stroke:#006EDD;stroke-width:4.23;stroke-linecap:round;stroke-linejoin:round}
    .str5 {stroke:#00B85C;stroke-width:4.23;stroke-linecap:round;stroke-linejoin:round}
    .str3 {stroke:#00DD00;stroke-width:4.23;stroke-linecap:round;stroke-linejoin:round}
    .str9 {stroke:lime;stroke-width:4.23;stroke-linecap:round;stroke-linejoin:round}
    .str12 {stroke:gray;stroke-width:4.23;stroke-linecap:round;stroke-linejoin:round}
    .str13 {stroke:#989898;stroke-width:4.23;stroke-linecap:round;stroke-linejoin:round}
    .str11 {stroke:#BABABA;stroke-width:4.23;stroke-linecap:round;stroke-linejoin:round}
    .str7 {stroke:red;stroke-width:4.23;stroke-linecap:round;stroke-linejoin:round}
    .str8 {stroke:#FF7F00;stroke-width:4.23;stroke-linecap:round;stroke-linejoin:round}
    .str6 {stroke:yellow;stroke-width:4.23;stroke-linecap:round;stroke-linejoin:round}
    .str23 {stroke:#00BFFF;stroke-width:25.4;stroke-linecap:round;stroke-linejoin:round}
    .str22 {stroke:#37DD00;stroke-width:25.4;stroke-linecap:round;stroke-linejoin:round}
    .str19 {stroke:black;stroke-width:12.7;stroke-linecap:round;stroke-linejoin:round}
    .fil0 {fill:none}
    .fil1 {fill:black}
    .fil13 {fill:#0037DD}
    .fil2 {fill:#006EDD}
    .fil3 {fill:#00B85C}
    .fil4 {fill:#00DD00}
    .fil9 {fill:lime}
    .fil7 {fill:gray}
    .fil12 {fill:#989898}
    .fil11 {fill:#B85C00}
    .fil10 {fill:#BABABA}
    .fil14 {fill:#FCFCFC}
    .fil6 {fill:red}
    .fil8 {fill:#FF7F00}
    .fil5 {fill:yellow}
   ]]></style></defs><g
     id="Слой_x0020_1"><g
       id="g55312"><polygon
         class="fil3"
         points="12772,8088 13077,8088 13077,8088 "
         id="polygon11866" /><polygon
         class="fil3"
         points="12772,8088 12873,8228 13182,8228 "
         id="polygon11868" /><polygon
         class="fil3"
         points="12772,8088 13077,8088 13182,8228 "
         id="polygon11870" /><path
         class="fil0 str5"
         d="M12878 8228l203 0m-208 0l309 0"
         id="path11872" /><polygon
         class="fil3"
         points="12878,8228 13081,8228 13081,8228 "
         id="polygon11874" /><polygon
         class="fil0 str1"
         points="12657,8562 13449,8562 13449,7757 12657,7757 "
         id="polygon11876" /><polyline
         class="fil0 str1"
         points="12772,8088 12772,8287 13081,8287 13081,8228 12878,8228 12772,8088 13077,8088 13182,8228 13081,8228 "
         id="polyline11878" /><polygon
         class="fil1"
         points="13195,8080 13182,8088 13204,8088 "
         id="polygon11880" /><polygon
         class="fil1"
         points="13182,8088 13204,8101 13221,8101 "
         id="polygon11882" /><polygon
         class="fil1"
         points="13182,8088 13204,8088 13221,8101 "
         id="polygon11884" /><polyline
         class="fil0 str4"
         points="13204,8105 13225,8105 13204,8101 "
         id="polyline11886" /><polygon
         class="fil1"
         points="13208,8105 13225,8130 13242,8130 "
         id="polygon11888" /><polygon
         class="fil1"
         points="13208,8105 13225,8105 13242,8130 "
         id="polygon11890" /><polygon
         class="fil0 str4"
         points="13225,8130 13242,8130 "
         id="polygon11892" /><polygon
         class="fil1"
         points="13225,8130 13233,8164 13246,8164 "
         id="polygon11894" /><polygon
         class="fil1"
         points="13225,8130 13242,8130 13246,8164 "
         id="polygon11896" /><polygon
         class="fil0 str4"
         points="13233,8164 13246,8164 "
         id="polygon11898" /><polygon
         class="fil1"
         points="13233,8164 13229,8177 13246,8177 "
         id="polygon11900" /><polygon
         class="fil1"
         points="13233,8164 13246,8164 13246,8177 "
         id="polygon11902" /><polygon
         class="fil1"
         points="13212,8177 13212,8190 13225,8190 "
         id="polygon11904" /><polygon
         class="fil1"
         points="13229,8177 13229,8190 13242,8190 "
         id="polygon11906" /><polygon
         class="fil1"
         points="13229,8177 13246,8177 13242,8190 "
         id="polygon11908" /><polygon
         class="fil1"
         points="13212,8190 13208,8194 13229,8194 "
         id="polygon11910" /><polygon
         class="fil1"
         points="13212,8190 13225,8190 13229,8194 "
         id="polygon11912" /><polygon
         class="fil1"
         points="13229,8190 13229,8194 13242,8194 "
         id="polygon11914" /><polygon
         class="fil1"
         points="13229,8190 13242,8190 13242,8194 "
         id="polygon11916" /><line
         class="fil0 str4"
         x1="13259"
         y1="8190"
         x2="13254"
         y2="8194"
         id="line11918" /><polyline
         class="fil0 str4"
         points="13242,8198 13208,8194 13242,8194 "
         id="polyline11920" /><line
         class="fil0 str4"
         x1="13246"
         y1="8194"
         x2="13254"
         y2="8194"
         id="line11922" /><polygon
         class="fil1"
         points="13208,8198 13208,8206 13254,8206 "
         id="polygon11924" /><polygon
         class="fil1"
         points="13208,8198 13254,8198 13254,8206 "
         id="polygon11926" /><polygon
         class="fil1"
         points="13208,8206 13212,8219 13250,8219 "
         id="polygon11928" /><polygon
         class="fil1"
         points="13208,8206 13254,8206 13250,8219 "
         id="polygon11930" /><polygon
         class="fil1"
         points="13212,8219 13250,8219 13221,8237 "
         id="polygon11932" /><polygon
         class="fil1"
         points="13432,8080 13411,8080 13364,8181 13364,8181 13360,8185 13360,8190 13356,8194 13356,8202 13352,8206 13343,8228 13356,8228 13411,8105 "
         id="polygon11934" /><polygon
         class="fil1"
         points="13432,8080 13411,8105 13390,8228 13403,8228 "
         id="polygon11936" /><polygon
         class="fil1"
         points="13343,8080 13318,8080 13292,8228 13309,8228 13331,8101 "
         id="polygon11938" /><polygon
         class="fil1"
         points="13343,8080 13331,8101 13343,8228 13352,8206 13352,8181 "
         id="polygon11940" /></g><metadata
       id="CorelCorpID_0Corel-Layer" /></g></svg>