<?xml version="1.0" encoding="UTF-8" standalone="no"?>
<!-- Creator: CorelDRAW X8 -->

<svg
   xmlns:dc="http://purl.org/dc/elements/1.1/"
   xmlns:cc="http://creativecommons.org/ns#"
   xmlns:rdf="http://www.w3.org/1999/02/22-rdf-syntax-ns#"
   xmlns:svg="http://www.w3.org/2000/svg"
   xmlns="http://www.w3.org/2000/svg"
   xmlns:sodipodi="http://sodipodi.sourceforge.net/DTD/sodipodi-0.dtd"
   xmlns:inkscape="http://www.inkscape.org/namespaces/inkscape"
   xml:space="preserve"
   width="254.5mm"
   height="750mm"
   version="1.1"
   style="shape-rendering:geometricPrecision; text-rendering:geometricPrecision; image-rendering:optimizeQuality; fill-rule:evenodd; clip-rule:evenodd"
   viewBox="0 0 25450 75000"
   id="svg2"
   inkscape:version="0.91 r13725"
   sodipodi:docname="007.svg"><metadata
     id="metadata51242"><rdf:RDF><cc:Work
         rdf:about=""><dc:format>image/svg+xml</dc:format><dc:type
           rdf:resource="http://purl.org/dc/dcmitype/StillImage" /><dc:title></dc:title></cc:Work></rdf:RDF></metadata><sodipodi:namedview
     pagecolor="#ffffff"
     bordercolor="#666666"
     borderopacity="1"
     objecttolerance="10"
     gridtolerance="10"
     guidetolerance="10"
     inkscape:pageopacity="0"
     inkscape:pageshadow="2"
     inkscape:window-width="1920"
     inkscape:window-height="1018"
     id="namedview51240"
     showgrid="false"
     inkscape:zoom="1.4208948"
     inkscape:cx="476.72103"
     inkscape:cy="2379.1552"
     inkscape:window-x="-8"
     inkscape:window-y="-8"
     inkscape:window-maximized="1"
     inkscape:current-layer="svg2" /><defs
     id="defs4"><style
       type="text/css"
       id="style6"><![CDATA[
       svg {
                position: absolute;
            }
    .str16 {stroke:red;stroke-width:59.27;stroke-linecap:round;stroke-linejoin:round}
    .str17 {stroke:yellow;stroke-width:59.27;stroke-linecap:round;stroke-linejoin:round}
    .str20 {stroke:#DDA56E;stroke-width:21.17;stroke-linecap:round;stroke-linejoin:round}
    .str18 {stroke:red;stroke-width:21.17;stroke-linecap:round;stroke-linejoin:round}
    .str21 {stroke:yellow;stroke-width:21.17;stroke-linecap:round;stroke-linejoin:round}
    .str15 {stroke:black;stroke-width:8.47;stroke-linecap:round;stroke-linejoin:round}
    .str0 {stroke:black;stroke-width:29.63;stroke-linecap:round;stroke-linejoin:round}
    .str1 {stroke:black;stroke-width:16.93;stroke-linecap:round;stroke-linejoin:round}
    .str10 {stroke:gray;stroke-width:16.93;stroke-linecap:round;stroke-linejoin:round}
    .str4 {stroke:black;stroke-width:4.23;stroke-linecap:round;stroke-linejoin:round}
    .str14 {stroke:#0037DD;stroke-width:4.23;stroke-linecap:round;stroke-linejoin:round}
    .str2 {stroke:#006EDD;stroke-width:4.23;stroke-linecap:round;stroke-linejoin:round}
    .str5 {stroke:#00B85C;stroke-width:4.23;stroke-linecap:round;stroke-linejoin:round}
    .str3 {stroke:#00DD00;stroke-width:4.23;stroke-linecap:round;stroke-linejoin:round}
    .str9 {stroke:lime;stroke-width:4.23;stroke-linecap:round;stroke-linejoin:round}
    .str12 {stroke:gray;stroke-width:4.23;stroke-linecap:round;stroke-linejoin:round}
    .str13 {stroke:#989898;stroke-width:4.23;stroke-linecap:round;stroke-linejoin:round}
    .str11 {stroke:#BABABA;stroke-width:4.23;stroke-linecap:round;stroke-linejoin:round}
    .str7 {stroke:red;stroke-width:4.23;stroke-linecap:round;stroke-linejoin:round}
    .str8 {stroke:#FF7F00;stroke-width:4.23;stroke-linecap:round;stroke-linejoin:round}
    .str6 {stroke:yellow;stroke-width:4.23;stroke-linecap:round;stroke-linejoin:round}
    .str23 {stroke:#00BFFF;stroke-width:25.4;stroke-linecap:round;stroke-linejoin:round}
    .str22 {stroke:#37DD00;stroke-width:25.4;stroke-linecap:round;stroke-linejoin:round}
    .str19 {stroke:black;stroke-width:12.7;stroke-linecap:round;stroke-linejoin:round}
    .fil0 {fill:none}
    .fil1 {fill:black}
    .fil13 {fill:#0037DD}
    .fil2 {fill:#006EDD}
    .fil3 {fill:#00B85C}
    .fil4 {fill:#00DD00}
    .fil9 {fill:lime}
    .fil7 {fill:gray}
    .fil12 {fill:#989898}
    .fil11 {fill:#B85C00}
    .fil10 {fill:#BABABA}
    .fil14 {fill:#FCFCFC}
    .fil6 {fill:red}
    .fil8 {fill:#FF7F00}
    .fil5 {fill:yellow}
   ]]></style></defs><g
     id="Слой_x0020_1"><g
       id="g55352"><polygon
         class="fil5"
         points="12772,9130 13077,9130 13077,9130 "
         id="polygon11942" /><polygon
         class="fil5"
         points="12772,9130 12873,9269 13182,9269 "
         id="polygon11944" /><polygon
         class="fil5"
         points="12772,9130 13077,9130 13182,9269 "
         id="polygon11946" /><path
         class="fil0 str6"
         d="M12878 9269l203 4m-208 -4l309 0"
         id="path11948" /><polygon
         class="fil5"
         points="12878,9273 13081,9273 13081,9273 "
         id="polygon11950" /><polygon
         class="fil0 str1"
         points="12657,9604 13449,9604 13449,8804 12657,8804 "
         id="polygon11952" /><polyline
         class="fil0 str1"
         points="12772,9130 12772,9333 13081,9333 13081,9273 12878,9273 12772,9130 13077,9130 13182,9269 13081,9273 "
         id="polyline11954" /><polygon
         class="fil1"
         points="13195,9125 13182,9130 13204,9130 "
         id="polygon11956" /><polygon
         class="fil1"
         points="13182,9130 13204,9142 13221,9142 "
         id="polygon11958" /><polygon
         class="fil1"
         points="13182,9130 13204,9130 13221,9142 "
         id="polygon11960" /><polyline
         class="fil0 str4"
         points="13204,9147 13225,9147 13204,9142 "
         id="polyline11962" /><polygon
         class="fil1"
         points="13208,9147 13225,9171 13242,9171 "
         id="polygon11964" /><polygon
         class="fil1"
         points="13208,9147 13225,9147 13242,9171 "
         id="polygon11966" /><polyline
         class="fil0 str4"
         points="13242,9176 13225,9171 13242,9171 "
         id="polyline11968" /><polygon
         class="fil1"
         points="13225,9176 13233,9206 13246,9206 "
         id="polygon11970" /><polygon
         class="fil1"
         points="13225,9176 13242,9176 13246,9206 "
         id="polygon11972" /><polygon
         class="fil0 str4"
         points="13233,9206 13246,9206 "
         id="polygon11974" /><polygon
         class="fil1"
         points="13233,9206 13229,9223 13246,9223 "
         id="polygon11976" /><polygon
         class="fil1"
         points="13233,9206 13246,9206 13246,9223 "
         id="polygon11978" /><polygon
         class="fil1"
         points="13212,9223 13212,9231 13225,9231 "
         id="polygon11980" /><polygon
         class="fil1"
         points="13229,9223 13229,9231 13242,9231 "
         id="polygon11982" /><polygon
         class="fil1"
         points="13229,9223 13246,9223 13242,9231 "
         id="polygon11984" /><polygon
         class="fil1"
         points="13212,9231 13208,9235 13229,9235 "
         id="polygon11986" /><polygon
         class="fil1"
         points="13212,9231 13225,9231 13229,9235 "
         id="polygon11988" /><polygon
         class="fil1"
         points="13229,9231 13229,9235 13242,9235 "
         id="polygon11990" /><polygon
         class="fil1"
         points="13229,9231 13242,9231 13242,9235 "
         id="polygon11992" /><line
         class="fil0 str4"
         x1="13259"
         y1="9235"
         x2="13254"
         y2="9235"
         id="line11994" /><polyline
         class="fil0 str4"
         points="13208,9240 13242,9240 13208,9235 "
         id="polyline11996" /><line
         class="fil0 str4"
         x1="13246"
         y1="9240"
         x2="13254"
         y2="9240"
         id="line11998" /><polygon
         class="fil1"
         points="13208,9240 13208,9248 13254,9248 "
         id="polygon12000" /><polygon
         class="fil1"
         points="13208,9240 13254,9240 13254,9248 "
         id="polygon12002" /><polygon
         class="fil1"
         points="13208,9248 13212,9261 13250,9261 "
         id="polygon12004" /><polygon
         class="fil1"
         points="13208,9248 13254,9248 13250,9261 "
         id="polygon12006" /><polygon
         class="fil1"
         points="13212,9261 13250,9261 13221,9282 "
         id="polygon12008" /><polygon
         class="fil1"
         points="13369,9206 13364,9209 13364,9214 13360,9218 13360,9223 13356,9226 13356,9226 13352,9231 13347,9231 13343,9231 13373,9235 13373,9226 13377,9223 13377,9218 13381,9214 "
         id="polygon12010" /><polygon
         class="fil1"
         points="13390,9147 13360,9147 13364,9147 13369,9147 13369,9151 13373,9155 13373,9168 13390,9159 "
         id="polygon12012" /><polygon
         class="fil1"
         points="13364,9125 13360,9125 13356,9125 13352,9125 13352,9130 13347,9130 13347,9130 13343,9133 13343,9133 13339,9138 13339,9138 13335,9142 13335,9147 13331,9151 13331,9151 13326,9155 13326,9163 13322,9168 13322,9180 13318,9180 13318,9209 13314,9209 13314,9218 13318,9223 13318,9240 13322,9240 13322,9244 13326,9248 13326,9248 13331,9252 13335,9252 13339,9252 13339,9256 13343,9256 13343,9256 13347,9252 13352,9252 13356,9252 13356,9248 13360,9248 13360,9248 13364,9244 13364,9240 13369,9240 13369,9235 13373,9235 13343,9231 13339,9231 13335,9231 13335,9223 13331,9218 13331,9202 13335,9197 13335,9176 13339,9171 13339,9168 13343,9163 13343,9155 13347,9155 13347,9151 13352,9151 13352,9147 13356,9147 13360,9147 13390,9147 13386,9142 13386,9133 13381,9133 13381,9130 13377,9130 13377,9125 13373,9125 13369,9125 13369,9125 "
         id="polygon12014" /></g><metadata
       id="CorelCorpID_0Corel-Layer" /></g></svg>