<?xml version="1.0" encoding="UTF-8" standalone="no"?>
<!-- Creator: CorelDRAW X8 -->

<svg
   xmlns:dc="http://purl.org/dc/elements/1.1/"
   xmlns:cc="http://creativecommons.org/ns#"
   xmlns:rdf="http://www.w3.org/1999/02/22-rdf-syntax-ns#"
   xmlns:svg="http://www.w3.org/2000/svg"
   xmlns="http://www.w3.org/2000/svg"
   xmlns:sodipodi="http://sodipodi.sourceforge.net/DTD/sodipodi-0.dtd"
   xmlns:inkscape="http://www.inkscape.org/namespaces/inkscape"
   xml:space="preserve"
   width="254.5mm"
   height="750mm"
   version="1.1"
   style="shape-rendering:geometricPrecision; text-rendering:geometricPrecision; image-rendering:optimizeQuality; fill-rule:evenodd; clip-rule:evenodd"
   viewBox="0 0 25450 75000"
   id="svg2"
   inkscape:version="0.91 r13725"
   sodipodi:docname="008.svg"><metadata
     id="metadata51242"><rdf:RDF><cc:Work
         rdf:about=""><dc:format>image/svg+xml</dc:format><dc:type
           rdf:resource="http://purl.org/dc/dcmitype/StillImage" /><dc:title></dc:title></cc:Work></rdf:RDF></metadata><sodipodi:namedview
     pagecolor="#ffffff"
     bordercolor="#666666"
     borderopacity="1"
     objecttolerance="10"
     gridtolerance="10"
     guidetolerance="10"
     inkscape:pageopacity="0"
     inkscape:pageshadow="2"
     inkscape:window-width="1920"
     inkscape:window-height="1018"
     id="namedview51240"
     showgrid="false"
     inkscape:zoom="1.4208948"
     inkscape:cx="476.72103"
     inkscape:cy="2379.1552"
     inkscape:window-x="-8"
     inkscape:window-y="-8"
     inkscape:window-maximized="1"
     inkscape:current-layer="svg2" /><defs
     id="defs4"><style
       type="text/css"
       id="style6"><![CDATA[
       svg {
                position: absolute;
            }
    .str16 {stroke:red;stroke-width:59.27;stroke-linecap:round;stroke-linejoin:round}
    .str17 {stroke:yellow;stroke-width:59.27;stroke-linecap:round;stroke-linejoin:round}
    .str20 {stroke:#DDA56E;stroke-width:21.17;stroke-linecap:round;stroke-linejoin:round}
    .str18 {stroke:red;stroke-width:21.17;stroke-linecap:round;stroke-linejoin:round}
    .str21 {stroke:yellow;stroke-width:21.17;stroke-linecap:round;stroke-linejoin:round}
    .str15 {stroke:black;stroke-width:8.47;stroke-linecap:round;stroke-linejoin:round}
    .str0 {stroke:black;stroke-width:29.63;stroke-linecap:round;stroke-linejoin:round}
    .str1 {stroke:black;stroke-width:16.93;stroke-linecap:round;stroke-linejoin:round}
    .str10 {stroke:gray;stroke-width:16.93;stroke-linecap:round;stroke-linejoin:round}
    .str4 {stroke:black;stroke-width:4.23;stroke-linecap:round;stroke-linejoin:round}
    .str14 {stroke:#0037DD;stroke-width:4.23;stroke-linecap:round;stroke-linejoin:round}
    .str2 {stroke:#006EDD;stroke-width:4.23;stroke-linecap:round;stroke-linejoin:round}
    .str5 {stroke:#00B85C;stroke-width:4.23;stroke-linecap:round;stroke-linejoin:round}
    .str3 {stroke:#00DD00;stroke-width:4.23;stroke-linecap:round;stroke-linejoin:round}
    .str9 {stroke:lime;stroke-width:4.23;stroke-linecap:round;stroke-linejoin:round}
    .str12 {stroke:gray;stroke-width:4.23;stroke-linecap:round;stroke-linejoin:round}
    .str13 {stroke:#989898;stroke-width:4.23;stroke-linecap:round;stroke-linejoin:round}
    .str11 {stroke:#BABABA;stroke-width:4.23;stroke-linecap:round;stroke-linejoin:round}
    .str7 {stroke:red;stroke-width:4.23;stroke-linecap:round;stroke-linejoin:round}
    .str8 {stroke:#FF7F00;stroke-width:4.23;stroke-linecap:round;stroke-linejoin:round}
    .str6 {stroke:yellow;stroke-width:4.23;stroke-linecap:round;stroke-linejoin:round}
    .str23 {stroke:#00BFFF;stroke-width:25.4;stroke-linecap:round;stroke-linejoin:round}
    .str22 {stroke:#37DD00;stroke-width:25.4;stroke-linecap:round;stroke-linejoin:round}
    .str19 {stroke:black;stroke-width:12.7;stroke-linecap:round;stroke-linejoin:round}
    .fil0 {fill:none}
    .fil1 {fill:black}
    .fil13 {fill:#0037DD}
    .fil2 {fill:#006EDD}
    .fil3 {fill:#00B85C}
    .fil4 {fill:#00DD00}
    .fil9 {fill:lime}
    .fil7 {fill:gray}
    .fil12 {fill:#989898}
    .fil11 {fill:#B85C00}
    .fil10 {fill:#BABABA}
    .fil14 {fill:#FCFCFC}
    .fil6 {fill:red}
    .fil8 {fill:#FF7F00}
    .fil5 {fill:yellow}
   ]]></style></defs><g
     id="Слой_x0020_1"><g
       id="g55391"><polygon
         class="fil3"
         points="12928,10353 13115,10353 13115,10353 "
         id="polygon12016" /><polygon
         class="fil3"
         points="12928,10353 12992,10438 13178,10438 "
         id="polygon12018" /><polygon
         class="fil3"
         points="12928,10353 13115,10353 13178,10438 "
         id="polygon12020" /><polyline
         class="fil0 str5"
         points="13115,10438 12992,10438 13178,10438 "
         id="polyline12022" /><polygon
         class="fil3"
         points="12992,10438 13115,10438 13115,10438 "
         id="polygon12024" /><polygon
         class="fil0 str1"
         points="12657,10704 13449,10704 13449,9904 12657,9904 "
         id="polygon12026" /><polygon
         class="fil1"
         points="12801,10531 12810,10535 13055,10099 "
         id="polygon12028" /><polygon
         class="fil1"
         points="12810,10535 13055,10099 13055,10120 "
         id="polygon12030" /><polygon
         class="fil1"
         points="13055,10099 13055,10120 13314,10535 "
         id="polygon12032" /><polygon
         class="fil1"
         points="13055,10120 13314,10535 13297,10526 "
         id="polygon12034" /><polygon
         class="fil1"
         points="13314,10535 13297,10526 12806,10535 "
         id="polygon12036" /><polygon
         class="fil1"
         points="13297,10526 12806,10535 12806,10526 "
         id="polygon12038" /><polyline
         class="fil0 str1"
         points="12928,10353 12928,10476 13115,10476 13115,10438 12992,10438 12928,10353 13115,10353 13178,10438 13115,10438 "
         id="polyline12040" /><line
         class="fil0 str4"
         x1="13165"
         y1="10353"
         x2="13174"
         y2="10348"
         id="line12042" /><polygon
         class="fil1"
         points="13165,10353 13182,10366 13191,10366 "
         id="polygon12044" /><polygon
         class="fil1"
         points="13165,10353 13174,10353 13191,10366 "
         id="polygon12046" /><polyline
         class="fil0 str4"
         points="13195,10369 13182,10366 13191,10366 "
         id="polyline12048" /><polygon
         class="fil1"
         points="13182,10369 13195,10391 13204,10391 "
         id="polygon12050" /><polygon
         class="fil1"
         points="13182,10369 13195,10369 13204,10391 "
         id="polygon12052" /><polygon
         class="fil0 str4"
         points="13195,10391 13204,10391 "
         id="polygon12054" /><polygon
         class="fil1"
         points="13195,10391 13191,10408 13199,10408 "
         id="polygon12056" /><polygon
         class="fil1"
         points="13195,10391 13204,10391 13199,10408 "
         id="polygon12058" /><polygon
         class="fil1"
         points="13182,10408 13182,10416 13191,10416 "
         id="polygon12060" /><polygon
         class="fil1"
         points="13191,10408 13191,10416 13199,10416 "
         id="polygon12062" /><polygon
         class="fil1"
         points="13191,10408 13199,10408 13199,10416 "
         id="polygon12064" /><polygon
         class="fil0 str4"
         points="13182,10416 13191,10416 "
         id="polygon12066" /><polygon
         class="fil0 str4"
         points="13191,10416 13199,10416 "
         id="polygon12068" /><line
         class="fil0 str4"
         x1="13208"
         y1="10416"
         x2="13212"
         y2="10416"
         id="line12070" /><polyline
         class="fil0 str4"
         points="13182,10421 13199,10421 13182,10416 "
         id="polyline12072" /><line
         class="fil0 str4"
         x1="13204"
         y1="10421"
         x2="13208"
         y2="10421"
         id="line12074" /><polygon
         class="fil1"
         points="13178,10421 13178,10424 13208,10424 "
         id="polygon12076" /><polygon
         class="fil1"
         points="13178,10421 13208,10421 13208,10424 "
         id="polygon12078" /><polygon
         class="fil1"
         points="13178,10424 13182,10433 13208,10433 "
         id="polygon12080" /><polygon
         class="fil1"
         points="13178,10424 13208,10424 13208,10433 "
         id="polygon12082" /><polygon
         class="fil1"
         points="13182,10433 13208,10433 13187,10446 "
         id="polygon12084" /><polygon
         class="fil1"
         points="13369,10192 13352,10192 13314,10276 13314,10281 13309,10285 13309,10290 13305,10293 13305,10298 13297,10315 13305,10315 13356,10213 "
         id="polygon12086" /><polygon
         class="fil1"
         points="13369,10192 13356,10213 13335,10315 13347,10315 "
         id="polygon12088" /><polygon
         class="fil1"
         points="13297,10192 13276,10192 13254,10315 13267,10315 13284,10209 "
         id="polygon12090" /><polygon
         class="fil1"
         points="13297,10192 13284,10209 13297,10315 13305,10298 13305,10281 "
         id="polygon12092" /></g><metadata
       id="CorelCorpID_0Corel-Layer" /></g></svg>