<?xml version="1.0" encoding="UTF-8" standalone="no"?>
<!-- Creator: CorelDRAW X8 -->

<svg
   xmlns:dc="http://purl.org/dc/elements/1.1/"
   xmlns:cc="http://creativecommons.org/ns#"
   xmlns:rdf="http://www.w3.org/1999/02/22-rdf-syntax-ns#"
   xmlns:svg="http://www.w3.org/2000/svg"
   xmlns="http://www.w3.org/2000/svg"
   xmlns:sodipodi="http://sodipodi.sourceforge.net/DTD/sodipodi-0.dtd"
   xmlns:inkscape="http://www.inkscape.org/namespaces/inkscape"
   xml:space="preserve"
   width="254.5mm"
   height="750mm"
   version="1.1"
   style="shape-rendering:geometricPrecision; text-rendering:geometricPrecision; image-rendering:optimizeQuality; fill-rule:evenodd; clip-rule:evenodd"
   viewBox="0 0 25450 75000"
   id="svg2"
   inkscape:version="0.91 r13725"
   sodipodi:docname="009.svg"><metadata
     id="metadata51242"><rdf:RDF><cc:Work
         rdf:about=""><dc:format>image/svg+xml</dc:format><dc:type
           rdf:resource="http://purl.org/dc/dcmitype/StillImage" /><dc:title></dc:title></cc:Work></rdf:RDF></metadata><sodipodi:namedview
     pagecolor="#ffffff"
     bordercolor="#666666"
     borderopacity="1"
     objecttolerance="10"
     gridtolerance="10"
     guidetolerance="10"
     inkscape:pageopacity="0"
     inkscape:pageshadow="2"
     inkscape:window-width="1920"
     inkscape:window-height="1018"
     id="namedview51240"
     showgrid="false"
     inkscape:zoom="1.4208948"
     inkscape:cx="476.72103"
     inkscape:cy="2379.1552"
     inkscape:window-x="-8"
     inkscape:window-y="-8"
     inkscape:window-maximized="1"
     inkscape:current-layer="svg2" /><defs
     id="defs4"><style
       type="text/css"
       id="style6"><![CDATA[
       svg {
                position: absolute;
            }
    .str16 {stroke:red;stroke-width:59.27;stroke-linecap:round;stroke-linejoin:round}
    .str17 {stroke:yellow;stroke-width:59.27;stroke-linecap:round;stroke-linejoin:round}
    .str20 {stroke:#DDA56E;stroke-width:21.17;stroke-linecap:round;stroke-linejoin:round}
    .str18 {stroke:red;stroke-width:21.17;stroke-linecap:round;stroke-linejoin:round}
    .str21 {stroke:yellow;stroke-width:21.17;stroke-linecap:round;stroke-linejoin:round}
    .str15 {stroke:black;stroke-width:8.47;stroke-linecap:round;stroke-linejoin:round}
    .str0 {stroke:black;stroke-width:29.63;stroke-linecap:round;stroke-linejoin:round}
    .str1 {stroke:black;stroke-width:16.93;stroke-linecap:round;stroke-linejoin:round}
    .str10 {stroke:gray;stroke-width:16.93;stroke-linecap:round;stroke-linejoin:round}
    .str4 {stroke:black;stroke-width:4.23;stroke-linecap:round;stroke-linejoin:round}
    .str14 {stroke:#0037DD;stroke-width:4.23;stroke-linecap:round;stroke-linejoin:round}
    .str2 {stroke:#006EDD;stroke-width:4.23;stroke-linecap:round;stroke-linejoin:round}
    .str5 {stroke:#00B85C;stroke-width:4.23;stroke-linecap:round;stroke-linejoin:round}
    .str3 {stroke:#00DD00;stroke-width:4.23;stroke-linecap:round;stroke-linejoin:round}
    .str9 {stroke:lime;stroke-width:4.23;stroke-linecap:round;stroke-linejoin:round}
    .str12 {stroke:gray;stroke-width:4.23;stroke-linecap:round;stroke-linejoin:round}
    .str13 {stroke:#989898;stroke-width:4.23;stroke-linecap:round;stroke-linejoin:round}
    .str11 {stroke:#BABABA;stroke-width:4.23;stroke-linecap:round;stroke-linejoin:round}
    .str7 {stroke:red;stroke-width:4.23;stroke-linecap:round;stroke-linejoin:round}
    .str8 {stroke:#FF7F00;stroke-width:4.23;stroke-linecap:round;stroke-linejoin:round}
    .str6 {stroke:yellow;stroke-width:4.23;stroke-linecap:round;stroke-linejoin:round}
    .str23 {stroke:#00BFFF;stroke-width:25.4;stroke-linecap:round;stroke-linejoin:round}
    .str22 {stroke:#37DD00;stroke-width:25.4;stroke-linecap:round;stroke-linejoin:round}
    .str19 {stroke:black;stroke-width:12.7;stroke-linecap:round;stroke-linejoin:round}
    .fil0 {fill:none}
    .fil1 {fill:black}
    .fil13 {fill:#0037DD}
    .fil2 {fill:#006EDD}
    .fil3 {fill:#00B85C}
    .fil4 {fill:#00DD00}
    .fil9 {fill:lime}
    .fil7 {fill:gray}
    .fil12 {fill:#989898}
    .fil11 {fill:#B85C00}
    .fil10 {fill:#BABABA}
    .fil14 {fill:#FCFCFC}
    .fil6 {fill:red}
    .fil8 {fill:#FF7F00}
    .fil5 {fill:yellow}
   ]]></style></defs><g
     id="Слой_x0020_1"><g
       id="g55432"><line
         class="fil0 str7"
         x1="13144"
         y1="11335"
         x2="13149"
         y2="11335"
         id="line12094" /><polygon
         class="fil6"
         points="13144,11335 12869,11491 13144,11491 "
         id="polygon12096" /><line
         class="fil0 str7"
         x1="13144"
         y1="11335"
         x2="13144"
         y2="11491"
         id="line12098" /><polygon
         class="fil6"
         points="12869,11491 13144,11491 13144,11653 "
         id="polygon12100" /><polygon
         class="fil1"
         points="12746,11669 12725,11682 13360,11669 "
         id="polygon12102" /><polygon
         class="fil1"
         points="12725,11682 13360,11669 13381,11682 "
         id="polygon12104" /><polygon
         class="fil1"
         points="13360,11669 13381,11682 13051,11140 "
         id="polygon12106" /><polygon
         class="fil1"
         points="13381,11682 13051,11140 13051,11115 "
         id="polygon12108" /><polygon
         class="fil1"
         points="13051,11140 13051,11115 12746,11669 "
         id="polygon12110" /><polygon
         class="fil1"
         points="13051,11115 12746,11669 12725,11682 "
         id="polygon12112" /><polygon
         class="fil0 str1"
         points="13144,11335 13144,11653 12869,11491 "
         id="polygon12114" /><polygon
         class="fil1"
         points="12865,11491 12878,11491 12873,11551 "
         id="polygon12116" /><polygon
         class="fil1"
         points="12878,11491 12873,11551 12886,11546 "
         id="polygon12118" /><polygon
         class="fil1"
         points="12873,11551 12886,11546 12899,11606 "
         id="polygon12120" /><polygon
         class="fil1"
         points="12886,11546 12899,11606 12912,11598 "
         id="polygon12122" /><polygon
         class="fil1"
         points="12899,11606 12912,11598 12941,11648 "
         id="polygon12124" /><polygon
         class="fil1"
         points="12912,11598 12941,11648 12950,11636 "
         id="polygon12126" /><polygon
         class="fil1"
         points="12941,11648 12950,11636 12996,11674 "
         id="polygon12128" /><polygon
         class="fil1"
         points="12950,11636 12996,11674 13000,11661 "
         id="polygon12130" /><polygon
         class="fil1"
         points="12996,11674 13000,11661 13051,11682 "
         id="polygon12132" /><polygon
         class="fil1"
         points="13000,11661 13051,11682 13051,11669 "
         id="polygon12134" /><polygon
         class="fil1"
         points="13051,11682 13051,11669 13110,11674 "
         id="polygon12136" /><polygon
         class="fil1"
         points="13051,11669 13110,11674 13106,11661 "
         id="polygon12138" /><polygon
         class="fil1"
         points="13110,11674 13106,11661 13165,11648 "
         id="polygon12140" /><polygon
         class="fil1"
         points="13106,11661 13165,11648 13157,11636 "
         id="polygon12142" /><polygon
         class="fil1"
         points="13165,11648 13157,11636 13208,11606 "
         id="polygon12144" /><polygon
         class="fil1"
         points="13157,11636 13208,11606 13195,11598 "
         id="polygon12146" /><polygon
         class="fil1"
         points="13208,11606 13195,11598 13233,11551 "
         id="polygon12148" /><polygon
         class="fil1"
         points="13195,11598 13233,11551 13221,11546 "
         id="polygon12150" /><polygon
         class="fil1"
         points="13233,11551 13221,11546 13242,11491 "
         id="polygon12152" /><polygon
         class="fil1"
         points="13221,11546 13242,11491 13229,11491 "
         id="polygon12154" /><polygon
         class="fil1"
         points="13242,11491 13229,11491 13233,11436 "
         id="polygon12156" /><polygon
         class="fil1"
         points="13229,11491 13233,11436 13221,11441 "
         id="polygon12158" /><polygon
         class="fil1"
         points="13233,11436 13221,11441 13208,11381 "
         id="polygon12160" /><polygon
         class="fil1"
         points="13221,11441 13208,11381 13195,11390 "
         id="polygon12162" /><polygon
         class="fil1"
         points="13208,11381 13195,11390 13165,11339 "
         id="polygon12164" /><polygon
         class="fil1"
         points="13195,11390 13165,11339 13157,11352 "
         id="polygon12166" /><polygon
         class="fil1"
         points="13165,11339 13157,11352 13110,11314 "
         id="polygon12168" /><polygon
         class="fil1"
         points="13157,11352 13110,11314 13106,11326 "
         id="polygon12170" /><polygon
         class="fil1"
         points="13110,11314 13106,11326 13051,11305 "
         id="polygon12172" /><polygon
         class="fil1"
         points="13106,11326 13051,11305 13051,11318 "
         id="polygon12174" /><polygon
         class="fil1"
         points="13051,11305 13051,11318 12996,11314 "
         id="polygon12176" /><polygon
         class="fil1"
         points="13051,11318 12996,11314 13000,11326 "
         id="polygon12178" /><polygon
         class="fil1"
         points="12996,11314 13000,11326 12941,11339 "
         id="polygon12180" /><polygon
         class="fil1"
         points="13000,11326 12941,11339 12950,11352 "
         id="polygon12182" /><polygon
         class="fil1"
         points="12941,11339 12950,11352 12899,11381 "
         id="polygon12184" /><polygon
         class="fil1"
         points="12950,11352 12899,11381 12912,11390 "
         id="polygon12186" /><polygon
         class="fil1"
         points="12899,11381 12912,11390 12873,11436 "
         id="polygon12188" /><polygon
         class="fil1"
         points="12912,11390 12873,11436 12886,11441 "
         id="polygon12190" /><polygon
         class="fil1"
         points="12873,11436 12886,11441 12865,11491 "
         id="polygon12192" /><polygon
         class="fil1"
         points="12886,11441 12865,11491 12878,11491 "
         id="polygon12194" /><polygon
         class="fil0 str1"
         points="12657,11796 13449,11796 13449,11000 12657,11000 "
         id="polygon12196" /></g><metadata
       id="CorelCorpID_0Corel-Layer" /></g></svg>