<?xml version="1.0" encoding="UTF-8" standalone="no"?>
<!-- Creator: CorelDRAW X8 -->

<svg
   xmlns:dc="http://purl.org/dc/elements/1.1/"
   xmlns:cc="http://creativecommons.org/ns#"
   xmlns:rdf="http://www.w3.org/1999/02/22-rdf-syntax-ns#"
   xmlns:svg="http://www.w3.org/2000/svg"
   xmlns="http://www.w3.org/2000/svg"
   xmlns:sodipodi="http://sodipodi.sourceforge.net/DTD/sodipodi-0.dtd"
   xmlns:inkscape="http://www.inkscape.org/namespaces/inkscape"
   xml:space="preserve"
   width="254.5mm"
   height="750mm"
   version="1.1"
   style="shape-rendering:geometricPrecision; text-rendering:geometricPrecision; image-rendering:optimizeQuality; fill-rule:evenodd; clip-rule:evenodd"
   viewBox="0 0 25450 75000"
   id="svg2"
   inkscape:version="0.91 r13725"
   sodipodi:docname="010.svg"><metadata
     id="metadata51242"><rdf:RDF><cc:Work
         rdf:about=""><dc:format>image/svg+xml</dc:format><dc:type
           rdf:resource="http://purl.org/dc/dcmitype/StillImage" /><dc:title></dc:title></cc:Work></rdf:RDF></metadata><sodipodi:namedview
     pagecolor="#ffffff"
     bordercolor="#666666"
     borderopacity="1"
     objecttolerance="10"
     gridtolerance="10"
     guidetolerance="10"
     inkscape:pageopacity="0"
     inkscape:pageshadow="2"
     inkscape:window-width="1920"
     inkscape:window-height="1018"
     id="namedview51240"
     showgrid="false"
     inkscape:zoom="1.4208948"
     inkscape:cx="476.72103"
     inkscape:cy="2379.1552"
     inkscape:window-x="-8"
     inkscape:window-y="-8"
     inkscape:window-maximized="1"
     inkscape:current-layer="svg2" /><defs
     id="defs4"><style
       type="text/css"
       id="style6"><![CDATA[
       svg {
                position: absolute;
            }
    .str16 {stroke:red;stroke-width:59.27;stroke-linecap:round;stroke-linejoin:round}
    .str17 {stroke:yellow;stroke-width:59.27;stroke-linecap:round;stroke-linejoin:round}
    .str20 {stroke:#DDA56E;stroke-width:21.17;stroke-linecap:round;stroke-linejoin:round}
    .str18 {stroke:red;stroke-width:21.17;stroke-linecap:round;stroke-linejoin:round}
    .str21 {stroke:yellow;stroke-width:21.17;stroke-linecap:round;stroke-linejoin:round}
    .str15 {stroke:black;stroke-width:8.47;stroke-linecap:round;stroke-linejoin:round}
    .str0 {stroke:black;stroke-width:29.63;stroke-linecap:round;stroke-linejoin:round}
    .str1 {stroke:black;stroke-width:16.93;stroke-linecap:round;stroke-linejoin:round}
    .str10 {stroke:gray;stroke-width:16.93;stroke-linecap:round;stroke-linejoin:round}
    .str4 {stroke:black;stroke-width:4.23;stroke-linecap:round;stroke-linejoin:round}
    .str14 {stroke:#0037DD;stroke-width:4.23;stroke-linecap:round;stroke-linejoin:round}
    .str2 {stroke:#006EDD;stroke-width:4.23;stroke-linecap:round;stroke-linejoin:round}
    .str5 {stroke:#00B85C;stroke-width:4.23;stroke-linecap:round;stroke-linejoin:round}
    .str3 {stroke:#00DD00;stroke-width:4.23;stroke-linecap:round;stroke-linejoin:round}
    .str9 {stroke:lime;stroke-width:4.23;stroke-linecap:round;stroke-linejoin:round}
    .str12 {stroke:gray;stroke-width:4.23;stroke-linecap:round;stroke-linejoin:round}
    .str13 {stroke:#989898;stroke-width:4.23;stroke-linecap:round;stroke-linejoin:round}
    .str11 {stroke:#BABABA;stroke-width:4.23;stroke-linecap:round;stroke-linejoin:round}
    .str7 {stroke:red;stroke-width:4.23;stroke-linecap:round;stroke-linejoin:round}
    .str8 {stroke:#FF7F00;stroke-width:4.23;stroke-linecap:round;stroke-linejoin:round}
    .str6 {stroke:yellow;stroke-width:4.23;stroke-linecap:round;stroke-linejoin:round}
    .str23 {stroke:#00BFFF;stroke-width:25.4;stroke-linecap:round;stroke-linejoin:round}
    .str22 {stroke:#37DD00;stroke-width:25.4;stroke-linecap:round;stroke-linejoin:round}
    .str19 {stroke:black;stroke-width:12.7;stroke-linecap:round;stroke-linejoin:round}
    .fil0 {fill:none}
    .fil1 {fill:black}
    .fil13 {fill:#0037DD}
    .fil2 {fill:#006EDD}
    .fil3 {fill:#00B85C}
    .fil4 {fill:#00DD00}
    .fil9 {fill:lime}
    .fil7 {fill:gray}
    .fil12 {fill:#989898}
    .fil11 {fill:#B85C00}
    .fil10 {fill:#BABABA}
    .fil14 {fill:#FCFCFC}
    .fil6 {fill:red}
    .fil8 {fill:#FF7F00}
    .fil5 {fill:yellow}
   ]]></style></defs><g
     id="Слой_x0020_1"><g
       id="g55486"><line
         class="fil0 str7"
         x1="13136"
         y1="12258"
         x2="13140"
         y2="12258"
         id="line12198" /><polygon
         class="fil6"
         points="13136,12258 12890,12398 13136,12398 "
         id="polygon12200" /><line
         class="fil0 str7"
         x1="13136"
         y1="12258"
         x2="13136"
         y2="12398"
         id="line12202" /><polygon
         class="fil6"
         points="12890,12398 13136,12398 13136,12537 "
         id="polygon12204" /><polygon
         class="fil0 str1"
         points="13136,12258 13136,12537 12890,12398 "
         id="polygon12206" /><polygon
         class="fil0 str1"
         points="12657,12796 13449,12796 13449,12004 12657,12004 "
         id="polygon12208" /><polygon
         class="fil1"
         points="12734,12393 12734,12406 12890,12393 "
         id="polygon12210" /><polygon
         class="fil1"
         points="12734,12406 12890,12393 12890,12406 "
         id="polygon12212" /><polygon
         class="fil1"
         points="13216,12393 13216,12406 13369,12393 "
         id="polygon12214" /><polygon
         class="fil1"
         points="13216,12406 13369,12393 13369,12406 "
         id="polygon12216" /><polygon
         class="fil1"
         points="13051,12232 13051,12245 13000,12241 "
         id="polygon12218" /><polygon
         class="fil1"
         points="13051,12245 13000,12241 13005,12253 "
         id="polygon12220" /><polygon
         class="fil1"
         points="13000,12241 13005,12253 12954,12262 "
         id="polygon12222" /><polygon
         class="fil1"
         points="13005,12253 12954,12262 12962,12275 "
         id="polygon12224" /><polygon
         class="fil1"
         points="12954,12262 12962,12275 12916,12300 "
         id="polygon12226" /><polygon
         class="fil1"
         points="12962,12275 12916,12300 12928,12308 "
         id="polygon12228" /><polygon
         class="fil1"
         points="12916,12300 12928,12308 12894,12346 "
         id="polygon12230" /><polygon
         class="fil1"
         points="12928,12308 12894,12346 12907,12351 "
         id="polygon12232" /><polygon
         class="fil1"
         points="12894,12346 12907,12351 12886,12398 "
         id="polygon12234" /><polygon
         class="fil1"
         points="12907,12351 12886,12398 12899,12398 "
         id="polygon12236" /><polygon
         class="fil1"
         points="13221,12398 13208,12398 13212,12346 "
         id="polygon12238" /><polygon
         class="fil1"
         points="13208,12398 13212,12346 13199,12351 "
         id="polygon12240" /><polygon
         class="fil1"
         points="13212,12346 13199,12351 13191,12300 "
         id="polygon12242" /><polygon
         class="fil1"
         points="13199,12351 13191,12300 13178,12308 "
         id="polygon12244" /><polygon
         class="fil1"
         points="13191,12300 13178,12308 13153,12262 "
         id="polygon12246" /><polygon
         class="fil1"
         points="13178,12308 13153,12262 13144,12275 "
         id="polygon12248" /><polygon
         class="fil1"
         points="13153,12262 13144,12275 13106,12241 "
         id="polygon12250" /><polygon
         class="fil1"
         points="13144,12275 13106,12241 13102,12253 "
         id="polygon12252" /><polygon
         class="fil1"
         points="13106,12241 13102,12253 13051,12232 "
         id="polygon12254" /><polygon
         class="fil1"
         points="13102,12253 13051,12232 13051,12245 "
         id="polygon12256" /><polygon
         class="fil1"
         points="13051,12567 13051,12554 13106,12558 "
         id="polygon12258" /><polygon
         class="fil1"
         points="13051,12554 13106,12558 13102,12546 "
         id="polygon12260" /><polygon
         class="fil1"
         points="13106,12558 13102,12546 13153,12533 "
         id="polygon12262" /><polygon
         class="fil1"
         points="13102,12546 13153,12533 13144,12525 "
         id="polygon12264" /><polygon
         class="fil1"
         points="13153,12533 13144,12525 13191,12499 "
         id="polygon12266" /><polygon
         class="fil1"
         points="13144,12525 13191,12499 13178,12491 "
         id="polygon12268" /><polygon
         class="fil1"
         points="13191,12499 13178,12491 13212,12453 "
         id="polygon12270" /><polygon
         class="fil1"
         points="13178,12491 13212,12453 13199,12448 "
         id="polygon12272" /><polygon
         class="fil1"
         points="13212,12453 13199,12448 13221,12398 "
         id="polygon12274" /><polygon
         class="fil1"
         points="13199,12448 13221,12398 13208,12398 "
         id="polygon12276" /><polygon
         class="fil1"
         points="12886,12398 12899,12398 12894,12453 "
         id="polygon12278" /><polygon
         class="fil1"
         points="12899,12398 12894,12453 12907,12448 "
         id="polygon12280" /><polygon
         class="fil1"
         points="12894,12453 12907,12448 12916,12499 "
         id="polygon12282" /><polygon
         class="fil1"
         points="12907,12448 12916,12499 12928,12491 "
         id="polygon12284" /><polygon
         class="fil1"
         points="12916,12499 12928,12491 12954,12533 "
         id="polygon12286" /><polygon
         class="fil1"
         points="12928,12491 12954,12533 12962,12525 "
         id="polygon12288" /><polygon
         class="fil1"
         points="12954,12533 12962,12525 13000,12558 "
         id="polygon12290" /><polygon
         class="fil1"
         points="12962,12525 13000,12558 13005,12546 "
         id="polygon12292" /><polygon
         class="fil1"
         points="13000,12558 13005,12546 13051,12567 "
         id="polygon12294" /><polygon
         class="fil1"
         points="13005,12546 13051,12567 13051,12554 "
         id="polygon12296" /></g><metadata
       id="CorelCorpID_0Corel-Layer" /></g></svg>