<?xml version="1.0" encoding="UTF-8" standalone="no"?>
<!-- Creator: CorelDRAW X8 -->

<svg
   xmlns:dc="http://purl.org/dc/elements/1.1/"
   xmlns:cc="http://creativecommons.org/ns#"
   xmlns:rdf="http://www.w3.org/1999/02/22-rdf-syntax-ns#"
   xmlns:svg="http://www.w3.org/2000/svg"
   xmlns="http://www.w3.org/2000/svg"
   xmlns:sodipodi="http://sodipodi.sourceforge.net/DTD/sodipodi-0.dtd"
   xmlns:inkscape="http://www.inkscape.org/namespaces/inkscape"
   xml:space="preserve"
   width="254.5mm"
   height="750mm"
   version="1.1"
   style="shape-rendering:geometricPrecision; text-rendering:geometricPrecision; image-rendering:optimizeQuality; fill-rule:evenodd; clip-rule:evenodd"
   viewBox="0 0 25450 75000"
   id="svg2"
   inkscape:version="0.91 r13725"
   sodipodi:docname="011.svg"><metadata
     id="metadata51242"><rdf:RDF><cc:Work
         rdf:about=""><dc:format>image/svg+xml</dc:format><dc:type
           rdf:resource="http://purl.org/dc/dcmitype/StillImage" /><dc:title></dc:title></cc:Work></rdf:RDF></metadata><sodipodi:namedview
     pagecolor="#ffffff"
     bordercolor="#666666"
     borderopacity="1"
     objecttolerance="10"
     gridtolerance="10"
     guidetolerance="10"
     inkscape:pageopacity="0"
     inkscape:pageshadow="2"
     inkscape:window-width="1920"
     inkscape:window-height="1018"
     id="namedview51240"
     showgrid="false"
     inkscape:zoom="1.4208948"
     inkscape:cx="476.72103"
     inkscape:cy="2379.1552"
     inkscape:window-x="-8"
     inkscape:window-y="-8"
     inkscape:window-maximized="1"
     inkscape:current-layer="svg2" /><defs
     id="defs4"><style
       type="text/css"
       id="style6"><![CDATA[
       svg {
                position: absolute;
            }
    .str16 {stroke:red;stroke-width:59.27;stroke-linecap:round;stroke-linejoin:round}
    .str17 {stroke:yellow;stroke-width:59.27;stroke-linecap:round;stroke-linejoin:round}
    .str20 {stroke:#DDA56E;stroke-width:21.17;stroke-linecap:round;stroke-linejoin:round}
    .str18 {stroke:red;stroke-width:21.17;stroke-linecap:round;stroke-linejoin:round}
    .str21 {stroke:yellow;stroke-width:21.17;stroke-linecap:round;stroke-linejoin:round}
    .str15 {stroke:black;stroke-width:8.47;stroke-linecap:round;stroke-linejoin:round}
    .str0 {stroke:black;stroke-width:29.63;stroke-linecap:round;stroke-linejoin:round}
    .str1 {stroke:black;stroke-width:16.93;stroke-linecap:round;stroke-linejoin:round}
    .str10 {stroke:gray;stroke-width:16.93;stroke-linecap:round;stroke-linejoin:round}
    .str4 {stroke:black;stroke-width:4.23;stroke-linecap:round;stroke-linejoin:round}
    .str14 {stroke:#0037DD;stroke-width:4.23;stroke-linecap:round;stroke-linejoin:round}
    .str2 {stroke:#006EDD;stroke-width:4.23;stroke-linecap:round;stroke-linejoin:round}
    .str5 {stroke:#00B85C;stroke-width:4.23;stroke-linecap:round;stroke-linejoin:round}
    .str3 {stroke:#00DD00;stroke-width:4.23;stroke-linecap:round;stroke-linejoin:round}
    .str9 {stroke:lime;stroke-width:4.23;stroke-linecap:round;stroke-linejoin:round}
    .str12 {stroke:gray;stroke-width:4.23;stroke-linecap:round;stroke-linejoin:round}
    .str13 {stroke:#989898;stroke-width:4.23;stroke-linecap:round;stroke-linejoin:round}
    .str11 {stroke:#BABABA;stroke-width:4.23;stroke-linecap:round;stroke-linejoin:round}
    .str7 {stroke:red;stroke-width:4.23;stroke-linecap:round;stroke-linejoin:round}
    .str8 {stroke:#FF7F00;stroke-width:4.23;stroke-linecap:round;stroke-linejoin:round}
    .str6 {stroke:yellow;stroke-width:4.23;stroke-linecap:round;stroke-linejoin:round}
    .str23 {stroke:#00BFFF;stroke-width:25.4;stroke-linecap:round;stroke-linejoin:round}
    .str22 {stroke:#37DD00;stroke-width:25.4;stroke-linecap:round;stroke-linejoin:round}
    .str19 {stroke:black;stroke-width:12.7;stroke-linecap:round;stroke-linejoin:round}
    .fil0 {fill:none}
    .fil1 {fill:black}
    .fil13 {fill:#0037DD}
    .fil2 {fill:#006EDD}
    .fil3 {fill:#00B85C}
    .fil4 {fill:#00DD00}
    .fil9 {fill:lime}
    .fil7 {fill:gray}
    .fil12 {fill:#989898}
    .fil11 {fill:#B85C00}
    .fil10 {fill:#BABABA}
    .fil14 {fill:#FCFCFC}
    .fil6 {fill:red}
    .fil8 {fill:#FF7F00}
    .fil5 {fill:yellow}
   ]]></style></defs><g
     id="Слой_x0020_1"><g
       id="g55538"><polygon
         class="fil0 str1"
         points="12890,13710 13136,13849 13136,13566 "
         id="polygon12298" /><polygon
         class="fil0 str1"
         points="13216,13710 13208,13659 13187,13613 13149,13575 13102,13553 13051,13545 13005,13553 12958,13575 12920,13613 12899,13659 12890,13710 12899,13761 12920,13803 12958,13841 13005,13863 13051,13871 13102,13863 13149,13841 13187,13803 13208,13761 "
         id="polygon12300" /><polygon
         class="fil0 str1"
         points="13237,13710 13229,13651 13199,13599 13161,13561 13110,13537 13051,13523 12996,13537 12945,13561 12907,13599 12878,13651 12869,13710 12878,13765 12907,13816 12945,13854 12996,13883 13051,13892 13110,13883 13161,13854 13199,13816 13229,13765 "
         id="polygon12302" /><polygon
         class="fil6"
         points="13051,13523 12996,13537 13110,13537 "
         id="polygon12304" /><polygon
         class="fil6"
         points="12996,13537 12979,13545 13127,13545 "
         id="polygon12306" /><polygon
         class="fil6"
         points="12996,13537 13110,13537 13127,13545 "
         id="polygon12308" /><polygon
         class="fil6"
         points="12979,13545 12962,13553 13005,13553 "
         id="polygon12310" /><polygon
         class="fil6"
         points="12979,13545 13051,13545 13005,13553 "
         id="polygon12312" /><polygon
         class="fil6"
         points="13051,13545 13102,13553 13144,13553 "
         id="polygon12314" /><polygon
         class="fil6"
         points="13051,13545 13127,13545 13144,13553 "
         id="polygon12316" /><polygon
         class="fil6"
         points="12962,13553 12945,13561 12988,13561 "
         id="polygon12318" /><polygon
         class="fil6"
         points="12962,13553 13005,13553 12988,13561 "
         id="polygon12320" /><polygon
         class="fil6"
         points="13102,13553 13119,13561 13161,13561 "
         id="polygon12322" /><polygon
         class="fil6"
         points="13102,13553 13144,13553 13161,13561 "
         id="polygon12324" /><polygon
         class="fil0 str7"
         points="12945,13561 12988,13561 "
         id="polygon12326" /><polygon
         class="fil0 str7"
         points="13119,13561 13161,13561 "
         id="polygon12328" /><polygon
         class="fil6"
         points="12945,13561 12933,13575 12958,13575 "
         id="polygon12330" /><polygon
         class="fil6"
         points="12945,13561 12988,13561 12958,13575 "
         id="polygon12332" /><polygon
         class="fil6"
         points="13119,13561 13149,13575 13174,13575 "
         id="polygon12334" /><polygon
         class="fil6"
         points="13119,13561 13161,13561 13174,13575 "
         id="polygon12336" /><polygon
         class="fil0 str7"
         points="12933,13575 12958,13575 "
         id="polygon12338" /><polygon
         class="fil0 str7"
         points="13149,13575 13174,13575 "
         id="polygon12340" /><polygon
         class="fil6"
         points="12933,13575 12907,13599 12933,13599 "
         id="polygon12342" /><polygon
         class="fil6"
         points="12933,13575 12958,13575 12933,13599 "
         id="polygon12344" /><polygon
         class="fil6"
         points="13149,13575 13174,13599 13199,13599 "
         id="polygon12346" /><polygon
         class="fil6"
         points="13149,13575 13174,13575 13199,13599 "
         id="polygon12348" /><polygon
         class="fil0 str7"
         points="12907,13599 12933,13599 "
         id="polygon12350" /><polygon
         class="fil0 str7"
         points="13174,13599 13199,13599 "
         id="polygon12352" /><polygon
         class="fil6"
         points="12907,13599 12899,13613 12920,13613 "
         id="polygon12354" /><polygon
         class="fil6"
         points="12907,13599 12933,13599 12920,13613 "
         id="polygon12356" /><polygon
         class="fil6"
         points="13174,13599 13187,13613 13208,13613 "
         id="polygon12358" /><polygon
         class="fil6"
         points="13174,13599 13199,13599 13208,13613 "
         id="polygon12360" /><polygon
         class="fil0 str7"
         points="12899,13613 12920,13613 "
         id="polygon12362" /><polygon
         class="fil0 str7"
         points="13187,13613 13208,13613 "
         id="polygon12364" /><polygon
         class="fil6"
         points="12899,13613 12878,13651 12899,13651 "
         id="polygon12366" /><polygon
         class="fil6"
         points="12899,13613 12920,13613 12899,13651 "
         id="polygon12368" /><polygon
         class="fil6"
         points="13187,13613 13208,13651 13229,13651 "
         id="polygon12370" /><polygon
         class="fil6"
         points="13187,13613 13208,13613 13229,13651 "
         id="polygon12372" /><polygon
         class="fil0 str7"
         points="12878,13651 12899,13651 "
         id="polygon12374" /><polygon
         class="fil0 str7"
         points="13208,13651 13229,13651 "
         id="polygon12376" /><polygon
         class="fil6"
         points="12878,13651 12878,13659 12899,13659 "
         id="polygon12378" /><polygon
         class="fil6"
         points="12878,13651 12899,13651 12899,13659 "
         id="polygon12380" /><polygon
         class="fil6"
         points="13208,13651 13208,13659 13229,13659 "
         id="polygon12382" /><polygon
         class="fil6"
         points="13208,13651 13229,13651 13229,13659 "
         id="polygon12384" /><polygon
         class="fil0 str7"
         points="12878,13659 12899,13659 "
         id="polygon12386" /><polygon
         class="fil0 str7"
         points="13208,13659 13229,13659 "
         id="polygon12388" /><polygon
         class="fil6"
         points="12878,13659 12869,13710 12890,13710 "
         id="polygon12390" /><polygon
         class="fil6"
         points="12878,13659 12899,13659 12890,13710 "
         id="polygon12392" /><polygon
         class="fil6"
         points="13208,13659 13216,13710 13237,13710 "
         id="polygon12394" /><polygon
         class="fil6"
         points="13208,13659 13229,13659 13237,13710 "
         id="polygon12396" /><polygon
         class="fil0 str7"
         points="12869,13710 12890,13710 "
         id="polygon12398" /><polygon
         class="fil0 str7"
         points="13216,13710 13237,13710 "
         id="polygon12400" /><polygon
         class="fil6"
         points="12869,13710 12878,13761 12899,13761 "
         id="polygon12402" /><polygon
         class="fil6"
         points="12869,13710 12890,13710 12899,13761 "
         id="polygon12404" /><polygon
         class="fil6"
         points="13216,13710 13208,13761 13229,13761 "
         id="polygon12406" /><polygon
         class="fil6"
         points="13216,13710 13237,13710 13229,13761 "
         id="polygon12408" /><polygon
         class="fil0 str7"
         points="12878,13761 12899,13761 "
         id="polygon12410" /><polygon
         class="fil0 str7"
         points="13208,13761 13229,13761 "
         id="polygon12412" /><polygon
         class="fil6"
         points="12878,13761 12878,13765 12899,13765 "
         id="polygon12414" /><polygon
         class="fil6"
         points="12878,13761 12899,13761 12899,13765 "
         id="polygon12416" /><polygon
         class="fil6"
         points="13208,13761 13208,13765 13229,13765 "
         id="polygon12418" /><polygon
         class="fil6"
         points="13208,13761 13229,13761 13229,13765 "
         id="polygon12420" /><polygon
         class="fil0 str7"
         points="12878,13765 12899,13765 "
         id="polygon12422" /><polygon
         class="fil0 str7"
         points="13208,13765 13229,13765 "
         id="polygon12424" /><polygon
         class="fil6"
         points="12878,13765 12899,13803 12920,13803 "
         id="polygon12426" /><polygon
         class="fil6"
         points="12878,13765 12899,13765 12920,13803 "
         id="polygon12428" /><polygon
         class="fil6"
         points="13208,13765 13187,13803 13208,13803 "
         id="polygon12430" /><polygon
         class="fil6"
         points="13208,13765 13229,13765 13208,13803 "
         id="polygon12432" /><polygon
         class="fil0 str7"
         points="12899,13803 12920,13803 "
         id="polygon12434" /><polygon
         class="fil0 str7"
         points="13187,13803 13208,13803 "
         id="polygon12436" /><polygon
         class="fil6"
         points="12899,13803 12907,13816 12933,13816 "
         id="polygon12438" /><polygon
         class="fil6"
         points="12899,13803 12920,13803 12933,13816 "
         id="polygon12440" /><polygon
         class="fil6"
         points="13187,13803 13174,13816 13199,13816 "
         id="polygon12442" /><polygon
         class="fil6"
         points="13187,13803 13208,13803 13199,13816 "
         id="polygon12444" /><polygon
         class="fil0 str7"
         points="12907,13816 12933,13816 "
         id="polygon12446" /><polygon
         class="fil0 str7"
         points="13174,13816 13199,13816 "
         id="polygon12448" /><polygon
         class="fil6"
         points="12907,13816 12933,13841 12958,13841 "
         id="polygon12450" /><polygon
         class="fil6"
         points="12907,13816 12933,13816 12958,13841 "
         id="polygon12452" /><polygon
         class="fil6"
         points="13174,13816 13149,13841 13174,13841 "
         id="polygon12454" /><polygon
         class="fil6"
         points="13174,13816 13199,13816 13174,13841 "
         id="polygon12456" /><polygon
         class="fil0 str7"
         points="12933,13841 12958,13841 "
         id="polygon12458" /><polygon
         class="fil0 str7"
         points="13149,13841 13174,13841 "
         id="polygon12460" /><polygon
         class="fil6"
         points="12933,13841 12945,13854 12988,13854 "
         id="polygon12462" /><polygon
         class="fil6"
         points="12933,13841 12958,13841 12988,13854 "
         id="polygon12464" /><polygon
         class="fil6"
         points="13149,13841 13119,13854 13161,13854 "
         id="polygon12466" /><polygon
         class="fil6"
         points="13149,13841 13174,13841 13161,13854 "
         id="polygon12468" /><polygon
         class="fil0 str7"
         points="12945,13854 12988,13854 "
         id="polygon12470" /><polygon
         class="fil0 str7"
         points="13119,13854 13161,13854 "
         id="polygon12472" /><polygon
         class="fil6"
         points="12945,13854 12962,13863 13005,13863 "
         id="polygon12474" /><polygon
         class="fil6"
         points="12945,13854 12988,13854 13005,13863 "
         id="polygon12476" /><polygon
         class="fil6"
         points="13119,13854 13102,13863 13144,13863 "
         id="polygon12478" /><polygon
         class="fil6"
         points="13119,13854 13161,13854 13144,13863 "
         id="polygon12480" /><polygon
         class="fil6"
         points="12962,13863 12979,13871 13051,13871 "
         id="polygon12482" /><polygon
         class="fil6"
         points="12962,13863 13005,13863 13051,13871 "
         id="polygon12484" /><polygon
         class="fil6"
         points="13102,13863 13051,13871 13127,13871 "
         id="polygon12486" /><polygon
         class="fil6"
         points="13102,13863 13144,13863 13127,13871 "
         id="polygon12488" /><polygon
         class="fil6"
         points="12979,13871 12996,13883 13110,13883 "
         id="polygon12490" /><polygon
         class="fil6"
         points="12979,13871 13127,13871 13110,13883 "
         id="polygon12492" /><polygon
         class="fil6"
         points="12996,13883 13110,13883 13051,13892 "
         id="polygon12494" /><line
         class="fil0 str7"
         x1="13136"
         y1="13566"
         x2="13140"
         y2="13566"
         id="line12496" /><polygon
         class="fil6"
         points="13136,13566 12890,13710 13136,13710 "
         id="polygon12498" /><line
         class="fil0 str7"
         x1="13136"
         y1="13566"
         x2="13136"
         y2="13710"
         id="line12500" /><polygon
         class="fil6"
         points="12890,13710 13136,13710 13136,13849 "
         id="polygon12502" /><polygon
         class="fil1"
         points="12746,13883 12725,13896 13360,13883 "
         id="polygon12504" /><polygon
         class="fil1"
         points="12725,13896 13360,13883 13381,13896 "
         id="polygon12506" /><polygon
         class="fil1"
         points="13360,13883 13381,13896 13051,13354 "
         id="polygon12508" /><polygon
         class="fil1"
         points="13381,13896 13051,13354 13051,13329 "
         id="polygon12510" /><polygon
         class="fil1"
         points="13051,13354 13051,13329 12746,13883 "
         id="polygon12512" /><polygon
         class="fil1"
         points="13051,13329 12746,13883 12725,13896 "
         id="polygon12514" /><polygon
         class="fil0 str1"
         points="12657,14011 13449,14011 13449,13219 12657,13219 "
         id="polygon12516" /></g><metadata
       id="CorelCorpID_0Corel-Layer" /></g></svg>