<?xml version="1.0" encoding="UTF-8" standalone="no"?>
<!-- Creator: CorelDRAW X8 -->

<svg
   xmlns:dc="http://purl.org/dc/elements/1.1/"
   xmlns:cc="http://creativecommons.org/ns#"
   xmlns:rdf="http://www.w3.org/1999/02/22-rdf-syntax-ns#"
   xmlns:svg="http://www.w3.org/2000/svg"
   xmlns="http://www.w3.org/2000/svg"
   xmlns:sodipodi="http://sodipodi.sourceforge.net/DTD/sodipodi-0.dtd"
   xmlns:inkscape="http://www.inkscape.org/namespaces/inkscape"
   xml:space="preserve"
   width="254.5mm"
   height="750mm"
   version="1.1"
   style="shape-rendering:geometricPrecision; text-rendering:geometricPrecision; image-rendering:optimizeQuality; fill-rule:evenodd; clip-rule:evenodd"
   viewBox="0 0 25450 75000"
   id="svg2"
   inkscape:version="0.91 r13725"
   sodipodi:docname="012.svg"><metadata
     id="metadata51242"><rdf:RDF><cc:Work
         rdf:about=""><dc:format>image/svg+xml</dc:format><dc:type
           rdf:resource="http://purl.org/dc/dcmitype/StillImage" /><dc:title></dc:title></cc:Work></rdf:RDF></metadata><sodipodi:namedview
     pagecolor="#ffffff"
     bordercolor="#666666"
     borderopacity="1"
     objecttolerance="10"
     gridtolerance="10"
     guidetolerance="10"
     inkscape:pageopacity="0"
     inkscape:pageshadow="2"
     inkscape:window-width="1920"
     inkscape:window-height="1018"
     id="namedview51240"
     showgrid="false"
     inkscape:zoom="1.4208948"
     inkscape:cx="476.72103"
     inkscape:cy="2379.1552"
     inkscape:window-x="-8"
     inkscape:window-y="-8"
     inkscape:window-maximized="1"
     inkscape:current-layer="svg2" /><defs
     id="defs4"><style
       type="text/css"
       id="style6"><![CDATA[
       svg {
                position: absolute;
            }
    .str16 {stroke:red;stroke-width:59.27;stroke-linecap:round;stroke-linejoin:round}
    .str17 {stroke:yellow;stroke-width:59.27;stroke-linecap:round;stroke-linejoin:round}
    .str20 {stroke:#DDA56E;stroke-width:21.17;stroke-linecap:round;stroke-linejoin:round}
    .str18 {stroke:red;stroke-width:21.17;stroke-linecap:round;stroke-linejoin:round}
    .str21 {stroke:yellow;stroke-width:21.17;stroke-linecap:round;stroke-linejoin:round}
    .str15 {stroke:black;stroke-width:8.47;stroke-linecap:round;stroke-linejoin:round}
    .str0 {stroke:black;stroke-width:29.63;stroke-linecap:round;stroke-linejoin:round}
    .str1 {stroke:black;stroke-width:16.93;stroke-linecap:round;stroke-linejoin:round}
    .str10 {stroke:gray;stroke-width:16.93;stroke-linecap:round;stroke-linejoin:round}
    .str4 {stroke:black;stroke-width:4.23;stroke-linecap:round;stroke-linejoin:round}
    .str14 {stroke:#0037DD;stroke-width:4.23;stroke-linecap:round;stroke-linejoin:round}
    .str2 {stroke:#006EDD;stroke-width:4.23;stroke-linecap:round;stroke-linejoin:round}
    .str5 {stroke:#00B85C;stroke-width:4.23;stroke-linecap:round;stroke-linejoin:round}
    .str3 {stroke:#00DD00;stroke-width:4.23;stroke-linecap:round;stroke-linejoin:round}
    .str9 {stroke:lime;stroke-width:4.23;stroke-linecap:round;stroke-linejoin:round}
    .str12 {stroke:gray;stroke-width:4.23;stroke-linecap:round;stroke-linejoin:round}
    .str13 {stroke:#989898;stroke-width:4.23;stroke-linecap:round;stroke-linejoin:round}
    .str11 {stroke:#BABABA;stroke-width:4.23;stroke-linecap:round;stroke-linejoin:round}
    .str7 {stroke:red;stroke-width:4.23;stroke-linecap:round;stroke-linejoin:round}
    .str8 {stroke:#FF7F00;stroke-width:4.23;stroke-linecap:round;stroke-linejoin:round}
    .str6 {stroke:yellow;stroke-width:4.23;stroke-linecap:round;stroke-linejoin:round}
    .str23 {stroke:#00BFFF;stroke-width:25.4;stroke-linecap:round;stroke-linejoin:round}
    .str22 {stroke:#37DD00;stroke-width:25.4;stroke-linecap:round;stroke-linejoin:round}
    .str19 {stroke:black;stroke-width:12.7;stroke-linecap:round;stroke-linejoin:round}
    .fil0 {fill:none}
    .fil1 {fill:black}
    .fil13 {fill:#0037DD}
    .fil2 {fill:#006EDD}
    .fil3 {fill:#00B85C}
    .fil4 {fill:#00DD00}
    .fil9 {fill:lime}
    .fil7 {fill:gray}
    .fil12 {fill:#989898}
    .fil11 {fill:#B85C00}
    .fil10 {fill:#BABABA}
    .fil14 {fill:#FCFCFC}
    .fil6 {fill:red}
    .fil8 {fill:#FF7F00}
    .fil5 {fill:yellow}
   ]]></style></defs><g
     id="Слой_x0020_1"><g
       id="g55650"><polygon
         class="fil0 str1"
         points="13229,14611 13221,14561 13195,14510 13157,14472 13106,14447 13051,14438 13000,14447 12950,14472 12912,14510 12886,14561 12878,14611 12886,14666 12912,14713 12950,14751 13000,14776 13051,14785 13106,14776 13157,14751 13195,14713 13221,14666 "
         id="polygon12518" /><polygon
         class="fil0 str1"
         points="12882,14611 13140,14764 13140,14463 "
         id="polygon12520" /><polygon
         class="fil0 str1"
         points="13246,14611 13242,14561 13221,14514 13191,14476 13149,14447 13102,14425 13051,14416 13005,14425 12958,14447 12916,14476 12886,14514 12865,14561 12861,14611 12865,14662 12886,14709 12916,14751 12958,14781 13005,14798 13051,14806 13102,14798 13149,14781 13191,14751 13221,14709 13242,14662 "
         id="polygon12522" /><polygon
         class="fil6"
         points="13051,14416 13005,14425 13102,14425 "
         id="polygon12524" /><polygon
         class="fil6"
         points="13005,14425 12971,14438 13136,14438 "
         id="polygon12526" /><polygon
         class="fil6"
         points="13005,14425 13102,14425 13136,14438 "
         id="polygon12528" /><polygon
         class="fil6"
         points="12971,14438 12958,14447 13013,14447 "
         id="polygon12530" /><polygon
         class="fil6"
         points="12971,14438 13051,14438 13013,14447 "
         id="polygon12532" /><polygon
         class="fil6"
         points="13051,14438 13089,14447 13149,14447 "
         id="polygon12534" /><polygon
         class="fil6"
         points="13051,14438 13136,14438 13149,14447 "
         id="polygon12536" /><polygon
         class="fil0 str7"
         points="12958,14447 13013,14447 "
         id="polygon12538" /><polygon
         class="fil0 str7"
         points="13089,14447 13149,14447 "
         id="polygon12540" /><path
         class="fil0 str7"
         d="M12954 14447l46 0m-42 0l55 0"
         id="path12542" /><polygon
         class="fil0 str7"
         points="13089,14447 13153,14447 "
         id="polygon12544" /><polygon
         class="fil6"
         points="12954,14447 12920,14472 12950,14472 "
         id="polygon12546" /><polygon
         class="fil6"
         points="12954,14447 13000,14447 12950,14472 "
         id="polygon12548" /><polygon
         class="fil6"
         points="13106,14447 13157,14472 13187,14472 "
         id="polygon12550" /><polygon
         class="fil6"
         points="13106,14447 13153,14447 13187,14472 "
         id="polygon12552" /><polygon
         class="fil0 str7"
         points="12920,14472 12950,14472 "
         id="polygon12554" /><polygon
         class="fil0 str7"
         points="13157,14472 13187,14472 "
         id="polygon12556" /><polyline
         class="fil0 str7"
         points="12945,14476 12920,14472 12950,14472 "
         id="polyline12558" /><polyline
         class="fil0 str7"
         points="13191,14476 13157,14472 13187,14472 "
         id="polyline12560" /><polygon
         class="fil0 str7"
         points="12916,14476 12945,14476 "
         id="polygon12562" /><polygon
         class="fil0 str7"
         points="13157,14476 13191,14476 "
         id="polygon12564" /><polygon
         class="fil6"
         points="12916,14476 12890,14510 12912,14510 "
         id="polygon12566" /><polygon
         class="fil6"
         points="12916,14476 12945,14476 12912,14510 "
         id="polygon12568" /><polygon
         class="fil6"
         points="13157,14476 13195,14510 13216,14510 "
         id="polygon12570" /><polygon
         class="fil6"
         points="13157,14476 13191,14476 13216,14510 "
         id="polygon12572" /><polygon
         class="fil0 str7"
         points="12890,14510 12912,14510 "
         id="polygon12574" /><polygon
         class="fil0 str7"
         points="13195,14510 13216,14510 "
         id="polygon12576" /><polygon
         class="fil6"
         points="12890,14510 12886,14514 12912,14514 "
         id="polygon12578" /><polygon
         class="fil6"
         points="12890,14510 12912,14510 12912,14514 "
         id="polygon12580" /><polygon
         class="fil6"
         points="13195,14510 13195,14514 13221,14514 "
         id="polygon12582" /><polygon
         class="fil6"
         points="13195,14510 13216,14510 13221,14514 "
         id="polygon12584" /><polygon
         class="fil0 str7"
         points="12886,14514 12912,14514 "
         id="polygon12586" /><polygon
         class="fil0 str7"
         points="13195,14514 13221,14514 "
         id="polygon12588" /><polygon
         class="fil6"
         points="12886,14514 12869,14561 12886,14561 "
         id="polygon12590" /><polygon
         class="fil6"
         points="12886,14514 12912,14514 12886,14561 "
         id="polygon12592" /><polygon
         class="fil6"
         points="13195,14514 13221,14561 13237,14561 "
         id="polygon12594" /><polygon
         class="fil6"
         points="13195,14514 13221,14514 13237,14561 "
         id="polygon12596" /><polygon
         class="fil0 str7"
         points="12869,14561 12886,14561 "
         id="polygon12598" /><polygon
         class="fil0 str7"
         points="13221,14561 13237,14561 "
         id="polygon12600" /><polyline
         class="fil0 str7"
         points="12865,14561 12886,14561 12869,14561 "
         id="polyline12602" /><polygon
         class="fil0 str7"
         points="13221,14561 13242,14561 "
         id="polygon12604" /><polygon
         class="fil0 str7"
         points="12865,14561 12886,14561 "
         id="polygon12606" /><polygon
         class="fil0 str7"
         points="13221,14561 13242,14561 "
         id="polygon12608" /><polygon
         class="fil6"
         points="12865,14561 12861,14611 12878,14611 "
         id="polygon12610" /><polygon
         class="fil6"
         points="12865,14561 12886,14561 12878,14611 "
         id="polygon12612" /><polygon
         class="fil6"
         points="13221,14561 13229,14611 13246,14611 "
         id="polygon12614" /><polygon
         class="fil6"
         points="13221,14561 13242,14561 13246,14611 "
         id="polygon12616" /><polygon
         class="fil0 str7"
         points="12861,14611 12878,14611 "
         id="polygon12618" /><polygon
         class="fil0 str7"
         points="13229,14611 13246,14611 "
         id="polygon12620" /><polygon
         class="fil6"
         points="12861,14611 12865,14662 12886,14662 "
         id="polygon12622" /><polygon
         class="fil6"
         points="12861,14611 12878,14611 12886,14662 "
         id="polygon12624" /><polygon
         class="fil6"
         points="13229,14611 13221,14662 13242,14662 "
         id="polygon12626" /><polygon
         class="fil6"
         points="13229,14611 13246,14611 13242,14662 "
         id="polygon12628" /><polygon
         class="fil0 str7"
         points="12865,14662 12886,14662 "
         id="polygon12630" /><polygon
         class="fil0 str7"
         points="13221,14662 13242,14662 "
         id="polygon12632" /><polyline
         class="fil0 str7"
         points="12865,14666 12886,14666 12865,14662 "
         id="polyline12634" /><path
         class="fil0 str7"
         d="M13221 14666l16 0m-16 -4l21 4"
         id="path12636" /><polygon
         class="fil0 str7"
         points="12869,14666 12886,14666 "
         id="polygon12638" /><polygon
         class="fil0 str7"
         points="13221,14666 13237,14666 "
         id="polygon12640" /><polygon
         class="fil6"
         points="12869,14666 12886,14709 12912,14709 "
         id="polygon12642" /><polygon
         class="fil6"
         points="12869,14666 12886,14666 12912,14709 "
         id="polygon12644" /><polygon
         class="fil6"
         points="13221,14666 13195,14709 13221,14709 "
         id="polygon12646" /><polygon
         class="fil6"
         points="13221,14666 13237,14666 13221,14709 "
         id="polygon12648" /><polygon
         class="fil0 str7"
         points="12886,14709 12912,14709 "
         id="polygon12650" /><polygon
         class="fil0 str7"
         points="13195,14709 13221,14709 "
         id="polygon12652" /><polygon
         class="fil6"
         points="12886,14709 12890,14713 12912,14713 "
         id="polygon12654" /><polygon
         class="fil6"
         points="12886,14709 12912,14709 12912,14713 "
         id="polygon12656" /><polygon
         class="fil6"
         points="13195,14709 13195,14713 13216,14713 "
         id="polygon12658" /><polygon
         class="fil6"
         points="13195,14709 13221,14709 13216,14713 "
         id="polygon12660" /><polygon
         class="fil0 str7"
         points="12890,14713 12912,14713 "
         id="polygon12662" /><polygon
         class="fil0 str7"
         points="13195,14713 13216,14713 "
         id="polygon12664" /><polygon
         class="fil6"
         points="12890,14713 12916,14751 12945,14751 "
         id="polygon12666" /><polygon
         class="fil6"
         points="12890,14713 12912,14713 12945,14751 "
         id="polygon12668" /><polygon
         class="fil6"
         points="13195,14713 13157,14751 13191,14751 "
         id="polygon12670" /><polygon
         class="fil6"
         points="13195,14713 13216,14713 13191,14751 "
         id="polygon12672" /><polygon
         class="fil0 str7"
         points="12916,14751 12945,14751 "
         id="polygon12674" /><polygon
         class="fil0 str7"
         points="13157,14751 13191,14751 "
         id="polygon12676" /><polyline
         class="fil0 str7"
         points="12920,14751 12950,14751 12916,14751 "
         id="polyline12678" /><polygon
         class="fil0 str7"
         points="13157,14751 13187,14751 "
         id="polygon12680" /><polygon
         class="fil0 str7"
         points="12920,14751 12950,14751 "
         id="polygon12682" /><polygon
         class="fil0 str7"
         points="13157,14751 13187,14751 "
         id="polygon12684" /><polygon
         class="fil6"
         points="12920,14751 12954,14776 13000,14776 "
         id="polygon12686" /><polygon
         class="fil6"
         points="12920,14751 12950,14751 13000,14776 "
         id="polygon12688" /><polygon
         class="fil6"
         points="13157,14751 13106,14776 13153,14776 "
         id="polygon12690" /><polygon
         class="fil6"
         points="13157,14751 13187,14751 13153,14776 "
         id="polygon12692" /><polyline
         class="fil0 str7"
         points="12954,14781 13013,14781 12954,14776 "
         id="polyline12694" /><path
         class="fil0 str7"
         d="M13089 14781l60 0m-43 -5l47 5"
         id="path12696" /><polygon
         class="fil0 str7"
         points="12958,14781 13013,14781 "
         id="polygon12698" /><polygon
         class="fil0 str7"
         points="13089,14781 13149,14781 "
         id="polygon12700" /><polygon
         class="fil6"
         points="12958,14781 12971,14785 13051,14785 "
         id="polygon12702" /><polygon
         class="fil6"
         points="12958,14781 13013,14781 13051,14785 "
         id="polygon12704" /><polygon
         class="fil6"
         points="13089,14781 13051,14785 13136,14785 "
         id="polygon12706" /><polygon
         class="fil6"
         points="13089,14781 13149,14781 13136,14785 "
         id="polygon12708" /><polygon
         class="fil6"
         points="12971,14785 13005,14798 13102,14798 "
         id="polygon12710" /><polygon
         class="fil6"
         points="12971,14785 13136,14785 13102,14798 "
         id="polygon12712" /><polygon
         class="fil6"
         points="13005,14798 13102,14798 13051,14806 "
         id="polygon12714" /><line
         class="fil0 str7"
         x1="13140"
         y1="14463"
         x2="13144"
         y2="14463"
         id="line12716" /><polygon
         class="fil6"
         points="13140,14463 12882,14611 13140,14611 "
         id="polygon12718" /><line
         class="fil0 str7"
         x1="13140"
         y1="14463"
         x2="13140"
         y2="14611"
         id="line12720" /><polygon
         class="fil6"
         points="12882,14611 13140,14611 13140,14764 "
         id="polygon12722" /><polygon
         class="fil0 str1"
         points="12657,15009 13449,15009 13449,14218 12657,14218 "
         id="polygon12724" /><polygon
         class="fil1"
         points="12696,14603 12696,14620 12861,14603 "
         id="polygon12726" /><polygon
         class="fil1"
         points="12696,14620 12861,14603 12861,14620 "
         id="polygon12728" /><polygon
         class="fil1"
         points="13246,14607 13246,14620 13411,14607 "
         id="polygon12730" /><polygon
         class="fil1"
         points="13246,14620 13411,14607 13411,14620 "
         id="polygon12732" /></g><metadata
       id="CorelCorpID_0Corel-Layer" /></g></svg>