<?xml version="1.0" encoding="UTF-8" standalone="no"?>
<!-- Creator: CorelDRAW X8 -->

<svg
   xmlns:dc="http://purl.org/dc/elements/1.1/"
   xmlns:cc="http://creativecommons.org/ns#"
   xmlns:rdf="http://www.w3.org/1999/02/22-rdf-syntax-ns#"
   xmlns:svg="http://www.w3.org/2000/svg"
   xmlns="http://www.w3.org/2000/svg"
   xmlns:sodipodi="http://sodipodi.sourceforge.net/DTD/sodipodi-0.dtd"
   xmlns:inkscape="http://www.inkscape.org/namespaces/inkscape"
   xml:space="preserve"
   width="254.5mm"
   height="750mm"
   version="1.1"
   style="shape-rendering:geometricPrecision; text-rendering:geometricPrecision; image-rendering:optimizeQuality; fill-rule:evenodd; clip-rule:evenodd"
   viewBox="0 0 25450 75000"
   id="svg2"
   inkscape:version="0.91 r13725"
   sodipodi:docname="013.svg"><metadata
     id="metadata51242"><rdf:RDF><cc:Work
         rdf:about=""><dc:format>image/svg+xml</dc:format><dc:type
           rdf:resource="http://purl.org/dc/dcmitype/StillImage" /><dc:title></dc:title></cc:Work></rdf:RDF></metadata><sodipodi:namedview
     pagecolor="#ffffff"
     bordercolor="#666666"
     borderopacity="1"
     objecttolerance="10"
     gridtolerance="10"
     guidetolerance="10"
     inkscape:pageopacity="0"
     inkscape:pageshadow="2"
     inkscape:window-width="1920"
     inkscape:window-height="1018"
     id="namedview51240"
     showgrid="false"
     inkscape:zoom="1.4208948"
     inkscape:cx="476.72103"
     inkscape:cy="2379.1552"
     inkscape:window-x="-8"
     inkscape:window-y="-8"
     inkscape:window-maximized="1"
     inkscape:current-layer="svg2" /><defs
     id="defs4"><style
       type="text/css"
       id="style6"><![CDATA[
       svg {
                position: absolute;
            }
    .str16 {stroke:red;stroke-width:59.27;stroke-linecap:round;stroke-linejoin:round}
    .str17 {stroke:yellow;stroke-width:59.27;stroke-linecap:round;stroke-linejoin:round}
    .str20 {stroke:#DDA56E;stroke-width:21.17;stroke-linecap:round;stroke-linejoin:round}
    .str18 {stroke:red;stroke-width:21.17;stroke-linecap:round;stroke-linejoin:round}
    .str21 {stroke:yellow;stroke-width:21.17;stroke-linecap:round;stroke-linejoin:round}
    .str15 {stroke:black;stroke-width:8.47;stroke-linecap:round;stroke-linejoin:round}
    .str0 {stroke:black;stroke-width:29.63;stroke-linecap:round;stroke-linejoin:round}
    .str1 {stroke:black;stroke-width:16.93;stroke-linecap:round;stroke-linejoin:round}
    .str10 {stroke:gray;stroke-width:16.93;stroke-linecap:round;stroke-linejoin:round}
    .str4 {stroke:black;stroke-width:4.23;stroke-linecap:round;stroke-linejoin:round}
    .str14 {stroke:#0037DD;stroke-width:4.23;stroke-linecap:round;stroke-linejoin:round}
    .str2 {stroke:#006EDD;stroke-width:4.23;stroke-linecap:round;stroke-linejoin:round}
    .str5 {stroke:#00B85C;stroke-width:4.23;stroke-linecap:round;stroke-linejoin:round}
    .str3 {stroke:#00DD00;stroke-width:4.23;stroke-linecap:round;stroke-linejoin:round}
    .str9 {stroke:lime;stroke-width:4.23;stroke-linecap:round;stroke-linejoin:round}
    .str12 {stroke:gray;stroke-width:4.23;stroke-linecap:round;stroke-linejoin:round}
    .str13 {stroke:#989898;stroke-width:4.23;stroke-linecap:round;stroke-linejoin:round}
    .str11 {stroke:#BABABA;stroke-width:4.23;stroke-linecap:round;stroke-linejoin:round}
    .str7 {stroke:red;stroke-width:4.23;stroke-linecap:round;stroke-linejoin:round}
    .str8 {stroke:#FF7F00;stroke-width:4.23;stroke-linecap:round;stroke-linejoin:round}
    .str6 {stroke:yellow;stroke-width:4.23;stroke-linecap:round;stroke-linejoin:round}
    .str23 {stroke:#00BFFF;stroke-width:25.4;stroke-linecap:round;stroke-linejoin:round}
    .str22 {stroke:#37DD00;stroke-width:25.4;stroke-linecap:round;stroke-linejoin:round}
    .str19 {stroke:black;stroke-width:12.7;stroke-linecap:round;stroke-linejoin:round}
    .fil0 {fill:none}
    .fil1 {fill:black}
    .fil13 {fill:#0037DD}
    .fil2 {fill:#006EDD}
    .fil3 {fill:#00B85C}
    .fil4 {fill:#00DD00}
    .fil9 {fill:lime}
    .fil7 {fill:gray}
    .fil12 {fill:#989898}
    .fil11 {fill:#B85C00}
    .fil10 {fill:#BABABA}
    .fil14 {fill:#FCFCFC}
    .fil6 {fill:red}
    .fil8 {fill:#FF7F00}
    .fil5 {fill:yellow}
   ]]></style></defs><g
     id="Слой_x0020_1"><g
       id="g55760"><polygon
         class="fil7"
         points="13144,15763 12869,15924 13144,15924 "
         id="polygon12734" /><polygon
         class="fil7"
         points="12869,15924 13144,15924 13144,16081 "
         id="polygon12736" /><line
         class="fil0 str6"
         x1="13022"
         y1="15746"
         x2="13094"
         y2="15746"
         id="line12738" /><polygon
         class="fil5"
         points="13022,15746 12988,15755 13115,15755 "
         id="polygon12740" /><polygon
         class="fil5"
         points="13022,15746 13094,15746 13115,15755 "
         id="polygon12742" /><polygon
         class="fil5"
         points="12988,15755 12967,15763 13144,15763 "
         id="polygon12744" /><polygon
         class="fil5"
         points="12988,15755 13115,15755 13144,15763 "
         id="polygon12746" /><polygon
         class="fil5"
         points="12967,15763 12941,15780 13119,15780 "
         id="polygon12748" /><polygon
         class="fil5"
         points="12967,15763 13144,15763 13119,15780 "
         id="polygon12750" /><polygon
         class="fil5"
         points="13144,15763 13144,15780 13161,15780 "
         id="polygon12752" /><line
         class="fil0 str6"
         x1="13144"
         y1="15763"
         x2="13161"
         y2="15780"
         id="line12754" /><polygon
         class="fil5"
         points="12941,15780 12916,15805 13072,15805 "
         id="polygon12756" /><polygon
         class="fil5"
         points="12941,15780 13119,15780 13072,15805 "
         id="polygon12758" /><polygon
         class="fil5"
         points="13144,15780 13144,15805 13195,15805 "
         id="polygon12760" /><polygon
         class="fil5"
         points="13144,15780 13161,15780 13195,15805 "
         id="polygon12762" /><polygon
         class="fil5"
         points="12916,15805 12903,15818 13047,15818 "
         id="polygon12764" /><polygon
         class="fil5"
         points="12916,15805 13072,15805 13047,15818 "
         id="polygon12766" /><polygon
         class="fil5"
         points="13144,15805 13144,15818 13204,15818 "
         id="polygon12768" /><polygon
         class="fil5"
         points="13144,15805 13195,15805 13204,15818 "
         id="polygon12770" /><polygon
         class="fil5"
         points="12903,15818 12882,15860 12979,15860 "
         id="polygon12772" /><polygon
         class="fil5"
         points="12903,15818 13047,15818 12979,15860 "
         id="polygon12774" /><polygon
         class="fil5"
         points="13144,15818 13144,15860 13225,15860 "
         id="polygon12776" /><polygon
         class="fil5"
         points="13144,15818 13204,15818 13225,15860 "
         id="polygon12778" /><polygon
         class="fil5"
         points="12882,15860 12878,15869 12962,15869 "
         id="polygon12780" /><polygon
         class="fil5"
         points="12882,15860 12979,15860 12962,15869 "
         id="polygon12782" /><polygon
         class="fil5"
         points="13144,15860 13144,15869 13225,15869 "
         id="polygon12784" /><polygon
         class="fil5"
         points="13144,15860 13225,15860 13225,15869 "
         id="polygon12786" /><line
         class="fil0 str6"
         x1="12878"
         y1="15869"
         x2="12869"
         y2="15924"
         id="line12788" /><polygon
         class="fil5"
         points="12878,15869 12962,15869 12869,15924 "
         id="polygon12790" /><polygon
         class="fil5"
         points="13144,15869 13144,15924 13237,15924 "
         id="polygon12792" /><polygon
         class="fil5"
         points="13144,15869 13225,15869 13237,15924 "
         id="polygon12794" /><line
         class="fil0 str6"
         x1="12869"
         y1="15924"
         x2="12873"
         y2="15924"
         id="line12796" /><polygon
         class="fil0 str6"
         points="13144,15924 13237,15924 "
         id="polygon12798" /><line
         class="fil0 str6"
         x1="12869"
         y1="15924"
         x2="12873"
         y2="15924"
         id="line12800" /><polygon
         class="fil0 str6"
         points="13144,15924 13237,15924 "
         id="polygon12802" /><polygon
         class="fil5"
         points="12869,15924 12878,15974 12962,15974 "
         id="polygon12804" /><line
         class="fil0 str6"
         x1="12869"
         y1="15924"
         x2="12962"
         y2="15974"
         id="line12806" /><polygon
         class="fil5"
         points="13144,15924 13144,15974 13225,15974 "
         id="polygon12808" /><polygon
         class="fil5"
         points="13144,15924 13237,15924 13225,15974 "
         id="polygon12810" /><polygon
         class="fil5"
         points="12878,15974 12882,15983 12979,15983 "
         id="polygon12812" /><polygon
         class="fil5"
         points="12878,15974 12962,15974 12979,15983 "
         id="polygon12814" /><polygon
         class="fil5"
         points="13144,15974 13144,15983 13225,15983 "
         id="polygon12816" /><polygon
         class="fil5"
         points="13144,15974 13225,15974 13225,15983 "
         id="polygon12818" /><polygon
         class="fil5"
         points="12882,15983 12903,16026 13051,16026 "
         id="polygon12820" /><polygon
         class="fil5"
         points="12882,15983 12979,15983 13051,16026 "
         id="polygon12822" /><polygon
         class="fil5"
         points="13144,15983 13144,16026 13204,16026 "
         id="polygon12824" /><polygon
         class="fil5"
         points="13144,15983 13225,15983 13204,16026 "
         id="polygon12826" /><polygon
         class="fil5"
         points="12903,16026 12916,16038 13072,16038 "
         id="polygon12828" /><polygon
         class="fil5"
         points="12903,16026 13051,16026 13072,16038 "
         id="polygon12830" /><polygon
         class="fil5"
         points="13144,16026 13144,16038 13195,16038 "
         id="polygon12832" /><polygon
         class="fil5"
         points="13144,16026 13204,16026 13195,16038 "
         id="polygon12834" /><polygon
         class="fil5"
         points="12916,16038 12941,16064 13119,16064 "
         id="polygon12836" /><polygon
         class="fil5"
         points="12916,16038 13072,16038 13119,16064 "
         id="polygon12838" /><polygon
         class="fil5"
         points="13144,16038 13144,16064 13161,16064 "
         id="polygon12840" /><polygon
         class="fil5"
         points="13144,16038 13195,16038 13161,16064 "
         id="polygon12842" /><polygon
         class="fil5"
         points="12941,16064 12967,16081 13144,16081 "
         id="polygon12844" /><polygon
         class="fil5"
         points="12941,16064 13119,16064 13144,16081 "
         id="polygon12846" /><polygon
         class="fil5"
         points="13144,16064 13161,16064 13144,16081 "
         id="polygon12848" /><polygon
         class="fil5"
         points="12967,16081 12988,16093 13115,16093 "
         id="polygon12850" /><polygon
         class="fil5"
         points="12967,16081 13144,16081 13115,16093 "
         id="polygon12852" /><polygon
         class="fil5"
         points="12988,16093 13022,16102 13094,16102 "
         id="polygon12854" /><polygon
         class="fil5"
         points="12988,16093 13115,16093 13094,16102 "
         id="polygon12856" /><line
         class="fil0 str6"
         x1="13022"
         y1="16102"
         x2="13094"
         y2="16102"
         id="line12858" /><polygon
         class="fil1"
         points="12746,16097 12725,16110 13360,16097 "
         id="polygon12860" /><polygon
         class="fil1"
         points="12725,16110 13360,16097 13381,16110 "
         id="polygon12862" /><polygon
         class="fil1"
         points="13360,16097 13381,16110 13051,15568 "
         id="polygon12864" /><polygon
         class="fil1"
         points="13381,16110 13051,15568 13051,15543 "
         id="polygon12866" /><polygon
         class="fil1"
         points="13051,15568 13051,15543 12746,16097 "
         id="polygon12868" /><polygon
         class="fil1"
         points="13051,15543 12746,16097 12725,16110 "
         id="polygon12870" /><line
         class="fil0 str1"
         x1="12869"
         y1="15924"
         x2="13144"
         y2="16081"
         id="line12872" /><polygon
         class="fil0 str1"
         points="13237,15924 13229,15864 13199,15814 13161,15776 13110,15750 13051,15742 12996,15750 12945,15776 12907,15814 12878,15864 12869,15924 12878,15979 12907,16030 12945,16072 12996,16097 13051,16106 13110,16097 13161,16072 13199,16030 13229,15979 "
         id="polygon12874" /><polyline
         class="fil0 str1"
         points="13144,16081 13144,15763 12869,15924 "
         id="polyline12876" /><polygon
         class="fil0 str1"
         points="12657,16224 13449,16224 13449,15433 12657,15433 "
         id="polygon12878" /></g><metadata
       id="CorelCorpID_0Corel-Layer" /></g></svg>