<?xml version="1.0" encoding="UTF-8" standalone="no"?>
<!-- Creator: CorelDRAW X8 -->

<svg
   xmlns:dc="http://purl.org/dc/elements/1.1/"
   xmlns:cc="http://creativecommons.org/ns#"
   xmlns:rdf="http://www.w3.org/1999/02/22-rdf-syntax-ns#"
   xmlns:svg="http://www.w3.org/2000/svg"
   xmlns="http://www.w3.org/2000/svg"
   xmlns:sodipodi="http://sodipodi.sourceforge.net/DTD/sodipodi-0.dtd"
   xmlns:inkscape="http://www.inkscape.org/namespaces/inkscape"
   xml:space="preserve"
   width="254.5mm"
   height="750mm"
   version="1.1"
   style="shape-rendering:geometricPrecision; text-rendering:geometricPrecision; image-rendering:optimizeQuality; fill-rule:evenodd; clip-rule:evenodd"
   viewBox="0 0 25450 75000"
   id="svg2"
   inkscape:version="0.91 r13725"
   sodipodi:docname="014.svg"><metadata
     id="metadata51242"><rdf:RDF><cc:Work
         rdf:about=""><dc:format>image/svg+xml</dc:format><dc:type
           rdf:resource="http://purl.org/dc/dcmitype/StillImage" /><dc:title></dc:title></cc:Work></rdf:RDF></metadata><sodipodi:namedview
     pagecolor="#ffffff"
     bordercolor="#666666"
     borderopacity="1"
     objecttolerance="10"
     gridtolerance="10"
     guidetolerance="10"
     inkscape:pageopacity="0"
     inkscape:pageshadow="2"
     inkscape:window-width="1920"
     inkscape:window-height="1018"
     id="namedview51240"
     showgrid="false"
     inkscape:zoom="1.4208948"
     inkscape:cx="476.72103"
     inkscape:cy="2379.1552"
     inkscape:window-x="-8"
     inkscape:window-y="-8"
     inkscape:window-maximized="1"
     inkscape:current-layer="svg2" /><defs
     id="defs4"><style
       type="text/css"
       id="style6"><![CDATA[
       svg {
                position: absolute;
            }
    .str16 {stroke:red;stroke-width:59.27;stroke-linecap:round;stroke-linejoin:round}
    .str17 {stroke:yellow;stroke-width:59.27;stroke-linecap:round;stroke-linejoin:round}
    .str20 {stroke:#DDA56E;stroke-width:21.17;stroke-linecap:round;stroke-linejoin:round}
    .str18 {stroke:red;stroke-width:21.17;stroke-linecap:round;stroke-linejoin:round}
    .str21 {stroke:yellow;stroke-width:21.17;stroke-linecap:round;stroke-linejoin:round}
    .str15 {stroke:black;stroke-width:8.47;stroke-linecap:round;stroke-linejoin:round}
    .str0 {stroke:black;stroke-width:29.63;stroke-linecap:round;stroke-linejoin:round}
    .str1 {stroke:black;stroke-width:16.93;stroke-linecap:round;stroke-linejoin:round}
    .str10 {stroke:gray;stroke-width:16.93;stroke-linecap:round;stroke-linejoin:round}
    .str4 {stroke:black;stroke-width:4.23;stroke-linecap:round;stroke-linejoin:round}
    .str14 {stroke:#0037DD;stroke-width:4.23;stroke-linecap:round;stroke-linejoin:round}
    .str2 {stroke:#006EDD;stroke-width:4.23;stroke-linecap:round;stroke-linejoin:round}
    .str5 {stroke:#00B85C;stroke-width:4.23;stroke-linecap:round;stroke-linejoin:round}
    .str3 {stroke:#00DD00;stroke-width:4.23;stroke-linecap:round;stroke-linejoin:round}
    .str9 {stroke:lime;stroke-width:4.23;stroke-linecap:round;stroke-linejoin:round}
    .str12 {stroke:gray;stroke-width:4.23;stroke-linecap:round;stroke-linejoin:round}
    .str13 {stroke:#989898;stroke-width:4.23;stroke-linecap:round;stroke-linejoin:round}
    .str11 {stroke:#BABABA;stroke-width:4.23;stroke-linecap:round;stroke-linejoin:round}
    .str7 {stroke:red;stroke-width:4.23;stroke-linecap:round;stroke-linejoin:round}
    .str8 {stroke:#FF7F00;stroke-width:4.23;stroke-linecap:round;stroke-linejoin:round}
    .str6 {stroke:yellow;stroke-width:4.23;stroke-linecap:round;stroke-linejoin:round}
    .str23 {stroke:#00BFFF;stroke-width:25.4;stroke-linecap:round;stroke-linejoin:round}
    .str22 {stroke:#37DD00;stroke-width:25.4;stroke-linecap:round;stroke-linejoin:round}
    .str19 {stroke:black;stroke-width:12.7;stroke-linecap:round;stroke-linejoin:round}
    .fil0 {fill:none}
    .fil1 {fill:black}
    .fil13 {fill:#0037DD}
    .fil2 {fill:#006EDD}
    .fil3 {fill:#00B85C}
    .fil4 {fill:#00DD00}
    .fil9 {fill:lime}
    .fil7 {fill:gray}
    .fil12 {fill:#989898}
    .fil11 {fill:#B85C00}
    .fil10 {fill:#BABABA}
    .fil14 {fill:#FCFCFC}
    .fil6 {fill:red}
    .fil8 {fill:#FF7F00}
    .fil5 {fill:yellow}
   ]]></style></defs><g
     id="Слой_x0020_1"><g
       id="g55835"><polygon
         class="fil5"
         points="13144,16767 12869,16923 13144,16923 "
         id="polygon12880" /><polygon
         class="fil5"
         points="12869,16923 13144,16923 13144,17079 "
         id="polygon12882" /><line
         class="fil0 str8"
         x1="13022"
         y1="16745"
         x2="13094"
         y2="16745"
         id="line12884" /><polygon
         class="fil8"
         points="13022,16745 12988,16753 13115,16753 "
         id="polygon12886" /><polygon
         class="fil8"
         points="13022,16745 13094,16745 13115,16753 "
         id="polygon12888" /><polygon
         class="fil8"
         points="12988,16753 12967,16767 13144,16767 "
         id="polygon12890" /><polygon
         class="fil8"
         points="12988,16753 13115,16753 13144,16767 "
         id="polygon12892" /><polygon
         class="fil8"
         points="12967,16767 12941,16779 13119,16779 "
         id="polygon12894" /><polygon
         class="fil8"
         points="12967,16767 13144,16767 13119,16779 "
         id="polygon12896" /><polygon
         class="fil8"
         points="13144,16767 13144,16779 13161,16779 "
         id="polygon12898" /><polygon
         class="fil8"
         points="12941,16779 12916,16805 13072,16805 "
         id="polygon12900" /><polygon
         class="fil8"
         points="12941,16779 13119,16779 13072,16805 "
         id="polygon12902" /><polygon
         class="fil8"
         points="13144,16779 13144,16805 13195,16805 "
         id="polygon12904" /><polygon
         class="fil8"
         points="13144,16779 13161,16779 13195,16805 "
         id="polygon12906" /><polygon
         class="fil8"
         points="12916,16805 12903,16821 13047,16821 "
         id="polygon12908" /><polygon
         class="fil8"
         points="12916,16805 13072,16805 13047,16821 "
         id="polygon12910" /><polygon
         class="fil8"
         points="13144,16805 13144,16821 13204,16821 "
         id="polygon12912" /><polygon
         class="fil8"
         points="13144,16805 13195,16805 13204,16821 "
         id="polygon12914" /><polygon
         class="fil8"
         points="12903,16821 12882,16860 12979,16860 "
         id="polygon12916" /><polygon
         class="fil8"
         points="12903,16821 13047,16821 12979,16860 "
         id="polygon12918" /><polygon
         class="fil8"
         points="13144,16821 13144,16860 13225,16860 "
         id="polygon12920" /><polygon
         class="fil8"
         points="13144,16821 13204,16821 13225,16860 "
         id="polygon12922" /><polygon
         class="fil8"
         points="12882,16860 12878,16868 12962,16868 "
         id="polygon12924" /><polygon
         class="fil8"
         points="12882,16860 12979,16860 12962,16868 "
         id="polygon12926" /><polygon
         class="fil8"
         points="13144,16860 13144,16868 13225,16868 "
         id="polygon12928" /><polygon
         class="fil8"
         points="13144,16860 13225,16860 13225,16868 "
         id="polygon12930" /><line
         class="fil0 str8"
         x1="12878"
         y1="16868"
         x2="12869"
         y2="16923"
         id="line12932" /><polygon
         class="fil8"
         points="12878,16868 12962,16868 12869,16923 "
         id="polygon12934" /><polygon
         class="fil8"
         points="13144,16868 13144,16923 13237,16923 "
         id="polygon12936" /><polygon
         class="fil8"
         points="13144,16868 13225,16868 13237,16923 "
         id="polygon12938" /><line
         class="fil0 str8"
         x1="12869"
         y1="16923"
         x2="12873"
         y2="16923"
         id="line12940" /><polygon
         class="fil0 str8"
         points="13144,16923 13237,16923 "
         id="polygon12942" /><line
         class="fil0 str8"
         x1="12869"
         y1="16923"
         x2="12873"
         y2="16923"
         id="line12944" /><polygon
         class="fil0 str8"
         points="13144,16923 13237,16923 "
         id="polygon12946" /><polygon
         class="fil8"
         points="12869,16923 12878,16978 12962,16978 "
         id="polygon12948" /><line
         class="fil0 str8"
         x1="12869"
         y1="16923"
         x2="12962"
         y2="16978"
         id="line12950" /><polygon
         class="fil8"
         points="13144,16923 13144,16978 13225,16978 "
         id="polygon12952" /><polygon
         class="fil8"
         points="13144,16923 13237,16923 13225,16978 "
         id="polygon12954" /><polygon
         class="fil8"
         points="12878,16978 12882,16986 12979,16986 "
         id="polygon12956" /><polygon
         class="fil8"
         points="12878,16978 12962,16978 12979,16986 "
         id="polygon12958" /><polygon
         class="fil8"
         points="13144,16978 13144,16986 13225,16986 "
         id="polygon12960" /><polygon
         class="fil8"
         points="13144,16978 13225,16978 13225,16986 "
         id="polygon12962" /><polygon
         class="fil8"
         points="12882,16986 12903,17024 13051,17024 "
         id="polygon12964" /><polygon
         class="fil8"
         points="12882,16986 12979,16986 13051,17024 "
         id="polygon12966" /><polygon
         class="fil8"
         points="13144,16986 13144,17024 13204,17024 "
         id="polygon12968" /><polygon
         class="fil8"
         points="13144,16986 13225,16986 13204,17024 "
         id="polygon12970" /><polygon
         class="fil8"
         points="12903,17024 12916,17041 13072,17041 "
         id="polygon12972" /><polygon
         class="fil8"
         points="12903,17024 13051,17024 13072,17041 "
         id="polygon12974" /><polygon
         class="fil8"
         points="13144,17024 13144,17041 13195,17041 "
         id="polygon12976" /><polygon
         class="fil8"
         points="13144,17024 13204,17024 13195,17041 "
         id="polygon12978" /><polygon
         class="fil8"
         points="12916,17041 12941,17067 13119,17067 "
         id="polygon12980" /><polygon
         class="fil8"
         points="12916,17041 13072,17041 13119,17067 "
         id="polygon12982" /><polygon
         class="fil8"
         points="13144,17041 13144,17067 13161,17067 "
         id="polygon12984" /><polygon
         class="fil8"
         points="13144,17041 13195,17041 13161,17067 "
         id="polygon12986" /><polygon
         class="fil8"
         points="12941,17067 12967,17079 13144,17079 "
         id="polygon12988" /><polygon
         class="fil8"
         points="12941,17067 13119,17067 13144,17079 "
         id="polygon12990" /><polygon
         class="fil8"
         points="13144,17067 13161,17067 13144,17079 "
         id="polygon12992" /><polygon
         class="fil8"
         points="12967,17079 12988,17093 13115,17093 "
         id="polygon12994" /><polygon
         class="fil8"
         points="12967,17079 13144,17079 13115,17093 "
         id="polygon12996" /><polygon
         class="fil8"
         points="12988,17093 13022,17101 13094,17101 "
         id="polygon12998" /><polygon
         class="fil8"
         points="12988,17093 13115,17093 13094,17101 "
         id="polygon13000" /><line
         class="fil0 str8"
         x1="13022"
         y1="17101"
         x2="13094"
         y2="17101"
         id="line13002" /><polygon
         class="fil1"
         points="12746,17101 12725,17114 13360,17101 "
         id="polygon13004" /><polygon
         class="fil1"
         points="12725,17114 13360,17101 13381,17114 "
         id="polygon13006" /><polygon
         class="fil1"
         points="13360,17101 13381,17114 13051,16567 "
         id="polygon13008" /><polygon
         class="fil1"
         points="13381,17114 13051,16567 13051,16542 "
         id="polygon13010" /><polygon
         class="fil1"
         points="13051,16567 13051,16542 12746,17101 "
         id="polygon13012" /><polygon
         class="fil1"
         points="13051,16542 12746,17101 12725,17114 "
         id="polygon13014" /><line
         class="fil0 str1"
         x1="12869"
         y1="16923"
         x2="13144"
         y2="17079"
         id="line13016" /><polygon
         class="fil0 str1"
         points="13237,16923 13229,16868 13199,16817 13161,16774 13110,16750 13051,16741 12996,16750 12945,16774 12907,16817 12878,16868 12869,16923 12878,16978 12907,17029 12945,17071 12996,17096 13051,17105 13110,17096 13161,17071 13199,17029 13229,16978 "
         id="polygon13018" /><polyline
         class="fil0 str1"
         points="13144,17079 13144,16767 12869,16923 "
         id="polyline13020" /><polygon
         class="fil0 str1"
         points="12657,17224 13449,17224 13449,16432 12657,16432 "
         id="polygon13022" /></g><metadata
       id="CorelCorpID_0Corel-Layer" /></g></svg>