<?xml version="1.0" encoding="UTF-8" standalone="no"?>
<!-- Creator: CorelDRAW X8 -->

<svg
   xmlns:dc="http://purl.org/dc/elements/1.1/"
   xmlns:cc="http://creativecommons.org/ns#"
   xmlns:rdf="http://www.w3.org/1999/02/22-rdf-syntax-ns#"
   xmlns:svg="http://www.w3.org/2000/svg"
   xmlns="http://www.w3.org/2000/svg"
   xmlns:sodipodi="http://sodipodi.sourceforge.net/DTD/sodipodi-0.dtd"
   xmlns:inkscape="http://www.inkscape.org/namespaces/inkscape"
   xml:space="preserve"
   width="254.5mm"
   height="750mm"
   version="1.1"
   style="shape-rendering:geometricPrecision; text-rendering:geometricPrecision; image-rendering:optimizeQuality; fill-rule:evenodd; clip-rule:evenodd"
   viewBox="0 0 25450 75000"
   id="svg2"
   inkscape:version="0.91 r13725"
   sodipodi:docname="015.svg"><metadata
     id="metadata51242"><rdf:RDF><cc:Work
         rdf:about=""><dc:format>image/svg+xml</dc:format><dc:type
           rdf:resource="http://purl.org/dc/dcmitype/StillImage" /><dc:title></dc:title></cc:Work></rdf:RDF></metadata><sodipodi:namedview
     pagecolor="#ffffff"
     bordercolor="#666666"
     borderopacity="1"
     objecttolerance="10"
     gridtolerance="10"
     guidetolerance="10"
     inkscape:pageopacity="0"
     inkscape:pageshadow="2"
     inkscape:window-width="1920"
     inkscape:window-height="1018"
     id="namedview51240"
     showgrid="false"
     inkscape:zoom="1.4208948"
     inkscape:cx="476.72103"
     inkscape:cy="2379.1552"
     inkscape:window-x="-8"
     inkscape:window-y="-8"
     inkscape:window-maximized="1"
     inkscape:current-layer="svg2" /><defs
     id="defs4"><style
       type="text/css"
       id="style6"><![CDATA[
       svg {
                position: absolute;
            }
    .str16 {stroke:red;stroke-width:59.27;stroke-linecap:round;stroke-linejoin:round}
    .str17 {stroke:yellow;stroke-width:59.27;stroke-linecap:round;stroke-linejoin:round}
    .str20 {stroke:#DDA56E;stroke-width:21.17;stroke-linecap:round;stroke-linejoin:round}
    .str18 {stroke:red;stroke-width:21.17;stroke-linecap:round;stroke-linejoin:round}
    .str21 {stroke:yellow;stroke-width:21.17;stroke-linecap:round;stroke-linejoin:round}
    .str15 {stroke:black;stroke-width:8.47;stroke-linecap:round;stroke-linejoin:round}
    .str0 {stroke:black;stroke-width:29.63;stroke-linecap:round;stroke-linejoin:round}
    .str1 {stroke:black;stroke-width:16.93;stroke-linecap:round;stroke-linejoin:round}
    .str10 {stroke:gray;stroke-width:16.93;stroke-linecap:round;stroke-linejoin:round}
    .str4 {stroke:black;stroke-width:4.23;stroke-linecap:round;stroke-linejoin:round}
    .str14 {stroke:#0037DD;stroke-width:4.23;stroke-linecap:round;stroke-linejoin:round}
    .str2 {stroke:#006EDD;stroke-width:4.23;stroke-linecap:round;stroke-linejoin:round}
    .str5 {stroke:#00B85C;stroke-width:4.23;stroke-linecap:round;stroke-linejoin:round}
    .str3 {stroke:#00DD00;stroke-width:4.23;stroke-linecap:round;stroke-linejoin:round}
    .str9 {stroke:lime;stroke-width:4.23;stroke-linecap:round;stroke-linejoin:round}
    .str12 {stroke:gray;stroke-width:4.23;stroke-linecap:round;stroke-linejoin:round}
    .str13 {stroke:#989898;stroke-width:4.23;stroke-linecap:round;stroke-linejoin:round}
    .str11 {stroke:#BABABA;stroke-width:4.23;stroke-linecap:round;stroke-linejoin:round}
    .str7 {stroke:red;stroke-width:4.23;stroke-linecap:round;stroke-linejoin:round}
    .str8 {stroke:#FF7F00;stroke-width:4.23;stroke-linecap:round;stroke-linejoin:round}
    .str6 {stroke:yellow;stroke-width:4.23;stroke-linecap:round;stroke-linejoin:round}
    .str23 {stroke:#00BFFF;stroke-width:25.4;stroke-linecap:round;stroke-linejoin:round}
    .str22 {stroke:#37DD00;stroke-width:25.4;stroke-linecap:round;stroke-linejoin:round}
    .str19 {stroke:black;stroke-width:12.7;stroke-linecap:round;stroke-linejoin:round}
    .fil0 {fill:none}
    .fil1 {fill:black}
    .fil13 {fill:#0037DD}
    .fil2 {fill:#006EDD}
    .fil3 {fill:#00B85C}
    .fil4 {fill:#00DD00}
    .fil9 {fill:lime}
    .fil7 {fill:gray}
    .fil12 {fill:#989898}
    .fil11 {fill:#B85C00}
    .fil10 {fill:#BABABA}
    .fil14 {fill:#FCFCFC}
    .fil6 {fill:red}
    .fil8 {fill:#FF7F00}
    .fil5 {fill:yellow}
   ]]></style></defs><g
     id="Слой_x0020_1"><g
       id="g55909"><polygon
         class="fil1"
         points="13144,17765 12869,17922 13144,17922 "
         id="polygon13024" /><polygon
         class="fil1"
         points="12869,17922 13144,17922 13144,18079 "
         id="polygon13026" /><line
         class="fil0 str9"
         x1="13022"
         y1="17744"
         x2="13094"
         y2="17744"
         id="line13028" /><polygon
         class="fil9"
         points="13022,17744 12988,17753 13115,17753 "
         id="polygon13030" /><polygon
         class="fil9"
         points="13022,17744 13094,17744 13115,17753 "
         id="polygon13032" /><polygon
         class="fil9"
         points="12988,17753 12967,17765 13144,17765 "
         id="polygon13034" /><polygon
         class="fil9"
         points="12988,17753 13115,17753 13144,17765 "
         id="polygon13036" /><polygon
         class="fil9"
         points="12967,17765 12941,17778 13119,17778 "
         id="polygon13038" /><polygon
         class="fil9"
         points="12967,17765 13144,17765 13119,17778 "
         id="polygon13040" /><polygon
         class="fil9"
         points="13144,17765 13144,17778 13161,17778 "
         id="polygon13042" /><line
         class="fil0 str9"
         x1="13144"
         y1="17765"
         x2="13161"
         y2="17778"
         id="line13044" /><polygon
         class="fil9"
         points="12941,17778 12916,17803 13072,17803 "
         id="polygon13046" /><polygon
         class="fil9"
         points="12941,17778 13119,17778 13072,17803 "
         id="polygon13048" /><polygon
         class="fil9"
         points="13144,17778 13144,17803 13195,17803 "
         id="polygon13050" /><polygon
         class="fil9"
         points="13144,17778 13161,17778 13195,17803 "
         id="polygon13052" /><polygon
         class="fil9"
         points="12916,17803 12903,17820 13047,17820 "
         id="polygon13054" /><polygon
         class="fil9"
         points="12916,17803 13072,17803 13047,17820 "
         id="polygon13056" /><polygon
         class="fil9"
         points="13144,17803 13144,17820 13204,17820 "
         id="polygon13058" /><polygon
         class="fil9"
         points="13144,17803 13195,17803 13204,17820 "
         id="polygon13060" /><polygon
         class="fil9"
         points="12903,17820 12882,17858 12979,17858 "
         id="polygon13062" /><polygon
         class="fil9"
         points="12903,17820 13047,17820 12979,17858 "
         id="polygon13064" /><polygon
         class="fil9"
         points="13144,17820 13144,17858 13225,17858 "
         id="polygon13066" /><polygon
         class="fil9"
         points="13144,17820 13204,17820 13225,17858 "
         id="polygon13068" /><polygon
         class="fil9"
         points="12882,17858 12878,17867 12962,17867 "
         id="polygon13070" /><polygon
         class="fil9"
         points="12882,17858 12979,17858 12962,17867 "
         id="polygon13072" /><polygon
         class="fil9"
         points="13144,17858 13144,17867 13225,17867 "
         id="polygon13074" /><polygon
         class="fil9"
         points="13144,17858 13225,17858 13225,17867 "
         id="polygon13076" /><line
         class="fil0 str9"
         x1="12878"
         y1="17867"
         x2="12869"
         y2="17922"
         id="line13078" /><polygon
         class="fil9"
         points="12878,17867 12962,17867 12869,17922 "
         id="polygon13080" /><polygon
         class="fil9"
         points="13144,17867 13144,17922 13237,17922 "
         id="polygon13082" /><polygon
         class="fil9"
         points="13144,17867 13225,17867 13237,17922 "
         id="polygon13084" /><line
         class="fil0 str9"
         x1="12869"
         y1="17922"
         x2="12873"
         y2="17922"
         id="line13086" /><polygon
         class="fil0 str9"
         points="13144,17922 13237,17922 "
         id="polygon13088" /><line
         class="fil0 str9"
         x1="12869"
         y1="17922"
         x2="12873"
         y2="17922"
         id="line13090" /><polygon
         class="fil0 str9"
         points="13144,17922 13237,17922 "
         id="polygon13092" /><polygon
         class="fil9"
         points="12869,17922 12878,17977 12962,17977 "
         id="polygon13094" /><line
         class="fil0 str9"
         x1="12869"
         y1="17922"
         x2="12962"
         y2="17977"
         id="line13096" /><polygon
         class="fil9"
         points="13144,17922 13144,17977 13225,17977 "
         id="polygon13098" /><polygon
         class="fil9"
         points="13144,17922 13237,17922 13225,17977 "
         id="polygon13100" /><polygon
         class="fil9"
         points="12878,17977 12882,17986 12979,17986 "
         id="polygon13102" /><polygon
         class="fil9"
         points="12878,17977 12962,17977 12979,17986 "
         id="polygon13104" /><polygon
         class="fil9"
         points="13144,17977 13144,17986 13225,17986 "
         id="polygon13106" /><polygon
         class="fil9"
         points="13144,17977 13225,17977 13225,17986 "
         id="polygon13108" /><polygon
         class="fil9"
         points="12882,17986 12903,18024 13051,18024 "
         id="polygon13110" /><polygon
         class="fil9"
         points="12882,17986 12979,17986 13051,18024 "
         id="polygon13112" /><polygon
         class="fil9"
         points="13144,17986 13144,18024 13204,18024 "
         id="polygon13114" /><polygon
         class="fil9"
         points="13144,17986 13225,17986 13204,18024 "
         id="polygon13116" /><polygon
         class="fil9"
         points="12903,18024 12916,18041 13072,18041 "
         id="polygon13118" /><polygon
         class="fil9"
         points="12903,18024 13051,18024 13072,18041 "
         id="polygon13120" /><polygon
         class="fil9"
         points="13144,18024 13144,18041 13195,18041 "
         id="polygon13122" /><polygon
         class="fil9"
         points="13144,18024 13204,18024 13195,18041 "
         id="polygon13124" /><polygon
         class="fil9"
         points="12916,18041 12941,18066 13119,18066 "
         id="polygon13126" /><polygon
         class="fil9"
         points="12916,18041 13072,18041 13119,18066 "
         id="polygon13128" /><polygon
         class="fil9"
         points="13144,18041 13144,18066 13161,18066 "
         id="polygon13130" /><polygon
         class="fil9"
         points="13144,18041 13195,18041 13161,18066 "
         id="polygon13132" /><polygon
         class="fil9"
         points="12941,18066 12967,18079 13144,18079 "
         id="polygon13134" /><polygon
         class="fil9"
         points="12941,18066 13119,18066 13144,18079 "
         id="polygon13136" /><polygon
         class="fil9"
         points="13144,18066 13161,18066 13144,18079 "
         id="polygon13138" /><polygon
         class="fil9"
         points="12967,18079 12988,18091 13115,18091 "
         id="polygon13140" /><polygon
         class="fil9"
         points="12967,18079 13144,18079 13115,18091 "
         id="polygon13142" /><polygon
         class="fil9"
         points="12988,18091 13022,18100 13094,18100 "
         id="polygon13144" /><polygon
         class="fil9"
         points="12988,18091 13115,18091 13094,18100 "
         id="polygon13146" /><line
         class="fil0 str9"
         x1="13022"
         y1="18100"
         x2="13094"
         y2="18100"
         id="line13148" /><polygon
         class="fil1"
         points="12746,18100 12725,18113 13360,18100 "
         id="polygon13150" /><polygon
         class="fil1"
         points="12725,18113 13360,18100 13381,18113 "
         id="polygon13152" /><polygon
         class="fil1"
         points="13360,18100 13381,18113 13051,17570 "
         id="polygon13154" /><polygon
         class="fil1"
         points="13381,18113 13051,17570 13051,17545 "
         id="polygon13156" /><polygon
         class="fil1"
         points="13051,17570 13051,17545 12746,18100 "
         id="polygon13158" /><polygon
         class="fil1"
         points="13051,17545 12746,18100 12725,18113 "
         id="polygon13160" /><line
         class="fil0 str1"
         x1="12869"
         y1="17922"
         x2="13144"
         y2="18079"
         id="line13162" /><polygon
         class="fil0 str1"
         points="13237,17922 13229,17867 13199,17817 13161,17774 13110,17748 13051,17740 12996,17748 12945,17774 12907,17817 12878,17867 12869,17922 12878,17977 12907,18027 12945,18070 12996,18096 13051,18104 13110,18096 13161,18070 13199,18027 13229,17977 "
         id="polygon13164" /><polyline
         class="fil0 str1"
         points="13144,18079 13144,17765 12869,17922 "
         id="polyline13166" /><polygon
         class="fil0 str1"
         points="12657,18227 13449,18227 13449,17431 12657,17431 "
         id="polygon13168" /></g><metadata
       id="CorelCorpID_0Corel-Layer" /></g></svg>