<?xml version="1.0" encoding="UTF-8" standalone="no"?>
<!-- Creator: CorelDRAW X8 -->

<svg
   xmlns:dc="http://purl.org/dc/elements/1.1/"
   xmlns:cc="http://creativecommons.org/ns#"
   xmlns:rdf="http://www.w3.org/1999/02/22-rdf-syntax-ns#"
   xmlns:svg="http://www.w3.org/2000/svg"
   xmlns="http://www.w3.org/2000/svg"
   xmlns:sodipodi="http://sodipodi.sourceforge.net/DTD/sodipodi-0.dtd"
   xmlns:inkscape="http://www.inkscape.org/namespaces/inkscape"
   xml:space="preserve"
   width="254.5mm"
   height="750mm"
   version="1.1"
   style="shape-rendering:geometricPrecision; text-rendering:geometricPrecision; image-rendering:optimizeQuality; fill-rule:evenodd; clip-rule:evenodd"
   viewBox="0 0 25450 75000"
   id="svg2"
   inkscape:version="0.91 r13725"
   sodipodi:docname="016.svg"><metadata
     id="metadata51242"><rdf:RDF><cc:Work
         rdf:about=""><dc:format>image/svg+xml</dc:format><dc:type
           rdf:resource="http://purl.org/dc/dcmitype/StillImage" /><dc:title></dc:title></cc:Work></rdf:RDF></metadata><sodipodi:namedview
     pagecolor="#ffffff"
     bordercolor="#666666"
     borderopacity="1"
     objecttolerance="10"
     gridtolerance="10"
     guidetolerance="10"
     inkscape:pageopacity="0"
     inkscape:pageshadow="2"
     inkscape:window-width="1920"
     inkscape:window-height="1018"
     id="namedview51240"
     showgrid="false"
     inkscape:zoom="1.4208948"
     inkscape:cx="476.72103"
     inkscape:cy="2097.6424"
     inkscape:window-x="-8"
     inkscape:window-y="-8"
     inkscape:window-maximized="1"
     inkscape:current-layer="svg2" /><defs
     id="defs4"><style
       type="text/css"
       id="style6"><![CDATA[
       svg {
                position: absolute;
            }
    .str16 {stroke:red;stroke-width:59.27;stroke-linecap:round;stroke-linejoin:round}
    .str17 {stroke:yellow;stroke-width:59.27;stroke-linecap:round;stroke-linejoin:round}
    .str20 {stroke:#DDA56E;stroke-width:21.17;stroke-linecap:round;stroke-linejoin:round}
    .str18 {stroke:red;stroke-width:21.17;stroke-linecap:round;stroke-linejoin:round}
    .str21 {stroke:yellow;stroke-width:21.17;stroke-linecap:round;stroke-linejoin:round}
    .str15 {stroke:black;stroke-width:8.47;stroke-linecap:round;stroke-linejoin:round}
    .str0 {stroke:black;stroke-width:29.63;stroke-linecap:round;stroke-linejoin:round}
    .str1 {stroke:black;stroke-width:16.93;stroke-linecap:round;stroke-linejoin:round}
    .str10 {stroke:gray;stroke-width:16.93;stroke-linecap:round;stroke-linejoin:round}
    .str4 {stroke:black;stroke-width:4.23;stroke-linecap:round;stroke-linejoin:round}
    .str14 {stroke:#0037DD;stroke-width:4.23;stroke-linecap:round;stroke-linejoin:round}
    .str2 {stroke:#006EDD;stroke-width:4.23;stroke-linecap:round;stroke-linejoin:round}
    .str5 {stroke:#00B85C;stroke-width:4.23;stroke-linecap:round;stroke-linejoin:round}
    .str3 {stroke:#00DD00;stroke-width:4.23;stroke-linecap:round;stroke-linejoin:round}
    .str9 {stroke:lime;stroke-width:4.23;stroke-linecap:round;stroke-linejoin:round}
    .str12 {stroke:gray;stroke-width:4.23;stroke-linecap:round;stroke-linejoin:round}
    .str13 {stroke:#989898;stroke-width:4.23;stroke-linecap:round;stroke-linejoin:round}
    .str11 {stroke:#BABABA;stroke-width:4.23;stroke-linecap:round;stroke-linejoin:round}
    .str7 {stroke:red;stroke-width:4.23;stroke-linecap:round;stroke-linejoin:round}
    .str8 {stroke:#FF7F00;stroke-width:4.23;stroke-linecap:round;stroke-linejoin:round}
    .str6 {stroke:yellow;stroke-width:4.23;stroke-linecap:round;stroke-linejoin:round}
    .str23 {stroke:#00BFFF;stroke-width:25.4;stroke-linecap:round;stroke-linejoin:round}
    .str22 {stroke:#37DD00;stroke-width:25.4;stroke-linecap:round;stroke-linejoin:round}
    .str19 {stroke:black;stroke-width:12.7;stroke-linecap:round;stroke-linejoin:round}
    .fil0 {fill:none}
    .fil1 {fill:black}
    .fil13 {fill:#0037DD}
    .fil2 {fill:#006EDD}
    .fil3 {fill:#00B85C}
    .fil4 {fill:#00DD00}
    .fil9 {fill:lime}
    .fil7 {fill:gray}
    .fil12 {fill:#989898}
    .fil11 {fill:#B85C00}
    .fil10 {fill:#BABABA}
    .fil14 {fill:#FCFCFC}
    .fil6 {fill:red}
    .fil8 {fill:#FF7F00}
    .fil5 {fill:yellow}
   ]]></style></defs><g
     id="Слой_x0020_1"><g
       id="g55984"><line
         class="fil0 str4"
         x1="13136"
         y1="18782"
         x2="13140"
         y2="18782"
         id="line13170" /><polygon
         class="fil1"
         points="13136,18782 12890,18921 13136,18921 "
         id="polygon13172" /><line
         class="fil0 str4"
         x1="13136"
         y1="18782"
         x2="13136"
         y2="18921"
         id="line13174" /><polygon
         class="fil1"
         points="12890,18921 13136,18921 13136,19065 "
         id="polygon13176" /><polygon
         class="fil9"
         points="13051,18760 13005,18768 13102,18768 "
         id="polygon13178" /><polygon
         class="fil9"
         points="13005,18768 12975,18782 13132,18782 "
         id="polygon13180" /><polygon
         class="fil9"
         points="13005,18768 13102,18768 13132,18782 "
         id="polygon13182" /><polyline
         class="fil0 str9"
         points="13136,18782 12975,18782 13132,18782 "
         id="polyline13184" /><line
         class="fil0 str9"
         x1="13136"
         y1="18782"
         x2="13140"
         y2="18782"
         id="line13186" /><polygon
         class="fil0 str9"
         points="12971,18782 13132,18782 "
         id="polygon13188" /><line
         class="fil0 str9"
         x1="13136"
         y1="18782"
         x2="13140"
         y2="18782"
         id="line13190" /><polygon
         class="fil0 str9"
         points="12971,18782 13132,18782 "
         id="polygon13192" /><line
         class="fil0 str9"
         x1="13136"
         y1="18782"
         x2="13140"
         y2="18782"
         id="line13194" /><polygon
         class="fil9"
         points="12971,18782 12958,18790 13119,18790 "
         id="polygon13196" /><polygon
         class="fil9"
         points="12971,18782 13132,18782 13119,18790 "
         id="polygon13198" /><polygon
         class="fil9"
         points="13136,18782 13136,18790 13149,18790 "
         id="polygon13200" /><polygon
         class="fil9"
         points="12958,18790 12920,18828 13055,18828 "
         id="polygon13202" /><polygon
         class="fil9"
         points="12958,18790 13119,18790 13055,18828 "
         id="polygon13204" /><polygon
         class="fil9"
         points="13136,18790 13136,18828 13187,18828 "
         id="polygon13206" /><polygon
         class="fil9"
         points="13136,18790 13149,18790 13187,18828 "
         id="polygon13208" /><polygon
         class="fil9"
         points="12920,18828 12899,18870 12979,18870 "
         id="polygon13210" /><polygon
         class="fil9"
         points="12920,18828 13055,18828 12979,18870 "
         id="polygon13212" /><polygon
         class="fil9"
         points="13136,18828 13136,18870 13208,18870 "
         id="polygon13214" /><polygon
         class="fil9"
         points="13136,18828 13187,18828 13208,18870 "
         id="polygon13216" /><line
         class="fil0 str9"
         x1="12899"
         y1="18870"
         x2="12890"
         y2="18921"
         id="line13218" /><polygon
         class="fil9"
         points="12899,18870 12979,18870 12890,18921 "
         id="polygon13220" /><polygon
         class="fil9"
         points="13136,18870 13136,18921 13216,18921 "
         id="polygon13222" /><polygon
         class="fil9"
         points="13136,18870 13208,18870 13216,18921 "
         id="polygon13224" /><polygon
         class="fil9"
         points="12890,18921 12899,18972 12979,18972 "
         id="polygon13226" /><line
         class="fil0 str9"
         x1="12890"
         y1="18921"
         x2="12979"
         y2="18972"
         id="line13228" /><polygon
         class="fil9"
         points="13136,18921 13136,18972 13208,18972 "
         id="polygon13230" /><polygon
         class="fil9"
         points="13136,18921 13216,18921 13208,18972 "
         id="polygon13232" /><polygon
         class="fil9"
         points="12899,18972 12920,19018 13060,19018 "
         id="polygon13234" /><polygon
         class="fil9"
         points="12899,18972 12979,18972 13060,19018 "
         id="polygon13236" /><polygon
         class="fil9"
         points="13136,18972 13136,19018 13187,19018 "
         id="polygon13238" /><polygon
         class="fil9"
         points="13136,18972 13208,18972 13187,19018 "
         id="polygon13240" /><polygon
         class="fil9"
         points="12920,19018 12958,19056 13119,19056 "
         id="polygon13242" /><polygon
         class="fil9"
         points="12920,19018 13060,19018 13119,19056 "
         id="polygon13244" /><polygon
         class="fil9"
         points="13136,19018 13136,19056 13149,19056 "
         id="polygon13246" /><polygon
         class="fil9"
         points="13136,19018 13187,19018 13149,19056 "
         id="polygon13248" /><polygon
         class="fil9"
         points="12958,19056 12971,19061 13132,19061 "
         id="polygon13250" /><polygon
         class="fil9"
         points="12958,19056 13119,19056 13132,19061 "
         id="polygon13252" /><line
         class="fil0 str9"
         x1="13136"
         y1="19056"
         x2="13136"
         y2="19061"
         id="line13254" /><polygon
         class="fil9"
         points="13136,19056 13149,19056 13136,19061 "
         id="polygon13256" /><polyline
         class="fil0 str9"
         points="13136,19065 12971,19061 13136,19061 13136,19065 13136,19061 "
         id="polyline13258" /><polyline
         class="fil0 str9"
         points="13132,19065 12971,19065 13136,19065 "
         id="polyline13260" /><polygon
         class="fil9"
         points="12975,19065 13005,19078 13102,19078 "
         id="polygon13262" /><polygon
         class="fil9"
         points="12975,19065 13132,19065 13102,19078 "
         id="polygon13264" /><polygon
         class="fil9"
         points="13005,19078 13102,19078 13051,19086 "
         id="polygon13266" /><polygon
         class="fil0 str1"
         points="12890,18921 13136,19065 13136,18782 "
         id="polygon13268" /><polygon
         class="fil0 str1"
         points="13216,18921 13208,18870 13187,18828 13149,18790 13102,18768 13051,18760 13005,18768 12958,18790 12920,18828 12899,18870 12890,18921 12899,18972 12920,19018 12958,19056 13005,19078 13051,19086 13102,19078 13149,19056 13187,19018 13208,18972 "
         id="polygon13270" /><polygon
         class="fil0 str1"
         points="13237,18921 13229,18866 13199,18815 13161,18773 13110,18748 13051,18739 12996,18748 12945,18773 12907,18815 12878,18866 12869,18921 12878,18980 12907,19031 12945,19070 12996,19094 13051,19108 13110,19094 13161,19070 13199,19031 13229,18980 "
         id="polygon13272" /><polygon
         class="fil6"
         points="13051,18739 12996,18748 13110,18748 "
         id="polygon13274" /><polygon
         class="fil6"
         points="12996,18748 12979,18760 13127,18760 "
         id="polygon13276" /><polygon
         class="fil6"
         points="12996,18748 13110,18748 13127,18760 "
         id="polygon13278" /><polygon
         class="fil6"
         points="12979,18760 12962,18768 13005,18768 "
         id="polygon13280" /><polygon
         class="fil6"
         points="12979,18760 13051,18760 13005,18768 "
         id="polygon13282" /><polygon
         class="fil6"
         points="13051,18760 13102,18768 13144,18768 "
         id="polygon13284" /><polygon
         class="fil6"
         points="13051,18760 13127,18760 13144,18768 "
         id="polygon13286" /><polygon
         class="fil6"
         points="12962,18768 12945,18773 12988,18773 "
         id="polygon13288" /><polygon
         class="fil6"
         points="12962,18768 13005,18768 12988,18773 "
         id="polygon13290" /><polygon
         class="fil6"
         points="13102,18768 13119,18773 13161,18773 "
         id="polygon13292" /><polygon
         class="fil6"
         points="13102,18768 13144,18768 13161,18773 "
         id="polygon13294" /><polygon
         class="fil0 str7"
         points="12945,18773 12988,18773 "
         id="polygon13296" /><polygon
         class="fil0 str7"
         points="13119,18773 13161,18773 "
         id="polygon13298" /><polygon
         class="fil6"
         points="12945,18773 12933,18790 12958,18790 "
         id="polygon13300" /><polygon
         class="fil6"
         points="12945,18773 12988,18773 12958,18790 "
         id="polygon13302" /><polygon
         class="fil6"
         points="13119,18773 13149,18790 13174,18790 "
         id="polygon13304" /><polygon
         class="fil6"
         points="13119,18773 13161,18773 13174,18790 "
         id="polygon13306" /><polygon
         class="fil0 str7"
         points="12933,18790 12958,18790 "
         id="polygon13308" /><polygon
         class="fil0 str7"
         points="13149,18790 13174,18790 "
         id="polygon13310" /><polygon
         class="fil6"
         points="12933,18790 12907,18815 12933,18815 "
         id="polygon13312" /><polygon
         class="fil6"
         points="12933,18790 12958,18790 12933,18815 "
         id="polygon13314" /><polygon
         class="fil6"
         points="13149,18790 13174,18815 13199,18815 "
         id="polygon13316" /><polygon
         class="fil6"
         points="13149,18790 13174,18790 13199,18815 "
         id="polygon13318" /><polygon
         class="fil0 str7"
         points="12907,18815 12933,18815 "
         id="polygon13320" /><polygon
         class="fil0 str7"
         points="13174,18815 13199,18815 "
         id="polygon13322" /><polygon
         class="fil6"
         points="12907,18815 12899,18828 12920,18828 "
         id="polygon13324" /><polygon
         class="fil6"
         points="12907,18815 12933,18815 12920,18828 "
         id="polygon13326" /><polygon
         class="fil6"
         points="13174,18815 13187,18828 13208,18828 "
         id="polygon13328" /><polygon
         class="fil6"
         points="13174,18815 13199,18815 13208,18828 "
         id="polygon13330" /><polygon
         class="fil0 str7"
         points="12899,18828 12920,18828 "
         id="polygon13332" /><polygon
         class="fil0 str7"
         points="13187,18828 13208,18828 "
         id="polygon13334" /><polygon
         class="fil6"
         points="12899,18828 12878,18866 12899,18866 "
         id="polygon13336" /><polygon
         class="fil6"
         points="12899,18828 12920,18828 12899,18866 "
         id="polygon13338" /><polygon
         class="fil6"
         points="13187,18828 13208,18866 13229,18866 "
         id="polygon13340" /><polygon
         class="fil6"
         points="13187,18828 13208,18828 13229,18866 "
         id="polygon13342" /><polygon
         class="fil0 str7"
         points="12878,18866 12899,18866 "
         id="polygon13344" /><polygon
         class="fil0 str7"
         points="13208,18866 13229,18866 "
         id="polygon13346" /><polygon
         class="fil6"
         points="12878,18866 12878,18870 12899,18870 "
         id="polygon13348" /><polygon
         class="fil6"
         points="12878,18866 12899,18866 12899,18870 "
         id="polygon13350" /><polygon
         class="fil6"
         points="13208,18866 13208,18870 13229,18870 "
         id="polygon13352" /><polygon
         class="fil6"
         points="13208,18866 13229,18866 13229,18870 "
         id="polygon13354" /><polygon
         class="fil0 str7"
         points="12878,18870 12899,18870 "
         id="polygon13356" /><polygon
         class="fil0 str7"
         points="13208,18870 13229,18870 "
         id="polygon13358" /><polygon
         class="fil6"
         points="12878,18870 12869,18921 12890,18921 "
         id="polygon13360" /><polygon
         class="fil6"
         points="12878,18870 12899,18870 12890,18921 "
         id="polygon13362" /><polygon
         class="fil6"
         points="13208,18870 13216,18921 13237,18921 "
         id="polygon13364" /><polygon
         class="fil6"
         points="13208,18870 13229,18870 13237,18921 "
         id="polygon13366" /><polygon
         class="fil0 str7"
         points="12869,18921 12890,18921 "
         id="polygon13368" /><polygon
         class="fil0 str7"
         points="13216,18921 13237,18921 "
         id="polygon13370" /><polygon
         class="fil6"
         points="12869,18921 12878,18972 12899,18972 "
         id="polygon13372" /><polygon
         class="fil6"
         points="12869,18921 12890,18921 12899,18972 "
         id="polygon13374" /><polygon
         class="fil6"
         points="13216,18921 13208,18972 13229,18972 "
         id="polygon13376" /><polygon
         class="fil6"
         points="13216,18921 13237,18921 13229,18972 "
         id="polygon13378" /><polygon
         class="fil0 str7"
         points="12878,18972 12899,18972 "
         id="polygon13380" /><polygon
         class="fil0 str7"
         points="13208,18972 13229,18972 "
         id="polygon13382" /><polygon
         class="fil6"
         points="12878,18972 12878,18980 12899,18980 "
         id="polygon13384" /><polygon
         class="fil6"
         points="12878,18972 12899,18972 12899,18980 "
         id="polygon13386" /><polygon
         class="fil6"
         points="13208,18972 13208,18980 13229,18980 "
         id="polygon13388" /><polygon
         class="fil6"
         points="13208,18972 13229,18972 13229,18980 "
         id="polygon13390" /><polygon
         class="fil0 str7"
         points="12878,18980 12899,18980 "
         id="polygon13392" /><polygon
         class="fil0 str7"
         points="13208,18980 13229,18980 "
         id="polygon13394" /><polygon
         class="fil6"
         points="12878,18980 12899,19018 12920,19018 "
         id="polygon13396" /><polygon
         class="fil6"
         points="12878,18980 12899,18980 12920,19018 "
         id="polygon13398" /><polygon
         class="fil6"
         points="13208,18980 13187,19018 13208,19018 "
         id="polygon13400" /><polygon
         class="fil6"
         points="13208,18980 13229,18980 13208,19018 "
         id="polygon13402" /><polygon
         class="fil0 str7"
         points="12899,19018 12920,19018 "
         id="polygon13404" /><polygon
         class="fil0 str7"
         points="13187,19018 13208,19018 "
         id="polygon13406" /><polygon
         class="fil6"
         points="12899,19018 12907,19031 12933,19031 "
         id="polygon13408" /><polygon
         class="fil6"
         points="12899,19018 12920,19018 12933,19031 "
         id="polygon13410" /><polygon
         class="fil6"
         points="13187,19018 13174,19031 13199,19031 "
         id="polygon13412" /><polygon
         class="fil6"
         points="13187,19018 13208,19018 13199,19031 "
         id="polygon13414" /><polygon
         class="fil0 str7"
         points="12907,19031 12933,19031 "
         id="polygon13416" /><polygon
         class="fil0 str7"
         points="13174,19031 13199,19031 "
         id="polygon13418" /><polygon
         class="fil6"
         points="12907,19031 12933,19056 12958,19056 "
         id="polygon13420" /><polygon
         class="fil6"
         points="12907,19031 12933,19031 12958,19056 "
         id="polygon13422" /><polygon
         class="fil6"
         points="13174,19031 13149,19056 13174,19056 "
         id="polygon13424" /><polygon
         class="fil6"
         points="13174,19031 13199,19031 13174,19056 "
         id="polygon13426" /><polygon
         class="fil0 str7"
         points="12933,19056 12958,19056 "
         id="polygon13428" /><polygon
         class="fil0 str7"
         points="13149,19056 13174,19056 "
         id="polygon13430" /><polygon
         class="fil6"
         points="12933,19056 12945,19070 12988,19070 "
         id="polygon13432" /><polygon
         class="fil6"
         points="12933,19056 12958,19056 12988,19070 "
         id="polygon13434" /><polygon
         class="fil6"
         points="13149,19056 13119,19070 13161,19070 "
         id="polygon13436" /><polygon
         class="fil6"
         points="13149,19056 13174,19056 13161,19070 "
         id="polygon13438" /><polygon
         class="fil0 str7"
         points="12945,19070 12988,19070 "
         id="polygon13440" /><polygon
         class="fil0 str7"
         points="13119,19070 13161,19070 "
         id="polygon13442" /><polygon
         class="fil6"
         points="12945,19070 12962,19078 13005,19078 "
         id="polygon13444" /><polygon
         class="fil6"
         points="12945,19070 12988,19070 13005,19078 "
         id="polygon13446" /><polygon
         class="fil6"
         points="13119,19070 13102,19078 13144,19078 "
         id="polygon13448" /><polygon
         class="fil6"
         points="13119,19070 13161,19070 13144,19078 "
         id="polygon13450" /><polygon
         class="fil6"
         points="12962,19078 12979,19086 13051,19086 "
         id="polygon13452" /><polygon
         class="fil6"
         points="12962,19078 13005,19078 13051,19086 "
         id="polygon13454" /><polygon
         class="fil6"
         points="13102,19078 13051,19086 13127,19086 "
         id="polygon13456" /><polygon
         class="fil6"
         points="13102,19078 13144,19078 13127,19086 "
         id="polygon13458" /><polygon
         class="fil6"
         points="12979,19086 12996,19094 13110,19094 "
         id="polygon13460" /><polygon
         class="fil6"
         points="12979,19086 13127,19086 13110,19094 "
         id="polygon13462" /><polygon
         class="fil6"
         points="12996,19094 13110,19094 13051,19108 "
         id="polygon13464" /><polygon
         class="fil1"
         points="12746,19099 12725,19111 13360,19099 "
         id="polygon13466" /><polygon
         class="fil1"
         points="12725,19111 13360,19099 13381,19111 "
         id="polygon13468" /><polygon
         class="fil1"
         points="13360,19099 13381,19111 13051,18570 "
         id="polygon13470" /><polygon
         class="fil1"
         points="13381,19111 13051,18570 13051,18544 "
         id="polygon13472" /><polygon
         class="fil1"
         points="13051,18570 13051,18544 12746,19099 "
         id="polygon13474" /><polygon
         class="fil1"
         points="13051,18544 12746,19099 12725,19111 "
         id="polygon13476" /><polygon
         class="fil0 str1"
         points="12657,19226 13449,19226 13449,18430 12657,18430 "
         id="polygon13478" /></g><metadata
       id="CorelCorpID_0Corel-Layer" /></g></svg>