<?xml version="1.0" encoding="UTF-8" standalone="no"?>
<!-- Creator: CorelDRAW X8 -->

<svg
   xmlns:dc="http://purl.org/dc/elements/1.1/"
   xmlns:cc="http://creativecommons.org/ns#"
   xmlns:rdf="http://www.w3.org/1999/02/22-rdf-syntax-ns#"
   xmlns:svg="http://www.w3.org/2000/svg"
   xmlns="http://www.w3.org/2000/svg"
   xmlns:sodipodi="http://sodipodi.sourceforge.net/DTD/sodipodi-0.dtd"
   xmlns:inkscape="http://www.inkscape.org/namespaces/inkscape"
   xml:space="preserve"
   width="254.5mm"
   height="750mm"
   version="1.1"
   style="shape-rendering:geometricPrecision; text-rendering:geometricPrecision; image-rendering:optimizeQuality; fill-rule:evenodd; clip-rule:evenodd"
   viewBox="0 0 25450 75000"
   id="svg2"
   inkscape:version="0.91 r13725"
   sodipodi:docname="019.svg"><metadata
     id="metadata51242"><rdf:RDF><cc:Work
         rdf:about=""><dc:format>image/svg+xml</dc:format><dc:type
           rdf:resource="http://purl.org/dc/dcmitype/StillImage" /><dc:title></dc:title></cc:Work></rdf:RDF></metadata><sodipodi:namedview
     pagecolor="#ffffff"
     bordercolor="#666666"
     borderopacity="1"
     objecttolerance="10"
     gridtolerance="10"
     guidetolerance="10"
     inkscape:pageopacity="0"
     inkscape:pageshadow="2"
     inkscape:window-width="843"
     inkscape:window-height="999"
     id="namedview51240"
     showgrid="false"
     inkscape:zoom="1.4208948"
     inkscape:cx="476.72103"
     inkscape:cy="1844.2809"
     inkscape:window-x="1063"
     inkscape:window-y="1"
     inkscape:window-maximized="0"
     inkscape:current-layer="svg2" /><defs
     id="defs4"><style
       type="text/css"
       id="style6"><![CDATA[
       svg {
                position: absolute;
            }
    .str16 {stroke:red;stroke-width:59.27;stroke-linecap:round;stroke-linejoin:round}
    .str17 {stroke:yellow;stroke-width:59.27;stroke-linecap:round;stroke-linejoin:round}
    .str20 {stroke:#DDA56E;stroke-width:21.17;stroke-linecap:round;stroke-linejoin:round}
    .str18 {stroke:red;stroke-width:21.17;stroke-linecap:round;stroke-linejoin:round}
    .str21 {stroke:yellow;stroke-width:21.17;stroke-linecap:round;stroke-linejoin:round}
    .str15 {stroke:black;stroke-width:8.47;stroke-linecap:round;stroke-linejoin:round}
    .str0 {stroke:black;stroke-width:29.63;stroke-linecap:round;stroke-linejoin:round}
    .str1 {stroke:black;stroke-width:16.93;stroke-linecap:round;stroke-linejoin:round}
    .str10 {stroke:gray;stroke-width:16.93;stroke-linecap:round;stroke-linejoin:round}
    .str4 {stroke:black;stroke-width:4.23;stroke-linecap:round;stroke-linejoin:round}
    .str14 {stroke:#0037DD;stroke-width:4.23;stroke-linecap:round;stroke-linejoin:round}
    .str2 {stroke:#006EDD;stroke-width:4.23;stroke-linecap:round;stroke-linejoin:round}
    .str5 {stroke:#00B85C;stroke-width:4.23;stroke-linecap:round;stroke-linejoin:round}
    .str3 {stroke:#00DD00;stroke-width:4.23;stroke-linecap:round;stroke-linejoin:round}
    .str9 {stroke:lime;stroke-width:4.23;stroke-linecap:round;stroke-linejoin:round}
    .str12 {stroke:gray;stroke-width:4.23;stroke-linecap:round;stroke-linejoin:round}
    .str13 {stroke:#989898;stroke-width:4.23;stroke-linecap:round;stroke-linejoin:round}
    .str11 {stroke:#BABABA;stroke-width:4.23;stroke-linecap:round;stroke-linejoin:round}
    .str7 {stroke:red;stroke-width:4.23;stroke-linecap:round;stroke-linejoin:round}
    .str8 {stroke:#FF7F00;stroke-width:4.23;stroke-linecap:round;stroke-linejoin:round}
    .str6 {stroke:yellow;stroke-width:4.23;stroke-linecap:round;stroke-linejoin:round}
    .str23 {stroke:#00BFFF;stroke-width:25.4;stroke-linecap:round;stroke-linejoin:round}
    .str22 {stroke:#37DD00;stroke-width:25.4;stroke-linecap:round;stroke-linejoin:round}
    .str19 {stroke:black;stroke-width:12.7;stroke-linecap:round;stroke-linejoin:round}
    .fil0 {fill:none}
    .fil1 {fill:black}
    .fil13 {fill:#0037DD}
    .fil2 {fill:#006EDD}
    .fil3 {fill:#00B85C}
    .fil4 {fill:#00DD00}
    .fil9 {fill:lime}
    .fil7 {fill:gray}
    .fil12 {fill:#989898}
    .fil11 {fill:#B85C00}
    .fil10 {fill:#BABABA}
    .fil14 {fill:#FCFCFC}
    .fil6 {fill:red}
    .fil8 {fill:#FF7F00}
    .fil5 {fill:yellow}
   ]]></style></defs><g
     id="Слой_x0020_1"><g
       id="g56175"><line
         class="fil0 str11"
         x1="13149"
         y1="21919"
         x2="12962"
         y2="21919"
         id="line13540" /><polygon
         class="fil10"
         points="12962,21919 12962,22075 13149,22075 "
         id="polygon13542" /><polygon
         class="fil10"
         points="12962,21919 13149,21919 13149,22075 "
         id="polygon13544" /><polygon
         class="fil10"
         points="12962,22075 13149,22075 13149,22075 "
         id="polygon13546" /><polygon
         class="fil6"
         points="13034,21762 13072,21762 13072,21762 "
         id="polygon13548" /><polygon
         class="fil6"
         points="13034,21762 13000,21779 13106,21779 "
         id="polygon13550" /><polygon
         class="fil6"
         points="13034,21762 13072,21762 13106,21779 "
         id="polygon13552" /><polygon
         class="fil6"
         points="13000,21779 12975,21804 13132,21804 "
         id="polygon13554" /><polygon
         class="fil6"
         points="13000,21779 13106,21779 13132,21804 "
         id="polygon13556" /><polygon
         class="fil6"
         points="12975,21804 12958,21838 13149,21838 "
         id="polygon13558" /><polygon
         class="fil6"
         points="12975,21804 13132,21804 13149,21838 "
         id="polygon13560" /><polygon
         class="fil6"
         points="12958,21838 12962,21919 13149,21919 "
         id="polygon13562" /><polygon
         class="fil6"
         points="12958,21838 13149,21838 13149,21919 "
         id="polygon13564" /><line
         class="fil0 str7"
         x1="12962"
         y1="21919"
         x2="13149"
         y2="21919"
         id="line13566" /><polygon
         class="fil1"
         points="12729,22105 12742,22109 13051,21562 "
         id="polygon13568" /><polygon
         class="fil1"
         points="12742,22109 13051,21562 13051,21584 "
         id="polygon13570" /><polygon
         class="fil1"
         points="13051,21562 13051,21584 13381,22113 "
         id="polygon13572" /><polygon
         class="fil1"
         points="13051,21584 13381,22113 13360,22100 "
         id="polygon13574" /><polygon
         class="fil1"
         points="13381,22113 13360,22100 12734,22113 "
         id="polygon13576" /><polygon
         class="fil1"
         points="13360,22100 12734,22113 12734,22100 "
         id="polygon13578" /><polygon
         class="fil1"
         points="13140,22071 13153,22079 13140,21842 "
         id="polygon13580" /><polygon
         class="fil1"
         points="13153,22079 13140,21842 13153,21838 "
         id="polygon13582" /><polygon
         class="fil1"
         points="13153,21838 13140,21842 13140,21800 "
         id="polygon13584" /><polygon
         class="fil1"
         points="13140,21842 13140,21800 13127,21808 "
         id="polygon13586" /><polygon
         class="fil1"
         points="13140,21800 13127,21808 13110,21770 "
         id="polygon13588" /><polygon
         class="fil1"
         points="13127,21808 13110,21770 13102,21783 "
         id="polygon13590" /><polygon
         class="fil1"
         points="13110,21770 13102,21783 13072,21757 "
         id="polygon13592" /><polygon
         class="fil1"
         points="13102,21783 13072,21757 13072,21766 "
         id="polygon13594" /><polygon
         class="fil1"
         points="13072,21757 13072,21766 13034,21757 "
         id="polygon13596" /><polygon
         class="fil1"
         points="13072,21766 13034,21757 13034,21766 "
         id="polygon13598" /><polygon
         class="fil1"
         points="13034,21757 13034,21766 12996,21770 "
         id="polygon13600" /><polygon
         class="fil1"
         points="13034,21766 12996,21770 13005,21783 "
         id="polygon13602" /><polygon
         class="fil1"
         points="12996,21770 13005,21783 12967,21800 "
         id="polygon13604" /><polygon
         class="fil1"
         points="13005,21783 12967,21800 12979,21808 "
         id="polygon13606" /><polygon
         class="fil1"
         points="12967,21800 12979,21808 12954,21838 "
         id="polygon13608" /><polygon
         class="fil1"
         points="12979,21808 12954,21838 12967,21842 "
         id="polygon13610" /><polygon
         class="fil1"
         points="12967,21842 12954,21838 12967,22071 "
         id="polygon13612" /><polygon
         class="fil1"
         points="12954,21838 12967,22071 12954,22079 "
         id="polygon13614" /><polygon
         class="fil1"
         points="12967,22071 12954,22079 13140,22071 "
         id="polygon13616" /><polygon
         class="fil1"
         points="12954,22079 13140,22071 13153,22079 "
         id="polygon13618" /><polygon
         class="fil1"
         points="12962,21914 12962,21927 13149,21914 "
         id="polygon13620" /><polygon
         class="fil1"
         points="12962,21927 13149,21914 13149,21927 "
         id="polygon13622" /><polygon
         class="fil1"
         points="13047,21749 13060,21749 13047,21715 "
         id="polygon13624" /><polygon
         class="fil1"
         points="13060,21749 13047,21715 13060,21715 "
         id="polygon13626" /><polygon
         class="fil1"
         points="13051,21655 13051,21669 13026,21664 "
         id="polygon13628" /><polygon
         class="fil1"
         points="13051,21669 13026,21664 13034,21673 "
         id="polygon13630" /><polygon
         class="fil1"
         points="13026,21664 13034,21673 13013,21690 "
         id="polygon13632" /><polygon
         class="fil1"
         points="13034,21673 13013,21690 13026,21690 "
         id="polygon13634" /><polygon
         class="fil1"
         points="13013,21690 13026,21690 13026,21715 "
         id="polygon13636" /><polygon
         class="fil1"
         points="13026,21690 13026,21715 13034,21702 "
         id="polygon13638" /><polygon
         class="fil1"
         points="13026,21715 13034,21702 13051,21719 "
         id="polygon13640" /><polygon
         class="fil1"
         points="13034,21702 13051,21719 13051,21707 "
         id="polygon13642" /><polygon
         class="fil1"
         points="13051,21719 13051,21707 13077,21711 "
         id="polygon13644" /><polygon
         class="fil1"
         points="13051,21707 13077,21711 13068,21702 "
         id="polygon13646" /><polygon
         class="fil1"
         points="13077,21711 13068,21702 13085,21685 "
         id="polygon13648" /><polygon
         class="fil1"
         points="13068,21702 13085,21685 13072,21685 "
         id="polygon13650" /><polygon
         class="fil1"
         points="13085,21685 13072,21685 13077,21664 "
         id="polygon13652" /><polygon
         class="fil1"
         points="13072,21685 13077,21664 13068,21673 "
         id="polygon13654" /><polygon
         class="fil1"
         points="13077,21664 13068,21673 13051,21655 "
         id="polygon13656" /><polygon
         class="fil1"
         points="13068,21673 13051,21655 13051,21669 "
         id="polygon13658" /><polygon
         class="fil1"
         points="13276,21711 13276,21711 13271,21715 13271,21724 13267,21728 13267,21728 13263,21732 13263,21736 13259,21736 13259,21736 13254,21740 13250,21740 13246,21745 13237,21745 13208,21749 13212,21749 13212,21753 13216,21753 13216,21753 13221,21757 13225,21757 13233,21757 13237,21757 13246,21757 13254,21757 13254,21753 13263,21753 13263,21749 13267,21749 13267,21749 13271,21745 13271,21740 13276,21740 13276,21736 13280,21732 13280,21732 13284,21728 13284,21719 13288,21715 "
         id="polygon13660" /><polygon
         class="fil1"
         points="13288,21643 13259,21643 13267,21643 13267,21643 13271,21647 13276,21647 13276,21652 13280,21655 13280,21669 13292,21664 13292,21647 "
         id="polygon13662" /><polygon
         class="fil1"
         points="13263,21626 13259,21626 13259,21626 13254,21631 13250,21631 13242,21631 13242,21635 13233,21635 13233,21639 13229,21639 13229,21643 13225,21643 13221,21647 13221,21647 13216,21652 13216,21655 13212,21660 13212,21664 13208,21669 13208,21673 13204,21677 13204,21690 13199,21694 13199,21728 13204,21732 13204,21740 13208,21745 13208,21749 13237,21745 13233,21745 13229,21745 13229,21740 13225,21740 13225,21740 13221,21736 13221,21736 13216,21732 13216,21724 13212,21719 13212,21702 13216,21702 13216,21681 13221,21677 13221,21673 13225,21669 13225,21664 13229,21660 13229,21655 13233,21655 13233,21652 13237,21647 13242,21647 13242,21647 13246,21643 13250,21643 13288,21643 13288,21639 13284,21639 13284,21635 13280,21635 13280,21635 13276,21631 13271,21631 13267,21631 "
         id="polygon13664" /><polygon
         class="fil1"
         points="13331,21643 13326,21643 13326,21647 13322,21647 13322,21652 13318,21655 13318,21655 13314,21660 13314,21664 13309,21669 13309,21677 13305,21681 13305,21698 13301,21698 13301,21724 13305,21728 13305,21736 13309,21740 13309,21745 13314,21745 13314,21749 13318,21749 13318,21753 13322,21753 13326,21757 13331,21757 13339,21757 13352,21757 13360,21757 13360,21753 13369,21753 13369,21749 13373,21749 13377,21745 13343,21745 13339,21745 13331,21745 13331,21740 13326,21740 13326,21740 13322,21736 13322,21732 13318,21728 13318,21715 13314,21711 13318,21707 13318,21685 13322,21681 13322,21673 13326,21669 13326,21664 13331,21660 13331,21660 13335,21655 13335,21652 13339,21652 13343,21647 13347,21647 13352,21643 13360,21643 13360,21643 "
         id="polygon13666" /><polygon
         class="fil1"
         points="13364,21626 13360,21626 13356,21631 13347,21631 13343,21631 13339,21635 13339,21635 13335,21639 13335,21639 13331,21643 13364,21643 13373,21643 13373,21647 13377,21647 13377,21647 13381,21652 13381,21655 13386,21655 13386,21669 13390,21669 13390,21685 13386,21690 13386,21707 13381,21707 13381,21719 13377,21719 13377,21724 13373,21728 13373,21728 13369,21732 13369,21736 13364,21736 13364,21740 13356,21740 13356,21745 13347,21745 13343,21745 13377,21745 13377,21745 13381,21740 13381,21736 13386,21736 13386,21732 13390,21728 13390,21724 13394,21719 13394,21711 13398,21707 13398,21698 13403,21694 13403,21660 13398,21655 13398,21647 13394,21643 13394,21643 13390,21639 13390,21639 13386,21635 13381,21635 13381,21631 13373,21631 13369,21631 13369,21626 "
         id="polygon13668" /><polygon
         class="fil1"
         points="13051,21660 13030,21669 13072,21669 "
         id="polygon13670" /><polygon
         class="fil0 str4"
         points="13030,21669 13072,21669 "
         id="polygon13672" /><polygon
         class="fil1"
         points="13030,21669 13022,21685 13081,21685 "
         id="polygon13674" /><polygon
         class="fil1"
         points="13030,21669 13072,21669 13081,21685 "
         id="polygon13676" /><polyline
         class="fil0 str4"
         points="13081,21690 13022,21685 13081,21685 "
         id="polyline13678" /><polygon
         class="fil1"
         points="13022,21690 13030,21707 13072,21707 "
         id="polygon13680" /><polygon
         class="fil1"
         points="13022,21690 13081,21690 13072,21707 "
         id="polygon13682" /><polyline
         class="fil0 str4"
         points="13068,21707 13030,21707 13072,21707 "
         id="polyline13684" /><polygon
         class="fil1"
         points="13030,21707 13068,21707 13051,21715 "
         id="polygon13686" /><polygon
         class="fil1"
         points="13419,21753 13403,21753 13407,21753 13411,21753 13411,21774 13407,21774 13407,21779 13403,21783 13403,21783 13398,21787 13394,21787 13394,21791 13390,21791 13390,21795 13386,21795 13386,21800 13381,21800 13381,21804 13377,21804 13377,21808 13373,21812 13373,21817 13369,21817 13369,21826 13411,21826 13411,21812 13381,21812 13381,21812 13386,21808 13386,21808 13390,21804 13390,21804 13394,21800 13398,21800 13398,21795 13403,21791 13407,21791 13407,21787 13411,21787 13411,21783 13415,21779 13415,21774 13419,21774 "
         id="polygon13688" /><polygon
         class="fil1"
         points="13403,21745 13398,21745 13394,21745 13394,21749 13390,21749 13390,21749 13386,21753 13386,21757 13381,21757 13381,21766 13390,21766 13390,21757 13394,21757 13394,21753 13398,21753 13403,21753 13419,21753 13419,21749 13415,21749 13415,21745 13411,21745 13407,21745 13407,21745 "
         id="polygon13690" /><polygon
         class="fil0 str1"
         points="12657,22223 13449,22223 13449,21432 12657,21432 "
         id="polygon13692" /><polyline
         class="fil0 str1"
         points="12890,22278 12899,22269 12916,22248 12890,22405 "
         id="polyline13694" /><polyline
         class="fil0 str1"
         points="12890,22278 12890,22286 12899,22278 12912,22261 12886,22405 12890,22405 "
         id="polyline13696" /><polyline
         class="fil0 str1"
         points="12962,22397 12958,22405 12954,22405 12950,22397 12950,22393 12958,22384 12962,22384 12967,22393 12962,22414 12954,22431 12945,22435 "
         id="polyline13698" /><polygon
         class="fil0 str1"
         points="12954,22393 12954,22397 12958,22397 12962,22393 "
         id="polygon13700" /><path
         class="fil0 str1"
         d="M12958 22405l4 9m0 -17l-8 34"
         id="path13702" /><polyline
         class="fil0 str1"
         points="13022,22286 13022,22278 13030,22261 13034,22257 13043,22248 13064,22248 13072,22257 13072,22261 13077,22278 13072,22291 13064,22308 13051,22329 13000,22405 "
         id="polyline13704" /><polyline
         class="fil0 str1"
         points="13022,22286 13026,22286 13026,22278 13034,22261 13043,22257 13060,22257 13068,22261 13072,22278 13068,22291 13060,22308 13047,22329 12992,22405 "
         id="polyline13706" /><polyline
         class="fil0 str1"
         points="13000,22397 13060,22397 13055,22405 12992,22405 "
         id="polyline13708" /><polyline
         class="fil0 str1"
         points="13106,22397 13098,22405 13094,22405 13089,22397 13094,22393 13098,22384 13102,22384 13106,22393 13102,22414 13094,22431 13085,22435 "
         id="polyline13710" /><polygon
         class="fil0 str1"
         points="13098,22393 13094,22397 13098,22397 13102,22393 "
         id="polygon13712" /><path
         class="fil0 str1"
         d="M13098 22405l4 9m4 -17l-12 34"
         id="path13714" /><polyline
         class="fil0 str1"
         points="13170,22248 13221,22248 13178,22316 "
         id="polyline13716" /><polyline
         class="fil0 str1"
         points="13170,22248 13170,22257 13216,22257 "
         id="polyline13718" /><line
         class="fil0 str1"
         x1="13216"
         y1="22248"
         x2="13174"
         y2="22316"
         id="line13720" /><polyline
         class="fil0 str1"
         points="13178,22308 13187,22308 13199,22316 13208,22329 13208,22363 13199,22384 13187,22397 13170,22405 13157,22405 13144,22397 13140,22393 13140,22376 13144,22376 "
         id="polyline13722" /><polyline
         class="fil0 str1"
         points="13174,22316 13187,22316 13199,22324 13204,22346 "
         id="polyline13724" /><polyline
         class="fil0 str1"
         points="13191,22316 13204,22329 13204,22363 13195,22384 13178,22397 "
         id="polyline13726" /><polyline
         class="fil0 str1"
         points="13199,22367 13187,22393 13174,22397 13157,22397 13144,22393 13144,22376 "
         id="polyline13728" /><line
         class="fil0 str1"
         x1="13153"
         y1="22397"
         x2="13144"
         y2="22384"
         id="line13730" /></g><metadata
       id="CorelCorpID_0Corel-Layer" /></g></svg>