<?xml version="1.0" encoding="UTF-8" standalone="no"?>
<!-- Creator: CorelDRAW X8 -->

<svg
   xmlns:dc="http://purl.org/dc/elements/1.1/"
   xmlns:cc="http://creativecommons.org/ns#"
   xmlns:rdf="http://www.w3.org/1999/02/22-rdf-syntax-ns#"
   xmlns:svg="http://www.w3.org/2000/svg"
   xmlns="http://www.w3.org/2000/svg"
   xmlns:sodipodi="http://sodipodi.sourceforge.net/DTD/sodipodi-0.dtd"
   xmlns:inkscape="http://www.inkscape.org/namespaces/inkscape"
   xml:space="preserve"
   width="254.5mm"
   height="750mm"
   version="1.1"
   style="shape-rendering:geometricPrecision; text-rendering:geometricPrecision; image-rendering:optimizeQuality; fill-rule:evenodd; clip-rule:evenodd"
   viewBox="0 0 25450 75000"
   id="svg2"
   inkscape:version="0.91 r13725"
   sodipodi:docname="021.svg"><metadata
     id="metadata51242"><rdf:RDF><cc:Work
         rdf:about=""><dc:format>image/svg+xml</dc:format><dc:type
           rdf:resource="http://purl.org/dc/dcmitype/StillImage" /><dc:title></dc:title></cc:Work></rdf:RDF></metadata><sodipodi:namedview
     pagecolor="#ffffff"
     bordercolor="#666666"
     borderopacity="1"
     objecttolerance="10"
     gridtolerance="10"
     guidetolerance="10"
     inkscape:pageopacity="0"
     inkscape:pageshadow="2"
     inkscape:window-width="843"
     inkscape:window-height="999"
     id="namedview51240"
     showgrid="false"
     inkscape:zoom="1.4208948"
     inkscape:cx="476.72103"
     inkscape:cy="1844.2809"
     inkscape:window-x="1063"
     inkscape:window-y="1"
     inkscape:window-maximized="0"
     inkscape:current-layer="svg2" /><defs
     id="defs4"><style
       type="text/css"
       id="style6"><![CDATA[
       svg {
                position: absolute;
            }
    .str16 {stroke:red;stroke-width:59.27;stroke-linecap:round;stroke-linejoin:round}
    .str17 {stroke:yellow;stroke-width:59.27;stroke-linecap:round;stroke-linejoin:round}
    .str20 {stroke:#DDA56E;stroke-width:21.17;stroke-linecap:round;stroke-linejoin:round}
    .str18 {stroke:red;stroke-width:21.17;stroke-linecap:round;stroke-linejoin:round}
    .str21 {stroke:yellow;stroke-width:21.17;stroke-linecap:round;stroke-linejoin:round}
    .str15 {stroke:black;stroke-width:8.47;stroke-linecap:round;stroke-linejoin:round}
    .str0 {stroke:black;stroke-width:29.63;stroke-linecap:round;stroke-linejoin:round}
    .str1 {stroke:black;stroke-width:16.93;stroke-linecap:round;stroke-linejoin:round}
    .str10 {stroke:gray;stroke-width:16.93;stroke-linecap:round;stroke-linejoin:round}
    .str4 {stroke:black;stroke-width:4.23;stroke-linecap:round;stroke-linejoin:round}
    .str14 {stroke:#0037DD;stroke-width:4.23;stroke-linecap:round;stroke-linejoin:round}
    .str2 {stroke:#006EDD;stroke-width:4.23;stroke-linecap:round;stroke-linejoin:round}
    .str5 {stroke:#00B85C;stroke-width:4.23;stroke-linecap:round;stroke-linejoin:round}
    .str3 {stroke:#00DD00;stroke-width:4.23;stroke-linecap:round;stroke-linejoin:round}
    .str9 {stroke:lime;stroke-width:4.23;stroke-linecap:round;stroke-linejoin:round}
    .str12 {stroke:gray;stroke-width:4.23;stroke-linecap:round;stroke-linejoin:round}
    .str13 {stroke:#989898;stroke-width:4.23;stroke-linecap:round;stroke-linejoin:round}
    .str11 {stroke:#BABABA;stroke-width:4.23;stroke-linecap:round;stroke-linejoin:round}
    .str7 {stroke:red;stroke-width:4.23;stroke-linecap:round;stroke-linejoin:round}
    .str8 {stroke:#FF7F00;stroke-width:4.23;stroke-linecap:round;stroke-linejoin:round}
    .str6 {stroke:yellow;stroke-width:4.23;stroke-linecap:round;stroke-linejoin:round}
    .str23 {stroke:#00BFFF;stroke-width:25.4;stroke-linecap:round;stroke-linejoin:round}
    .str22 {stroke:#37DD00;stroke-width:25.4;stroke-linecap:round;stroke-linejoin:round}
    .str19 {stroke:black;stroke-width:12.7;stroke-linecap:round;stroke-linejoin:round}
    .fil0 {fill:none}
    .fil1 {fill:black}
    .fil13 {fill:#0037DD}
    .fil2 {fill:#006EDD}
    .fil3 {fill:#00B85C}
    .fil4 {fill:#00DD00}
    .fil9 {fill:lime}
    .fil7 {fill:gray}
    .fil12 {fill:#989898}
    .fil11 {fill:#B85C00}
    .fil10 {fill:#BABABA}
    .fil14 {fill:#FCFCFC}
    .fil6 {fill:red}
    .fil8 {fill:#FF7F00}
    .fil5 {fill:yellow}
   ]]></style></defs><g
     id="Слой_x0020_1"><g
       id="g56296"><polygon
         class="fil6"
         points="12950,25343 12950,25461 13144,25461 "
         id="polygon13774" /><polygon
         class="fil6"
         points="12950,25461 13144,25461 12950,25580 "
         id="polygon13776" /><polygon
         class="fil9"
         points="13335,25343 13144,25461 13335,25461 "
         id="polygon13778" /><polygon
         class="fil9"
         points="13144,25461 13335,25461 13335,25580 "
         id="polygon13780" /><polygon
         class="fil1"
         points="13098,25106 13081,25106 13085,25250 13098,25229 13098,25203 "
         id="polygon13782" /><polygon
         class="fil1"
         points="13165,25106 13144,25106 13106,25203 13106,25211 13102,25216 13102,25225 13098,25229 13085,25250 13102,25250 13144,25140 13144,25140 13149,25135 13149,25132 13153,25123 "
         id="polygon13784" /><polygon
         class="fil1"
         points="13165,25106 13153,25123 13153,25140 13157,25250 13170,25229 13170,25178 "
         id="polygon13786" /><polygon
         class="fil1"
         points="13229,25106 13212,25106 13178,25199 13178,25208 13174,25211 13174,25220 13170,25225 13170,25229 13157,25250 13174,25250 "
         id="polygon13788" /><polygon
         class="fil1"
         points="13068,25275 13068,25284 13221,25275 "
         id="polygon13790" /><polygon
         class="fil1"
         points="13068,25284 13221,25275 13221,25284 "
         id="polygon13792" /><polygon
         class="fil1"
         points="12950,25576 12954,25585 13140,25457 "
         id="polygon13794" /><polygon
         class="fil1"
         points="12954,25585 13140,25457 13144,25466 "
         id="polygon13796" /><polygon
         class="fil1"
         points="13140,25466 13144,25457 12950,25343 "
         id="polygon13798" /><polygon
         class="fil1"
         points="13144,25457 12950,25343 12954,25339 "
         id="polygon13800" /><polygon
         class="fil1"
         points="12848,25347 12848,25339 12755,25347 "
         id="polygon13802" /><polygon
         class="fil1"
         points="12848,25339 12755,25347 12755,25339 "
         id="polygon13804" /><polygon
         class="fil1"
         points="12950,25466 12950,25457 12848,25466 "
         id="polygon13806" /><polygon
         class="fil1"
         points="12950,25457 12848,25466 12848,25457 "
         id="polygon13808" /><polygon
         class="fil1"
         points="12954,25343 12950,25343 12954,25580 "
         id="polygon13810" /><polygon
         class="fil1"
         points="12950,25343 12954,25580 12950,25580 "
         id="polygon13812" /><polygon
         class="fil1"
         points="12844,25580 12852,25580 12844,25343 "
         id="polygon13814" /><polygon
         class="fil1"
         points="12852,25580 12844,25343 12852,25343 "
         id="polygon13816" /><polygon
         class="fil1"
         points="13335,25585 13339,25576 13140,25466 "
         id="polygon13818" /><polygon
         class="fil1"
         points="13339,25576 13140,25466 13144,25457 "
         id="polygon13820" /><polygon
         class="fil1"
         points="13339,25343 13331,25343 13339,25580 "
         id="polygon13822" /><polygon
         class="fil1"
         points="13331,25343 13339,25580 13331,25580 "
         id="polygon13824" /><polygon
         class="fil1"
         points="13140,25457 13144,25466 13335,25339 "
         id="polygon13826" /><polygon
         class="fil1"
         points="13144,25466 13335,25339 13339,25343 "
         id="polygon13828" /><polygon
         class="fil1"
         points="13149,25280 13140,25280 13149,25461 "
         id="polygon13830" /><polygon
         class="fil1"
         points="13140,25280 13149,25461 13140,25461 "
         id="polygon13832" /><polygon
         class="fil0 str1"
         points="12657,25783 13449,25783 13449,24987 12657,24987 "
         id="polygon13834" /></g><metadata
       id="CorelCorpID_0Corel-Layer" /></g></svg>