<?xml version="1.0" encoding="UTF-8" standalone="no"?>
<!-- Creator: CorelDRAW X8 -->

<svg
   xmlns:dc="http://purl.org/dc/elements/1.1/"
   xmlns:cc="http://creativecommons.org/ns#"
   xmlns:rdf="http://www.w3.org/1999/02/22-rdf-syntax-ns#"
   xmlns:svg="http://www.w3.org/2000/svg"
   xmlns="http://www.w3.org/2000/svg"
   xmlns:sodipodi="http://sodipodi.sourceforge.net/DTD/sodipodi-0.dtd"
   xmlns:inkscape="http://www.inkscape.org/namespaces/inkscape"
   xml:space="preserve"
   width="254.5mm"
   height="750mm"
   version="1.1"
   style="shape-rendering:geometricPrecision; text-rendering:geometricPrecision; image-rendering:optimizeQuality; fill-rule:evenodd; clip-rule:evenodd"
   viewBox="0 0 25450 75000"
   id="svg2"
   inkscape:version="0.91 r13725"
   sodipodi:docname="022.svg"><metadata
     id="metadata51242"><rdf:RDF><cc:Work
         rdf:about=""><dc:format>image/svg+xml</dc:format><dc:type
           rdf:resource="http://purl.org/dc/dcmitype/StillImage" /><dc:title></dc:title></cc:Work></rdf:RDF></metadata><sodipodi:namedview
     pagecolor="#ffffff"
     bordercolor="#666666"
     borderopacity="1"
     objecttolerance="10"
     gridtolerance="10"
     guidetolerance="10"
     inkscape:pageopacity="0"
     inkscape:pageshadow="2"
     inkscape:window-width="843"
     inkscape:window-height="999"
     id="namedview51240"
     showgrid="false"
     inkscape:zoom="1.4208948"
     inkscape:cx="476.72103"
     inkscape:cy="1844.2809"
     inkscape:window-x="1063"
     inkscape:window-y="1"
     inkscape:window-maximized="0"
     inkscape:current-layer="svg2" /><defs
     id="defs4"><style
       type="text/css"
       id="style6"><![CDATA[
       svg {
                position: absolute;
            }
    .str16 {stroke:red;stroke-width:59.27;stroke-linecap:round;stroke-linejoin:round}
    .str17 {stroke:yellow;stroke-width:59.27;stroke-linecap:round;stroke-linejoin:round}
    .str20 {stroke:#DDA56E;stroke-width:21.17;stroke-linecap:round;stroke-linejoin:round}
    .str18 {stroke:red;stroke-width:21.17;stroke-linecap:round;stroke-linejoin:round}
    .str21 {stroke:yellow;stroke-width:21.17;stroke-linecap:round;stroke-linejoin:round}
    .str15 {stroke:black;stroke-width:8.47;stroke-linecap:round;stroke-linejoin:round}
    .str0 {stroke:black;stroke-width:29.63;stroke-linecap:round;stroke-linejoin:round}
    .str1 {stroke:black;stroke-width:16.93;stroke-linecap:round;stroke-linejoin:round}
    .str10 {stroke:gray;stroke-width:16.93;stroke-linecap:round;stroke-linejoin:round}
    .str4 {stroke:black;stroke-width:4.23;stroke-linecap:round;stroke-linejoin:round}
    .str14 {stroke:#0037DD;stroke-width:4.23;stroke-linecap:round;stroke-linejoin:round}
    .str2 {stroke:#006EDD;stroke-width:4.23;stroke-linecap:round;stroke-linejoin:round}
    .str5 {stroke:#00B85C;stroke-width:4.23;stroke-linecap:round;stroke-linejoin:round}
    .str3 {stroke:#00DD00;stroke-width:4.23;stroke-linecap:round;stroke-linejoin:round}
    .str9 {stroke:lime;stroke-width:4.23;stroke-linecap:round;stroke-linejoin:round}
    .str12 {stroke:gray;stroke-width:4.23;stroke-linecap:round;stroke-linejoin:round}
    .str13 {stroke:#989898;stroke-width:4.23;stroke-linecap:round;stroke-linejoin:round}
    .str11 {stroke:#BABABA;stroke-width:4.23;stroke-linecap:round;stroke-linejoin:round}
    .str7 {stroke:red;stroke-width:4.23;stroke-linecap:round;stroke-linejoin:round}
    .str8 {stroke:#FF7F00;stroke-width:4.23;stroke-linecap:round;stroke-linejoin:round}
    .str6 {stroke:yellow;stroke-width:4.23;stroke-linecap:round;stroke-linejoin:round}
    .str23 {stroke:#00BFFF;stroke-width:25.4;stroke-linecap:round;stroke-linejoin:round}
    .str22 {stroke:#37DD00;stroke-width:25.4;stroke-linecap:round;stroke-linejoin:round}
    .str19 {stroke:black;stroke-width:12.7;stroke-linecap:round;stroke-linejoin:round}
    .fil0 {fill:none}
    .fil1 {fill:black}
    .fil13 {fill:#0037DD}
    .fil2 {fill:#006EDD}
    .fil3 {fill:#00B85C}
    .fil4 {fill:#00DD00}
    .fil9 {fill:lime}
    .fil7 {fill:gray}
    .fil12 {fill:#989898}
    .fil11 {fill:#B85C00}
    .fil10 {fill:#BABABA}
    .fil14 {fill:#FCFCFC}
    .fil6 {fill:red}
    .fil8 {fill:#FF7F00}
    .fil5 {fill:yellow}
   ]]></style></defs><g
     id="Слой_x0020_1"><g
       id="g56329"><polygon
         class="fil6"
         points="12759,26342 12759,26461 12950,26461 "
         id="polygon13836" /><polygon
         class="fil6"
         points="12759,26461 12950,26461 12759,26583 "
         id="polygon13838" /><polygon
         class="fil9"
         points="13144,26342 12950,26461 13144,26461 "
         id="polygon13840" /><polygon
         class="fil9"
         points="12950,26461 13144,26461 13144,26583 "
         id="polygon13842" /><polygon
         class="fil1"
         points="12945,26168 12933,26168 12937,26312 12950,26292 12950,26262 "
         id="polygon13844" /><polygon
         class="fil1"
         points="13013,26168 12996,26168 12958,26266 12958,26270 12954,26274 12954,26283 12950,26287 12950,26292 12937,26312 12954,26312 12996,26202 12996,26199 13000,26194 13000,26185 "
         id="polygon13846" /><polygon
         class="fil1"
         points="13013,26168 13000,26185 13000,26199 13005,26202 13009,26312 13017,26292 13017,26240 "
         id="polygon13848" /><polygon
         class="fil1"
         points="13077,26168 13064,26168 13030,26262 13026,26266 13026,26274 13022,26278 13022,26287 13017,26292 13017,26292 13009,26312 13022,26312 "
         id="polygon13850" /><polygon
         class="fil1"
         points="12755,26579 12759,26583 12950,26456 "
         id="polygon13852" /><polygon
         class="fil1"
         points="12759,26583 12950,26456 12954,26464 "
         id="polygon13854" /><polygon
         class="fil1"
         points="12950,26464 12954,26456 12755,26347 "
         id="polygon13856" /><polygon
         class="fil1"
         points="12954,26456 12755,26347 12759,26338 "
         id="polygon13858" /><polygon
         class="fil1"
         points="12763,26342 12755,26342 12763,26583 "
         id="polygon13860" /><polygon
         class="fil1"
         points="12755,26342 12763,26583 12755,26583 "
         id="polygon13862" /><polygon
         class="fil1"
         points="13140,26583 13144,26579 12950,26464 "
         id="polygon13864" /><polygon
         class="fil1"
         points="13144,26579 12950,26464 12954,26456 "
         id="polygon13866" /><polygon
         class="fil1"
         points="13149,26342 13140,26342 13149,26583 "
         id="polygon13868" /><polygon
         class="fil1"
         points="13140,26342 13149,26583 13140,26583 "
         id="polygon13870" /><polygon
         class="fil1"
         points="12950,26456 12954,26464 13140,26338 "
         id="polygon13872" /><polygon
         class="fil1"
         points="12954,26464 13140,26338 13144,26347 "
         id="polygon13874" /><polygon
         class="fil0 str1"
         points="12657,26783 13449,26783 13449,25991 12657,25991 "
         id="polygon13876" /><polygon
         class="fil1"
         points="13347,26388 13335,26388 13318,26486 13314,26516 13326,26516 "
         id="polygon13878" /><polygon
         class="fil1"
         points="13288,26388 13280,26388 13254,26516 13267,26516 13284,26414 "
         id="polygon13880" /><polygon
         class="fil1"
         points="13288,26388 13284,26414 13314,26516 13318,26486 "
         id="polygon13882" /></g><metadata
       id="CorelCorpID_0Corel-Layer" /></g></svg>