<?xml version="1.0" encoding="UTF-8" standalone="no"?>
<!-- Creator: CorelDRAW X8 -->

<svg
   xmlns:dc="http://purl.org/dc/elements/1.1/"
   xmlns:cc="http://creativecommons.org/ns#"
   xmlns:rdf="http://www.w3.org/1999/02/22-rdf-syntax-ns#"
   xmlns:svg="http://www.w3.org/2000/svg"
   xmlns="http://www.w3.org/2000/svg"
   xmlns:sodipodi="http://sodipodi.sourceforge.net/DTD/sodipodi-0.dtd"
   xmlns:inkscape="http://www.inkscape.org/namespaces/inkscape"
   xml:space="preserve"
   width="254.5mm"
   height="750mm"
   version="1.1"
   style="shape-rendering:geometricPrecision; text-rendering:geometricPrecision; image-rendering:optimizeQuality; fill-rule:evenodd; clip-rule:evenodd"
   viewBox="0 0 25450 75000"
   id="svg2"
   inkscape:version="0.91 r13725"
   sodipodi:docname="023.svg"><metadata
     id="metadata51242"><rdf:RDF><cc:Work
         rdf:about=""><dc:format>image/svg+xml</dc:format><dc:type
           rdf:resource="http://purl.org/dc/dcmitype/StillImage" /><dc:title></dc:title></cc:Work></rdf:RDF></metadata><sodipodi:namedview
     pagecolor="#ffffff"
     bordercolor="#666666"
     borderopacity="1"
     objecttolerance="10"
     gridtolerance="10"
     guidetolerance="10"
     inkscape:pageopacity="0"
     inkscape:pageshadow="2"
     inkscape:window-width="843"
     inkscape:window-height="999"
     id="namedview51240"
     showgrid="false"
     inkscape:zoom="1.4208948"
     inkscape:cx="476.72103"
     inkscape:cy="1844.2809"
     inkscape:window-x="1063"
     inkscape:window-y="1"
     inkscape:window-maximized="0"
     inkscape:current-layer="svg2" /><defs
     id="defs4"><style
       type="text/css"
       id="style6"><![CDATA[
       svg {
                position: absolute;
            }
    .str16 {stroke:red;stroke-width:59.27;stroke-linecap:round;stroke-linejoin:round}
    .str17 {stroke:yellow;stroke-width:59.27;stroke-linecap:round;stroke-linejoin:round}
    .str20 {stroke:#DDA56E;stroke-width:21.17;stroke-linecap:round;stroke-linejoin:round}
    .str18 {stroke:red;stroke-width:21.17;stroke-linecap:round;stroke-linejoin:round}
    .str21 {stroke:yellow;stroke-width:21.17;stroke-linecap:round;stroke-linejoin:round}
    .str15 {stroke:black;stroke-width:8.47;stroke-linecap:round;stroke-linejoin:round}
    .str0 {stroke:black;stroke-width:29.63;stroke-linecap:round;stroke-linejoin:round}
    .str1 {stroke:black;stroke-width:16.93;stroke-linecap:round;stroke-linejoin:round}
    .str10 {stroke:gray;stroke-width:16.93;stroke-linecap:round;stroke-linejoin:round}
    .str4 {stroke:black;stroke-width:4.23;stroke-linecap:round;stroke-linejoin:round}
    .str14 {stroke:#0037DD;stroke-width:4.23;stroke-linecap:round;stroke-linejoin:round}
    .str2 {stroke:#006EDD;stroke-width:4.23;stroke-linecap:round;stroke-linejoin:round}
    .str5 {stroke:#00B85C;stroke-width:4.23;stroke-linecap:round;stroke-linejoin:round}
    .str3 {stroke:#00DD00;stroke-width:4.23;stroke-linecap:round;stroke-linejoin:round}
    .str9 {stroke:lime;stroke-width:4.23;stroke-linecap:round;stroke-linejoin:round}
    .str12 {stroke:gray;stroke-width:4.23;stroke-linecap:round;stroke-linejoin:round}
    .str13 {stroke:#989898;stroke-width:4.23;stroke-linecap:round;stroke-linejoin:round}
    .str11 {stroke:#BABABA;stroke-width:4.23;stroke-linecap:round;stroke-linejoin:round}
    .str7 {stroke:red;stroke-width:4.23;stroke-linecap:round;stroke-linejoin:round}
    .str8 {stroke:#FF7F00;stroke-width:4.23;stroke-linecap:round;stroke-linejoin:round}
    .str6 {stroke:yellow;stroke-width:4.23;stroke-linecap:round;stroke-linejoin:round}
    .str23 {stroke:#00BFFF;stroke-width:25.4;stroke-linecap:round;stroke-linejoin:round}
    .str22 {stroke:#37DD00;stroke-width:25.4;stroke-linecap:round;stroke-linejoin:round}
    .str19 {stroke:black;stroke-width:12.7;stroke-linecap:round;stroke-linejoin:round}
    .fil0 {fill:none}
    .fil1 {fill:black}
    .fil13 {fill:#0037DD}
    .fil2 {fill:#006EDD}
    .fil3 {fill:#00B85C}
    .fil4 {fill:#00DD00}
    .fil9 {fill:lime}
    .fil7 {fill:gray}
    .fil12 {fill:#989898}
    .fil11 {fill:#B85C00}
    .fil10 {fill:#BABABA}
    .fil14 {fill:#FCFCFC}
    .fil6 {fill:red}
    .fil8 {fill:#FF7F00}
    .fil5 {fill:yellow}
   ]]></style></defs><g
     id="Слой_x0020_1"><g
       id="g56355"><polygon
         class="fil1"
         points="13017,27133 13017,27142 13013,27147 13013,27150 13009,27150 13009,27155 13005,27159 13005,27164 13000,27164 13000,27164 12996,27167 12992,27167 12988,27172 12983,27172 12979,27176 12941,27176 12941,27180 12945,27180 12945,27185 12950,27185 12950,27185 12954,27188 12958,27188 12967,27188 12971,27193 12975,27193 12979,27193 12983,27188 12988,27188 12992,27188 12996,27185 13000,27185 13000,27185 13005,27180 13009,27180 13009,27176 13013,27172 13017,27172 13017,27167 13022,27164 13022,27159 13026,27159 13026,27155 13030,27150 13030,27147 13034,27142 "
         id="polygon13884" /><polygon
         class="fil1"
         points="13034,27054 12996,27054 13005,27054 13009,27054 13013,27057 13013,27057 13017,27062 13017,27062 13022,27066 13022,27071 13026,27074 13026,27083 13043,27079 13043,27074 13038,27071 13038,27057 "
         id="polygon13886" /><polygon
         class="fil1"
         points="13000,27036 12996,27036 12983,27036 12979,27040 12975,27040 12971,27045 12967,27045 12962,27049 12962,27054 12958,27054 12954,27057 12954,27062 12950,27062 12950,27066 12945,27071 12945,27074 12941,27079 12941,27083 12937,27087 12937,27095 12933,27100 12933,27112 12928,27117 12928,27150 12933,27155 12933,27167 12937,27172 12937,27172 12941,27176 12975,27176 12975,27176 12971,27172 12967,27172 12962,27172 12958,27167 12958,27167 12954,27164 12954,27164 12950,27159 12950,27155 12945,27150 12945,27117 12950,27112 12950,27100 12954,27095 12954,27087 12958,27083 12958,27074 12962,27074 12967,27071 12967,27066 12971,27062 12975,27062 12975,27062 12979,27057 12979,27057 12983,27054 12996,27054 13034,27054 13030,27049 13030,27045 13026,27045 13022,27040 13022,27040 13017,27036 13013,27036 13005,27036 "
         id="polygon13888" /><polygon
         class="fil1"
         points="13085,27049 13081,27054 13077,27057 13077,27062 13072,27062 13072,27066 13068,27071 13068,27074 13064,27079 13064,27079 13060,27083 13060,27092 13055,27095 13055,27104 13051,27109 13051,27155 13055,27159 13055,27167 13060,27172 13060,27172 13064,27176 13064,27180 13068,27180 13068,27180 13072,27185 13072,27185 13077,27188 13085,27188 13089,27188 13094,27193 13098,27193 13102,27193 13102,27188 13119,27188 13119,27185 13123,27185 13127,27180 13132,27180 13136,27176 13098,27176 13098,27176 13094,27172 13085,27172 13085,27172 13081,27167 13081,27167 13077,27164 13077,27164 13072,27159 13072,27155 13068,27150 13068,27109 13072,27100 13072,27092 13077,27087 13077,27083 13081,27083 13081,27074 13085,27071 13085,27071 13089,27066 13094,27066 13094,27062 13098,27062 13102,27057 13106,27057 13106,27054 13119,27054 13119,27054 "
         id="polygon13890" /><polygon
         class="fil1"
         points="13123,27036 13115,27036 13106,27036 13102,27040 13098,27040 13098,27040 13094,27045 13089,27045 13089,27049 13085,27049 13119,27054 13132,27054 13132,27054 13136,27057 13140,27057 13140,27062 13144,27062 13144,27066 13149,27066 13149,27074 13153,27079 13153,27112 13149,27117 13149,27129 13144,27133 13144,27142 13140,27147 13140,27150 13136,27150 13136,27155 13132,27159 13132,27159 13127,27164 13127,27164 13123,27167 13119,27167 13115,27172 13106,27172 13102,27176 13098,27176 13136,27176 13140,27172 13144,27167 13144,27164 13149,27164 13153,27159 13153,27155 13157,27150 13157,27142 13161,27138 13161,27133 13165,27129 13165,27117 13170,27112 13170,27071 13165,27071 13165,27062 13161,27057 13161,27054 13157,27054 13157,27049 13153,27049 13153,27045 13149,27040 13144,27040 13144,27040 13140,27036 13136,27036 13127,27036 "
         id="polygon13892" /><polygon
         class="fil1"
         points="13229,27150 13212,27150 13216,27150 13221,27150 13221,27155 13225,27155 13225,27164 13221,27167 13221,27172 13216,27172 13216,27176 13212,27176 13212,27180 13208,27180 13208,27185 13204,27185 13204,27185 13199,27188 13199,27188 13195,27193 13191,27193 13191,27197 13187,27197 13187,27202 13182,27202 13182,27206 13178,27206 13178,27210 13174,27210 13174,27219 13225,27219 13225,27210 13187,27210 13187,27210 13191,27206 13191,27206 13195,27202 13199,27202 13199,27197 13204,27197 13204,27193 13208,27193 13212,27188 13216,27188 13216,27185 13221,27185 13221,27180 13225,27180 13225,27176 13229,27176 13229,27167 13233,27167 13233,27150 "
         id="polygon13894" /><polygon
         class="fil1"
         points="13212,27142 13208,27142 13204,27142 13204,27142 13199,27147 13195,27147 13195,27150 13191,27150 13191,27155 13187,27155 13187,27164 13195,27164 13195,27159 13199,27155 13199,27155 13204,27150 13208,27150 13229,27150 13229,27147 13225,27147 13225,27142 13221,27142 13216,27142 13216,27142 "
         id="polygon13896" /><polygon
         class="fil0 str1"
         points="12657,27781 13449,27781 13449,26990 12657,26990 "
         id="polygon13898" /><polygon
         class="fil7"
         points="12729,27591 12818,27591 12818,27591 "
         id="polygon13900" /><polygon
         class="fil7"
         points="12839,27591 12928,27591 12928,27591 "
         id="polygon13902" /><polygon
         class="fil7"
         points="12954,27591 13043,27591 13043,27591 "
         id="polygon13904" /><polygon
         class="fil7"
         points="13064,27591 13153,27591 13153,27591 "
         id="polygon13906" /><polygon
         class="fil7"
         points="13178,27591 13267,27591 13267,27591 "
         id="polygon13908" /><polygon
         class="fil7"
         points="13288,27591 13377,27591 13377,27591 "
         id="polygon13910" /><polygon
         class="fil7"
         points="12729,27591 12729,27705 12818,27705 "
         id="polygon13912" /><polygon
         class="fil7"
         points="12729,27591 12818,27591 12818,27705 "
         id="polygon13914" /><polygon
         class="fil7"
         points="12839,27591 12839,27705 12928,27705 "
         id="polygon13916" /><polygon
         class="fil7"
         points="12839,27591 12928,27591 12928,27705 "
         id="polygon13918" /><polygon
         class="fil7"
         points="12954,27591 12954,27705 13043,27705 "
         id="polygon13920" /><polygon
         class="fil7"
         points="12954,27591 13043,27591 13043,27705 "
         id="polygon13922" /><polygon
         class="fil7"
         points="13064,27591 13064,27705 13153,27705 "
         id="polygon13924" /><polygon
         class="fil7"
         points="13064,27591 13153,27591 13153,27705 "
         id="polygon13926" /><polygon
         class="fil7"
         points="13178,27591 13178,27705 13267,27705 "
         id="polygon13928" /><polygon
         class="fil7"
         points="13178,27591 13267,27591 13267,27705 "
         id="polygon13930" /><polygon
         class="fil7"
         points="13288,27591 13288,27705 13377,27705 "
         id="polygon13932" /><polygon
         class="fil7"
         points="13288,27591 13377,27591 13377,27705 "
         id="polygon13934" /><polygon
         class="fil7"
         points="12729,27705 12818,27705 12818,27705 "
         id="polygon13936" /><polygon
         class="fil7"
         points="12839,27705 12928,27705 12928,27705 "
         id="polygon13938" /><polygon
         class="fil7"
         points="12954,27705 13043,27705 13043,27705 "
         id="polygon13940" /><polygon
         class="fil7"
         points="13064,27705 13153,27705 13153,27705 "
         id="polygon13942" /><polygon
         class="fil7"
         points="13178,27705 13267,27705 13267,27705 "
         id="polygon13944" /><polygon
         class="fil7"
         points="13288,27705 13377,27705 13377,27705 "
         id="polygon13946" /><polygon
         class="fil6"
         points="12772,27295 12729,27299 12818,27299 "
         id="polygon13948" /><polygon
         class="fil6"
         points="12886,27295 12844,27299 12928,27299 "
         id="polygon13950" /><line
         class="fil0 str7"
         x1="12886"
         y1="27295"
         x2="12928"
         y2="27299"
         id="line13952" /><polygon
         class="fil6"
         points="12996,27295 12954,27299 13043,27299 "
         id="polygon13954" /><line
         class="fil0 str7"
         x1="12996"
         y1="27295"
         x2="13043"
         y2="27299"
         id="line13956" /><polygon
         class="fil6"
         points="13110,27295 13068,27299 13153,27299 "
         id="polygon13958" /><polygon
         class="fil6"
         points="13221,27295 13178,27299 13267,27299 "
         id="polygon13960" /><line
         class="fil0 str7"
         x1="13221"
         y1="27295"
         x2="13267"
         y2="27299"
         id="line13962" /><polygon
         class="fil6"
         points="13335,27295 13292,27299 13377,27299 "
         id="polygon13964" /><path
         class="fil0 str7"
         d="M12729 27303l89 0m-89 -4l89 0m21 4l89 0m-84 -4l84 0m26 4l89 0m-89 -4l89 0m21 4l89 0m-85 -4l85 0m25 4l89 0m-89 -4l89 0m21 4l89 0m-85 -4l85 0"
         id="path13966" /><polygon
         class="fil6"
         points="12729,27303 12729,27591 12818,27591 "
         id="polygon13968" /><polygon
         class="fil6"
         points="12729,27303 12818,27303 12818,27591 "
         id="polygon13970" /><polygon
         class="fil6"
         points="12839,27303 12839,27591 12928,27591 "
         id="polygon13972" /><polygon
         class="fil6"
         points="12839,27303 12928,27303 12928,27591 "
         id="polygon13974" /><polygon
         class="fil6"
         points="12954,27303 12954,27591 13043,27591 "
         id="polygon13976" /><polygon
         class="fil6"
         points="12954,27303 13043,27303 13043,27591 "
         id="polygon13978" /><polygon
         class="fil6"
         points="13064,27303 13064,27591 13153,27591 "
         id="polygon13980" /><polygon
         class="fil6"
         points="13064,27303 13153,27303 13153,27591 "
         id="polygon13982" /><polygon
         class="fil6"
         points="13178,27303 13178,27591 13267,27591 "
         id="polygon13984" /><polygon
         class="fil6"
         points="13178,27303 13267,27303 13267,27591 "
         id="polygon13986" /><polygon
         class="fil6"
         points="13288,27303 13288,27591 13377,27591 "
         id="polygon13988" /><polygon
         class="fil6"
         points="13288,27303 13377,27303 13377,27591 "
         id="polygon13990" /><polygon
         class="fil6"
         points="12729,27591 12818,27591 12818,27591 "
         id="polygon13992" /><polygon
         class="fil6"
         points="12839,27591 12928,27591 12928,27591 "
         id="polygon13994" /><polygon
         class="fil6"
         points="12954,27591 13043,27591 13043,27591 "
         id="polygon13996" /><polygon
         class="fil6"
         points="13064,27591 13153,27591 13153,27591 "
         id="polygon13998" /><polygon
         class="fil6"
         points="13178,27591 13267,27591 13267,27591 "
         id="polygon14000" /><polygon
         class="fil6"
         points="13288,27591 13377,27591 13377,27591 "
         id="polygon14002" /><polyline
         class="fil0 str1"
         points="12751,27299 12772,27243 12793,27299 "
         id="polyline14004" /><polyline
         class="fil0 str1"
         points="12818,27299 12772,27295 12729,27303 12729,27705 "
         id="polyline14006" /><polyline
         class="fil0 str1"
         points="12818,27303 12818,27705 12729,27705 "
         id="polyline14008" /><polyline
         class="fil0 str1"
         points="12865,27299 12886,27243 12907,27299 "
         id="polyline14010" /><polyline
         class="fil0 str1"
         points="12928,27299 12886,27295 12839,27303 12839,27705 "
         id="polyline14012" /><polyline
         class="fil0 str1"
         points="12928,27303 12928,27705 12839,27705 "
         id="polyline14014" /><polyline
         class="fil0 str1"
         points="12975,27299 12996,27243 13017,27299 "
         id="polyline14016" /><polyline
         class="fil0 str1"
         points="13043,27299 12996,27295 12954,27303 12954,27705 "
         id="polyline14018" /><polyline
         class="fil0 str1"
         points="13043,27303 13043,27705 12954,27705 "
         id="polyline14020" /><polyline
         class="fil0 str1"
         points="13089,27299 13110,27243 13132,27299 "
         id="polyline14022" /><polyline
         class="fil0 str1"
         points="13153,27299 13110,27295 13064,27303 13064,27705 "
         id="polyline14024" /><polyline
         class="fil0 str1"
         points="13153,27303 13153,27705 13064,27705 "
         id="polyline14026" /><polyline
         class="fil0 str1"
         points="13199,27299 13221,27243 13242,27299 "
         id="polyline14028" /><polyline
         class="fil0 str1"
         points="13267,27299 13221,27295 13178,27303 13178,27705 "
         id="polyline14030" /><polyline
         class="fil0 str1"
         points="13267,27303 13267,27705 13178,27705 "
         id="polyline14032" /><polyline
         class="fil0 str1"
         points="13314,27299 13335,27243 13356,27299 "
         id="polyline14034" /><polyline
         class="fil0 str1"
         points="13377,27299 13335,27295 13288,27303 13288,27705 "
         id="polyline14036" /><polyline
         class="fil0 str1"
         points="13377,27303 13377,27705 13288,27705 "
         id="polyline14038" /><path
         class="fil0 str1"
         d="M12729 27591l89 0m21 0l89 0m26 0l89 0m21 0l89 0m25 0l89 0m21 0l89 0m-635 -351l635 0m-635 3l635 0m0 60l0 -4m-110 4l0 -4m-114 4l0 -4m-110 4l0 -4m-115 4l0 -4m-110 4l0 -4"
         id="path14040" /><polyline
         class="fil0 str1"
         points="12729,27243 12729,27240 12742,27240 "
         id="polyline14042" /><path
         class="fil0 str1"
         d="M12742 27243l-13 0m648 0l0 -3"
         id="path14044" /><polygon
         class="fil1"
         points="12772,27243 12772,27243 12772,27243 "
         id="polygon14046" /><polygon
         class="fil1"
         points="12886,27243 12886,27243 12886,27243 "
         id="polygon14048" /><polygon
         class="fil1"
         points="12996,27243 12996,27243 12996,27243 "
         id="polygon14050" /><polygon
         class="fil1"
         points="12772,27243 12751,27295 12793,27295 "
         id="polygon14052" /><line
         class="fil0 str4"
         x1="12772"
         y1="27243"
         x2="12793"
         y2="27295"
         id="line14054" /><polygon
         class="fil1"
         points="12886,27243 12865,27295 12907,27295 "
         id="polygon14056" /><line
         class="fil0 str4"
         x1="12886"
         y1="27243"
         x2="12907"
         y2="27295"
         id="line14058" /><polygon
         class="fil1"
         points="12996,27243 12975,27295 13017,27295 "
         id="polygon14060" /><line
         class="fil0 str4"
         x1="12996"
         y1="27243"
         x2="13017"
         y2="27295"
         id="line14062" /><polyline
         class="fil0 str4"
         points="12751,27299 12755,27299 12772,27295 12793,27299 "
         id="polyline14064" /><polyline
         class="fil0 str4"
         points="12865,27299 12886,27295 12907,27299 "
         id="polyline14066" /><polyline
         class="fil0 str4"
         points="12975,27299 12979,27299 12996,27295 13017,27299 "
         id="polyline14068" /><path
         class="fil0 str4"
         d="M12755 27299l-4 0m114 0l4 0m110 0l-4 0"
         id="path14070" /><polygon
         class="fil1"
         points="12729,27240 12742,27240 12742,27240 "
         id="polygon14072" /><polygon
         class="fil1"
         points="12742,27240 13377,27240 13377,27240 "
         id="polygon14074" /><polyline
         class="fil0 str4"
         points="13377,27243 12729,27240 13377,27240 "
         id="polyline14076" /><polygon
         class="fil0 str4"
         points="12729,27243 12772,27243 "
         id="polygon14078" /><polygon
         class="fil0 str4"
         points="12772,27243 12886,27243 "
         id="polygon14080" /><polygon
         class="fil0 str4"
         points="12886,27243 12996,27243 "
         id="polygon14082" /><polygon
         class="fil0 str4"
         points="12996,27243 13110,27243 "
         id="polygon14084" /><polygon
         class="fil0 str4"
         points="13110,27243 13221,27243 "
         id="polygon14086" /><polygon
         class="fil0 str4"
         points="13221,27243 13335,27243 "
         id="polygon14088" /><polygon
         class="fil0 str4"
         points="13335,27243 13377,27243 "
         id="polygon14090" /><polygon
         class="fil1"
         points="12729,27243 12742,27243 12742,27243 "
         id="polygon14092" /><polygon
         class="fil1"
         points="12742,27243 12772,27243 12772,27243 "
         id="polygon14094" /><polygon
         class="fil1"
         points="12772,27243 12886,27243 12886,27243 "
         id="polygon14096" /><polygon
         class="fil1"
         points="12886,27243 12996,27243 12996,27243 "
         id="polygon14098" /><polygon
         class="fil1"
         points="12996,27243 13110,27243 13110,27243 "
         id="polygon14100" /><polygon
         class="fil1"
         points="13110,27243 13110,27243 13110,27243 "
         id="polygon14102" /><polygon
         class="fil1"
         points="13110,27243 13221,27243 13221,27243 "
         id="polygon14104" /><polygon
         class="fil1"
         points="13221,27243 13221,27243 13221,27243 "
         id="polygon14106" /><polygon
         class="fil1"
         points="13221,27243 13335,27243 13335,27243 "
         id="polygon14108" /><polygon
         class="fil1"
         points="13335,27243 13335,27243 13335,27243 "
         id="polygon14110" /><polygon
         class="fil1"
         points="13335,27243 13377,27243 13377,27243 "
         id="polygon14112" /><polygon
         class="fil1"
         points="13110,27243 13089,27295 13132,27295 "
         id="polygon14114" /><line
         class="fil0 str4"
         x1="13110"
         y1="27243"
         x2="13132"
         y2="27295"
         id="line14116" /><polygon
         class="fil1"
         points="13221,27243 13204,27295 13242,27295 "
         id="polygon14118" /><line
         class="fil0 str4"
         x1="13221"
         y1="27243"
         x2="13242"
         y2="27295"
         id="line14120" /><polygon
         class="fil1"
         points="13335,27243 13314,27295 13356,27295 "
         id="polygon14122" /><line
         class="fil0 str4"
         x1="13335"
         y1="27243"
         x2="13356"
         y2="27295"
         id="line14124" /><polyline
         class="fil0 str4"
         points="13089,27299 13110,27295 13132,27299 "
         id="polyline14126" /><polyline
         class="fil0 str4"
         points="13199,27299 13204,27299 13221,27295 13242,27299 "
         id="polyline14128" /><polyline
         class="fil0 str4"
         points="13314,27299 13335,27295 13356,27299 "
         id="polyline14130" /><path
         class="fil0 str4"
         d="M13089 27299l5 0m110 0l-5 0m115 0l4 0"
         id="path14132" /></g><metadata
       id="CorelCorpID_0Corel-Layer" /></g></svg>