<?xml version="1.0" encoding="UTF-8" standalone="no"?>
<!-- Creator: CorelDRAW X8 -->

<svg
   xmlns:dc="http://purl.org/dc/elements/1.1/"
   xmlns:cc="http://creativecommons.org/ns#"
   xmlns:rdf="http://www.w3.org/1999/02/22-rdf-syntax-ns#"
   xmlns:svg="http://www.w3.org/2000/svg"
   xmlns="http://www.w3.org/2000/svg"
   xmlns:sodipodi="http://sodipodi.sourceforge.net/DTD/sodipodi-0.dtd"
   xmlns:inkscape="http://www.inkscape.org/namespaces/inkscape"
   xml:space="preserve"
   width="254.5mm"
   height="750mm"
   version="1.1"
   style="shape-rendering:geometricPrecision; text-rendering:geometricPrecision; image-rendering:optimizeQuality; fill-rule:evenodd; clip-rule:evenodd"
   viewBox="0 0 25450 75000"
   id="svg2"
   inkscape:version="0.91 r13725"
   sodipodi:docname="024.svg"><metadata
     id="metadata51242"><rdf:RDF><cc:Work
         rdf:about=""><dc:format>image/svg+xml</dc:format><dc:type
           rdf:resource="http://purl.org/dc/dcmitype/StillImage" /><dc:title></dc:title></cc:Work></rdf:RDF></metadata><sodipodi:namedview
     pagecolor="#ffffff"
     bordercolor="#666666"
     borderopacity="1"
     objecttolerance="10"
     gridtolerance="10"
     guidetolerance="10"
     inkscape:pageopacity="0"
     inkscape:pageshadow="2"
     inkscape:window-width="843"
     inkscape:window-height="999"
     id="namedview51240"
     showgrid="false"
     inkscape:zoom="1.4208948"
     inkscape:cx="476.72103"
     inkscape:cy="1844.2809"
     inkscape:window-x="1063"
     inkscape:window-y="1"
     inkscape:window-maximized="0"
     inkscape:current-layer="svg2" /><defs
     id="defs4"><style
       type="text/css"
       id="style6"><![CDATA[
       svg {
                position: absolute;
            }
    .str16 {stroke:red;stroke-width:59.27;stroke-linecap:round;stroke-linejoin:round}
    .str17 {stroke:yellow;stroke-width:59.27;stroke-linecap:round;stroke-linejoin:round}
    .str20 {stroke:#DDA56E;stroke-width:21.17;stroke-linecap:round;stroke-linejoin:round}
    .str18 {stroke:red;stroke-width:21.17;stroke-linecap:round;stroke-linejoin:round}
    .str21 {stroke:yellow;stroke-width:21.17;stroke-linecap:round;stroke-linejoin:round}
    .str15 {stroke:black;stroke-width:8.47;stroke-linecap:round;stroke-linejoin:round}
    .str0 {stroke:black;stroke-width:29.63;stroke-linecap:round;stroke-linejoin:round}
    .str1 {stroke:black;stroke-width:16.93;stroke-linecap:round;stroke-linejoin:round}
    .str10 {stroke:gray;stroke-width:16.93;stroke-linecap:round;stroke-linejoin:round}
    .str4 {stroke:black;stroke-width:4.23;stroke-linecap:round;stroke-linejoin:round}
    .str14 {stroke:#0037DD;stroke-width:4.23;stroke-linecap:round;stroke-linejoin:round}
    .str2 {stroke:#006EDD;stroke-width:4.23;stroke-linecap:round;stroke-linejoin:round}
    .str5 {stroke:#00B85C;stroke-width:4.23;stroke-linecap:round;stroke-linejoin:round}
    .str3 {stroke:#00DD00;stroke-width:4.23;stroke-linecap:round;stroke-linejoin:round}
    .str9 {stroke:lime;stroke-width:4.23;stroke-linecap:round;stroke-linejoin:round}
    .str12 {stroke:gray;stroke-width:4.23;stroke-linecap:round;stroke-linejoin:round}
    .str13 {stroke:#989898;stroke-width:4.23;stroke-linecap:round;stroke-linejoin:round}
    .str11 {stroke:#BABABA;stroke-width:4.23;stroke-linecap:round;stroke-linejoin:round}
    .str7 {stroke:red;stroke-width:4.23;stroke-linecap:round;stroke-linejoin:round}
    .str8 {stroke:#FF7F00;stroke-width:4.23;stroke-linecap:round;stroke-linejoin:round}
    .str6 {stroke:yellow;stroke-width:4.23;stroke-linecap:round;stroke-linejoin:round}
    .str23 {stroke:#00BFFF;stroke-width:25.4;stroke-linecap:round;stroke-linejoin:round}
    .str22 {stroke:#37DD00;stroke-width:25.4;stroke-linecap:round;stroke-linejoin:round}
    .str19 {stroke:black;stroke-width:12.7;stroke-linecap:round;stroke-linejoin:round}
    .fil0 {fill:none}
    .fil1 {fill:black}
    .fil13 {fill:#0037DD}
    .fil2 {fill:#006EDD}
    .fil3 {fill:#00B85C}
    .fil4 {fill:#00DD00}
    .fil9 {fill:lime}
    .fil7 {fill:gray}
    .fil12 {fill:#989898}
    .fil11 {fill:#B85C00}
    .fil10 {fill:#BABABA}
    .fil14 {fill:#FCFCFC}
    .fil6 {fill:red}
    .fil8 {fill:#FF7F00}
    .fil5 {fill:yellow}
   ]]></style></defs><g
     id="Слой_x0020_1"><g
       id="g56482"><polygon
         class="fil1"
         points="13026,28154 13026,28162 13022,28167 13022,28171 13017,28175 13013,28179 13013,28179 13009,28184 13009,28184 13005,28188 13000,28188 13000,28192 12983,28192 12950,28196 12950,28196 12954,28200 12954,28200 12958,28205 12962,28205 12962,28205 12967,28209 12971,28209 12983,28209 13000,28209 13000,28205 13009,28205 13013,28200 13013,28200 13017,28196 13022,28196 13022,28192 13026,28188 13026,28188 13030,28184 13034,28179 13034,28175 13038,28171 13038,28167 13043,28162 13043,28158 "
         id="polygon14134" /><polygon
         class="fil1"
         points="13043,28069 13009,28069 13009,28069 13013,28074 13022,28074 13022,28074 13026,28078 13026,28078 13030,28082 13030,28086 13034,28091 13034,28103 13051,28099 13051,28082 13047,28082 13047,28074 "
         id="polygon14136" /><polygon
         class="fil1"
         points="13013,28052 13005,28052 13000,28057 12992,28057 12992,28057 12988,28061 12983,28061 12979,28065 12979,28065 12975,28069 12971,28069 12967,28074 12967,28078 12962,28078 12962,28082 12958,28086 12954,28091 12954,28095 12950,28099 12950,28103 12945,28107 12945,28116 12941,28120 12941,28145 12937,28150 12937,28154 12941,28158 12941,28184 12945,28188 12945,28188 12950,28192 12950,28196 12983,28192 12979,28192 12975,28192 12971,28188 12967,28188 12962,28184 12962,28179 12958,28175 12958,28162 12954,28158 12954,28145 12958,28141 12958,28120 12962,28120 12962,28112 12967,28107 12967,28099 12971,28095 12971,28091 12975,28086 12979,28086 12979,28082 12983,28078 12988,28078 12992,28074 13000,28074 13005,28069 13043,28069 13043,28069 13038,28065 13038,28065 13034,28061 13034,28061 13030,28057 13022,28057 13017,28052 "
         id="polygon14138" /><polygon
         class="fil1"
         points="13094,28069 13089,28074 13089,28078 13085,28078 13081,28082 13081,28086 13077,28091 13077,28091 13072,28095 13072,28103 13068,28107 13068,28116 13064,28120 13064,28133 13060,28137 13060,28167 13064,28171 13064,28184 13068,28188 13068,28188 13072,28192 13072,28196 13077,28196 13077,28200 13081,28200 13081,28205 13085,28205 13085,28205 13089,28209 13098,28209 13106,28209 13119,28209 13123,28209 13127,28205 13132,28205 13136,28200 13140,28200 13140,28196 13144,28196 13149,28192 13110,28192 13098,28192 13098,28192 13094,28188 13089,28188 13089,28184 13085,28184 13085,28179 13081,28175 13081,28171 13077,28167 13077,28133 13081,28129 13081,28116 13085,28112 13085,28103 13089,28099 13089,28095 13094,28095 13094,28091 13098,28086 13098,28086 13102,28082 13106,28082 13106,28078 13110,28078 13115,28074 13119,28074 13123,28074 13127,28069 13132,28069 "
         id="polygon14140" /><polygon
         class="fil1"
         points="13136,28052 13132,28052 13127,28052 13123,28057 13115,28057 13115,28057 13110,28061 13102,28061 13102,28065 13098,28065 13094,28069 13132,28069 13132,28069 13136,28074 13144,28074 13144,28074 13149,28078 13153,28078 13153,28082 13157,28082 13157,28091 13161,28091 13161,28141 13157,28145 13157,28154 13153,28158 13153,28162 13149,28167 13149,28167 13144,28171 13144,28175 13140,28175 13140,28179 13136,28184 13132,28184 13127,28188 13127,28188 13123,28192 13115,28192 13110,28192 13149,28192 13149,28192 13153,28188 13157,28184 13157,28179 13161,28175 13161,28171 13165,28171 13165,28167 13170,28162 13170,28158 13174,28154 13174,28141 13178,28137 13178,28086 13174,28082 13174,28078 13170,28074 13170,28069 13165,28069 13165,28065 13161,28065 13161,28061 13157,28061 13157,28061 13153,28057 13149,28057 13144,28057 13140,28052 "
         id="polygon14142" /><polygon
         class="fil1"
         points="13229,28175 13216,28175 13216,28175 13221,28179 13221,28179 13225,28184 13225,28192 13221,28196 13221,28200 13216,28200 13216,28205 13212,28205 13212,28209 13208,28209 13208,28213 13204,28213 13204,28217 13199,28217 13199,28222 13195,28222 13195,28226 13191,28226 13191,28231 13187,28231 13187,28239 13182,28239 13182,28243 13221,28243 13225,28234 13195,28234 13195,28234 13199,28231 13199,28231 13204,28226 13204,28222 13208,28222 13208,28222 13212,28217 13212,28217 13216,28213 13216,28213 13221,28209 13221,28209 13225,28205 13225,28200 13229,28200 13229,28192 13233,28192 13233,28184 13229,28179 13229,28179 "
         id="polygon14144" /><polygon
         class="fil1"
         points="13216,28171 13212,28171 13208,28171 13204,28171 13204,28175 13199,28175 13199,28179 13195,28179 13195,28188 13191,28192 13199,28192 13199,28188 13204,28188 13204,28179 13208,28179 13212,28179 13212,28175 13229,28175 13229,28175 13225,28171 13221,28171 "
         id="polygon14146" /><polygon
         class="fil0 str1"
         points="12657,28781 13449,28781 13449,27989 12657,27989 "
         id="polygon14148" /><line
         class="fil0 str12"
         x1="12869"
         y1="28438"
         x2="13051"
         y2="28438"
         id="line14150" /><polygon
         class="fil7"
         points="13051,28438 13229,28438 13229,28438 "
         id="polygon14152" /><polygon
         class="fil7"
         points="12869,28438 12878,28493 13221,28493 "
         id="polygon14154" /><polygon
         class="fil7"
         points="12869,28438 13229,28438 13221,28493 "
         id="polygon14156" /><polygon
         class="fil0 str12"
         points="12878,28493 13221,28493 "
         id="polygon14158" /><polygon
         class="fil7"
         points="12878,28493 12903,28539 13195,28539 "
         id="polygon14160" /><polygon
         class="fil7"
         points="12878,28493 13221,28493 13195,28539 "
         id="polygon14162" /><polygon
         class="fil0 str12"
         points="12903,28539 13195,28539 "
         id="polygon14164" /><polygon
         class="fil7"
         points="12903,28539 12945,28581 13153,28581 "
         id="polygon14166" /><polygon
         class="fil7"
         points="12903,28539 13195,28539 13153,28581 "
         id="polygon14168" /><polygon
         class="fil0 str12"
         points="12945,28581 13153,28581 "
         id="polygon14170" /><polygon
         class="fil7"
         points="12945,28581 12996,28607 13106,28607 "
         id="polygon14172" /><polygon
         class="fil7"
         points="12945,28581 13153,28581 13106,28607 "
         id="polygon14174" /><polygon
         class="fil0 str12"
         points="12996,28607 13106,28607 "
         id="polygon14176" /><polygon
         class="fil7"
         points="12996,28607 13106,28607 13051,28615 "
         id="polygon14178" /><polygon
         class="fil6"
         points="12894,28658 13051,28658 13051,28658 "
         id="polygon14180" /><polygon
         class="fil6"
         points="13051,28658 13204,28658 13204,28658 "
         id="polygon14182" /><polygon
         class="fil6"
         points="12894,28658 12894,28696 13204,28696 "
         id="polygon14184" /><polygon
         class="fil6"
         points="12894,28658 13204,28658 13204,28696 "
         id="polygon14186" /><polygon
         class="fil6"
         points="12894,28696 13051,28696 13051,28696 "
         id="polygon14188" /><polygon
         class="fil6"
         points="13051,28696 13204,28696 13204,28696 "
         id="polygon14190" /><polygon
         class="fil6"
         points="13051,28260 12996,28269 13106,28269 "
         id="polygon14192" /><polygon
         class="fil6"
         points="12996,28269 12945,28293 13153,28293 "
         id="polygon14194" /><polygon
         class="fil6"
         points="12996,28269 13106,28269 13153,28293 "
         id="polygon14196" /><polygon
         class="fil6"
         points="12945,28293 12903,28332 13195,28332 "
         id="polygon14198" /><polygon
         class="fil6"
         points="12945,28293 13153,28293 13195,28332 "
         id="polygon14200" /><polygon
         class="fil6"
         points="12903,28332 12878,28383 13221,28383 "
         id="polygon14202" /><polygon
         class="fil6"
         points="12903,28332 13195,28332 13221,28383 "
         id="polygon14204" /><polygon
         class="fil6"
         points="12878,28383 12869,28438 13229,28438 "
         id="polygon14206" /><polygon
         class="fil6"
         points="12878,28383 13221,28383 13229,28438 "
         id="polygon14208" /><polygon
         class="fil6"
         points="12869,28438 13051,28438 13051,28438 "
         id="polygon14210" /><polygon
         class="fil6"
         points="13051,28438 13229,28438 13229,28438 "
         id="polygon14212" /><polygon
         class="fil6"
         points="12937,28577 12937,28603 12992,28603 "
         id="polygon14214" /><polygon
         class="fil6"
         points="13161,28577 13110,28603 13161,28603 "
         id="polygon14216" /><polygon
         class="fil6"
         points="12937,28603 12937,28615 13051,28615 "
         id="polygon14218" /><polygon
         class="fil6"
         points="12937,28603 12992,28603 13051,28615 "
         id="polygon14220" /><polygon
         class="fil6"
         points="13110,28603 13051,28615 13161,28615 "
         id="polygon14222" /><polygon
         class="fil6"
         points="13110,28603 13161,28603 13161,28615 "
         id="polygon14224" /><polygon
         class="fil6"
         points="12937,28615 12937,28658 13161,28658 "
         id="polygon14226" /><polygon
         class="fil6"
         points="12937,28615 13161,28615 13161,28658 "
         id="polygon14228" /><polygon
         class="fil6"
         points="12937,28658 13051,28658 13051,28658 "
         id="polygon14230" /><polygon
         class="fil6"
         points="13051,28658 13161,28658 13161,28658 "
         id="polygon14232" /><line
         class="fil0 str1"
         x1="13229"
         y1="28438"
         x2="12869"
         y2="28438"
         id="line14234" /><polyline
         class="fil0 str1"
         points="13051,28696 13204,28696 13204,28658 13051,28658 "
         id="polyline14236" /><line
         class="fil0 str1"
         x1="13161"
         y1="28658"
         x2="13161"
         y2="28577"
         id="line14238" /><polyline
         class="fil0 str1"
         points="13051,28696 12894,28696 12894,28658 13051,28658 "
         id="polyline14240" /><polyline
         class="fil0 str1"
         points="12937,28577 12937,28658 13051,28658 "
         id="polyline14242" /><polygon
         class="fil0 str1"
         points="13229,28438 13221,28383 13195,28332 13153,28293 13106,28269 13051,28260 12996,28269 12945,28293 12903,28332 12878,28383 12869,28438 12878,28493 12903,28539 12945,28581 12996,28607 13051,28615 13106,28607 13153,28581 13195,28539 13221,28493 "
         id="polygon14244" /></g><metadata
       id="CorelCorpID_0Corel-Layer" /></g></svg>