<?xml version="1.0" encoding="UTF-8" standalone="no"?>
<!-- Creator: CorelDRAW X8 -->

<svg
   xmlns:dc="http://purl.org/dc/elements/1.1/"
   xmlns:cc="http://creativecommons.org/ns#"
   xmlns:rdf="http://www.w3.org/1999/02/22-rdf-syntax-ns#"
   xmlns:svg="http://www.w3.org/2000/svg"
   xmlns="http://www.w3.org/2000/svg"
   xmlns:sodipodi="http://sodipodi.sourceforge.net/DTD/sodipodi-0.dtd"
   xmlns:inkscape="http://www.inkscape.org/namespaces/inkscape"
   xml:space="preserve"
   width="254.5mm"
   height="750mm"
   version="1.1"
   style="shape-rendering:geometricPrecision; text-rendering:geometricPrecision; image-rendering:optimizeQuality; fill-rule:evenodd; clip-rule:evenodd"
   viewBox="0 0 25450 75000"
   id="svg2"
   inkscape:version="0.91 r13725"
   sodipodi:docname="025.svg"><metadata
     id="metadata51242"><rdf:RDF><cc:Work
         rdf:about=""><dc:format>image/svg+xml</dc:format><dc:type
           rdf:resource="http://purl.org/dc/dcmitype/StillImage" /><dc:title></dc:title></cc:Work></rdf:RDF></metadata><sodipodi:namedview
     pagecolor="#ffffff"
     bordercolor="#666666"
     borderopacity="1"
     objecttolerance="10"
     gridtolerance="10"
     guidetolerance="10"
     inkscape:pageopacity="0"
     inkscape:pageshadow="2"
     inkscape:window-width="843"
     inkscape:window-height="999"
     id="namedview51240"
     showgrid="false"
     inkscape:zoom="1.4208948"
     inkscape:cx="476.72103"
     inkscape:cy="1844.2809"
     inkscape:window-x="1063"
     inkscape:window-y="1"
     inkscape:window-maximized="0"
     inkscape:current-layer="svg2" /><defs
     id="defs4"><style
       type="text/css"
       id="style6"><![CDATA[
       svg {
                position: absolute;
            }
    .str16 {stroke:red;stroke-width:59.27;stroke-linecap:round;stroke-linejoin:round}
    .str17 {stroke:yellow;stroke-width:59.27;stroke-linecap:round;stroke-linejoin:round}
    .str20 {stroke:#DDA56E;stroke-width:21.17;stroke-linecap:round;stroke-linejoin:round}
    .str18 {stroke:red;stroke-width:21.17;stroke-linecap:round;stroke-linejoin:round}
    .str21 {stroke:yellow;stroke-width:21.17;stroke-linecap:round;stroke-linejoin:round}
    .str15 {stroke:black;stroke-width:8.47;stroke-linecap:round;stroke-linejoin:round}
    .str0 {stroke:black;stroke-width:29.63;stroke-linecap:round;stroke-linejoin:round}
    .str1 {stroke:black;stroke-width:16.93;stroke-linecap:round;stroke-linejoin:round}
    .str10 {stroke:gray;stroke-width:16.93;stroke-linecap:round;stroke-linejoin:round}
    .str4 {stroke:black;stroke-width:4.23;stroke-linecap:round;stroke-linejoin:round}
    .str14 {stroke:#0037DD;stroke-width:4.23;stroke-linecap:round;stroke-linejoin:round}
    .str2 {stroke:#006EDD;stroke-width:4.23;stroke-linecap:round;stroke-linejoin:round}
    .str5 {stroke:#00B85C;stroke-width:4.23;stroke-linecap:round;stroke-linejoin:round}
    .str3 {stroke:#00DD00;stroke-width:4.23;stroke-linecap:round;stroke-linejoin:round}
    .str9 {stroke:lime;stroke-width:4.23;stroke-linecap:round;stroke-linejoin:round}
    .str12 {stroke:gray;stroke-width:4.23;stroke-linecap:round;stroke-linejoin:round}
    .str13 {stroke:#989898;stroke-width:4.23;stroke-linecap:round;stroke-linejoin:round}
    .str11 {stroke:#BABABA;stroke-width:4.23;stroke-linecap:round;stroke-linejoin:round}
    .str7 {stroke:red;stroke-width:4.23;stroke-linecap:round;stroke-linejoin:round}
    .str8 {stroke:#FF7F00;stroke-width:4.23;stroke-linecap:round;stroke-linejoin:round}
    .str6 {stroke:yellow;stroke-width:4.23;stroke-linecap:round;stroke-linejoin:round}
    .str23 {stroke:#00BFFF;stroke-width:25.4;stroke-linecap:round;stroke-linejoin:round}
    .str22 {stroke:#37DD00;stroke-width:25.4;stroke-linecap:round;stroke-linejoin:round}
    .str19 {stroke:black;stroke-width:12.7;stroke-linecap:round;stroke-linejoin:round}
    .fil0 {fill:none}
    .fil1 {fill:black}
    .fil13 {fill:#0037DD}
    .fil2 {fill:#006EDD}
    .fil3 {fill:#00B85C}
    .fil4 {fill:#00DD00}
    .fil9 {fill:lime}
    .fil7 {fill:gray}
    .fil12 {fill:#989898}
    .fil11 {fill:#B85C00}
    .fil10 {fill:#BABABA}
    .fil14 {fill:#FCFCFC}
    .fil6 {fill:red}
    .fil8 {fill:#FF7F00}
    .fil5 {fill:yellow}
   ]]></style></defs><g
     id="Слой_x0020_1"><g
       id="g56540"><polygon
         class="fil0 str1"
         points="12657,29881 13449,29881 13449,29090 12657,29090 "
         id="polygon14246" /><polygon
         class="fil1"
         points="13119,29174 13038,29174 13009,29327 13026,29327 13038,29255 13094,29255 13098,29238 13043,29238 13051,29191 13115,29191 "
         id="polygon14248" /><line
         class="fil0 str6"
         x1="12869"
         y1="29538"
         x2="13051"
         y2="29538"
         id="line14250" /><polygon
         class="fil5"
         points="13051,29538 13229,29538 13229,29538 "
         id="polygon14252" /><polygon
         class="fil5"
         points="12869,29538 12878,29593 13221,29593 "
         id="polygon14254" /><polygon
         class="fil5"
         points="12869,29538 13229,29538 13221,29593 "
         id="polygon14256" /><polygon
         class="fil0 str6"
         points="12878,29593 13221,29593 "
         id="polygon14258" /><polygon
         class="fil5"
         points="12878,29593 12903,29640 13195,29640 "
         id="polygon14260" /><polygon
         class="fil5"
         points="12878,29593 13221,29593 13195,29640 "
         id="polygon14262" /><polygon
         class="fil0 str6"
         points="12903,29640 13195,29640 "
         id="polygon14264" /><polygon
         class="fil5"
         points="12903,29640 12945,29682 13153,29682 "
         id="polygon14266" /><polygon
         class="fil5"
         points="12903,29640 13195,29640 13153,29682 "
         id="polygon14268" /><polygon
         class="fil0 str6"
         points="12945,29682 13153,29682 "
         id="polygon14270" /><polygon
         class="fil5"
         points="12945,29682 12996,29708 13106,29708 "
         id="polygon14272" /><polygon
         class="fil5"
         points="12945,29682 13153,29682 13106,29708 "
         id="polygon14274" /><polygon
         class="fil0 str6"
         points="12996,29708 13106,29708 "
         id="polygon14276" /><polygon
         class="fil5"
         points="12996,29708 13106,29708 13051,29716 "
         id="polygon14278" /><polygon
         class="fil6"
         points="12894,29758 13051,29758 13051,29758 "
         id="polygon14280" /><polygon
         class="fil6"
         points="13051,29758 13204,29758 13204,29758 "
         id="polygon14282" /><polygon
         class="fil6"
         points="12894,29758 12894,29796 13204,29796 "
         id="polygon14284" /><polygon
         class="fil6"
         points="12894,29758 13204,29758 13204,29796 "
         id="polygon14286" /><polygon
         class="fil6"
         points="12894,29796 13051,29796 13051,29796 "
         id="polygon14288" /><polygon
         class="fil6"
         points="13051,29796 13204,29796 13204,29796 "
         id="polygon14290" /><polygon
         class="fil6"
         points="13051,29356 12996,29365 13106,29365 "
         id="polygon14292" /><polygon
         class="fil6"
         points="12996,29365 12945,29391 13153,29391 "
         id="polygon14294" /><polygon
         class="fil6"
         points="12996,29365 13106,29365 13153,29391 "
         id="polygon14296" /><polygon
         class="fil6"
         points="12945,29391 12903,29432 13195,29432 "
         id="polygon14298" /><polygon
         class="fil6"
         points="12945,29391 13153,29391 13195,29432 "
         id="polygon14300" /><polygon
         class="fil6"
         points="12903,29432 12878,29484 13221,29484 "
         id="polygon14302" /><polygon
         class="fil6"
         points="12903,29432 13195,29432 13221,29484 "
         id="polygon14304" /><polygon
         class="fil6"
         points="12878,29484 12869,29538 13229,29538 "
         id="polygon14306" /><polygon
         class="fil6"
         points="12878,29484 13221,29484 13229,29538 "
         id="polygon14308" /><polygon
         class="fil6"
         points="12869,29538 13051,29538 13051,29538 "
         id="polygon14310" /><polygon
         class="fil6"
         points="13051,29538 13229,29538 13229,29538 "
         id="polygon14312" /><polygon
         class="fil6"
         points="12937,29674 12937,29703 12992,29703 "
         id="polygon14314" /><polygon
         class="fil6"
         points="13161,29674 13110,29703 13161,29703 "
         id="polygon14316" /><polygon
         class="fil6"
         points="12937,29703 12937,29716 13051,29716 "
         id="polygon14318" /><polygon
         class="fil6"
         points="12937,29703 12992,29703 13051,29716 "
         id="polygon14320" /><polygon
         class="fil6"
         points="13110,29703 13051,29716 13161,29716 "
         id="polygon14322" /><polygon
         class="fil6"
         points="13110,29703 13161,29703 13161,29716 "
         id="polygon14324" /><polygon
         class="fil6"
         points="12937,29716 12937,29758 13161,29758 "
         id="polygon14326" /><polygon
         class="fil6"
         points="12937,29716 13161,29716 13161,29758 "
         id="polygon14328" /><polygon
         class="fil6"
         points="12937,29758 13051,29758 13051,29758 "
         id="polygon14330" /><polygon
         class="fil6"
         points="13051,29758 13161,29758 13161,29758 "
         id="polygon14332" /><line
         class="fil0 str1"
         x1="13229"
         y1="29538"
         x2="12869"
         y2="29538"
         id="line14334" /><polyline
         class="fil0 str1"
         points="13051,29796 13204,29796 13204,29758 13051,29758 "
         id="polyline14336" /><line
         class="fil0 str1"
         x1="13161"
         y1="29758"
         x2="13161"
         y2="29674"
         id="line14338" /><polyline
         class="fil0 str1"
         points="13051,29796 12894,29796 12894,29758 13051,29758 "
         id="polyline14340" /><polyline
         class="fil0 str1"
         points="12937,29674 12937,29758 13051,29758 "
         id="polyline14342" /><polygon
         class="fil0 str1"
         points="13229,29538 13221,29484 13195,29432 13153,29391 13106,29365 13051,29356 12996,29365 12945,29391 12903,29432 12878,29484 12869,29538 12878,29593 12903,29640 12945,29682 12996,29708 13051,29716 13106,29708 13153,29682 13195,29640 13221,29593 "
         id="polygon14344" /></g><metadata
       id="CorelCorpID_0Corel-Layer" /></g></svg>