<?xml version="1.0" encoding="UTF-8" standalone="no"?>
<!-- Creator: CorelDRAW X8 -->

<svg
   xmlns:dc="http://purl.org/dc/elements/1.1/"
   xmlns:cc="http://creativecommons.org/ns#"
   xmlns:rdf="http://www.w3.org/1999/02/22-rdf-syntax-ns#"
   xmlns:svg="http://www.w3.org/2000/svg"
   xmlns="http://www.w3.org/2000/svg"
   xmlns:sodipodi="http://sodipodi.sourceforge.net/DTD/sodipodi-0.dtd"
   xmlns:inkscape="http://www.inkscape.org/namespaces/inkscape"
   xml:space="preserve"
   width="254.5mm"
   height="750mm"
   version="1.1"
   style="shape-rendering:geometricPrecision; text-rendering:geometricPrecision; image-rendering:optimizeQuality; fill-rule:evenodd; clip-rule:evenodd"
   viewBox="0 0 25450 75000"
   id="svg2"
   inkscape:version="0.91 r13725"
   sodipodi:docname="027.svg"><metadata
     id="metadata51242"><rdf:RDF><cc:Work
         rdf:about=""><dc:format>image/svg+xml</dc:format><dc:type
           rdf:resource="http://purl.org/dc/dcmitype/StillImage" /><dc:title></dc:title></cc:Work></rdf:RDF></metadata><sodipodi:namedview
     pagecolor="#ffffff"
     bordercolor="#666666"
     borderopacity="1"
     objecttolerance="10"
     gridtolerance="10"
     guidetolerance="10"
     inkscape:pageopacity="0"
     inkscape:pageshadow="2"
     inkscape:window-width="843"
     inkscape:window-height="999"
     id="namedview51240"
     showgrid="false"
     inkscape:zoom="1.4208948"
     inkscape:cx="476.72103"
     inkscape:cy="1844.2809"
     inkscape:window-x="1063"
     inkscape:window-y="1"
     inkscape:window-maximized="0"
     inkscape:current-layer="svg2" /><defs
     id="defs4"><style
       type="text/css"
       id="style6"><![CDATA[
       svg {
                position: absolute;
            }
    .str16 {stroke:red;stroke-width:59.27;stroke-linecap:round;stroke-linejoin:round}
    .str17 {stroke:yellow;stroke-width:59.27;stroke-linecap:round;stroke-linejoin:round}
    .str20 {stroke:#DDA56E;stroke-width:21.17;stroke-linecap:round;stroke-linejoin:round}
    .str18 {stroke:red;stroke-width:21.17;stroke-linecap:round;stroke-linejoin:round}
    .str21 {stroke:yellow;stroke-width:21.17;stroke-linecap:round;stroke-linejoin:round}
    .str15 {stroke:black;stroke-width:8.47;stroke-linecap:round;stroke-linejoin:round}
    .str0 {stroke:black;stroke-width:29.63;stroke-linecap:round;stroke-linejoin:round}
    .str1 {stroke:black;stroke-width:16.93;stroke-linecap:round;stroke-linejoin:round}
    .str10 {stroke:gray;stroke-width:16.93;stroke-linecap:round;stroke-linejoin:round}
    .str4 {stroke:black;stroke-width:4.23;stroke-linecap:round;stroke-linejoin:round}
    .str14 {stroke:#0037DD;stroke-width:4.23;stroke-linecap:round;stroke-linejoin:round}
    .str2 {stroke:#006EDD;stroke-width:4.23;stroke-linecap:round;stroke-linejoin:round}
    .str5 {stroke:#00B85C;stroke-width:4.23;stroke-linecap:round;stroke-linejoin:round}
    .str3 {stroke:#00DD00;stroke-width:4.23;stroke-linecap:round;stroke-linejoin:round}
    .str9 {stroke:lime;stroke-width:4.23;stroke-linecap:round;stroke-linejoin:round}
    .str12 {stroke:gray;stroke-width:4.23;stroke-linecap:round;stroke-linejoin:round}
    .str13 {stroke:#989898;stroke-width:4.23;stroke-linecap:round;stroke-linejoin:round}
    .str11 {stroke:#BABABA;stroke-width:4.23;stroke-linecap:round;stroke-linejoin:round}
    .str7 {stroke:red;stroke-width:4.23;stroke-linecap:round;stroke-linejoin:round}
    .str8 {stroke:#FF7F00;stroke-width:4.23;stroke-linecap:round;stroke-linejoin:round}
    .str6 {stroke:yellow;stroke-width:4.23;stroke-linecap:round;stroke-linejoin:round}
    .str23 {stroke:#00BFFF;stroke-width:25.4;stroke-linecap:round;stroke-linejoin:round}
    .str22 {stroke:#37DD00;stroke-width:25.4;stroke-linecap:round;stroke-linejoin:round}
    .str19 {stroke:black;stroke-width:12.7;stroke-linecap:round;stroke-linejoin:round}
    .fil0 {fill:none}
    .fil1 {fill:black}
    .fil13 {fill:#0037DD}
    .fil2 {fill:#006EDD}
    .fil3 {fill:#00B85C}
    .fil4 {fill:#00DD00}
    .fil9 {fill:lime}
    .fil7 {fill:gray}
    .fil12 {fill:#989898}
    .fil11 {fill:#B85C00}
    .fil10 {fill:#BABABA}
    .fil14 {fill:#FCFCFC}
    .fil6 {fill:red}
    .fil8 {fill:#FF7F00}
    .fil5 {fill:yellow}
   ]]></style></defs><g
     id="Слой_x0020_1"><g
       id="g56611"><polygon
         class="fil1"
         points="13017,31418 13051,31418 13051,31418 "
         id="polygon14380" /><polygon
         class="fil1"
         points="13051,31418 13089,31418 13089,31418 "
         id="polygon14382" /><polygon
         class="fil1"
         points="13017,31418 13089,31418 13051,31452 "
         id="polygon14384" /><polygon
         class="fil1"
         points="13051,31452 13017,31490 13089,31490 "
         id="polygon14386" /><polygon
         class="fil1"
         points="13017,31490 13089,31490 13089,31490 "
         id="polygon14388" /><polygon
         class="fil1"
         points="12751,31616 12784,31616 12784,31616 "
         id="polygon14390" /><polygon
         class="fil1"
         points="12784,31616 12823,31616 12823,31616 "
         id="polygon14392" /><polygon
         class="fil1"
         points="12928,31616 12962,31616 12962,31616 "
         id="polygon14394" /><polygon
         class="fil1"
         points="12962,31616 13000,31616 13000,31616 "
         id="polygon14396" /><polygon
         class="fil1"
         points="13106,31616 13140,31616 13140,31616 "
         id="polygon14398" /><polygon
         class="fil1"
         points="13140,31616 13178,31616 13178,31616 "
         id="polygon14400" /><polygon
         class="fil1"
         points="13284,31616 13322,31616 13322,31616 "
         id="polygon14402" /><polygon
         class="fil1"
         points="13322,31616 13356,31616 13356,31616 "
         id="polygon14404" /><polygon
         class="fil1"
         points="12751,31616 12823,31616 12784,31655 "
         id="polygon14406" /><polygon
         class="fil1"
         points="12928,31616 13000,31616 12962,31655 "
         id="polygon14408" /><polygon
         class="fil1"
         points="13106,31616 13178,31616 13140,31655 "
         id="polygon14410" /><polygon
         class="fil1"
         points="13284,31616 13356,31616 13322,31655 "
         id="polygon14412" /><polygon
         class="fil1"
         points="12784,31655 12751,31689 12823,31689 "
         id="polygon14414" /><polygon
         class="fil1"
         points="12962,31655 12928,31689 13000,31689 "
         id="polygon14416" /><polygon
         class="fil1"
         points="13140,31655 13106,31689 13178,31689 "
         id="polygon14418" /><polygon
         class="fil1"
         points="13322,31655 13284,31689 13356,31689 "
         id="polygon14420" /><polygon
         class="fil0 str4"
         points="12751,31689 12823,31689 "
         id="polygon14422" /><path
         class="fil0 str4"
         d="M12928 31689l72 0m178 0l-72 0"
         id="path14424" /><polygon
         class="fil0 str4"
         points="13284,31689 13356,31689 "
         id="polygon14426" /><polygon
         class="fil1"
         points="12751,31689 12823,31689 12823,31689 "
         id="polygon14428" /><polygon
         class="fil1"
         points="13284,31689 13356,31689 13356,31689 "
         id="polygon14430" /><path
         class="fil0 str1"
         d="M13322 31616l0 -29m0 102l0 29"
         id="path14432" /><polyline
         class="fil0 str1"
         points="13356,31689 13284,31616 13322,31616 "
         id="polyline14434" /><polyline
         class="fil0 str1"
         points="13356,31616 13284,31689 13356,31689 "
         id="polyline14436" /><path
         class="fil0 str1"
         d="M13322 31616l34 0m-216 0l0 -29m0 102l0 29"
         id="path14438" /><polyline
         class="fil0 str1"
         points="13178,31689 13106,31616 13140,31616 "
         id="polyline14440" /><polyline
         class="fil0 str1"
         points="13178,31616 13106,31689 13178,31689 "
         id="polyline14442" /><line
         class="fil0 str1"
         x1="13140"
         y1="31616"
         x2="13178"
         y2="31616"
         id="line14444" /><polyline
         class="fil0 str1"
         points="12962,31587 12784,31587 12784,31616 "
         id="polyline14446" /><line
         class="fil0 str1"
         x1="12784"
         y1="31689"
         x2="12784"
         y2="31718"
         id="line14448" /><polyline
         class="fil0 str1"
         points="12751,31689 12823,31616 12784,31616 "
         id="polyline14450" /><polyline
         class="fil0 str1"
         points="12751,31616 12823,31689 12751,31689 "
         id="polyline14452" /><path
         class="fil0 str1"
         d="M12784 31616l-33 0m211 0l0 -29m0 102l0 29"
         id="path14454" /><polyline
         class="fil0 str1"
         points="12928,31689 13000,31616 12962,31616 "
         id="polyline14456" /><polyline
         class="fil0 str1"
         points="12928,31616 13000,31689 12928,31689 "
         id="polyline14458" /><path
         class="fil0 str1"
         d="M12962 31616l-34 0m123 -126l0 30"
         id="path14460" /><polygon
         class="fil0 str1"
         points="12734,31587 13373,31587 13373,31520 12734,31520 "
         id="polygon14462" /><polyline
         class="fil0 str1"
         points="13017,31490 13089,31418 13051,31418 "
         id="polyline14464" /><polyline
         class="fil0 str1"
         points="13017,31418 13089,31490 13017,31490 "
         id="polyline14466" /><line
         class="fil0 str1"
         x1="13051"
         y1="31418"
         x2="13017"
         y2="31418"
         id="line14468" /><polygon
         class="fil6"
         points="12734,31520 13373,31520 13373,31520 "
         id="polygon14470" /><polygon
         class="fil6"
         points="12734,31520 12734,31587 13373,31587 "
         id="polygon14472" /><polygon
         class="fil6"
         points="12734,31520 13373,31520 13373,31587 "
         id="polygon14474" /><polygon
         class="fil6"
         points="12734,31587 13373,31587 13373,31587 "
         id="polygon14476" /><polygon
         class="fil0 str1"
         points="12657,31990 13449,31990 13449,31189 12657,31189 "
         id="polygon14478" /></g><metadata
       id="CorelCorpID_0Corel-Layer" /></g></svg>