<?xml version="1.0" encoding="UTF-8" standalone="no"?>
<!-- Creator: CorelDRAW X8 -->

<svg
   xmlns:dc="http://purl.org/dc/elements/1.1/"
   xmlns:cc="http://creativecommons.org/ns#"
   xmlns:rdf="http://www.w3.org/1999/02/22-rdf-syntax-ns#"
   xmlns:svg="http://www.w3.org/2000/svg"
   xmlns="http://www.w3.org/2000/svg"
   xmlns:sodipodi="http://sodipodi.sourceforge.net/DTD/sodipodi-0.dtd"
   xmlns:inkscape="http://www.inkscape.org/namespaces/inkscape"
   xml:space="preserve"
   width="254.5mm"
   height="750mm"
   version="1.1"
   style="shape-rendering:geometricPrecision; text-rendering:geometricPrecision; image-rendering:optimizeQuality; fill-rule:evenodd; clip-rule:evenodd"
   viewBox="0 0 25450 75000"
   id="svg2"
   inkscape:version="0.91 r13725"
   sodipodi:docname="028.svg"><metadata
     id="metadata51242"><rdf:RDF><cc:Work
         rdf:about=""><dc:format>image/svg+xml</dc:format><dc:type
           rdf:resource="http://purl.org/dc/dcmitype/StillImage" /><dc:title></dc:title></cc:Work></rdf:RDF></metadata><sodipodi:namedview
     pagecolor="#ffffff"
     bordercolor="#666666"
     borderopacity="1"
     objecttolerance="10"
     gridtolerance="10"
     guidetolerance="10"
     inkscape:pageopacity="0"
     inkscape:pageshadow="2"
     inkscape:window-width="843"
     inkscape:window-height="999"
     id="namedview51240"
     showgrid="false"
     inkscape:zoom="1.4208948"
     inkscape:cx="476.72103"
     inkscape:cy="1844.2809"
     inkscape:window-x="1063"
     inkscape:window-y="1"
     inkscape:window-maximized="0"
     inkscape:current-layer="svg2" /><defs
     id="defs4"><style
       type="text/css"
       id="style6"><![CDATA[
       svg {
                position: absolute;
            }
    .str16 {stroke:red;stroke-width:59.27;stroke-linecap:round;stroke-linejoin:round}
    .str17 {stroke:yellow;stroke-width:59.27;stroke-linecap:round;stroke-linejoin:round}
    .str20 {stroke:#DDA56E;stroke-width:21.17;stroke-linecap:round;stroke-linejoin:round}
    .str18 {stroke:red;stroke-width:21.17;stroke-linecap:round;stroke-linejoin:round}
    .str21 {stroke:yellow;stroke-width:21.17;stroke-linecap:round;stroke-linejoin:round}
    .str15 {stroke:black;stroke-width:8.47;stroke-linecap:round;stroke-linejoin:round}
    .str0 {stroke:black;stroke-width:29.63;stroke-linecap:round;stroke-linejoin:round}
    .str1 {stroke:black;stroke-width:16.93;stroke-linecap:round;stroke-linejoin:round}
    .str10 {stroke:gray;stroke-width:16.93;stroke-linecap:round;stroke-linejoin:round}
    .str4 {stroke:black;stroke-width:4.23;stroke-linecap:round;stroke-linejoin:round}
    .str14 {stroke:#0037DD;stroke-width:4.23;stroke-linecap:round;stroke-linejoin:round}
    .str2 {stroke:#006EDD;stroke-width:4.23;stroke-linecap:round;stroke-linejoin:round}
    .str5 {stroke:#00B85C;stroke-width:4.23;stroke-linecap:round;stroke-linejoin:round}
    .str3 {stroke:#00DD00;stroke-width:4.23;stroke-linecap:round;stroke-linejoin:round}
    .str9 {stroke:lime;stroke-width:4.23;stroke-linecap:round;stroke-linejoin:round}
    .str12 {stroke:gray;stroke-width:4.23;stroke-linecap:round;stroke-linejoin:round}
    .str13 {stroke:#989898;stroke-width:4.23;stroke-linecap:round;stroke-linejoin:round}
    .str11 {stroke:#BABABA;stroke-width:4.23;stroke-linecap:round;stroke-linejoin:round}
    .str7 {stroke:red;stroke-width:4.23;stroke-linecap:round;stroke-linejoin:round}
    .str8 {stroke:#FF7F00;stroke-width:4.23;stroke-linecap:round;stroke-linejoin:round}
    .str6 {stroke:yellow;stroke-width:4.23;stroke-linecap:round;stroke-linejoin:round}
    .str23 {stroke:#00BFFF;stroke-width:25.4;stroke-linecap:round;stroke-linejoin:round}
    .str22 {stroke:#37DD00;stroke-width:25.4;stroke-linecap:round;stroke-linejoin:round}
    .str19 {stroke:black;stroke-width:12.7;stroke-linecap:round;stroke-linejoin:round}
    .fil0 {fill:none}
    .fil1 {fill:black}
    .fil13 {fill:#0037DD}
    .fil2 {fill:#006EDD}
    .fil3 {fill:#00B85C}
    .fil4 {fill:#00DD00}
    .fil9 {fill:lime}
    .fil7 {fill:gray}
    .fil12 {fill:#989898}
    .fil11 {fill:#B85C00}
    .fil10 {fill:#BABABA}
    .fil14 {fill:#FCFCFC}
    .fil6 {fill:red}
    .fil8 {fill:#FF7F00}
    .fil5 {fill:yellow}
   ]]></style></defs><g
     id="Слой_x0020_1"><g
       id="g56663"><polygon
         class="fil0 str1"
         points="12657,32984 13449,32984 13449,32188 12657,32188 "
         id="polygon14480" /><polygon
         class="fil1"
         points="12907,32294 12869,32307 12912,32307 "
         id="polygon14482" /><polygon
         class="fil1"
         points="12869,32307 12844,32319 12882,32319 "
         id="polygon14484" /><polygon
         class="fil1"
         points="12869,32307 12912,32307 12882,32319 "
         id="polygon14486" /><line
         class="fil0 str4"
         x1="12831"
         y1="32324"
         x2="12869"
         y2="32324"
         id="line14488" /><polyline
         class="fil0 str4"
         points="12844,32319 12882,32319 12869,32324 "
         id="polyline14490" /><polygon
         class="fil1"
         points="12831,32324 12797,32337 12835,32337 "
         id="polygon14492" /><polygon
         class="fil1"
         points="12831,32324 12869,32324 12835,32337 "
         id="polygon14494" /><polygon
         class="fil1"
         points="12869,32324 12835,32337 12878,32337 "
         id="polygon14496" /><polygon
         class="fil1"
         points="12869,32324 12882,32324 12878,32337 "
         id="polygon14498" /><polygon
         class="fil0 str4"
         points="12797,32337 12835,32337 "
         id="polygon14500" /><polygon
         class="fil0 str4"
         points="12835,32337 12878,32337 "
         id="polygon14502" /><polygon
         class="fil1"
         points="12797,32337 12759,32349 12797,32349 "
         id="polygon14504" /><polygon
         class="fil1"
         points="12797,32337 12835,32337 12797,32349 "
         id="polygon14506" /><polygon
         class="fil1"
         points="12835,32337 12797,32349 12878,32349 "
         id="polygon14508" /><polygon
         class="fil1"
         points="12835,32337 12878,32337 12878,32349 "
         id="polygon14510" /><polyline
         class="fil0 str4"
         points="12793,32354 12759,32349 12797,32349 "
         id="polyline14512" /><path
         class="fil0 str4"
         d="M12793 32354l85 0m-81 -5l81 0"
         id="path14514" /><polygon
         class="fil1"
         points="12759,32354 12793,32354 12763,32362 "
         id="polygon14516" /><polygon
         class="fil1"
         points="12793,32354 12801,32362 12878,32362 "
         id="polygon14518" /><polygon
         class="fil1"
         points="12793,32354 12878,32354 12878,32362 "
         id="polygon14520" /><polygon
         class="fil1"
         points="12801,32362 12810,32371 12873,32371 "
         id="polygon14522" /><polygon
         class="fil1"
         points="12801,32362 12878,32362 12873,32371 "
         id="polygon14524" /><polygon
         class="fil1"
         points="12810,32371 12818,32375 12856,32375 "
         id="polygon14526" /><polygon
         class="fil1"
         points="12810,32371 12873,32371 12856,32375 "
         id="polygon14528" /><polygon
         class="fil1"
         points="12873,32371 12856,32375 12945,32375 "
         id="polygon14530" /><path
         class="fil0 str4"
         d="M12818 32379l34 0m-34 -4l38 0m-4 4l85 0m-81 -4l89 0"
         id="path14532" /><polygon
         class="fil1"
         points="12823,32379 12852,32379 12831,32387 "
         id="polygon14534" /><polygon
         class="fil1"
         points="12852,32379 12831,32387 12916,32387 "
         id="polygon14536" /><polygon
         class="fil1"
         points="12852,32379 12937,32379 12916,32387 "
         id="polygon14538" /><polygon
         class="fil1"
         points="12831,32387 12916,32387 12780,32438 "
         id="polygon14540" /><polygon
         class="fil1"
         points="12945,32375 12894,32395 12950,32395 "
         id="polygon14542" /><polygon
         class="fil1"
         points="12894,32395 12878,32400 12937,32400 "
         id="polygon14544" /><polygon
         class="fil1"
         points="12894,32395 12950,32395 12937,32400 "
         id="polygon14546" /><polygon
         class="fil1"
         points="12878,32400 12780,32438 12839,32438 "
         id="polygon14548" /><polygon
         class="fil1"
         points="12878,32400 12937,32400 12839,32438 "
         id="polygon14550" /><polygon
         class="fil1"
         points="12780,32438 12789,32451 12806,32451 "
         id="polygon14552" /><polygon
         class="fil1"
         points="12780,32438 12839,32438 12806,32451 "
         id="polygon14554" /><polygon
         class="fil1"
         points="12789,32451 12806,32451 12789,32455 "
         id="polygon14556" /><polygon
         class="fil6"
         points="13110,32371 12979,32400 13081,32400 "
         id="polygon14558" /><polygon
         class="fil6"
         points="12937,32400 12916,32409 12937,32409 "
         id="polygon14560" /><polygon
         class="fil6"
         points="12979,32400 12945,32409 13077,32409 "
         id="polygon14562" /><polygon
         class="fil6"
         points="12979,32400 13081,32400 13077,32409 "
         id="polygon14564" /><polyline
         class="fil0 str7"
         points="12912,32409 12941,32409 12916,32409 "
         id="polyline14566" /><polyline
         class="fil0 str7"
         points="12941,32409 13072,32409 12945,32409 "
         id="polyline14568" /><polygon
         class="fil6"
         points="12912,32409 12806,32451 13038,32451 "
         id="polygon14570" /><polygon
         class="fil6"
         points="12912,32409 13072,32409 13038,32451 "
         id="polygon14572" /><polyline
         class="fil0 str7"
         points="13034,32455 12806,32451 13038,32451 "
         id="polyline14574" /><polygon
         class="fil6"
         points="12806,32455 12818,32480 12967,32480 "
         id="polygon14576" /><polygon
         class="fil6"
         points="12806,32455 13034,32455 12967,32480 "
         id="polygon14578" /><polygon
         class="fil6"
         points="12818,32480 12818,32488 12967,32488 "
         id="polygon14580" /><polygon
         class="fil6"
         points="12818,32480 12967,32480 12967,32488 "
         id="polygon14582" /><polygon
         class="fil6"
         points="12818,32488 12827,32506 12967,32506 "
         id="polygon14584" /><polygon
         class="fil6"
         points="12818,32488 12967,32488 12967,32506 "
         id="polygon14586" /><polygon
         class="fil6"
         points="12827,32506 12827,32527 12967,32527 "
         id="polygon14588" /><polygon
         class="fil6"
         points="12827,32506 12967,32506 12967,32527 "
         id="polygon14590" /><polygon
         class="fil6"
         points="12827,32527 12827,32548 12967,32548 "
         id="polygon14592" /><polygon
         class="fil6"
         points="12827,32527 12967,32527 12967,32548 "
         id="polygon14594" /><polyline
         class="fil0 str7"
         points="12827,32552 12967,32552 12827,32548 "
         id="polyline14596" /><polygon
         class="fil6"
         points="12827,32552 12814,32557 12975,32557 "
         id="polygon14598" /><polygon
         class="fil6"
         points="12827,32552 12967,32552 12975,32557 "
         id="polygon14600" /><polygon
         class="fil0 str7"
         points="12814,32557 12975,32557 "
         id="polygon14602" /><polygon
         class="fil6"
         points="12814,32557 12810,32566 12983,32566 "
         id="polygon14604" /><polygon
         class="fil6"
         points="12814,32557 12975,32557 12983,32566 "
         id="polygon14606" /><polygon
         class="fil0 str7"
         points="12810,32566 12983,32566 "
         id="polygon14608" /><polygon
         class="fil6"
         points="12810,32566 12814,32578 12975,32578 "
         id="polygon14610" /><polygon
         class="fil6"
         points="12810,32566 12983,32566 12975,32578 "
         id="polygon14612" /><polygon
         class="fil0 str7"
         points="12814,32578 12975,32578 "
         id="polygon14614" /><polygon
         class="fil6"
         points="12814,32578 12827,32582 12967,32582 "
         id="polygon14616" /><polygon
         class="fil6"
         points="12814,32578 12975,32578 12967,32582 "
         id="polygon14618" /><polygon
         class="fil6"
         points="12827,32582 12966,32582 12966,32582 "
         id="polygon14620" /><polygon
         class="fil6"
         points="13022,32392 12979,32400 13026,32400 "
         id="polygon14622" /><line
         class="fil0 str7"
         x1="12933"
         y1="32400"
         x2="12937"
         y2="32400"
         id="line14624" /><polyline
         class="fil0 str7"
         points="12975,32400 13026,32400 12979,32400 "
         id="polyline14626" /><polygon
         class="fil6"
         points="12933,32400 12916,32409 12937,32409 "
         id="polygon14628" /><line
         class="fil0 str7"
         x1="12937"
         y1="32400"
         x2="12937"
         y2="32409"
         id="line14630" /><polygon
         class="fil6"
         points="12975,32400 12945,32409 12975,32409 "
         id="polygon14632" /><polygon
         class="fil6"
         points="12975,32400 12975,32409 13026,32409 "
         id="polygon14634" /><polygon
         class="fil6"
         points="12975,32400 13026,32400 13026,32409 "
         id="polygon14636" /><polyline
         class="fil0 str7"
         points="12912,32409 12941,32409 12916,32409 "
         id="polyline14638" /><polyline
         class="fil0 str7"
         points="12941,32409 12975,32409 12945,32409 "
         id="polyline14640" /><polygon
         class="fil0 str7"
         points="12975,32409 13026,32409 "
         id="polygon14642" /><polygon
         class="fil6"
         points="12912,32409 12890,32417 12975,32417 "
         id="polygon14644" /><polygon
         class="fil6"
         points="12912,32409 12975,32409 12975,32417 "
         id="polygon14646" /><polygon
         class="fil6"
         points="12975,32409 12975,32417 13026,32417 "
         id="polygon14648" /><polygon
         class="fil6"
         points="12975,32409 13026,32409 13026,32417 "
         id="polygon14650" /><polygon
         class="fil6"
         points="12890,32417 12806,32451 12839,32451 "
         id="polygon14652" /><polygon
         class="fil6"
         points="12890,32417 12839,32451 12937,32451 "
         id="polygon14654" /><polygon
         class="fil6"
         points="12890,32417 12937,32451 12975,32451 "
         id="polygon14656" /><polygon
         class="fil6"
         points="12890,32417 12975,32417 12975,32451 "
         id="polygon14658" /><polygon
         class="fil6"
         points="12975,32417 12975,32451 13034,32451 "
         id="polygon14660" /><polygon
         class="fil6"
         points="12975,32417 13026,32417 13034,32451 "
         id="polygon14662" /><polyline
         class="fil0 str7"
         points="12835,32455 12806,32451 12839,32451 12945,32455 "
         id="polyline14664" /><polyline
         class="fil0 str7"
         points="12839,32451 12941,32451 12975,32455 "
         id="polyline14666" /><polyline
         class="fil0 str7"
         points="12937,32451 12975,32451 13034,32455 "
         id="polyline14668" /><line
         class="fil0 str7"
         x1="12975"
         y1="32451"
         x2="13034"
         y2="32451"
         id="line14670" /><polygon
         class="fil6"
         points="12806,32455 12835,32455 12814,32468 "
         id="polygon14672" /><polygon
         class="fil6"
         points="12835,32455 12814,32468 12967,32468 "
         id="polygon14674" /><polygon
         class="fil6"
         points="12835,32455 12945,32455 12967,32468 "
         id="polygon14676" /><polygon
         class="fil6"
         points="12945,32455 12967,32468 12975,32468 "
         id="polygon14678" /><polygon
         class="fil6"
         points="12945,32455 12975,32455 12975,32468 "
         id="polygon14680" /><polygon
         class="fil6"
         points="12975,32455 12975,32468 12996,32468 "
         id="polygon14682" /><polygon
         class="fil6"
         points="12975,32455 13034,32455 12996,32468 "
         id="polygon14684" /><polygon
         class="fil6"
         points="12814,32468 12814,32476 12835,32476 "
         id="polygon14686" /><polygon
         class="fil6"
         points="12814,32468 12835,32476 12975,32476 "
         id="polygon14688" /><polygon
         class="fil6"
         points="12814,32468 12967,32468 12975,32476 "
         id="polygon14690" /><polygon
         class="fil6"
         points="12967,32468 12975,32468 12975,32476 "
         id="polygon14692" /><polygon
         class="fil6"
         points="12975,32468 12996,32468 12975,32476 "
         id="polygon14694" /><polygon
         class="fil0 str7"
         points="12814,32476 12848,32480 "
         id="polygon14696" /><polyline
         class="fil0 str7"
         points="12967,32480 12835,32476 12975,32476 "
         id="polyline14698" /><polygon
         class="fil6"
         points="12818,32480 12818,32488 12873,32488 "
         id="polygon14700" /><polygon
         class="fil6"
         points="12818,32480 12848,32480 12873,32488 "
         id="polygon14702" /><polygon
         class="fil6"
         points="12848,32480 12873,32488 12967,32488 "
         id="polygon14704" /><polygon
         class="fil6"
         points="12848,32480 12967,32480 12967,32488 "
         id="polygon14706" /><polygon
         class="fil6"
         points="12818,32488 12827,32506 12941,32506 "
         id="polygon14708" /><polygon
         class="fil6"
         points="12818,32488 12873,32488 12941,32506 "
         id="polygon14710" /><polygon
         class="fil6"
         points="12873,32488 12941,32506 12967,32506 "
         id="polygon14712" /><polygon
         class="fil6"
         points="12873,32488 12967,32488 12967,32506 "
         id="polygon14714" /><polygon
         class="fil6"
         points="12827,32506 12827,32514 12967,32514 "
         id="polygon14716" /><polygon
         class="fil6"
         points="12827,32506 12941,32506 12967,32514 "
         id="polygon14718" /><polygon
         class="fil6"
         points="12941,32506 12967,32506 12967,32514 "
         id="polygon14720" /><polygon
         class="fil6"
         points="12827,32514 12967,32514 12827,32527 "
         id="polygon14722" /><polygon
         class="fil6"
         points="12967,32514 12827,32527 12967,32527 "
         id="polygon14724" /><polygon
         class="fil6"
         points="12827,32527 12933,32552 12967,32552 "
         id="polygon14726" /><polygon
         class="fil6"
         points="12827,32527 12967,32527 12967,32552 "
         id="polygon14728" /><polygon
         class="fil6"
         points="12933,32552 12967,32552 12967,32552 "
         id="polygon14730" /><line
         class="fil0 str7"
         x1="13335"
         y1="32290"
         x2="13339"
         y2="32290"
         id="line14732" /><polygon
         class="fil6"
         points="13335,32290 13267,32316 13314,32316 "
         id="polygon14734" /><line
         class="fil0 str7"
         x1="13335"
         y1="32290"
         x2="13314"
         y2="32316"
         id="line14736" /><polygon
         class="fil6"
         points="13335,32290 13314,32316 13343,32316 "
         id="polygon14738" /><polygon
         class="fil6"
         points="13267,32316 13271,32328 13297,32328 "
         id="polygon14740" /><polygon
         class="fil6"
         points="13267,32316 13314,32316 13297,32328 "
         id="polygon14742" /><polygon
         class="fil6"
         points="13314,32316 13297,32328 13347,32328 "
         id="polygon14744" /><polygon
         class="fil6"
         points="13314,32316 13343,32316 13347,32328 "
         id="polygon14746" /><polygon
         class="fil6"
         points="13271,32328 13225,32340 13288,32340 "
         id="polygon14748" /><polygon
         class="fil6"
         points="13271,32328 13297,32328 13288,32340 "
         id="polygon14750" /><polygon
         class="fil6"
         points="13297,32328 13288,32340 13352,32340 "
         id="polygon14752" /><polygon
         class="fil6"
         points="13297,32328 13347,32328 13352,32340 "
         id="polygon14754" /><polygon
         class="fil0 str7"
         points="13225,32340 13288,32340 "
         id="polygon14756" /><polygon
         class="fil0 str7"
         points="13288,32340 13352,32340 "
         id="polygon14758" /><polygon
         class="fil6"
         points="13225,32340 13182,32349 13221,32349 "
         id="polygon14760" /><line
         class="fil0 str7"
         x1="13225"
         y1="32340"
         x2="13221"
         y2="32349"
         id="line14762" /><polygon
         class="fil6"
         points="13225,32340 13221,32349 13242,32349 "
         id="polygon14764" /><line
         class="fil0 str7"
         x1="13225"
         y1="32340"
         x2="13242"
         y2="32349"
         id="line14766" /><polygon
         class="fil6"
         points="13225,32340 13242,32349 13280,32349 "
         id="polygon14768" /><polygon
         class="fil6"
         points="13225,32340 13288,32340 13280,32349 "
         id="polygon14770" /><polygon
         class="fil6"
         points="13288,32340 13280,32349 13356,32349 "
         id="polygon14772" /><polygon
         class="fil6"
         points="13288,32340 13352,32340 13356,32349 "
         id="polygon14774" /><polygon
         class="fil6"
         points="13182,32349 13144,32362 13212,32362 "
         id="polygon14776" /><polygon
         class="fil6"
         points="13182,32349 13221,32349 13212,32362 "
         id="polygon14778" /><polygon
         class="fil6"
         points="13221,32349 13212,32362 13259,32362 "
         id="polygon14780" /><polygon
         class="fil6"
         points="13221,32349 13242,32349 13259,32362 "
         id="polygon14782" /><polygon
         class="fil6"
         points="13242,32349 13259,32362 13271,32362 "
         id="polygon14784" /><polygon
         class="fil6"
         points="13242,32349 13280,32349 13271,32362 "
         id="polygon14786" /><polygon
         class="fil6"
         points="13280,32349 13271,32362 13331,32362 "
         id="polygon14788" /><polygon
         class="fil6"
         points="13280,32349 13356,32349 13331,32362 "
         id="polygon14790" /><polygon
         class="fil6"
         points="13144,32362 13119,32366 13208,32366 "
         id="polygon14792" /><polygon
         class="fil6"
         points="13144,32362 13212,32362 13208,32366 "
         id="polygon14794" /><polygon
         class="fil6"
         points="13212,32362 13208,32366 13267,32366 "
         id="polygon14796" /><polygon
         class="fil6"
         points="13212,32362 13259,32362 13267,32366 "
         id="polygon14798" /><line
         class="fil0 str7"
         x1="13259"
         y1="32362"
         x2="13267"
         y2="32366"
         id="line14800" /><polygon
         class="fil6"
         points="13259,32362 13271,32362 13267,32366 "
         id="polygon14802" /><polyline
         class="fil0 str7"
         points="13267,32366 13271,32362 13284,32362 "
         id="polyline14804" /><polygon
         class="fil6"
         points="13284,32362 13284,32366 13314,32366 "
         id="polygon14806" /><polygon
         class="fil6"
         points="13284,32362 13331,32362 13314,32366 "
         id="polygon14808" /><polygon
         class="fil0 str7"
         points="13119,32366 13208,32366 "
         id="polygon14810" /><polygon
         class="fil0 str7"
         points="13208,32366 13267,32366 "
         id="polygon14812" /><line
         class="fil0 str7"
         x1="13267"
         y1="32366"
         x2="13271"
         y2="32366"
         id="line14814" /><polygon
         class="fil0 str7"
         points="13284,32366 13314,32366 "
         id="polygon14816" /><line
         class="fil0 str7"
         x1="13110"
         y1="32371"
         x2="13208"
         y2="32371"
         id="line14818" /><polyline
         class="fil0 str7"
         points="13119,32366 13208,32366 13263,32371 "
         id="polyline14820" /><line
         class="fil0 str7"
         x1="13208"
         y1="32366"
         x2="13267"
         y2="32366"
         id="line14822" /><polyline
         class="fil0 str7"
         points="13309,32371 13284,32366 13314,32366 "
         id="polyline14824" /><polygon
         class="fil0 str7"
         points="13110,32371 13208,32371 "
         id="polygon14826" /><polygon
         class="fil0 str7"
         points="13208,32371 13263,32371 "
         id="polygon14828" /><polygon
         class="fil0 str7"
         points="13288,32371 13309,32371 "
         id="polygon14830" /><polygon
         class="fil6"
         points="13110,32371 13081,32375 13102,32375 "
         id="polygon14832" /><line
         class="fil0 str7"
         x1="13110"
         y1="32371"
         x2="13102"
         y2="32375"
         id="line14834" /><polygon
         class="fil6"
         points="13110,32371 13102,32375 13132,32375 "
         id="polygon14836" /><polygon
         class="fil6"
         points="13110,32371 13132,32375 13204,32375 "
         id="polygon14838" /><polygon
         class="fil6"
         points="13110,32371 13208,32371 13204,32375 "
         id="polygon14840" /><polygon
         class="fil6"
         points="13208,32371 13204,32375 13242,32375 "
         id="polygon14842" /><polygon
         class="fil6"
         points="13208,32371 13263,32371 13242,32375 "
         id="polygon14844" /><polygon
         class="fil6"
         points="13288,32371 13309,32371 13288,32375 "
         id="polygon14846" /><polygon
         class="fil6"
         points="13081,32375 13022,32392 13089,32392 "
         id="polygon14848" /><polygon
         class="fil6"
         points="13081,32375 13102,32375 13089,32392 "
         id="polygon14850" /><polygon
         class="fil6"
         points="13102,32375 13089,32392 13174,32392 "
         id="polygon14852" /><polygon
         class="fil6"
         points="13102,32375 13132,32375 13174,32392 "
         id="polygon14854" /><polygon
         class="fil6"
         points="13132,32375 13174,32392 13195,32392 "
         id="polygon14856" /><polygon
         class="fil6"
         points="13132,32375 13204,32375 13195,32392 "
         id="polygon14858" /><polygon
         class="fil6"
         points="13204,32375 13195,32392 13204,32392 "
         id="polygon14860" /><polygon
         class="fil6"
         points="13204,32375 13242,32375 13204,32392 "
         id="polygon14862" /><polygon
         class="fil0 str7"
         points="13022,32392 13089,32392 "
         id="polygon14864" /><polygon
         class="fil0 str7"
         points="13089,32392 13178,32392 "
         id="polygon14866" /><polygon
         class="fil0 str7"
         points="13174,32392 13191,32392 "
         id="polygon14868" /><path
         class="fil0 str7"
         d="M13191 32392l8 0m-4 0l9 0m-182 3l63 0"
         id="path14870" /><polyline
         class="fil0 str7"
         points="13022,32392 13089,32395 13191,32395 13089,32392 "
         id="polyline14872" /><polygon
         class="fil0 str7"
         points="13178,32392 13191,32395 "
         id="polygon14874" /><polyline
         class="fil0 str7"
         points="13191,32392 13191,32395 13199,32392 "
         id="polyline14876" /><polygon
         class="fil0 str7"
         points="13022,32395 13085,32395 "
         id="polygon14878" /><polygon
         class="fil0 str7"
         points="13085,32395 13191,32395 "
         id="polygon14880" /><line
         class="fil0 str7"
         x1="13191"
         y1="32395"
         x2="13195"
         y2="32395"
         id="line14882" /><polygon
         class="fil6"
         points="13022,32395 13085,32395 13034,32455 "
         id="polygon14884" /><polygon
         class="fil6"
         points="13085,32395 13191,32395 13034,32455 "
         id="polygon14886" /><polygon
         class="fil6"
         points="12789,32862 13005,32862 13005,32862 "
         id="polygon14888" /><polygon
         class="fil6"
         points="12789,32862 12789,32908 13005,32908 "
         id="polygon14890" /><polygon
         class="fil6"
         points="12789,32862 13005,32862 13005,32908 "
         id="polygon14892" /><polygon
         class="fil6"
         points="12789,32908 13005,32908 13005,32908 "
         id="polygon14894" /><path
         class="fil0 str1"
         d="M12920 32552l30 0m-81 -126l34 -13"
         id="path14896" /><polygon
         class="fil0 str1"
         points="12789,32908 13005,32908 13005,32861 12789,32861 "
         id="polygon14898" /><line
         class="fil0 str1"
         x1="12933"
         y1="32552"
         x2="12937"
         y2="32552"
         id="line14900" /><polyline
         class="fil0 str1"
         points="12831,32552 12827,32552 12827,32548 "
         id="polyline14902" /><polyline
         class="fil0 str1"
         points="12831,32552 12827,32552 12827,32548 "
         id="polyline14904" /><line
         class="fil0 str1"
         x1="12894"
         y1="32552"
         x2="12827"
         y2="32552"
         id="line14906" /><polyline
         class="fil0 str1"
         points="12950,32395 12937,32400 12806,32451 12789,32455 "
         id="polyline14908" /><line
         class="fil0 str1"
         x1="12967"
         y1="32582"
         x2="12827"
         y2="32582"
         id="line14910" /><polyline
         class="fil0 str1"
         points="12827,32552 12814,32557 12810,32566 12814,32578 12827,32582 12967,32582 "
         id="polyline14912" /><path
         class="fil0 str1"
         d="M12827 32527l-9 -39m64 -169l-9 52"
         id="path14914" /><polyline
         class="fil0 str1"
         points="12835,32337 12912,32307 12907,32294 12831,32324 "
         id="polyline14916" /><polyline
         class="fil0 str1"
         points="12945,32375 12873,32371 12852,32379 "
         id="polyline14918" /><line
         class="fil0 str1"
         x1="12793"
         y1="32354"
         x2="12831"
         y2="32387"
         id="line14920" /><polyline
         class="fil0 str1"
         points="12835,32337 12763,32362 12759,32349 12831,32324 "
         id="polyline14922" /><polyline
         class="fil0 str1"
         points="12780,32438 12831,32387 12852,32379 "
         id="polyline14924" /><line
         class="fil0 str1"
         x1="12789"
         y1="32455"
         x2="12780"
         y2="32438"
         id="line14926" /><polyline
         class="fil0 str1"
         points="12950,32395 12945,32375 12780,32438 "
         id="polyline14928" /><path
         class="fil0 str1"
         d="M12818 32488l-12 -37m21 101l0 -25m444 -199l-4 -12m21 59l-4 -13m-17 -46l68 -26m-47 85l68 -26m-411 60l-4 0m415 -60l-21 -59m-368 190l317 -118m-339 47l326 -81m-330 81l-4 -9m30 152l0 -72"
         id="path14930" /><polyline
         class="fil0 str1"
         points="12967,32582 12975,32578 12983,32566 12975,32557 12967,32552 12894,32552 "
         id="polyline14932" /><line
         class="fil0 str1"
         x1="12967"
         y1="32582"
         x2="12827"
         y2="32582"
         id="line14934" /><polyline
         class="fil0 str1"
         points="13005,32908 12789,32908 12789,32862 "
         id="polyline14936" /><polyline
         class="fil0 str1"
         points="13005,32908 13005,32862 12789,32862 "
         id="polyline14938" /><polygon
         class="fil0 str1"
         points="12967,32552 12827,32552 "
         id="polygon14940" /><line
         class="fil0 str1"
         x1="12894"
         y1="32552"
         x2="12827"
         y2="32552"
         id="line14942" /><polygon
         class="fil1"
         points="12962,32862 12971,32862 12962,32582 "
         id="polygon14944" /><polygon
         class="fil1"
         points="12971,32862 12962,32582 12971,32582 "
         id="polygon14946" /><polygon
         class="fil1"
         points="12823,32862 12831,32862 12823,32582 "
         id="polygon14948" /><polygon
         class="fil1"
         points="12831,32862 12823,32582 12831,32582 "
         id="polygon14950" /><polygon
         class="fil1"
         points="12823,32857 12831,32862 12962,32582 "
         id="polygon14952" /><polygon
         class="fil1"
         points="12831,32862 12962,32582 12971,32586 "
         id="polygon14954" /><polygon
         class="fil5"
         points="12827,32582 12895,32582 12895,32582 "
         id="polygon14956" /><polygon
         class="fil5"
         points="12894,32582 12966,32582 12966,32582 "
         id="polygon14958" /><polygon
         class="fil5"
         points="12827,32582 12967,32582 12827,32862 "
         id="polygon14960" /><polygon
         class="fil9"
         points="12967,32582 12827,32862 12967,32862 "
         id="polygon14962" /><polygon
         class="fil9"
         points="12827,32862 12966,32862 12966,32862 "
         id="polygon14964" /><polygon
         class="fil1"
         points="13119,32603 13102,32603 13106,32752 13119,32730 13119,32700 "
         id="polygon14966" /><polygon
         class="fil1"
         points="13187,32603 13170,32603 13127,32705 13127,32709 13123,32714 13123,32717 13119,32726 13119,32730 13106,32752 13123,32752 13170,32637 13170,32633 13174,32628 13174,32620 "
         id="polygon14968" /><polygon
         class="fil1"
         points="13187,32603 13174,32620 13174,32637 13182,32752 13191,32730 13191,32717 13195,32714 13195,32697 13191,32692 13191,32679 "
         id="polygon14970" /><polygon
         class="fil1"
         points="13254,32603 13242,32603 13204,32700 13204,32705 13199,32709 13199,32717 13195,32722 13195,32730 13191,32730 13182,32752 13195,32752 "
         id="polygon14972" /><polygon
         class="fil1"
         points="13352,32603 13271,32603 13246,32752 13263,32752 13271,32683 13331,32683 13335,32667 13276,32667 13284,32620 13352,32620 "
         id="polygon14974" /></g><metadata
       id="CorelCorpID_0Corel-Layer" /></g></svg>