<?xml version="1.0" encoding="UTF-8" standalone="no"?>
<!-- Creator: CorelDRAW X8 -->

<svg
   xmlns:dc="http://purl.org/dc/elements/1.1/"
   xmlns:cc="http://creativecommons.org/ns#"
   xmlns:rdf="http://www.w3.org/1999/02/22-rdf-syntax-ns#"
   xmlns:svg="http://www.w3.org/2000/svg"
   xmlns="http://www.w3.org/2000/svg"
   xmlns:sodipodi="http://sodipodi.sourceforge.net/DTD/sodipodi-0.dtd"
   xmlns:inkscape="http://www.inkscape.org/namespaces/inkscape"
   xml:space="preserve"
   width="254.5mm"
   height="750mm"
   version="1.1"
   style="shape-rendering:geometricPrecision; text-rendering:geometricPrecision; image-rendering:optimizeQuality; fill-rule:evenodd; clip-rule:evenodd"
   viewBox="0 0 25450 75000"
   id="svg2"
   inkscape:version="0.91 r13725"
   sodipodi:docname="031.svg"><metadata
     id="metadata51242"><rdf:RDF><cc:Work
         rdf:about=""><dc:format>image/svg+xml</dc:format><dc:type
           rdf:resource="http://purl.org/dc/dcmitype/StillImage" /><dc:title></dc:title></cc:Work></rdf:RDF></metadata><sodipodi:namedview
     pagecolor="#ffffff"
     bordercolor="#666666"
     borderopacity="1"
     objecttolerance="10"
     gridtolerance="10"
     guidetolerance="10"
     inkscape:pageopacity="0"
     inkscape:pageshadow="2"
     inkscape:window-width="843"
     inkscape:window-height="999"
     id="namedview51240"
     showgrid="false"
     inkscape:zoom="1.4208948"
     inkscape:cx="441.18004"
     inkscape:cy="1402.4843"
     inkscape:window-x="1063"
     inkscape:window-y="1"
     inkscape:window-maximized="0"
     inkscape:current-layer="svg2" /><defs
     id="defs4"><style
       type="text/css"
       id="style6"><![CDATA[
       svg {
                position: absolute;
            }
    .str16 {stroke:red;stroke-width:59.27;stroke-linecap:round;stroke-linejoin:round}
    .str17 {stroke:yellow;stroke-width:59.27;stroke-linecap:round;stroke-linejoin:round}
    .str20 {stroke:#DDA56E;stroke-width:21.17;stroke-linecap:round;stroke-linejoin:round}
    .str18 {stroke:red;stroke-width:21.17;stroke-linecap:round;stroke-linejoin:round}
    .str21 {stroke:yellow;stroke-width:21.17;stroke-linecap:round;stroke-linejoin:round}
    .str15 {stroke:black;stroke-width:8.47;stroke-linecap:round;stroke-linejoin:round}
    .str0 {stroke:black;stroke-width:29.63;stroke-linecap:round;stroke-linejoin:round}
    .str1 {stroke:black;stroke-width:16.93;stroke-linecap:round;stroke-linejoin:round}
    .str10 {stroke:gray;stroke-width:16.93;stroke-linecap:round;stroke-linejoin:round}
    .str4 {stroke:black;stroke-width:4.23;stroke-linecap:round;stroke-linejoin:round}
    .str14 {stroke:#0037DD;stroke-width:4.23;stroke-linecap:round;stroke-linejoin:round}
    .str2 {stroke:#006EDD;stroke-width:4.23;stroke-linecap:round;stroke-linejoin:round}
    .str5 {stroke:#00B85C;stroke-width:4.23;stroke-linecap:round;stroke-linejoin:round}
    .str3 {stroke:#00DD00;stroke-width:4.23;stroke-linecap:round;stroke-linejoin:round}
    .str9 {stroke:lime;stroke-width:4.23;stroke-linecap:round;stroke-linejoin:round}
    .str12 {stroke:gray;stroke-width:4.23;stroke-linecap:round;stroke-linejoin:round}
    .str13 {stroke:#989898;stroke-width:4.23;stroke-linecap:round;stroke-linejoin:round}
    .str11 {stroke:#BABABA;stroke-width:4.23;stroke-linecap:round;stroke-linejoin:round}
    .str7 {stroke:red;stroke-width:4.23;stroke-linecap:round;stroke-linejoin:round}
    .str8 {stroke:#FF7F00;stroke-width:4.23;stroke-linecap:round;stroke-linejoin:round}
    .str6 {stroke:yellow;stroke-width:4.23;stroke-linecap:round;stroke-linejoin:round}
    .str23 {stroke:#00BFFF;stroke-width:25.4;stroke-linecap:round;stroke-linejoin:round}
    .str22 {stroke:#37DD00;stroke-width:25.4;stroke-linecap:round;stroke-linejoin:round}
    .str19 {stroke:black;stroke-width:12.7;stroke-linecap:round;stroke-linejoin:round}
    .fil0 {fill:none}
    .fil1 {fill:black}
    .fil13 {fill:#0037DD}
    .fil2 {fill:#006EDD}
    .fil3 {fill:#00B85C}
    .fil4 {fill:#00DD00}
    .fil9 {fill:lime}
    .fil7 {fill:gray}
    .fil12 {fill:#989898}
    .fil11 {fill:#B85C00}
    .fil10 {fill:#BABABA}
    .fil14 {fill:#FCFCFC}
    .fil6 {fill:red}
    .fil8 {fill:#FF7F00}
    .fil5 {fill:yellow}
   ]]></style></defs><g
     id="Слой_x0020_1"><g
       id="g58209"><line
         class="fil0 str1"
         x1="12835"
         y1="35715"
         x2="13038"
         y2="35715"
         id="line17560" /><polygon
         class="fil6"
         points="12916,35639 12958,35639 12958,35639 "
         id="polygon17562" /><polygon
         class="fil6"
         points="12916,35639 12882,35656 12992,35656 "
         id="polygon17564" /><polygon
         class="fil6"
         points="12916,35639 12958,35639 12992,35656 "
         id="polygon17566" /><polygon
         class="fil6"
         points="12882,35656 12852,35681 13022,35681 "
         id="polygon17568" /><polygon
         class="fil6"
         points="12882,35656 12992,35656 13022,35681 "
         id="polygon17570" /><polygon
         class="fil6"
         points="12852,35681 12835,35715 13038,35715 "
         id="polygon17572" /><polygon
         class="fil6"
         points="12852,35681 13022,35681 13038,35715 "
         id="polygon17574" /><polygon
         class="fil6"
         points="12835,35715 13038,35715 13038,35715 "
         id="polygon17576" /><polygon
         class="fil6"
         points="12835,35715 13038,35715 13038,35715 "
         id="polygon17578" /><polyline
         class="fil0 str7"
         points="13038,35719 12835,35715 13038,35715 "
         id="polyline17580" /><polygon
         class="fil0 str7"
         points="12835,35719 13038,35719 "
         id="polygon17582" /><polygon
         class="fil6"
         points="12835,35719 12835,35948 13038,35948 "
         id="polygon17584" /><polygon
         class="fil6"
         points="12835,35719 13038,35719 13038,35948 "
         id="polygon17586" /><polygon
         class="fil6"
         points="12835,35948 13038,35948 13038,35948 "
         id="polygon17588" /><path
         class="fil0 str1"
         d="M13038 36049l0 -330m-203 330l0 -334m-21 334l0 -220"
         id="path17590" /><line
         class="fil0 str4"
         x1="12907"
         y1="35575"
         x2="12912"
         y2="35575"
         id="line17592" /><polyline
         class="fil0 str4"
         points="12869,35579 12907,35579 12907,35575 "
         id="polyline17594" /><polygon
         class="fil1"
         points="12869,35579 12827,35592 12907,35592 "
         id="polygon17596" /><polygon
         class="fil1"
         points="12869,35579 12907,35579 12907,35592 "
         id="polygon17598" /><polyline
         class="fil0 str4"
         points="12827,35592 12907,35592 12827,35592 12869,35592 "
         id="polyline17600" /><line
         class="fil0 str4"
         x1="12827"
         y1="35592"
         x2="12907"
         y2="35592"
         id="line17602" /><polygon
         class="fil1"
         points="12823,35592 12801,35605 12831,35605 "
         id="polygon17604" /><polygon
         class="fil1"
         points="12823,35592 12869,35592 12831,35605 "
         id="polygon17606" /><polygon
         class="fil1"
         points="12801,35605 12793,35613 12823,35613 "
         id="polygon17608" /><polygon
         class="fil1"
         points="12801,35605 12831,35605 12823,35613 "
         id="polygon17610" /><polygon
         class="fil1"
         points="12793,35613 12780,35630 12801,35630 "
         id="polygon17612" /><polygon
         class="fil1"
         points="12793,35613 12823,35613 12801,35630 "
         id="polygon17614" /><polygon
         class="fil1"
         points="12780,35630 12772,35643 12797,35643 "
         id="polygon17616" /><polygon
         class="fil1"
         points="12780,35630 12801,35630 12797,35643 "
         id="polygon17618" /><polygon
         class="fil1"
         points="12772,35643 12768,35664 12789,35664 "
         id="polygon17620" /><polygon
         class="fil1"
         points="12772,35643 12797,35643 12789,35664 "
         id="polygon17622" /><polygon
         class="fil1"
         points="12768,35664 12768,35685 12789,35685 "
         id="polygon17624" /><polygon
         class="fil1"
         points="12768,35664 12789,35664 12789,35685 "
         id="polygon17626" /><polygon
         class="fil1"
         points="12768,35685 12772,35706 12793,35706 "
         id="polygon17628" /><polygon
         class="fil1"
         points="12768,35685 12789,35685 12793,35706 "
         id="polygon17630" /><polygon
         class="fil1"
         points="12772,35706 12772,35727 12797,35727 "
         id="polygon17632" /><polygon
         class="fil1"
         points="12772,35706 12793,35706 12797,35727 "
         id="polygon17634" /><polygon
         class="fil1"
         points="12772,35727 12784,35744 12801,35744 "
         id="polygon17636" /><polygon
         class="fil1"
         points="12772,35727 12797,35727 12801,35744 "
         id="polygon17638" /><polygon
         class="fil1"
         points="12784,35744 12806,35799 12831,35799 "
         id="polygon17640" /><polygon
         class="fil1"
         points="12784,35744 12801,35744 12831,35799 "
         id="polygon17642" /><polygon
         class="fil1"
         points="12806,35799 12814,35812 12835,35812 "
         id="polygon17644" /><polygon
         class="fil1"
         points="12806,35799 12831,35799 12835,35812 "
         id="polygon17646" /><polygon
         class="fil0 str4"
         points="12814,35812 12835,35812 "
         id="polygon17648" /><polygon
         class="fil1"
         points="12814,35812 12814,35829 12835,35829 "
         id="polygon17650" /><polygon
         class="fil1"
         points="12814,35812 12835,35812 12835,35829 "
         id="polygon17652" /><polygon
         class="fil1"
         points="12814,35829 12814,36049 12835,36049 "
         id="polygon17654" /><polygon
         class="fil1"
         points="12814,35829 12835,35829 12835,36049 "
         id="polygon17656" /><line
         class="fil0 str4"
         x1="12814"
         y1="36049"
         x2="12835"
         y2="36049"
         id="line17658" /><line
         class="fil0 str1"
         x1="12835"
         y1="36049"
         x2="12814"
         y2="36049"
         id="line17660" /><polygon
         class="fil0 str1"
         points="12835,36146 13038,36146 13038,36049 12835,36049 "
         id="polygon17662" /><polyline
         class="fil0 str1"
         points="13038,35719 13022,35685 12996,35656 12958,35639 12920,35639 12882,35651 12852,35681 12835,35715 "
         id="polyline17664" /><polyline
         class="fil0 str1"
         points="12907,35643 12907,35549 13060,35524 13060,35541 "
         id="polyline17666" /><polyline
         class="fil0 str1"
         points="12967,35643 12967,35562 13060,35541 "
         id="polyline17668" /><line
         class="fil0 str1"
         x1="12835"
         y1="35715"
         x2="13038"
         y2="35715"
         id="line17670" /><polyline
         class="fil0 str1"
         points="12835,35812 12801,35744 12793,35706 12789,35664 12801,35630 12831,35605 12869,35592 12907,35592 "
         id="polyline17672" /><polyline
         class="fil0 str1"
         points="12806,35799 12772,35727 12768,35685 12772,35643 12793,35613 12827,35592 12869,35579 12907,35575 "
         id="polyline17674" /><line
         class="fil0 str1"
         x1="12967"
         y1="35579"
         x2="13072"
         y2="35587"
         id="line17676" /><polyline
         class="fil0 str1"
         points="12967,35592 13077,35596 13072,35587 "
         id="polyline17678" /><line
         class="fil0 str1"
         x1="12814"
         y1="35829"
         x2="12806"
         y2="35799"
         id="line17680" /><polygon
         class="fil1"
         points="13060,35524 12958,35541 13060,35541 "
         id="polygon17682" /><polygon
         class="fil1"
         points="12958,35541 12907,35549 13026,35549 "
         id="polygon17684" /><polygon
         class="fil1"
         points="12958,35541 13060,35541 13026,35549 "
         id="polygon17686" /><polygon
         class="fil1"
         points="12907,35549 12907,35562 12967,35562 "
         id="polygon17688" /><polygon
         class="fil1"
         points="12907,35549 13026,35549 12967,35562 "
         id="polygon17690" /><polygon
         class="fil1"
         points="12907,35562 12907,35639 12967,35639 "
         id="polygon17692" /><polygon
         class="fil1"
         points="12907,35562 12967,35562 12967,35639 "
         id="polygon17694" /><polyline
         class="fil0 str4"
         points="12907,35643 12907,35639 12967,35639 "
         id="polyline17696" /><line
         class="fil0 str4"
         x1="12907"
         y1="35643"
         x2="12912"
         y2="35643"
         id="line17698" /><polygon
         class="fil1"
         points="12967,35579 12967,35587 13072,35587 "
         id="polygon17700" /><polyline
         class="fil0 str4"
         points="12967,35592 13072,35592 12967,35587 "
         id="polyline17702" /><polygon
         class="fil1"
         points="12967,35592 13072,35592 13077,35596 "
         id="polygon17704" /><polygon
         class="fil0 str1"
         points="12657,36227 13449,36227 13449,35431 12657,35431 "
         id="polygon17706" /><polygon
         class="fil6"
         points="12835,35948 13038,35948 13038,35948 "
         id="polygon17708" /><polygon
         class="fil6"
         points="12835,35948 12835,36049 13038,36049 "
         id="polygon17710" /><polygon
         class="fil6"
         points="12835,35948 13038,35948 13038,36049 "
         id="polygon17712" /><polygon
         class="fil6"
         points="12835,36049 13038,36049 13038,36049 "
         id="polygon17714" /><polygon
         class="fil7"
         points="12835,36049 13038,36049 13038,36049 "
         id="polygon17716" /><polygon
         class="fil7"
         points="12835,36049 12835,36146 13038,36146 "
         id="polygon17718" /><polygon
         class="fil7"
         points="12835,36049 13038,36049 13038,36146 "
         id="polygon17720" /><polygon
         class="fil7"
         points="12835,36146 13038,36146 13038,36146 "
         id="polygon17722" /><polygon
         class="fil1"
         points="13225,35774 13225,35778 13221,35782 13221,35787 13216,35791 13216,35796 13212,35796 13212,35799 13208,35799 13208,35799 13204,35804 13199,35804 13195,35808 13161,35808 13161,35812 13165,35812 13165,35816 13170,35816 13170,35816 13174,35820 13178,35820 13187,35820 13191,35820 13199,35820 13199,35820 13204,35816 13208,35816 13208,35816 13212,35812 13216,35812 13216,35812 13221,35808 13221,35808 13225,35804 13225,35799 13229,35799 13229,35796 13233,35791 13233,35787 13237,35782 13237,35778 "
         id="polygon17724" /><polygon
         class="fil1"
         points="13237,35702 13208,35702 13212,35706 13221,35706 13221,35706 13225,35710 13225,35710 13229,35715 13229,35723 13233,35727 13233,35732 13246,35727 13246,35715 13242,35710 13242,35706 "
         id="polygon17726" /><polygon
         class="fil1"
         points="13212,35689 13208,35689 13199,35689 13199,35694 13191,35694 13191,35698 13182,35698 13182,35702 13178,35702 13174,35706 13174,35706 13170,35710 13170,35715 13165,35715 13165,35719 13161,35723 13161,35727 13157,35732 13157,35744 13153,35749 13153,35799 13157,35799 13157,35808 13191,35808 13182,35808 13182,35804 13178,35804 13178,35804 13174,35799 13174,35799 13170,35796 13170,35791 13165,35791 13165,35753 13170,35749 13170,35736 13174,35732 13174,35727 13178,35723 13178,35723 13182,35719 13182,35715 13187,35715 13187,35710 13191,35710 13191,35710 13195,35706 13199,35706 13208,35706 13208,35702 13237,35702 13237,35698 13233,35698 13233,35698 13229,35694 13225,35694 13225,35689 13216,35689 13216,35689 "
         id="polygon17728" /><polygon
         class="fil1"
         points="13280,35702 13280,35706 13276,35706 13276,35710 13271,35715 13271,35715 13267,35719 13267,35723 13263,35723 13263,35732 13259,35736 13259,35744 13254,35749 13254,35791 13259,35796 13259,35804 13263,35808 13263,35808 13267,35812 13267,35812 13271,35816 13276,35816 13280,35820 13284,35820 13292,35820 13297,35820 13305,35820 13305,35820 13309,35816 13314,35816 13314,35816 13318,35812 13322,35812 13322,35808 13326,35808 13292,35808 13288,35808 13284,35804 13280,35804 13280,35804 13276,35799 13276,35796 13271,35796 13271,35787 13267,35787 13267,35753 13271,35749 13271,35740 13276,35736 13276,35727 13280,35727 13280,35723 13284,35719 13284,35715 13288,35715 13288,35710 13297,35710 13297,35706 13305,35706 13309,35706 13314,35702 "
         id="polygon17730" /><polygon
         class="fil1"
         points="13314,35689 13305,35689 13305,35689 13301,35694 13297,35694 13292,35694 13288,35698 13288,35698 13284,35702 13280,35702 13314,35702 13314,35706 13322,35706 13326,35706 13326,35710 13331,35710 13331,35710 13335,35715 13335,35719 13339,35723 13339,35757 13335,35761 13335,35774 13331,35778 13331,35782 13326,35787 13326,35787 13322,35791 13322,35796 13318,35796 13318,35799 13314,35799 13309,35804 13301,35804 13301,35808 13292,35808 13326,35808 13331,35804 13331,35804 13335,35799 13335,35796 13339,35796 13339,35791 13343,35787 13343,35782 13347,35778 13347,35765 13352,35761 13352,35715 13347,35710 13347,35706 13343,35706 13343,35702 13339,35702 13339,35698 13335,35698 13335,35694 13331,35694 13331,35694 13326,35689 13322,35689 13318,35689 "
         id="polygon17732" /><polygon
         class="fil1"
         points="13381,35799 13364,35799 13369,35799 13369,35804 13373,35804 13373,35820 13369,35820 13369,35825 13364,35825 13364,35829 13360,35834 13360,35834 13356,35837 13356,35837 13352,35842 13347,35842 13347,35846 13343,35846 13343,35850 13339,35850 13339,35854 13335,35858 13335,35863 13331,35863 13331,35872 13373,35872 13373,35863 13343,35863 13343,35858 13347,35858 13347,35854 13352,35854 13352,35850 13356,35850 13356,35846 13360,35846 13360,35842 13364,35842 13364,35837 13369,35837 13369,35834 13373,35834 13373,35829 13377,35829 13377,35820 13381,35816 13381,35804 "
         id="polygon17734" /><polygon
         class="fil1"
         points="13364,35791 13360,35791 13360,35791 13356,35796 13352,35796 13352,35799 13347,35799 13347,35804 13343,35804 13343,35812 13339,35816 13347,35816 13347,35812 13352,35808 13352,35804 13356,35804 13356,35799 13360,35799 13381,35799 13377,35799 13377,35796 13373,35796 13373,35796 13369,35791 13369,35791 "
         id="polygon17736" /><polygon
         class="fil1"
         points="13288,35889 13271,35889 13229,35982 13229,35986 13225,35990 13225,35994 13221,35998 13221,36003 13212,36015 13225,36015 "
         id="polygon17738" /><polygon
         class="fil1"
         points="13208,35889 13195,35889 13212,36015 13221,36003 13221,35982 "
         id="polygon17740" /></g><metadata
       id="CorelCorpID_0Corel-Layer" /></g></svg>