<?xml version="1.0" encoding="UTF-8" standalone="no"?>
<!-- Creator: CorelDRAW X8 -->

<svg
   xmlns:dc="http://purl.org/dc/elements/1.1/"
   xmlns:cc="http://creativecommons.org/ns#"
   xmlns:rdf="http://www.w3.org/1999/02/22-rdf-syntax-ns#"
   xmlns:svg="http://www.w3.org/2000/svg"
   xmlns="http://www.w3.org/2000/svg"
   xmlns:sodipodi="http://sodipodi.sourceforge.net/DTD/sodipodi-0.dtd"
   xmlns:inkscape="http://www.inkscape.org/namespaces/inkscape"
   xml:space="preserve"
   width="254.5mm"
   height="750mm"
   version="1.1"
   style="shape-rendering:geometricPrecision; text-rendering:geometricPrecision; image-rendering:optimizeQuality; fill-rule:evenodd; clip-rule:evenodd"
   viewBox="0 0 25450 75000"
   id="svg2"
   inkscape:version="0.91 r13725"
   sodipodi:docname="032.svg"><metadata
     id="metadata51242"><rdf:RDF><cc:Work
         rdf:about=""><dc:format>image/svg+xml</dc:format><dc:type
           rdf:resource="http://purl.org/dc/dcmitype/StillImage" /><dc:title></dc:title></cc:Work></rdf:RDF></metadata><sodipodi:namedview
     pagecolor="#ffffff"
     bordercolor="#666666"
     borderopacity="1"
     objecttolerance="10"
     gridtolerance="10"
     guidetolerance="10"
     inkscape:pageopacity="0"
     inkscape:pageshadow="2"
     inkscape:window-width="843"
     inkscape:window-height="999"
     id="namedview51240"
     showgrid="false"
     inkscape:zoom="1.4208948"
     inkscape:cx="441.18004"
     inkscape:cy="1402.4843"
     inkscape:window-x="1063"
     inkscape:window-y="1"
     inkscape:window-maximized="0"
     inkscape:current-layer="svg2" /><defs
     id="defs4"><style
       type="text/css"
       id="style6"><![CDATA[
       svg {
                position: absolute;
            }
    .str16 {stroke:red;stroke-width:59.27;stroke-linecap:round;stroke-linejoin:round}
    .str17 {stroke:yellow;stroke-width:59.27;stroke-linecap:round;stroke-linejoin:round}
    .str20 {stroke:#DDA56E;stroke-width:21.17;stroke-linecap:round;stroke-linejoin:round}
    .str18 {stroke:red;stroke-width:21.17;stroke-linecap:round;stroke-linejoin:round}
    .str21 {stroke:yellow;stroke-width:21.17;stroke-linecap:round;stroke-linejoin:round}
    .str15 {stroke:black;stroke-width:8.47;stroke-linecap:round;stroke-linejoin:round}
    .str0 {stroke:black;stroke-width:29.63;stroke-linecap:round;stroke-linejoin:round}
    .str1 {stroke:black;stroke-width:16.93;stroke-linecap:round;stroke-linejoin:round}
    .str10 {stroke:gray;stroke-width:16.93;stroke-linecap:round;stroke-linejoin:round}
    .str4 {stroke:black;stroke-width:4.23;stroke-linecap:round;stroke-linejoin:round}
    .str14 {stroke:#0037DD;stroke-width:4.23;stroke-linecap:round;stroke-linejoin:round}
    .str2 {stroke:#006EDD;stroke-width:4.23;stroke-linecap:round;stroke-linejoin:round}
    .str5 {stroke:#00B85C;stroke-width:4.23;stroke-linecap:round;stroke-linejoin:round}
    .str3 {stroke:#00DD00;stroke-width:4.23;stroke-linecap:round;stroke-linejoin:round}
    .str9 {stroke:lime;stroke-width:4.23;stroke-linecap:round;stroke-linejoin:round}
    .str12 {stroke:gray;stroke-width:4.23;stroke-linecap:round;stroke-linejoin:round}
    .str13 {stroke:#989898;stroke-width:4.23;stroke-linecap:round;stroke-linejoin:round}
    .str11 {stroke:#BABABA;stroke-width:4.23;stroke-linecap:round;stroke-linejoin:round}
    .str7 {stroke:red;stroke-width:4.23;stroke-linecap:round;stroke-linejoin:round}
    .str8 {stroke:#FF7F00;stroke-width:4.23;stroke-linecap:round;stroke-linejoin:round}
    .str6 {stroke:yellow;stroke-width:4.23;stroke-linecap:round;stroke-linejoin:round}
    .str23 {stroke:#00BFFF;stroke-width:25.4;stroke-linecap:round;stroke-linejoin:round}
    .str22 {stroke:#37DD00;stroke-width:25.4;stroke-linecap:round;stroke-linejoin:round}
    .str19 {stroke:black;stroke-width:12.7;stroke-linecap:round;stroke-linejoin:round}
    .fil0 {fill:none}
    .fil1 {fill:black}
    .fil13 {fill:#0037DD}
    .fil2 {fill:#006EDD}
    .fil3 {fill:#00B85C}
    .fil4 {fill:#00DD00}
    .fil9 {fill:lime}
    .fil7 {fill:gray}
    .fil12 {fill:#989898}
    .fil11 {fill:#B85C00}
    .fil10 {fill:#BABABA}
    .fil14 {fill:#FCFCFC}
    .fil6 {fill:red}
    .fil8 {fill:#FF7F00}
    .fil5 {fill:yellow}
   ]]></style></defs><g
     id="Слой_x0020_1"><g
       id="g58302"><polygon
         class="fil6"
         points="12835,36951 13038,36951 13038,36951 "
         id="polygon17742" /><polygon
         class="fil6"
         points="12835,36951 12835,37049 13038,37049 "
         id="polygon17744" /><polygon
         class="fil6"
         points="12835,36951 13038,36951 13038,37049 "
         id="polygon17746" /><polygon
         class="fil6"
         points="12835,37049 13038,37049 13038,37049 "
         id="polygon17748" /><polygon
         class="fil6"
         points="12916,36642 12958,36642 12958,36642 "
         id="polygon17750" /><polygon
         class="fil6"
         points="12916,36642 12882,36654 12992,36654 "
         id="polygon17752" /><polygon
         class="fil6"
         points="12916,36642 12958,36642 12992,36654 "
         id="polygon17754" /><polygon
         class="fil6"
         points="12882,36654 12852,36680 13022,36680 "
         id="polygon17756" /><polygon
         class="fil6"
         points="12882,36654 12992,36654 13022,36680 "
         id="polygon17758" /><polygon
         class="fil6"
         points="12852,36680 12835,36714 13038,36714 "
         id="polygon17760" /><polygon
         class="fil6"
         points="12852,36680 13022,36680 13038,36714 "
         id="polygon17762" /><polygon
         class="fil6"
         points="12835,36714 13038,36714 13038,36714 "
         id="polygon17764" /><polygon
         class="fil6"
         points="12835,36714 13038,36714 13038,36714 "
         id="polygon17766" /><polyline
         class="fil0 str7"
         points="12835,36718 13038,36718 12835,36714 "
         id="polyline17768" /><polyline
         class="fil0 str7"
         points="13038,36722 12835,36718 13038,36718 "
         id="polyline17770" /><polygon
         class="fil6"
         points="12835,36722 12835,36951 13038,36951 "
         id="polygon17772" /><polygon
         class="fil6"
         points="12835,36722 13038,36722 13038,36951 "
         id="polygon17774" /><polygon
         class="fil6"
         points="12835,36951 13038,36951 13038,36951 "
         id="polygon17776" /><path
         class="fil0 str1"
         d="M13038 37049l0 -327m-203 327l0 -335m-21 335l0 -221"
         id="path17778" /><line
         class="fil0 str4"
         x1="12907"
         y1="36578"
         x2="12869"
         y2="36578"
         id="line17780" /><polygon
         class="fil1"
         points="12869,36578 12827,36591 12907,36591 "
         id="polygon17782" /><polygon
         class="fil1"
         points="12869,36578 12907,36578 12907,36591 "
         id="polygon17784" /><polyline
         class="fil0 str4"
         points="12827,36591 12907,36591 12827,36591 12869,36591 "
         id="polyline17786" /><line
         class="fil0 str4"
         x1="12827"
         y1="36591"
         x2="12907"
         y2="36591"
         id="line17788" /><polygon
         class="fil1"
         points="12823,36591 12801,36608 12831,36608 "
         id="polygon17790" /><polygon
         class="fil1"
         points="12823,36591 12869,36591 12831,36608 "
         id="polygon17792" /><polygon
         class="fil1"
         points="12801,36608 12793,36613 12823,36613 "
         id="polygon17794" /><polygon
         class="fil1"
         points="12801,36608 12831,36608 12823,36613 "
         id="polygon17796" /><polygon
         class="fil1"
         points="12793,36613 12780,36629 12801,36629 "
         id="polygon17798" /><polygon
         class="fil1"
         points="12793,36613 12823,36613 12801,36629 "
         id="polygon17800" /><polygon
         class="fil1"
         points="12780,36629 12772,36646 12797,36646 "
         id="polygon17802" /><polygon
         class="fil1"
         points="12780,36629 12801,36629 12797,36646 "
         id="polygon17804" /><polygon
         class="fil1"
         points="12772,36646 12768,36668 12789,36668 "
         id="polygon17806" /><polygon
         class="fil1"
         points="12772,36646 12797,36646 12789,36668 "
         id="polygon17808" /><polygon
         class="fil1"
         points="12768,36668 12768,36684 12789,36684 "
         id="polygon17810" /><polygon
         class="fil1"
         points="12768,36668 12789,36668 12789,36684 "
         id="polygon17812" /><polygon
         class="fil1"
         points="12768,36684 12772,36706 12793,36706 "
         id="polygon17814" /><polygon
         class="fil1"
         points="12768,36684 12789,36684 12793,36706 "
         id="polygon17816" /><polygon
         class="fil1"
         points="12772,36706 12772,36727 12797,36727 "
         id="polygon17818" /><polygon
         class="fil1"
         points="12772,36706 12793,36706 12797,36727 "
         id="polygon17820" /><polygon
         class="fil1"
         points="12772,36727 12784,36747 12801,36747 "
         id="polygon17822" /><polygon
         class="fil1"
         points="12772,36727 12797,36727 12801,36747 "
         id="polygon17824" /><polygon
         class="fil1"
         points="12784,36747 12806,36803 12831,36803 "
         id="polygon17826" /><polygon
         class="fil1"
         points="12784,36747 12801,36747 12831,36803 "
         id="polygon17828" /><polygon
         class="fil1"
         points="12806,36803 12814,36815 12835,36815 "
         id="polygon17830" /><polygon
         class="fil1"
         points="12806,36803 12831,36803 12835,36815 "
         id="polygon17832" /><polygon
         class="fil0 str4"
         points="12814,36815 12835,36815 "
         id="polygon17834" /><polygon
         class="fil1"
         points="12814,36815 12814,36828 12835,36828 "
         id="polygon17836" /><polygon
         class="fil1"
         points="12814,36815 12835,36815 12835,36828 "
         id="polygon17838" /><polygon
         class="fil1"
         points="12814,36828 12814,37049 12835,37049 "
         id="polygon17840" /><polygon
         class="fil1"
         points="12814,36828 12835,36828 12835,37049 "
         id="polygon17842" /><line
         class="fil0 str4"
         x1="12814"
         y1="37049"
         x2="12835"
         y2="37049"
         id="line17844" /><line
         class="fil0 str1"
         x1="12835"
         y1="37049"
         x2="12814"
         y2="37049"
         id="line17846" /><polygon
         class="fil0 str1"
         points="12835,37150 13038,37150 13038,37048 12835,37048 "
         id="polygon17848" /><polyline
         class="fil0 str1"
         points="13038,36722 13022,36684 12996,36654 12958,36642 12920,36637 12882,36654 12852,36680 12835,36714 "
         id="polyline17850" /><polyline
         class="fil0 str1"
         points="12907,36642 12907,36549 13060,36523 13060,36540 "
         id="polyline17852" /><polyline
         class="fil0 str1"
         points="12967,36642 12967,36566 13060,36540 "
         id="polyline17854" /><line
         class="fil0 str1"
         x1="12835"
         y1="36714"
         x2="13038"
         y2="36714"
         id="line17856" /><polyline
         class="fil0 str1"
         points="12835,36815 12801,36747 12793,36706 12789,36668 12801,36629 12831,36608 12869,36591 12907,36591 "
         id="polyline17858" /><polyline
         class="fil0 str1"
         points="12806,36803 12772,36727 12768,36684 12772,36646 12793,36613 12827,36591 12869,36578 12907,36578 "
         id="polyline17860" /><line
         class="fil0 str1"
         x1="12967"
         y1="36582"
         x2="13072"
         y2="36591"
         id="line17862" /><polyline
         class="fil0 str1"
         points="12967,36591 13077,36599 13072,36591 "
         id="polyline17864" /><path
         class="fil0 str1"
         d="M12814 36828l-8 -25m29 -89l203 0"
         id="path17866" /><polygon
         class="fil1"
         points="13060,36523 12958,36540 13060,36540 "
         id="polygon17868" /><polygon
         class="fil1"
         points="12958,36540 12907,36549 13026,36549 "
         id="polygon17870" /><polygon
         class="fil1"
         points="12958,36540 13060,36540 13026,36549 "
         id="polygon17872" /><polygon
         class="fil1"
         points="12907,36549 12907,36566 12967,36566 "
         id="polygon17874" /><polygon
         class="fil1"
         points="12907,36549 13026,36549 12967,36566 "
         id="polygon17876" /><polygon
         class="fil1"
         points="12907,36566 12907,36637 12967,36637 "
         id="polygon17878" /><polygon
         class="fil1"
         points="12907,36566 12967,36566 12967,36637 "
         id="polygon17880" /><polyline
         class="fil0 str4"
         points="12907,36637 12907,36642 12937,36637 12967,36642 "
         id="polyline17882" /><line
         class="fil0 str4"
         x1="12907"
         y1="36642"
         x2="12912"
         y2="36642"
         id="line17884" /><polygon
         class="fil1"
         points="12967,36582 12967,36591 13072,36591 "
         id="polygon17886" /><polygon
         class="fil0 str4"
         points="12967,36591 13072,36591 "
         id="polygon17888" /><polygon
         class="fil1"
         points="12967,36591 13072,36591 13077,36599 "
         id="polygon17890" /><polygon
         class="fil0 str1"
         points="12657,37226 13449,37226 13449,36434 12657,36434 "
         id="polygon17892" /><polygon
         class="fil1"
         points="13267,36722 13242,36722 13246,36722 13250,36722 13254,36722 13254,36727 13259,36727 13259,36744 13254,36744 13254,36752 13250,36752 13250,36756 13246,36756 13246,36761 13237,36761 13212,36761 13259,36765 13263,36761 13263,36756 13267,36752 13267,36744 13271,36739 13271,36722 "
         id="polygon17894" /><polygon
         class="fil1"
         points="13242,36709 13208,36709 13187,36820 13199,36820 13208,36773 13237,36773 13246,36773 13246,36773 13250,36769 13254,36769 13254,36769 13259,36765 13259,36765 13212,36761 13216,36722 13267,36722 13267,36714 13263,36714 13263,36709 13259,36709 13254,36709 13250,36709 13246,36709 13246,36709 "
         id="polygon17896" /><polygon
         class="fil1"
         points="13271,36921 13259,36921 13225,36989 13225,36997 13221,37002 13221,37006 13212,37014 13225,37014 "
         id="polygon17898" /><polygon
         class="fil1"
         points="13212,36921 13199,36921 13212,37014 13221,37006 13221,36994 13216,36989 "
         id="polygon17900" /></g><metadata
       id="CorelCorpID_0Corel-Layer" /></g></svg>