<?xml version="1.0" encoding="UTF-8" standalone="no"?>
<!-- Creator: CorelDRAW X8 -->

<svg
   xmlns:dc="http://purl.org/dc/elements/1.1/"
   xmlns:cc="http://creativecommons.org/ns#"
   xmlns:rdf="http://www.w3.org/1999/02/22-rdf-syntax-ns#"
   xmlns:svg="http://www.w3.org/2000/svg"
   xmlns="http://www.w3.org/2000/svg"
   xmlns:sodipodi="http://sodipodi.sourceforge.net/DTD/sodipodi-0.dtd"
   xmlns:inkscape="http://www.inkscape.org/namespaces/inkscape"
   xml:space="preserve"
   width="254.5mm"
   height="750mm"
   version="1.1"
   style="shape-rendering:geometricPrecision; text-rendering:geometricPrecision; image-rendering:optimizeQuality; fill-rule:evenodd; clip-rule:evenodd"
   viewBox="0 0 25450 75000"
   id="svg2"
   inkscape:version="0.91 r13725"
   sodipodi:docname="033.svg"><metadata
     id="metadata51242"><rdf:RDF><cc:Work
         rdf:about=""><dc:format>image/svg+xml</dc:format><dc:type
           rdf:resource="http://purl.org/dc/dcmitype/StillImage" /><dc:title></dc:title></cc:Work></rdf:RDF></metadata><sodipodi:namedview
     pagecolor="#ffffff"
     bordercolor="#666666"
     borderopacity="1"
     objecttolerance="10"
     gridtolerance="10"
     guidetolerance="10"
     inkscape:pageopacity="0"
     inkscape:pageshadow="2"
     inkscape:window-width="843"
     inkscape:window-height="999"
     id="namedview51240"
     showgrid="false"
     inkscape:zoom="1.4208948"
     inkscape:cx="441.18004"
     inkscape:cy="1402.4843"
     inkscape:window-x="1063"
     inkscape:window-y="1"
     inkscape:window-maximized="0"
     inkscape:current-layer="svg2" /><defs
     id="defs4"><style
       type="text/css"
       id="style6"><![CDATA[
       svg {
                position: absolute;
            }
    .str16 {stroke:red;stroke-width:59.27;stroke-linecap:round;stroke-linejoin:round}
    .str17 {stroke:yellow;stroke-width:59.27;stroke-linecap:round;stroke-linejoin:round}
    .str20 {stroke:#DDA56E;stroke-width:21.17;stroke-linecap:round;stroke-linejoin:round}
    .str18 {stroke:red;stroke-width:21.17;stroke-linecap:round;stroke-linejoin:round}
    .str21 {stroke:yellow;stroke-width:21.17;stroke-linecap:round;stroke-linejoin:round}
    .str15 {stroke:black;stroke-width:8.47;stroke-linecap:round;stroke-linejoin:round}
    .str0 {stroke:black;stroke-width:29.63;stroke-linecap:round;stroke-linejoin:round}
    .str1 {stroke:black;stroke-width:16.93;stroke-linecap:round;stroke-linejoin:round}
    .str10 {stroke:gray;stroke-width:16.93;stroke-linecap:round;stroke-linejoin:round}
    .str4 {stroke:black;stroke-width:4.23;stroke-linecap:round;stroke-linejoin:round}
    .str14 {stroke:#0037DD;stroke-width:4.23;stroke-linecap:round;stroke-linejoin:round}
    .str2 {stroke:#006EDD;stroke-width:4.23;stroke-linecap:round;stroke-linejoin:round}
    .str5 {stroke:#00B85C;stroke-width:4.23;stroke-linecap:round;stroke-linejoin:round}
    .str3 {stroke:#00DD00;stroke-width:4.23;stroke-linecap:round;stroke-linejoin:round}
    .str9 {stroke:lime;stroke-width:4.23;stroke-linecap:round;stroke-linejoin:round}
    .str12 {stroke:gray;stroke-width:4.23;stroke-linecap:round;stroke-linejoin:round}
    .str13 {stroke:#989898;stroke-width:4.23;stroke-linecap:round;stroke-linejoin:round}
    .str11 {stroke:#BABABA;stroke-width:4.23;stroke-linecap:round;stroke-linejoin:round}
    .str7 {stroke:red;stroke-width:4.23;stroke-linecap:round;stroke-linejoin:round}
    .str8 {stroke:#FF7F00;stroke-width:4.23;stroke-linecap:round;stroke-linejoin:round}
    .str6 {stroke:yellow;stroke-width:4.23;stroke-linecap:round;stroke-linejoin:round}
    .str23 {stroke:#00BFFF;stroke-width:25.4;stroke-linecap:round;stroke-linejoin:round}
    .str22 {stroke:#37DD00;stroke-width:25.4;stroke-linecap:round;stroke-linejoin:round}
    .str19 {stroke:black;stroke-width:12.7;stroke-linecap:round;stroke-linejoin:round}
    .fil0 {fill:none}
    .fil1 {fill:black}
    .fil13 {fill:#0037DD}
    .fil2 {fill:#006EDD}
    .fil3 {fill:#00B85C}
    .fil4 {fill:#00DD00}
    .fil9 {fill:lime}
    .fil7 {fill:gray}
    .fil12 {fill:#989898}
    .fil11 {fill:#B85C00}
    .fil10 {fill:#BABABA}
    .fil14 {fill:#FCFCFC}
    .fil6 {fill:red}
    .fil8 {fill:#FF7F00}
    .fil5 {fill:yellow}
   ]]></style></defs><g
     id="Слой_x0020_1"><g
       id="g58384"><polygon
         class="fil5"
         points="12835,37950 13038,37950 13038,37950 "
         id="polygon17902" /><polygon
         class="fil5"
         points="12835,37950 12835,38047 13038,38047 "
         id="polygon17904" /><polygon
         class="fil5"
         points="12835,37950 13038,37950 13038,38047 "
         id="polygon17906" /><polygon
         class="fil5"
         points="12835,38047 13038,38047 13038,38047 "
         id="polygon17908" /><polygon
         class="fil11"
         points="12835,38047 13038,38047 13038,38047 "
         id="polygon17910" /><polygon
         class="fil11"
         points="12835,38047 12835,38149 13038,38149 "
         id="polygon17912" /><polygon
         class="fil11"
         points="12835,38047 13038,38047 13038,38149 "
         id="polygon17914" /><polygon
         class="fil11"
         points="12835,38149 13038,38149 13038,38149 "
         id="polygon17916" /><polygon
         class="fil6"
         points="12916,37640 12958,37640 12958,37640 "
         id="polygon17918" /><polygon
         class="fil6"
         points="12916,37640 12882,37654 12992,37654 "
         id="polygon17920" /><polygon
         class="fil6"
         points="12916,37640 12958,37640 12992,37654 "
         id="polygon17922" /><polygon
         class="fil6"
         points="12882,37654 12852,37679 13022,37679 "
         id="polygon17924" /><polygon
         class="fil6"
         points="12882,37654 12992,37654 13022,37679 "
         id="polygon17926" /><polygon
         class="fil6"
         points="12852,37679 12835,37717 13038,37717 "
         id="polygon17928" /><polygon
         class="fil6"
         points="12852,37679 13022,37679 13038,37717 "
         id="polygon17930" /><polygon
         class="fil6"
         points="12835,37717 13038,37717 13038,37717 "
         id="polygon17932" /><polygon
         class="fil6"
         points="12835,37717 13038,37717 13038,37717 "
         id="polygon17934" /><polygon
         class="fil0 str7"
         points="12835,37717 13038,37717 "
         id="polygon17936" /><polyline
         class="fil0 str7"
         points="12835,37721 13038,37721 12835,37717 "
         id="polyline17938" /><polygon
         class="fil6"
         points="12835,37721 12835,37950 13038,37950 "
         id="polygon17940" /><polygon
         class="fil6"
         points="12835,37721 13038,37721 13038,37950 "
         id="polygon17942" /><polygon
         class="fil6"
         points="12835,37950 13038,37950 13038,37950 "
         id="polygon17944" /><polygon
         class="fil1"
         points="13233,37709 13221,37709 13212,37755 13165,37755 13212,37768 13204,37819 13212,37819 "
         id="polygon17946" /><polygon
         class="fil1"
         points="13174,37709 13165,37709 13144,37819 13157,37819 13165,37768 13212,37768 13165,37755 "
         id="polygon17948" /><polygon
         class="fil1"
         points="13314,37709 13254,37709 13233,37819 13246,37819 13254,37768 13297,37768 13297,37755 13259,37755 13263,37721 13309,37721 "
         id="polygon17950" /><path
         class="fil0 str1"
         d="M13038 38047l0 -326m-203 326l0 -330m-21 330l0 -220"
         id="path17952" /><line
         class="fil0 str4"
         x1="12907"
         y1="37578"
         x2="12869"
         y2="37578"
         id="line17954" /><polygon
         class="fil1"
         points="12869,37578 12827,37590 12907,37590 "
         id="polygon17956" /><polygon
         class="fil1"
         points="12869,37578 12907,37578 12907,37590 "
         id="polygon17958" /><polyline
         class="fil0 str4"
         points="12827,37590 12907,37590 12827,37590 12869,37594 "
         id="polyline17960" /><line
         class="fil0 str4"
         x1="12827"
         y1="37590"
         x2="12907"
         y2="37590"
         id="line17962" /><polygon
         class="fil1"
         points="12823,37594 12801,37607 12831,37607 "
         id="polygon17964" /><polygon
         class="fil1"
         points="12823,37594 12869,37594 12831,37607 "
         id="polygon17966" /><polygon
         class="fil1"
         points="12801,37607 12793,37611 12823,37611 "
         id="polygon17968" /><polygon
         class="fil1"
         points="12801,37607 12831,37607 12823,37611 "
         id="polygon17970" /><polygon
         class="fil1"
         points="12793,37611 12780,37633 12801,37633 "
         id="polygon17972" /><polygon
         class="fil1"
         points="12793,37611 12823,37611 12801,37633 "
         id="polygon17974" /><polygon
         class="fil1"
         points="12780,37633 12772,37645 12797,37645 "
         id="polygon17976" /><polygon
         class="fil1"
         points="12780,37633 12801,37633 12797,37645 "
         id="polygon17978" /><polygon
         class="fil1"
         points="12772,37645 12768,37666 12789,37666 "
         id="polygon17980" /><polygon
         class="fil1"
         points="12772,37645 12797,37645 12789,37666 "
         id="polygon17982" /><polygon
         class="fil1"
         points="12768,37666 12768,37683 12789,37683 "
         id="polygon17984" /><polygon
         class="fil1"
         points="12768,37666 12789,37666 12789,37683 "
         id="polygon17986" /><polygon
         class="fil1"
         points="12768,37683 12772,37704 12793,37704 "
         id="polygon17988" /><polygon
         class="fil1"
         points="12768,37683 12789,37683 12793,37704 "
         id="polygon17990" /><polygon
         class="fil1"
         points="12772,37704 12772,37726 12797,37726 "
         id="polygon17992" /><polygon
         class="fil1"
         points="12772,37704 12793,37704 12797,37726 "
         id="polygon17994" /><polygon
         class="fil1"
         points="12772,37726 12784,37747 12801,37747 "
         id="polygon17996" /><polygon
         class="fil1"
         points="12772,37726 12797,37726 12801,37747 "
         id="polygon17998" /><polygon
         class="fil1"
         points="12784,37747 12806,37802 12831,37802 "
         id="polygon18000" /><polygon
         class="fil1"
         points="12784,37747 12801,37747 12831,37802 "
         id="polygon18002" /><polygon
         class="fil1"
         points="12806,37802 12814,37814 12835,37814 "
         id="polygon18004" /><polygon
         class="fil1"
         points="12806,37802 12831,37802 12835,37814 "
         id="polygon18006" /><polygon
         class="fil0 str4"
         points="12814,37814 12835,37814 "
         id="polygon18008" /><polygon
         class="fil1"
         points="12814,37814 12814,37827 12835,37827 "
         id="polygon18010" /><polygon
         class="fil1"
         points="12814,37814 12835,37814 12835,37827 "
         id="polygon18012" /><polygon
         class="fil1"
         points="12814,37827 12814,38047 12835,38047 "
         id="polygon18014" /><polygon
         class="fil1"
         points="12814,37827 12835,37827 12835,38047 "
         id="polygon18016" /><line
         class="fil0 str4"
         x1="12814"
         y1="38047"
         x2="12835"
         y2="38047"
         id="line18018" /><line
         class="fil0 str1"
         x1="12835"
         y1="38047"
         x2="12814"
         y2="38047"
         id="line18020" /><polygon
         class="fil0 str1"
         points="12835,38149 13038,38149 13038,38048 12835,38048 "
         id="polygon18022" /><polyline
         class="fil0 str1"
         points="13038,37721 13022,37683 12996,37658 12958,37640 12920,37640 12882,37654 12852,37679 12835,37717 "
         id="polyline18024" /><polyline
         class="fil0 str1"
         points="12907,37640 12907,37547 13060,37523 13060,37539 "
         id="polyline18026" /><polyline
         class="fil0 str1"
         points="12967,37640 12967,37564 13060,37539 "
         id="polyline18028" /><line
         class="fil0 str1"
         x1="12835"
         y1="37717"
         x2="13038"
         y2="37717"
         id="line18030" /><polyline
         class="fil0 str1"
         points="12835,37814 12801,37747 12793,37704 12789,37666 12801,37633 12831,37607 12869,37594 12907,37590 "
         id="polyline18032" /><polyline
         class="fil0 str1"
         points="12806,37802 12772,37726 12768,37683 12772,37645 12793,37611 12827,37590 12869,37578 12907,37578 "
         id="polyline18034" /><line
         class="fil0 str1"
         x1="12967"
         y1="37582"
         x2="13072"
         y2="37590"
         id="line18036" /><polyline
         class="fil0 str1"
         points="12967,37594 13077,37599 13072,37590 "
         id="polyline18038" /><path
         class="fil0 str1"
         d="M12814 37827l-8 -25m29 -85l203 0"
         id="path18040" /><polygon
         class="fil1"
         points="13060,37523 12958,37539 13060,37539 "
         id="polygon18042" /><polygon
         class="fil1"
         points="12958,37539 12907,37547 13026,37547 "
         id="polygon18044" /><polygon
         class="fil1"
         points="12958,37539 13060,37539 13026,37547 "
         id="polygon18046" /><polygon
         class="fil1"
         points="12907,37547 12907,37564 12967,37564 "
         id="polygon18048" /><polygon
         class="fil1"
         points="12907,37547 13026,37547 12967,37564 "
         id="polygon18050" /><polygon
         class="fil1"
         points="12907,37564 12907,37637 12967,37637 "
         id="polygon18052" /><polygon
         class="fil1"
         points="12907,37564 12967,37564 12967,37637 "
         id="polygon18054" /><polyline
         class="fil0 str4"
         points="12907,37637 12907,37640 12937,37637 12967,37640 "
         id="polyline18056" /><line
         class="fil0 str4"
         x1="12907"
         y1="37640"
         x2="12912"
         y2="37640"
         id="line18058" /><polygon
         class="fil1"
         points="12967,37582 12967,37590 13072,37590 "
         id="polygon18060" /><polyline
         class="fil0 str4"
         points="13072,37594 12967,37590 13072,37590 "
         id="polyline18062" /><polygon
         class="fil1"
         points="12967,37594 13072,37594 13077,37599 "
         id="polygon18064" /><polygon
         class="fil0 str1"
         points="12657,38225 13449,38225 13449,37434 12657,37434 "
         id="polygon18066" /><polygon
         class="fil1"
         points="13280,37904 13267,37904 13229,37983 13229,37983 13225,37988 13225,37997 13221,37997 13221,38005 13212,38014 13225,38014 "
         id="polygon18068" /><polygon
         class="fil1"
         points="13208,37904 13195,37904 13212,38014 13221,38005 13221,37988 13216,37983 "
         id="polygon18070" /></g><metadata
       id="CorelCorpID_0Corel-Layer" /></g></svg>