<?xml version="1.0" encoding="UTF-8" standalone="no"?>
<!-- Creator: CorelDRAW X8 -->

<svg
   xmlns:dc="http://purl.org/dc/elements/1.1/"
   xmlns:cc="http://creativecommons.org/ns#"
   xmlns:rdf="http://www.w3.org/1999/02/22-rdf-syntax-ns#"
   xmlns:svg="http://www.w3.org/2000/svg"
   xmlns="http://www.w3.org/2000/svg"
   xmlns:sodipodi="http://sodipodi.sourceforge.net/DTD/sodipodi-0.dtd"
   xmlns:inkscape="http://www.inkscape.org/namespaces/inkscape"
   xml:space="preserve"
   width="254.5mm"
   height="750mm"
   version="1.1"
   style="shape-rendering:geometricPrecision; text-rendering:geometricPrecision; image-rendering:optimizeQuality; fill-rule:evenodd; clip-rule:evenodd"
   viewBox="0 0 25450 75000"
   id="svg2"
   inkscape:version="0.91 r13725"
   sodipodi:docname="034.svg"><metadata
     id="metadata51242"><rdf:RDF><cc:Work
         rdf:about=""><dc:format>image/svg+xml</dc:format><dc:type
           rdf:resource="http://purl.org/dc/dcmitype/StillImage" /><dc:title></dc:title></cc:Work></rdf:RDF></metadata><sodipodi:namedview
     pagecolor="#ffffff"
     bordercolor="#666666"
     borderopacity="1"
     objecttolerance="10"
     gridtolerance="10"
     guidetolerance="10"
     inkscape:pageopacity="0"
     inkscape:pageshadow="2"
     inkscape:window-width="843"
     inkscape:window-height="999"
     id="namedview51240"
     showgrid="false"
     inkscape:zoom="1.4208948"
     inkscape:cx="441.18004"
     inkscape:cy="1402.4843"
     inkscape:window-x="1063"
     inkscape:window-y="1"
     inkscape:window-maximized="0"
     inkscape:current-layer="svg2" /><defs
     id="defs4"><style
       type="text/css"
       id="style6"><![CDATA[
       svg {
                position: absolute;
            }
    .str16 {stroke:red;stroke-width:59.27;stroke-linecap:round;stroke-linejoin:round}
    .str17 {stroke:yellow;stroke-width:59.27;stroke-linecap:round;stroke-linejoin:round}
    .str20 {stroke:#DDA56E;stroke-width:21.17;stroke-linecap:round;stroke-linejoin:round}
    .str18 {stroke:red;stroke-width:21.17;stroke-linecap:round;stroke-linejoin:round}
    .str21 {stroke:yellow;stroke-width:21.17;stroke-linecap:round;stroke-linejoin:round}
    .str15 {stroke:black;stroke-width:8.47;stroke-linecap:round;stroke-linejoin:round}
    .str0 {stroke:black;stroke-width:29.63;stroke-linecap:round;stroke-linejoin:round}
    .str1 {stroke:black;stroke-width:16.93;stroke-linecap:round;stroke-linejoin:round}
    .str10 {stroke:gray;stroke-width:16.93;stroke-linecap:round;stroke-linejoin:round}
    .str4 {stroke:black;stroke-width:4.23;stroke-linecap:round;stroke-linejoin:round}
    .str14 {stroke:#0037DD;stroke-width:4.23;stroke-linecap:round;stroke-linejoin:round}
    .str2 {stroke:#006EDD;stroke-width:4.23;stroke-linecap:round;stroke-linejoin:round}
    .str5 {stroke:#00B85C;stroke-width:4.23;stroke-linecap:round;stroke-linejoin:round}
    .str3 {stroke:#00DD00;stroke-width:4.23;stroke-linecap:round;stroke-linejoin:round}
    .str9 {stroke:lime;stroke-width:4.23;stroke-linecap:round;stroke-linejoin:round}
    .str12 {stroke:gray;stroke-width:4.23;stroke-linecap:round;stroke-linejoin:round}
    .str13 {stroke:#989898;stroke-width:4.23;stroke-linecap:round;stroke-linejoin:round}
    .str11 {stroke:#BABABA;stroke-width:4.23;stroke-linecap:round;stroke-linejoin:round}
    .str7 {stroke:red;stroke-width:4.23;stroke-linecap:round;stroke-linejoin:round}
    .str8 {stroke:#FF7F00;stroke-width:4.23;stroke-linecap:round;stroke-linejoin:round}
    .str6 {stroke:yellow;stroke-width:4.23;stroke-linecap:round;stroke-linejoin:round}
    .str23 {stroke:#00BFFF;stroke-width:25.4;stroke-linecap:round;stroke-linejoin:round}
    .str22 {stroke:#37DD00;stroke-width:25.4;stroke-linecap:round;stroke-linejoin:round}
    .str19 {stroke:black;stroke-width:12.7;stroke-linecap:round;stroke-linejoin:round}
    .fil0 {fill:none}
    .fil1 {fill:black}
    .fil13 {fill:#0037DD}
    .fil2 {fill:#006EDD}
    .fil3 {fill:#00B85C}
    .fil4 {fill:#00DD00}
    .fil9 {fill:lime}
    .fil7 {fill:gray}
    .fil12 {fill:#989898}
    .fil11 {fill:#B85C00}
    .fil10 {fill:#BABABA}
    .fil14 {fill:#FCFCFC}
    .fil6 {fill:red}
    .fil8 {fill:#FF7F00}
    .fil5 {fill:yellow}
   ]]></style></defs><g
     id="Слой_x0020_1"><g
       id="g58471"><polygon
         class="fil0 str1"
         points="12869,38797 13237,38797 13195,38754 13140,38724 13085,38712 13022,38712 12967,38724 12912,38754 "
         id="polygon18072" /><path
         class="fil0 str1"
         d="M13051 38855l0 90m-114 -131l-68 59m119 -34l-38 80m-102 -33l-76 63m165 -4l-43 84m157 -59l0 97"
         id="path18074" /><polygon
         class="fil1"
         points="12941,38817 12937,38814 12869,38873 "
         id="polygon18076" /><polygon
         class="fil1"
         points="12937,38814 12869,38873 12869,38869 "
         id="polygon18078" /><polygon
         class="fil1"
         points="12848,38890 12848,38886 12776,38949 "
         id="polygon18080" /><polygon
         class="fil1"
         points="12848,38886 12776,38949 12772,38945 "
         id="polygon18082" /><polygon
         class="fil1"
         points="12992,38839 12988,38839 12950,38919 "
         id="polygon18084" /><polygon
         class="fil1"
         points="12988,38839 12950,38919 12945,38919 "
         id="polygon18086" /><polygon
         class="fil1"
         points="12937,38945 12933,38945 12894,39029 "
         id="polygon18088" /><polygon
         class="fil1"
         points="12933,38945 12894,39029 12890,39029 "
         id="polygon18090" /><polygon
         class="fil1"
         points="13055,38855 13051,38855 13055,38945 "
         id="polygon18092" /><polygon
         class="fil1"
         points="13051,38855 13055,38945 13051,38945 "
         id="polygon18094" /><polygon
         class="fil1"
         points="13055,38970 13051,38970 13055,39067 "
         id="polygon18096" /><polygon
         class="fil1"
         points="13051,38970 13055,39067 13051,39067 "
         id="polygon18098" /><path
         class="fil0 str1"
         d="M13165 38814l68 59m-114 -34l38 80m97 -33l77 63m-161 -4l42 84"
         id="path18100" /><polygon
         class="fil1"
         points="13165,38814 13161,38817 13237,38869 "
         id="polygon18102" /><polygon
         class="fil1"
         points="13161,38817 13237,38869 13233,38873 "
         id="polygon18104" /><polygon
         class="fil1"
         points="13259,38886 13254,38890 13331,38945 "
         id="polygon18106" /><polygon
         class="fil1"
         points="13254,38890 13331,38945 13326,38949 "
         id="polygon18108" /><polygon
         class="fil1"
         points="13119,38839 13115,38839 13161,38919 "
         id="polygon18110" /><polygon
         class="fil1"
         points="13115,38839 13161,38919 13157,38919 "
         id="polygon18112" /><polygon
         class="fil1"
         points="13174,38945 13170,38945 13216,39029 "
         id="polygon18114" /><polygon
         class="fil1"
         points="13170,38945 13216,39029 13212,39029 "
         id="polygon18116" /><polygon
         class="fil0 str1"
         points="12657,39233 13449,39233 13449,38433 12657,38433 "
         id="polygon18118" /><polygon
         class="fil1"
         points="13043,38623 13043,38628 13038,38628 13038,38636 13034,38640 13034,38640 13030,38644 13030,38644 13026,38648 13022,38648 13022,38652 13013,38652 13009,38652 12979,38657 12979,38657 12983,38661 12983,38661 12988,38666 12996,38666 12996,38666 13000,38669 13009,38669 13013,38669 13017,38666 13022,38666 13026,38666 13026,38661 13034,38661 13034,38657 13038,38657 13038,38652 13043,38652 13043,38648 13047,38644 13047,38644 13051,38640 13051,38631 13055,38631 13055,38628 "
         id="polygon18120" /><polygon
         class="fil1"
         points="13055,38551 13026,38551 13030,38551 13038,38551 13038,38555 13043,38555 13043,38559 13047,38559 13047,38572 13051,38572 13051,38576 13064,38572 13064,38564 13060,38559 13060,38555 "
         id="polygon18122" /><polygon
         class="fil1"
         points="13030,38538 13026,38538 13017,38538 13013,38538 13009,38543 13005,38543 13000,38547 13000,38547 12996,38551 12992,38551 12992,38555 12988,38559 12988,38559 12983,38564 12983,38568 12979,38572 12979,38576 12975,38581 12975,38590 12971,38593 12971,38644 12975,38648 12975,38652 12979,38657 13009,38652 13000,38652 12996,38652 12996,38648 12992,38648 12992,38644 12988,38644 12988,38640 12983,38636 12983,38598 12988,38593 12988,38585 12992,38581 12992,38572 12996,38572 12996,38568 13000,38564 13000,38564 13005,38559 13009,38559 13009,38555 13017,38555 13017,38551 13026,38551 13055,38551 13055,38547 13051,38547 13051,38543 13047,38543 13047,38538 13043,38538 13034,38538 13034,38538 "
         id="polygon18124" /><polygon
         class="fil1"
         points="13098,38551 13098,38551 13094,38555 13094,38559 13089,38559 13089,38564 13085,38568 13085,38568 13081,38572 13081,38576 13077,38581 13077,38593 13072,38598 13072,38640 13077,38644 13077,38652 13081,38652 13081,38657 13085,38657 13085,38661 13089,38661 13089,38666 13098,38666 13102,38666 13106,38669 13110,38669 13115,38669 13115,38669 13119,38666 13123,38666 13132,38666 13132,38661 13136,38661 13136,38661 13140,38657 13140,38657 13144,38652 13110,38652 13102,38652 13102,38652 13098,38648 13094,38648 13094,38644 13089,38640 13089,38636 13085,38631 13085,38602 13089,38598 13089,38585 13094,38581 13094,38576 13098,38572 13098,38568 13102,38568 13102,38564 13106,38559 13110,38559 13110,38559 13115,38555 13119,38555 13123,38551 13132,38551 "
         id="polygon18126" /><polygon
         class="fil1"
         points="13132,38538 13123,38538 13115,38538 13115,38543 13106,38543 13106,38547 13102,38547 13098,38551 13132,38551 13140,38551 13140,38551 13144,38555 13144,38555 13149,38559 13153,38559 13153,38568 13157,38568 13157,38606 13153,38610 13153,38619 13149,38623 13149,38631 13144,38631 13144,38636 13140,38640 13140,38640 13136,38644 13136,38644 13132,38648 13127,38648 13127,38648 13123,38652 13110,38652 13149,38652 13149,38648 13153,38644 13153,38644 13157,38640 13157,38636 13161,38636 13161,38628 13165,38623 13165,38614 13170,38610 13170,38564 13165,38559 13165,38555 13161,38551 13161,38551 13157,38547 13157,38543 13153,38543 13153,38543 13149,38538 13140,38538 13136,38538 "
         id="polygon18128" /><polygon
         class="fil7"
         points="13022,38712 13085,38712 13085,38712 "
         id="polygon18130" /><polygon
         class="fil7"
         points="13022,38712 12967,38724 13140,38724 "
         id="polygon18132" /><polygon
         class="fil7"
         points="13022,38712 13085,38712 13140,38724 "
         id="polygon18134" /><polygon
         class="fil7"
         points="12967,38724 12912,38754 13195,38754 "
         id="polygon18136" /><polygon
         class="fil7"
         points="12967,38724 13140,38724 13195,38754 "
         id="polygon18138" /><polygon
         class="fil7"
         points="12912,38754 12869,38797 13237,38797 "
         id="polygon18140" /><polygon
         class="fil7"
         points="12912,38754 13195,38754 13237,38797 "
         id="polygon18142" /><polygon
         class="fil7"
         points="12869,38797 13237,38797 13237,38797 "
         id="polygon18144" /><polygon
         class="fil1"
         points="13212,38628 13199,38628 13204,38628 13204,38631 13208,38631 13208,38644 13204,38644 13204,38648 13199,38652 13199,38657 13195,38657 13195,38661 13191,38661 13191,38661 13187,38666 13187,38666 13182,38669 13182,38669 13178,38674 13178,38674 13174,38678 13174,38683 13170,38683 13170,38691 13165,38691 13204,38691 13208,38683 13178,38683 13182,38683 13182,38678 13187,38678 13187,38674 13191,38669 13195,38669 13195,38666 13199,38666 13199,38661 13204,38661 13204,38657 13208,38657 13208,38652 13212,38648 13212,38640 13216,38640 13216,38631 13212,38631 "
         id="polygon18146" /><polygon
         class="fil1"
         points="13199,38619 13195,38619 13195,38623 13191,38623 13187,38623 13187,38628 13182,38628 13182,38631 13178,38636 13178,38640 13187,38640 13187,38631 13191,38631 13191,38631 13195,38628 13212,38628 13212,38623 13208,38623 13208,38623 13204,38619 13204,38619 "
         id="polygon18148" /></g><metadata
       id="CorelCorpID_0Corel-Layer" /></g></svg>