<?xml version="1.0" encoding="UTF-8" standalone="no"?>
<!-- Creator: CorelDRAW X8 -->

<svg
   xmlns:dc="http://purl.org/dc/elements/1.1/"
   xmlns:cc="http://creativecommons.org/ns#"
   xmlns:rdf="http://www.w3.org/1999/02/22-rdf-syntax-ns#"
   xmlns:svg="http://www.w3.org/2000/svg"
   xmlns="http://www.w3.org/2000/svg"
   xmlns:sodipodi="http://sodipodi.sourceforge.net/DTD/sodipodi-0.dtd"
   xmlns:inkscape="http://www.inkscape.org/namespaces/inkscape"
   xml:space="preserve"
   width="254.5mm"
   height="750mm"
   version="1.1"
   style="shape-rendering:geometricPrecision; text-rendering:geometricPrecision; image-rendering:optimizeQuality; fill-rule:evenodd; clip-rule:evenodd"
   viewBox="0 0 25450 75000"
   id="svg2"
   inkscape:version="0.91 r13725"
   sodipodi:docname="035.svg"><metadata
     id="metadata51242"><rdf:RDF><cc:Work
         rdf:about=""><dc:format>image/svg+xml</dc:format><dc:type
           rdf:resource="http://purl.org/dc/dcmitype/StillImage" /><dc:title></dc:title></cc:Work></rdf:RDF></metadata><sodipodi:namedview
     pagecolor="#ffffff"
     bordercolor="#666666"
     borderopacity="1"
     objecttolerance="10"
     gridtolerance="10"
     guidetolerance="10"
     inkscape:pageopacity="0"
     inkscape:pageshadow="2"
     inkscape:window-width="843"
     inkscape:window-height="999"
     id="namedview51240"
     showgrid="false"
     inkscape:zoom="1.4208948"
     inkscape:cx="441.18004"
     inkscape:cy="1402.4843"
     inkscape:window-x="1063"
     inkscape:window-y="1"
     inkscape:window-maximized="0"
     inkscape:current-layer="svg2" /><defs
     id="defs4"><style
       type="text/css"
       id="style6"><![CDATA[
       svg {
                position: absolute;
            }
    .str16 {stroke:red;stroke-width:59.27;stroke-linecap:round;stroke-linejoin:round}
    .str17 {stroke:yellow;stroke-width:59.27;stroke-linecap:round;stroke-linejoin:round}
    .str20 {stroke:#DDA56E;stroke-width:21.17;stroke-linecap:round;stroke-linejoin:round}
    .str18 {stroke:red;stroke-width:21.17;stroke-linecap:round;stroke-linejoin:round}
    .str21 {stroke:yellow;stroke-width:21.17;stroke-linecap:round;stroke-linejoin:round}
    .str15 {stroke:black;stroke-width:8.47;stroke-linecap:round;stroke-linejoin:round}
    .str0 {stroke:black;stroke-width:29.63;stroke-linecap:round;stroke-linejoin:round}
    .str1 {stroke:black;stroke-width:16.93;stroke-linecap:round;stroke-linejoin:round}
    .str10 {stroke:gray;stroke-width:16.93;stroke-linecap:round;stroke-linejoin:round}
    .str4 {stroke:black;stroke-width:4.23;stroke-linecap:round;stroke-linejoin:round}
    .str14 {stroke:#0037DD;stroke-width:4.23;stroke-linecap:round;stroke-linejoin:round}
    .str2 {stroke:#006EDD;stroke-width:4.23;stroke-linecap:round;stroke-linejoin:round}
    .str5 {stroke:#00B85C;stroke-width:4.23;stroke-linecap:round;stroke-linejoin:round}
    .str3 {stroke:#00DD00;stroke-width:4.23;stroke-linecap:round;stroke-linejoin:round}
    .str9 {stroke:lime;stroke-width:4.23;stroke-linecap:round;stroke-linejoin:round}
    .str12 {stroke:gray;stroke-width:4.23;stroke-linecap:round;stroke-linejoin:round}
    .str13 {stroke:#989898;stroke-width:4.23;stroke-linecap:round;stroke-linejoin:round}
    .str11 {stroke:#BABABA;stroke-width:4.23;stroke-linecap:round;stroke-linejoin:round}
    .str7 {stroke:red;stroke-width:4.23;stroke-linecap:round;stroke-linejoin:round}
    .str8 {stroke:#FF7F00;stroke-width:4.23;stroke-linecap:round;stroke-linejoin:round}
    .str6 {stroke:yellow;stroke-width:4.23;stroke-linecap:round;stroke-linejoin:round}
    .str23 {stroke:#00BFFF;stroke-width:25.4;stroke-linecap:round;stroke-linejoin:round}
    .str22 {stroke:#37DD00;stroke-width:25.4;stroke-linecap:round;stroke-linejoin:round}
    .str19 {stroke:black;stroke-width:12.7;stroke-linecap:round;stroke-linejoin:round}
    .fil0 {fill:none}
    .fil1 {fill:black}
    .fil13 {fill:#0037DD}
    .fil2 {fill:#006EDD}
    .fil3 {fill:#00B85C}
    .fil4 {fill:#00DD00}
    .fil9 {fill:lime}
    .fil7 {fill:gray}
    .fil12 {fill:#989898}
    .fil11 {fill:#B85C00}
    .fil10 {fill:#BABABA}
    .fil14 {fill:#FCFCFC}
    .fil6 {fill:red}
    .fil8 {fill:#FF7F00}
    .fil5 {fill:yellow}
   ]]></style></defs><g
     id="Слой_x0020_1"><g
       id="g58512"><polygon
         class="fil9"
         points="13022,39812 13085,39812 13085,39812 "
         id="polygon18150" /><polygon
         class="fil9"
         points="13022,39812 12967,39825 13140,39825 "
         id="polygon18152" /><polygon
         class="fil9"
         points="13022,39812 13085,39812 13140,39825 "
         id="polygon18154" /><polygon
         class="fil9"
         points="12967,39825 12912,39855 13195,39855 "
         id="polygon18156" /><polygon
         class="fil9"
         points="12967,39825 13140,39825 13195,39855 "
         id="polygon18158" /><polygon
         class="fil9"
         points="12912,39855 12869,39897 13237,39897 "
         id="polygon18160" /><polygon
         class="fil9"
         points="12912,39855 13195,39855 13237,39897 "
         id="polygon18162" /><polygon
         class="fil9"
         points="12869,39897 13237,39897 13237,39897 "
         id="polygon18164" /><polygon
         class="fil0 str1"
         points="12869,39897 13237,39897 13195,39855 13140,39825 13085,39812 13022,39812 12967,39825 12912,39855 "
         id="polygon18166" /><path
         class="fil0 str1"
         d="M13051 39957l0 88m-114 -131l-68 55m119 -30l-38 81m-102 -34l-76 64m165 -5l-43 85m157 -59l0 97"
         id="path18168" /><polygon
         class="fil1"
         points="12941,39914 12937,39914 12869,39974 "
         id="polygon18170" /><polygon
         class="fil1"
         points="12937,39914 12869,39974 12869,39969 "
         id="polygon18172" /><polygon
         class="fil1"
         points="12848,39991 12848,39986 12776,40050 "
         id="polygon18174" /><polygon
         class="fil1"
         points="12848,39986 12776,40050 12772,40045 "
         id="polygon18176" /><polygon
         class="fil1"
         points="12992,39939 12988,39939 12950,40020 "
         id="polygon18178" /><polygon
         class="fil1"
         points="12988,39939 12950,40020 12945,40020 "
         id="polygon18180" /><polygon
         class="fil1"
         points="12937,40045 12933,40041 12894,40130 "
         id="polygon18182" /><polygon
         class="fil1"
         points="12933,40041 12894,40130 12890,40130 "
         id="polygon18184" /><polygon
         class="fil1"
         points="13055,39957 13051,39957 13055,40045 "
         id="polygon18186" /><polygon
         class="fil1"
         points="13051,39957 13055,40045 13051,40045 "
         id="polygon18188" /><polygon
         class="fil1"
         points="13055,40071 13051,40071 13055,40168 "
         id="polygon18190" /><polygon
         class="fil1"
         points="13051,40071 13055,40168 13051,40168 "
         id="polygon18192" /><path
         class="fil0 str1"
         d="M13165 39914l68 55m-114 -30l38 81m97 -34l77 64m-161 -5l42 85"
         id="path18194" /><polygon
         class="fil1"
         points="13165,39914 13161,39914 13237,39969 "
         id="polygon18196" /><polygon
         class="fil1"
         points="13161,39914 13237,39969 13233,39974 "
         id="polygon18198" /><polygon
         class="fil1"
         points="13259,39986 13254,39991 13331,40045 "
         id="polygon18200" /><polygon
         class="fil1"
         points="13254,39991 13331,40045 13326,40050 "
         id="polygon18202" /><polygon
         class="fil1"
         points="13119,39939 13115,39939 13161,40020 "
         id="polygon18204" /><polygon
         class="fil1"
         points="13115,39939 13161,40020 13157,40020 "
         id="polygon18206" /><polygon
         class="fil1"
         points="13174,40041 13170,40045 13216,40130 "
         id="polygon18208" /><polygon
         class="fil1"
         points="13170,40045 13216,40130 13212,40130 "
         id="polygon18210" /><polygon
         class="fil0 str1"
         points="12657,40333 13449,40333 13449,39533 12657,39533 "
         id="polygon18212" /><polygon
         class="fil1"
         points="13030,39639 13017,39639 13022,39766 13030,39750 13030,39719 "
         id="polygon18214" /><polygon
         class="fil1"
         points="13089,39639 13072,39639 13038,39724 13038,39728 13034,39732 13034,39741 13030,39750 13022,39766 13034,39766 13072,39669 13072,39664 13077,39660 13077,39652 "
         id="polygon18216" /><polygon
         class="fil1"
         points="13089,39639 13077,39652 13077,39660 13081,39664 13081,39669 13085,39766 13094,39750 13094,39703 "
         id="polygon18218" /><polygon
         class="fil1"
         points="13149,39639 13132,39639 13102,39719 13102,39728 13098,39732 13098,39736 13094,39741 13094,39750 13085,39766 13098,39766 "
         id="polygon18220" /></g><metadata
       id="CorelCorpID_0Corel-Layer" /></g></svg>