<?xml version="1.0" encoding="UTF-8" standalone="no"?>
<!-- Creator: CorelDRAW X8 -->

<svg
   xmlns:dc="http://purl.org/dc/elements/1.1/"
   xmlns:cc="http://creativecommons.org/ns#"
   xmlns:rdf="http://www.w3.org/1999/02/22-rdf-syntax-ns#"
   xmlns:svg="http://www.w3.org/2000/svg"
   xmlns="http://www.w3.org/2000/svg"
   xmlns:sodipodi="http://sodipodi.sourceforge.net/DTD/sodipodi-0.dtd"
   xmlns:inkscape="http://www.inkscape.org/namespaces/inkscape"
   xml:space="preserve"
   width="254.5mm"
   height="750mm"
   version="1.1"
   style="shape-rendering:geometricPrecision; text-rendering:geometricPrecision; image-rendering:optimizeQuality; fill-rule:evenodd; clip-rule:evenodd"
   viewBox="0 0 25450 75000"
   id="svg2"
   inkscape:version="0.91 r13725"
   sodipodi:docname="036.svg"><metadata
     id="metadata51242"><rdf:RDF><cc:Work
         rdf:about=""><dc:format>image/svg+xml</dc:format><dc:type
           rdf:resource="http://purl.org/dc/dcmitype/StillImage" /><dc:title></dc:title></cc:Work></rdf:RDF></metadata><sodipodi:namedview
     pagecolor="#ffffff"
     bordercolor="#666666"
     borderopacity="1"
     objecttolerance="10"
     gridtolerance="10"
     guidetolerance="10"
     inkscape:pageopacity="0"
     inkscape:pageshadow="2"
     inkscape:window-width="843"
     inkscape:window-height="999"
     id="namedview51240"
     showgrid="false"
     inkscape:zoom="1.4208948"
     inkscape:cx="441.18004"
     inkscape:cy="1402.4843"
     inkscape:window-x="1063"
     inkscape:window-y="1"
     inkscape:window-maximized="0"
     inkscape:current-layer="svg2" /><defs
     id="defs4"><style
       type="text/css"
       id="style6"><![CDATA[
       svg {
                position: absolute;
            }
    .str16 {stroke:red;stroke-width:59.27;stroke-linecap:round;stroke-linejoin:round}
    .str17 {stroke:yellow;stroke-width:59.27;stroke-linecap:round;stroke-linejoin:round}
    .str20 {stroke:#DDA56E;stroke-width:21.17;stroke-linecap:round;stroke-linejoin:round}
    .str18 {stroke:red;stroke-width:21.17;stroke-linecap:round;stroke-linejoin:round}
    .str21 {stroke:yellow;stroke-width:21.17;stroke-linecap:round;stroke-linejoin:round}
    .str15 {stroke:black;stroke-width:8.47;stroke-linecap:round;stroke-linejoin:round}
    .str0 {stroke:black;stroke-width:29.63;stroke-linecap:round;stroke-linejoin:round}
    .str1 {stroke:black;stroke-width:16.93;stroke-linecap:round;stroke-linejoin:round}
    .str10 {stroke:gray;stroke-width:16.93;stroke-linecap:round;stroke-linejoin:round}
    .str4 {stroke:black;stroke-width:4.23;stroke-linecap:round;stroke-linejoin:round}
    .str14 {stroke:#0037DD;stroke-width:4.23;stroke-linecap:round;stroke-linejoin:round}
    .str2 {stroke:#006EDD;stroke-width:4.23;stroke-linecap:round;stroke-linejoin:round}
    .str5 {stroke:#00B85C;stroke-width:4.23;stroke-linecap:round;stroke-linejoin:round}
    .str3 {stroke:#00DD00;stroke-width:4.23;stroke-linecap:round;stroke-linejoin:round}
    .str9 {stroke:lime;stroke-width:4.23;stroke-linecap:round;stroke-linejoin:round}
    .str12 {stroke:gray;stroke-width:4.23;stroke-linecap:round;stroke-linejoin:round}
    .str13 {stroke:#989898;stroke-width:4.23;stroke-linecap:round;stroke-linejoin:round}
    .str11 {stroke:#BABABA;stroke-width:4.23;stroke-linecap:round;stroke-linejoin:round}
    .str7 {stroke:red;stroke-width:4.23;stroke-linecap:round;stroke-linejoin:round}
    .str8 {stroke:#FF7F00;stroke-width:4.23;stroke-linecap:round;stroke-linejoin:round}
    .str6 {stroke:yellow;stroke-width:4.23;stroke-linecap:round;stroke-linejoin:round}
    .str23 {stroke:#00BFFF;stroke-width:25.4;stroke-linecap:round;stroke-linejoin:round}
    .str22 {stroke:#37DD00;stroke-width:25.4;stroke-linecap:round;stroke-linejoin:round}
    .str19 {stroke:black;stroke-width:12.7;stroke-linecap:round;stroke-linejoin:round}
    .fil0 {fill:none}
    .fil1 {fill:black}
    .fil13 {fill:#0037DD}
    .fil2 {fill:#006EDD}
    .fil3 {fill:#00B85C}
    .fil4 {fill:#00DD00}
    .fil9 {fill:lime}
    .fil7 {fill:gray}
    .fil12 {fill:#989898}
    .fil11 {fill:#B85C00}
    .fil10 {fill:#BABABA}
    .fil14 {fill:#FCFCFC}
    .fil6 {fill:red}
    .fil8 {fill:#FF7F00}
    .fil5 {fill:yellow}
   ]]></style></defs><g
     id="Слой_x0020_1"><g
       id="g58550"><polygon
         class="fil1"
         points="13132,41011 13051,41011 13043,41066 13085,41066 13077,41104 13077,41108 13072,41112 13064,41116 13060,41121 13055,41125 13051,41125 13043,41129 13038,41129 13034,41133 12954,41133 12958,41138 12958,41146 12962,41150 12967,41155 12971,41163 12975,41167 12975,41167 12979,41171 12983,41176 12988,41176 12992,41180 12996,41184 13009,41184 13017,41188 13022,41188 13026,41188 13030,41184 13047,41184 13055,41180 13060,41180 13064,41176 13072,41171 13077,41167 13081,41167 13089,41163 13094,41159 13098,41150 13102,41146 13106,41142 13110,41138 "
         id="polygon18222" /><polygon
         class="fil1"
         points="12996,40913 12992,40917 12988,40926 12983,40934 12979,40939 12975,40943 12975,40951 12971,40960 12967,40968 12967,40977 12962,40985 12958,40994 12958,41002 12954,41011 12954,41032 12950,41040 12950,41112 12954,41116 12954,41133 13030,41133 13026,41133 13022,41129 13009,41129 13005,41125 13005,41121 13000,41116 12996,41112 12992,41104 12992,41091 12988,41083 12988,41057 12992,41049 12992,41019 12996,41011 12996,41002 13000,40989 13005,40981 13005,40972 13009,40968 13013,40960 13013,40951 13017,40947 13022,40939 13026,40939 13030,40930 13034,40926 13038,40922 13047,40917 13051,40917 13055,40913 13068,40913 "
         id="polygon18224" /><polygon
         class="fil1"
         points="13077,40858 13064,40858 13060,40862 13047,40862 13043,40867 13038,40867 13034,40871 13030,40875 13026,40879 13017,40884 13013,40888 13009,40892 13005,40901 13000,40905 12996,40913 13077,40913 13081,40917 13085,40917 13089,40922 13094,40926 13094,40930 13098,40934 13098,40939 13102,40947 13102,40964 13140,40951 13140,40909 13136,40901 13136,40896 13132,40888 13127,40884 13127,40884 13123,40879 13123,40875 13119,40871 13115,40867 13110,40867 13106,40862 13094,40862 13089,40858 13085,40858 "
         id="polygon18226" /><polygon
         class="fil0 str1"
         points="12657,41434 13449,41434 13449,40634 12657,40634 "
         id="polygon18228" /><polygon
         class="fil6"
         points="13051,40697 12979,40706 13127,40706 "
         id="polygon18230" /><polygon
         class="fil6"
         points="12979,40706 12907,40731 13199,40731 "
         id="polygon18232" /><polygon
         class="fil6"
         points="12979,40706 13127,40706 13199,40731 "
         id="polygon18234" /><polygon
         class="fil6"
         points="12907,40731 12873,40752 13233,40752 "
         id="polygon18236" /><polygon
         class="fil6"
         points="12907,40731 13199,40731 13233,40752 "
         id="polygon18238" /><polygon
         class="fil6"
         points="12873,40752 12865,40757 12992,40757 "
         id="polygon18240" /><polygon
         class="fil6"
         points="12873,40752 13051,40752 12992,40757 "
         id="polygon18242" /><polygon
         class="fil6"
         points="13051,40752 13115,40757 13242,40757 "
         id="polygon18244" /><polygon
         class="fil6"
         points="13051,40752 13233,40752 13242,40757 "
         id="polygon18246" /><polygon
         class="fil0 str7"
         points="12865,40757 12992,40757 "
         id="polygon18248" /><polygon
         class="fil0 str7"
         points="13115,40757 13242,40757 "
         id="polygon18250" /><polygon
         class="fil6"
         points="12865,40757 12844,40769 12954,40769 "
         id="polygon18252" /><polygon
         class="fil6"
         points="12865,40757 12992,40757 12954,40769 "
         id="polygon18254" /><polygon
         class="fil6"
         points="13115,40757 13149,40769 13263,40769 "
         id="polygon18256" /><polygon
         class="fil6"
         points="13115,40757 13242,40757 13263,40769 "
         id="polygon18258" /><polygon
         class="fil6"
         points="12844,40769 12835,40778 12928,40778 "
         id="polygon18260" /><polygon
         class="fil6"
         points="12844,40769 12954,40769 12928,40778 "
         id="polygon18262" /><polygon
         class="fil6"
         points="13149,40769 13174,40778 13271,40778 "
         id="polygon18264" /><polygon
         class="fil6"
         points="13149,40769 13263,40769 13271,40778 "
         id="polygon18266" /><polygon
         class="fil0 str7"
         points="12835,40778 12928,40778 "
         id="polygon18268" /><polygon
         class="fil0 str7"
         points="13174,40778 13271,40778 "
         id="polygon18270" /><polygon
         class="fil6"
         points="12835,40778 12801,40812 12878,40812 "
         id="polygon18272" /><polygon
         class="fil6"
         points="12835,40778 12928,40778 12878,40812 "
         id="polygon18274" /><polygon
         class="fil6"
         points="13174,40778 13229,40812 13305,40812 "
         id="polygon18276" /><polygon
         class="fil6"
         points="13174,40778 13271,40778 13305,40812 "
         id="polygon18278" /><polygon
         class="fil0 str7"
         points="12801,40812 12878,40812 "
         id="polygon18280" /><polygon
         class="fil0 str7"
         points="13229,40812 13305,40812 "
         id="polygon18282" /><polygon
         class="fil6"
         points="12801,40812 12789,40824 12865,40824 "
         id="polygon18284" /><polygon
         class="fil6"
         points="12801,40812 12878,40812 12865,40824 "
         id="polygon18286" /><polygon
         class="fil6"
         points="13229,40812 13237,40824 13314,40824 "
         id="polygon18288" /><polygon
         class="fil6"
         points="13229,40812 13305,40812 13314,40824 "
         id="polygon18290" /><polygon
         class="fil6"
         points="12789,40824 12768,40858 12831,40858 "
         id="polygon18292" /><polygon
         class="fil6"
         points="12789,40824 12865,40824 12831,40858 "
         id="polygon18294" /><polygon
         class="fil6"
         points="13237,40824 13271,40858 13335,40858 "
         id="polygon18296" /><polygon
         class="fil6"
         points="13237,40824 13314,40824 13335,40858 "
         id="polygon18298" /><polygon
         class="fil0 str7"
         points="12768,40858 12831,40858 "
         id="polygon18300" /><polygon
         class="fil0 str7"
         points="13271,40858 13335,40858 "
         id="polygon18302" /><polygon
         class="fil6"
         points="12768,40858 12751,40888 12814,40888 "
         id="polygon18304" /><polygon
         class="fil6"
         points="12768,40858 12831,40858 12814,40888 "
         id="polygon18306" /><polygon
         class="fil6"
         points="13271,40858 13292,40888 13356,40888 "
         id="polygon18308" /><polygon
         class="fil6"
         points="13271,40858 13335,40858 13356,40888 "
         id="polygon18310" /><polygon
         class="fil6"
         points="12751,40888 12742,40909 12797,40909 "
         id="polygon18312" /><polygon
         class="fil6"
         points="12751,40888 12814,40888 12797,40909 "
         id="polygon18314" /><polygon
         class="fil6"
         points="13292,40888 13305,40909 13364,40909 "
         id="polygon18316" /><polygon
         class="fil6"
         points="13292,40888 13356,40888 13364,40909 "
         id="polygon18318" /><polygon
         class="fil0 str7"
         points="12742,40909 12797,40909 "
         id="polygon18320" /><polygon
         class="fil0 str7"
         points="13305,40909 13364,40909 "
         id="polygon18322" /><polygon
         class="fil6"
         points="12742,40909 12725,40960 12780,40960 "
         id="polygon18324" /><polygon
         class="fil6"
         points="12742,40909 12797,40909 12780,40960 "
         id="polygon18326" /><polygon
         class="fil6"
         points="13305,40909 13322,40960 13381,40960 "
         id="polygon18328" /><polygon
         class="fil6"
         points="13305,40909 13364,40909 13381,40960 "
         id="polygon18330" /><polygon
         class="fil6"
         points="12725,40960 12725,40968 12776,40968 "
         id="polygon18332" /><polygon
         class="fil6"
         points="12725,40960 12780,40960 12776,40968 "
         id="polygon18334" /><polygon
         class="fil6"
         points="13322,40960 13326,40968 13381,40968 "
         id="polygon18336" /><polygon
         class="fil6"
         points="13322,40960 13381,40960 13381,40968 "
         id="polygon18338" /><polygon
         class="fil0 str7"
         points="12725,40968 12776,40968 "
         id="polygon18340" /><polygon
         class="fil0 str7"
         points="13326,40968 13381,40968 "
         id="polygon18342" /><polygon
         class="fil6"
         points="12725,40968 12717,41032 12772,41032 "
         id="polygon18344" /><polygon
         class="fil6"
         points="12725,40968 12776,40968 12772,41032 "
         id="polygon18346" /><polygon
         class="fil6"
         points="13326,40968 13335,41032 13390,41032 "
         id="polygon18348" /><polygon
         class="fil6"
         points="13326,40968 13381,40968 13390,41032 "
         id="polygon18350" /><polygon
         class="fil0 str7"
         points="12717,41032 12772,41032 "
         id="polygon18352" /><polygon
         class="fil0 str7"
         points="13335,41032 13390,41032 "
         id="polygon18354" /><polygon
         class="fil6"
         points="12717,41032 12725,41095 12776,41095 "
         id="polygon18356" /><polygon
         class="fil6"
         points="12717,41032 12772,41032 12776,41095 "
         id="polygon18358" /><polygon
         class="fil6"
         points="13335,41032 13326,41095 13381,41095 "
         id="polygon18360" /><polygon
         class="fil6"
         points="13335,41032 13390,41032 13381,41095 "
         id="polygon18362" /><polygon
         class="fil0 str7"
         points="12725,41095 12776,41095 "
         id="polygon18364" /><polygon
         class="fil0 str7"
         points="13326,41095 13381,41095 "
         id="polygon18366" /><polygon
         class="fil6"
         points="12725,41095 12725,41108 12780,41108 "
         id="polygon18368" /><polygon
         class="fil6"
         points="12725,41095 12776,41095 12780,41108 "
         id="polygon18370" /><polygon
         class="fil6"
         points="13326,41095 13322,41108 13381,41108 "
         id="polygon18372" /><polygon
         class="fil6"
         points="13326,41095 13381,41095 13381,41108 "
         id="polygon18374" /><polygon
         class="fil6"
         points="12725,41108 12742,41155 12797,41155 "
         id="polygon18376" /><polygon
         class="fil6"
         points="12725,41108 12780,41108 12797,41155 "
         id="polygon18378" /><polygon
         class="fil6"
         points="13322,41108 13305,41155 13364,41155 "
         id="polygon18380" /><polygon
         class="fil6"
         points="13322,41108 13381,41108 13364,41155 "
         id="polygon18382" /><polygon
         class="fil0 str7"
         points="12742,41155 12797,41155 "
         id="polygon18384" /><polygon
         class="fil0 str7"
         points="13305,41155 13364,41155 "
         id="polygon18386" /><polygon
         class="fil6"
         points="12742,41155 12751,41180 12814,41180 "
         id="polygon18388" /><polygon
         class="fil6"
         points="12742,41155 12797,41155 12814,41180 "
         id="polygon18390" /><polygon
         class="fil6"
         points="13305,41155 13292,41180 13356,41180 "
         id="polygon18392" /><polygon
         class="fil6"
         points="13305,41155 13364,41155 13356,41180 "
         id="polygon18394" /><polygon
         class="fil6"
         points="12751,41180 12768,41210 12831,41210 "
         id="polygon18396" /><polygon
         class="fil6"
         points="12751,41180 12814,41180 12831,41210 "
         id="polygon18398" /><polygon
         class="fil6"
         points="13292,41180 13271,41210 13335,41210 "
         id="polygon18400" /><polygon
         class="fil6"
         points="13292,41180 13356,41180 13335,41210 "
         id="polygon18402" /><polygon
         class="fil0 str7"
         points="12768,41210 12831,41210 "
         id="polygon18404" /><polygon
         class="fil0 str7"
         points="13271,41210 13335,41210 "
         id="polygon18406" /><polygon
         class="fil6"
         points="12768,41210 12789,41243 12865,41243 "
         id="polygon18408" /><polygon
         class="fil6"
         points="12768,41210 12831,41210 12865,41243 "
         id="polygon18410" /><polygon
         class="fil6"
         points="13271,41210 13237,41243 13314,41243 "
         id="polygon18412" /><polygon
         class="fil6"
         points="13271,41210 13335,41210 13314,41243 "
         id="polygon18414" /><polygon
         class="fil6"
         points="12789,41243 12801,41252 12878,41252 "
         id="polygon18416" /><polygon
         class="fil6"
         points="12789,41243 12865,41243 12878,41252 "
         id="polygon18418" /><polygon
         class="fil6"
         points="13237,41243 13229,41252 13305,41252 "
         id="polygon18420" /><polygon
         class="fil6"
         points="13237,41243 13314,41243 13305,41252 "
         id="polygon18422" /><polygon
         class="fil0 str7"
         points="12801,41252 12878,41252 "
         id="polygon18424" /><polygon
         class="fil0 str7"
         points="13229,41252 13305,41252 "
         id="polygon18426" /><polygon
         class="fil6"
         points="12801,41252 12835,41286 12928,41286 "
         id="polygon18428" /><polygon
         class="fil6"
         points="12801,41252 12878,41252 12928,41286 "
         id="polygon18430" /><polygon
         class="fil6"
         points="13229,41252 13174,41286 13271,41286 "
         id="polygon18432" /><polygon
         class="fil6"
         points="13229,41252 13305,41252 13271,41286 "
         id="polygon18434" /><polygon
         class="fil0 str7"
         points="12835,41286 12928,41286 "
         id="polygon18436" /><polygon
         class="fil0 str7"
         points="13174,41286 13271,41286 "
         id="polygon18438" /><polygon
         class="fil6"
         points="12835,41286 12844,41294 12954,41294 "
         id="polygon18440" /><polygon
         class="fil6"
         points="12835,41286 12928,41286 12954,41294 "
         id="polygon18442" /><polygon
         class="fil6"
         points="13174,41286 13149,41294 13263,41294 "
         id="polygon18444" /><polygon
         class="fil6"
         points="13174,41286 13271,41286 13263,41294 "
         id="polygon18446" /><polygon
         class="fil6"
         points="12844,41294 12865,41307 12992,41307 "
         id="polygon18448" /><polygon
         class="fil6"
         points="12844,41294 12954,41294 12992,41307 "
         id="polygon18450" /><polygon
         class="fil6"
         points="13149,41294 13115,41307 13242,41307 "
         id="polygon18452" /><polygon
         class="fil6"
         points="13149,41294 13263,41294 13242,41307 "
         id="polygon18454" /><polygon
         class="fil0 str7"
         points="12865,41307 12992,41307 "
         id="polygon18456" /><polygon
         class="fil0 str7"
         points="13115,41307 13242,41307 "
         id="polygon18458" /><polygon
         class="fil6"
         points="12865,41307 12873,41315 13051,41315 "
         id="polygon18460" /><polygon
         class="fil6"
         points="12865,41307 12992,41307 13051,41315 "
         id="polygon18462" /><polygon
         class="fil6"
         points="13115,41307 13051,41315 13233,41315 "
         id="polygon18464" /><polygon
         class="fil6"
         points="13115,41307 13242,41307 13233,41315 "
         id="polygon18466" /><polygon
         class="fil6"
         points="12873,41315 12907,41337 13199,41337 "
         id="polygon18468" /><polygon
         class="fil6"
         points="12873,41315 13233,41315 13199,41337 "
         id="polygon18470" /><polygon
         class="fil6"
         points="12907,41337 12979,41358 13127,41358 "
         id="polygon18472" /><polygon
         class="fil6"
         points="12907,41337 13199,41337 13127,41358 "
         id="polygon18474" /><polygon
         class="fil6"
         points="12979,41358 13127,41358 13051,41366 "
         id="polygon18476" /><polygon
         class="fil0 str1"
         points="13390,41032 13381,40960 13356,40888 13314,40824 13263,40769 13199,40731 13127,40706 13051,40697 12979,40706 12907,40731 12844,40769 12789,40824 12751,40888 12725,40960 12717,41032 12725,41108 12751,41180 12789,41243 12844,41294 12907,41337 12979,41358 13051,41366 13127,41358 13199,41337 13263,41294 13314,41243 13356,41180 13381,41108 "
         id="polygon18478" /><polygon
         class="fil0 str1"
         points="13335,41032 13326,40968 13305,40909 13271,40858 13229,40812 13174,40778 13115,40757 13051,40752 12992,40757 12928,40778 12878,40812 12831,40858 12797,40909 12776,40968 12772,41032 12776,41095 12797,41155 12831,41210 12878,41252 12928,41286 12992,41307 13051,41315 13115,41307 13174,41286 13229,41252 13271,41210 13305,41155 13326,41095 "
         id="polygon18480" /></g><metadata
       id="CorelCorpID_0Corel-Layer" /></g></svg>