<?xml version="1.0" encoding="UTF-8" standalone="no"?>
<!-- Creator: CorelDRAW X8 -->

<svg
   xmlns:dc="http://purl.org/dc/elements/1.1/"
   xmlns:cc="http://creativecommons.org/ns#"
   xmlns:rdf="http://www.w3.org/1999/02/22-rdf-syntax-ns#"
   xmlns:svg="http://www.w3.org/2000/svg"
   xmlns="http://www.w3.org/2000/svg"
   xmlns:sodipodi="http://sodipodi.sourceforge.net/DTD/sodipodi-0.dtd"
   xmlns:inkscape="http://www.inkscape.org/namespaces/inkscape"
   xml:space="preserve"
   width="254.5mm"
   height="750mm"
   version="1.1"
   style="shape-rendering:geometricPrecision; text-rendering:geometricPrecision; image-rendering:optimizeQuality; fill-rule:evenodd; clip-rule:evenodd"
   viewBox="0 0 25450 75000"
   id="svg2"
   inkscape:version="0.91 r13725"
   sodipodi:docname="037.svg"><metadata
     id="metadata51242"><rdf:RDF><cc:Work
         rdf:about=""><dc:format>image/svg+xml</dc:format><dc:type
           rdf:resource="http://purl.org/dc/dcmitype/StillImage" /><dc:title></dc:title></cc:Work></rdf:RDF></metadata><sodipodi:namedview
     pagecolor="#ffffff"
     bordercolor="#666666"
     borderopacity="1"
     objecttolerance="10"
     gridtolerance="10"
     guidetolerance="10"
     inkscape:pageopacity="0"
     inkscape:pageshadow="2"
     inkscape:window-width="843"
     inkscape:window-height="999"
     id="namedview51240"
     showgrid="false"
     inkscape:zoom="1.4208948"
     inkscape:cx="441.18004"
     inkscape:cy="1402.4843"
     inkscape:window-x="1061"
     inkscape:window-y="1"
     inkscape:window-maximized="0"
     inkscape:current-layer="svg2" /><defs
     id="defs4"><style
       type="text/css"
       id="style6"><![CDATA[
       svg {
                position: absolute;
            }
    .str16 {stroke:red;stroke-width:59.27;stroke-linecap:round;stroke-linejoin:round}
    .str17 {stroke:yellow;stroke-width:59.27;stroke-linecap:round;stroke-linejoin:round}
    .str20 {stroke:#DDA56E;stroke-width:21.17;stroke-linecap:round;stroke-linejoin:round}
    .str18 {stroke:red;stroke-width:21.17;stroke-linecap:round;stroke-linejoin:round}
    .str21 {stroke:yellow;stroke-width:21.17;stroke-linecap:round;stroke-linejoin:round}
    .str15 {stroke:black;stroke-width:8.47;stroke-linecap:round;stroke-linejoin:round}
    .str0 {stroke:black;stroke-width:29.63;stroke-linecap:round;stroke-linejoin:round}
    .str1 {stroke:black;stroke-width:16.93;stroke-linecap:round;stroke-linejoin:round}
    .str10 {stroke:gray;stroke-width:16.93;stroke-linecap:round;stroke-linejoin:round}
    .str4 {stroke:black;stroke-width:4.23;stroke-linecap:round;stroke-linejoin:round}
    .str14 {stroke:#0037DD;stroke-width:4.23;stroke-linecap:round;stroke-linejoin:round}
    .str2 {stroke:#006EDD;stroke-width:4.23;stroke-linecap:round;stroke-linejoin:round}
    .str5 {stroke:#00B85C;stroke-width:4.23;stroke-linecap:round;stroke-linejoin:round}
    .str3 {stroke:#00DD00;stroke-width:4.23;stroke-linecap:round;stroke-linejoin:round}
    .str9 {stroke:lime;stroke-width:4.23;stroke-linecap:round;stroke-linejoin:round}
    .str12 {stroke:gray;stroke-width:4.23;stroke-linecap:round;stroke-linejoin:round}
    .str13 {stroke:#989898;stroke-width:4.23;stroke-linecap:round;stroke-linejoin:round}
    .str11 {stroke:#BABABA;stroke-width:4.23;stroke-linecap:round;stroke-linejoin:round}
    .str7 {stroke:red;stroke-width:4.23;stroke-linecap:round;stroke-linejoin:round}
    .str8 {stroke:#FF7F00;stroke-width:4.23;stroke-linecap:round;stroke-linejoin:round}
    .str6 {stroke:yellow;stroke-width:4.23;stroke-linecap:round;stroke-linejoin:round}
    .str23 {stroke:#00BFFF;stroke-width:25.4;stroke-linecap:round;stroke-linejoin:round}
    .str22 {stroke:#37DD00;stroke-width:25.4;stroke-linecap:round;stroke-linejoin:round}
    .str19 {stroke:black;stroke-width:12.7;stroke-linecap:round;stroke-linejoin:round}
    .fil0 {fill:none}
    .fil1 {fill:black}
    .fil13 {fill:#0037DD}
    .fil2 {fill:#006EDD}
    .fil3 {fill:#00B85C}
    .fil4 {fill:#00DD00}
    .fil9 {fill:lime}
    .fil7 {fill:gray}
    .fil12 {fill:#989898}
    .fil11 {fill:#B85C00}
    .fil10 {fill:#BABABA}
    .fil14 {fill:#FCFCFC}
    .fil6 {fill:red}
    .fil8 {fill:#FF7F00}
    .fil5 {fill:yellow}
   ]]></style></defs><g
     id="Слой_x0020_1"><g
       id="g58682"><polygon
         class="fil6"
         points="13051,41696 12979,41705 13127,41705 "
         id="polygon18482" /><polygon
         class="fil6"
         points="12979,41705 12907,41730 13199,41730 "
         id="polygon18484" /><polygon
         class="fil6"
         points="12979,41705 13127,41705 13199,41730 "
         id="polygon18486" /><polygon
         class="fil6"
         points="12907,41730 12873,41751 13233,41751 "
         id="polygon18488" /><polygon
         class="fil6"
         points="12907,41730 13199,41730 13233,41751 "
         id="polygon18490" /><polygon
         class="fil6"
         points="12873,41751 12865,41760 12992,41760 "
         id="polygon18492" /><polygon
         class="fil6"
         points="12873,41751 13051,41751 12992,41760 "
         id="polygon18494" /><polygon
         class="fil6"
         points="13051,41751 13115,41760 13242,41760 "
         id="polygon18496" /><polygon
         class="fil6"
         points="13051,41751 13233,41751 13242,41760 "
         id="polygon18498" /><polygon
         class="fil0 str7"
         points="12865,41760 12992,41760 "
         id="polygon18500" /><polygon
         class="fil0 str7"
         points="13115,41760 13242,41760 "
         id="polygon18502" /><polygon
         class="fil6"
         points="12865,41760 12844,41768 12954,41768 "
         id="polygon18504" /><polygon
         class="fil6"
         points="12865,41760 12992,41760 12954,41768 "
         id="polygon18506" /><polygon
         class="fil6"
         points="13115,41760 13149,41768 13263,41768 "
         id="polygon18508" /><polygon
         class="fil6"
         points="13115,41760 13242,41760 13263,41768 "
         id="polygon18510" /><polygon
         class="fil6"
         points="12844,41768 12835,41777 12928,41777 "
         id="polygon18512" /><polygon
         class="fil6"
         points="12844,41768 12954,41768 12928,41777 "
         id="polygon18514" /><polygon
         class="fil6"
         points="13149,41768 13174,41777 13271,41777 "
         id="polygon18516" /><polygon
         class="fil6"
         points="13149,41768 13263,41768 13271,41777 "
         id="polygon18518" /><polygon
         class="fil0 str7"
         points="12835,41777 12928,41777 "
         id="polygon18520" /><polygon
         class="fil0 str7"
         points="13174,41777 13271,41777 "
         id="polygon18522" /><polygon
         class="fil6"
         points="12835,41777 12801,41811 12878,41811 "
         id="polygon18524" /><polygon
         class="fil6"
         points="12835,41777 12928,41777 12878,41811 "
         id="polygon18526" /><polygon
         class="fil6"
         points="13174,41777 13229,41811 13305,41811 "
         id="polygon18528" /><polygon
         class="fil6"
         points="13174,41777 13271,41777 13305,41811 "
         id="polygon18530" /><polygon
         class="fil0 str7"
         points="12801,41811 12878,41811 "
         id="polygon18532" /><polygon
         class="fil0 str7"
         points="13229,41811 13305,41811 "
         id="polygon18534" /><polygon
         class="fil6"
         points="12801,41811 12789,41823 12865,41823 "
         id="polygon18536" /><polygon
         class="fil6"
         points="12801,41811 12878,41811 12865,41823 "
         id="polygon18538" /><polygon
         class="fil6"
         points="13229,41811 13237,41823 13314,41823 "
         id="polygon18540" /><polygon
         class="fil6"
         points="13229,41811 13305,41811 13314,41823 "
         id="polygon18542" /><polygon
         class="fil6"
         points="12789,41823 12768,41857 12831,41857 "
         id="polygon18544" /><polygon
         class="fil6"
         points="12789,41823 12865,41823 12831,41857 "
         id="polygon18546" /><polygon
         class="fil6"
         points="13237,41823 13271,41857 13335,41857 "
         id="polygon18548" /><polygon
         class="fil6"
         points="13237,41823 13314,41823 13335,41857 "
         id="polygon18550" /><polygon
         class="fil0 str7"
         points="12768,41857 12831,41857 "
         id="polygon18552" /><polygon
         class="fil0 str7"
         points="13271,41857 13335,41857 "
         id="polygon18554" /><polygon
         class="fil6"
         points="12768,41857 12751,41887 12814,41887 "
         id="polygon18556" /><polygon
         class="fil6"
         points="12768,41857 12831,41857 12814,41887 "
         id="polygon18558" /><polygon
         class="fil6"
         points="13271,41857 13292,41887 13356,41887 "
         id="polygon18560" /><polygon
         class="fil6"
         points="13271,41857 13335,41857 13356,41887 "
         id="polygon18562" /><polygon
         class="fil6"
         points="12751,41887 12742,41912 12797,41912 "
         id="polygon18564" /><polygon
         class="fil6"
         points="12751,41887 12814,41887 12797,41912 "
         id="polygon18566" /><polygon
         class="fil6"
         points="13292,41887 13305,41912 13364,41912 "
         id="polygon18568" /><polygon
         class="fil6"
         points="13292,41887 13356,41887 13364,41912 "
         id="polygon18570" /><polygon
         class="fil0 str7"
         points="12742,41912 12797,41912 "
         id="polygon18572" /><polygon
         class="fil0 str7"
         points="13305,41912 13364,41912 "
         id="polygon18574" /><polygon
         class="fil6"
         points="12742,41912 12725,41959 12780,41959 "
         id="polygon18576" /><polygon
         class="fil6"
         points="12742,41912 12797,41912 12780,41959 "
         id="polygon18578" /><polygon
         class="fil6"
         points="13305,41912 13322,41959 13381,41959 "
         id="polygon18580" /><polygon
         class="fil6"
         points="13305,41912 13364,41912 13381,41959 "
         id="polygon18582" /><polygon
         class="fil6"
         points="12725,41959 12725,41972 12776,41972 "
         id="polygon18584" /><polygon
         class="fil6"
         points="12725,41959 12780,41959 12776,41972 "
         id="polygon18586" /><polygon
         class="fil6"
         points="13322,41959 13326,41972 13381,41972 "
         id="polygon18588" /><polygon
         class="fil6"
         points="13322,41959 13381,41959 13381,41972 "
         id="polygon18590" /><polygon
         class="fil0 str7"
         points="12725,41972 12776,41972 "
         id="polygon18592" /><polygon
         class="fil0 str7"
         points="13326,41972 13381,41972 "
         id="polygon18594" /><polygon
         class="fil6"
         points="12725,41972 12717,42031 12772,42031 "
         id="polygon18596" /><polygon
         class="fil6"
         points="12725,41972 12776,41972 12772,42031 "
         id="polygon18598" /><polygon
         class="fil6"
         points="13326,41972 13335,42031 13390,42031 "
         id="polygon18600" /><polygon
         class="fil6"
         points="13326,41972 13381,41972 13390,42031 "
         id="polygon18602" /><polygon
         class="fil0 str7"
         points="12717,42031 12772,42031 "
         id="polygon18604" /><polygon
         class="fil0 str7"
         points="13335,42031 13390,42031 "
         id="polygon18606" /><polygon
         class="fil6"
         points="12717,42031 12725,42094 12776,42094 "
         id="polygon18608" /><polygon
         class="fil6"
         points="12717,42031 12772,42031 12776,42094 "
         id="polygon18610" /><polygon
         class="fil6"
         points="13335,42031 13326,42094 13381,42094 "
         id="polygon18612" /><polygon
         class="fil6"
         points="13335,42031 13390,42031 13381,42094 "
         id="polygon18614" /><polygon
         class="fil0 str7"
         points="12725,42094 12776,42094 "
         id="polygon18616" /><polygon
         class="fil0 str7"
         points="13326,42094 13381,42094 "
         id="polygon18618" /><polygon
         class="fil6"
         points="12725,42094 12725,42107 12780,42107 "
         id="polygon18620" /><polygon
         class="fil6"
         points="12725,42094 12776,42094 12780,42107 "
         id="polygon18622" /><polygon
         class="fil6"
         points="13326,42094 13322,42107 13381,42107 "
         id="polygon18624" /><polygon
         class="fil6"
         points="13326,42094 13381,42094 13381,42107 "
         id="polygon18626" /><polygon
         class="fil6"
         points="12725,42107 12742,42154 12797,42154 "
         id="polygon18628" /><polygon
         class="fil6"
         points="12725,42107 12780,42107 12797,42154 "
         id="polygon18630" /><polygon
         class="fil6"
         points="13322,42107 13305,42154 13364,42154 "
         id="polygon18632" /><polygon
         class="fil6"
         points="13322,42107 13381,42107 13364,42154 "
         id="polygon18634" /><polygon
         class="fil0 str7"
         points="12742,42154 12797,42154 "
         id="polygon18636" /><polygon
         class="fil0 str7"
         points="13305,42154 13364,42154 "
         id="polygon18638" /><polygon
         class="fil6"
         points="12742,42154 12751,42179 12814,42179 "
         id="polygon18640" /><polygon
         class="fil6"
         points="12742,42154 12797,42154 12814,42179 "
         id="polygon18642" /><polygon
         class="fil6"
         points="13305,42154 13292,42179 13356,42179 "
         id="polygon18644" /><polygon
         class="fil6"
         points="13305,42154 13364,42154 13356,42179 "
         id="polygon18646" /><polygon
         class="fil6"
         points="12751,42179 12768,42209 12831,42209 "
         id="polygon18648" /><polygon
         class="fil6"
         points="12751,42179 12814,42179 12831,42209 "
         id="polygon18650" /><polygon
         class="fil6"
         points="13292,42179 13271,42209 13335,42209 "
         id="polygon18652" /><polygon
         class="fil6"
         points="13292,42179 13356,42179 13335,42209 "
         id="polygon18654" /><polygon
         class="fil0 str7"
         points="12768,42209 12831,42209 "
         id="polygon18656" /><polygon
         class="fil0 str7"
         points="13271,42209 13335,42209 "
         id="polygon18658" /><polygon
         class="fil6"
         points="12768,42209 12789,42242 12865,42242 "
         id="polygon18660" /><polygon
         class="fil6"
         points="12768,42209 12831,42209 12865,42242 "
         id="polygon18662" /><polygon
         class="fil6"
         points="13271,42209 13237,42242 13314,42242 "
         id="polygon18664" /><polygon
         class="fil6"
         points="13271,42209 13335,42209 13314,42242 "
         id="polygon18666" /><polygon
         class="fil6"
         points="12789,42242 12801,42251 12878,42251 "
         id="polygon18668" /><polygon
         class="fil6"
         points="12789,42242 12865,42242 12878,42251 "
         id="polygon18670" /><polygon
         class="fil6"
         points="13237,42242 13229,42251 13305,42251 "
         id="polygon18672" /><polygon
         class="fil6"
         points="13237,42242 13314,42242 13305,42251 "
         id="polygon18674" /><polygon
         class="fil0 str7"
         points="12801,42251 12878,42251 "
         id="polygon18676" /><polygon
         class="fil0 str7"
         points="13229,42251 13305,42251 "
         id="polygon18678" /><polygon
         class="fil6"
         points="12801,42251 12835,42285 12928,42285 "
         id="polygon18680" /><polygon
         class="fil6"
         points="12801,42251 12878,42251 12928,42285 "
         id="polygon18682" /><polygon
         class="fil6"
         points="13229,42251 13174,42285 13271,42285 "
         id="polygon18684" /><polygon
         class="fil6"
         points="13229,42251 13305,42251 13271,42285 "
         id="polygon18686" /><polygon
         class="fil0 str7"
         points="12835,42285 12928,42285 "
         id="polygon18688" /><polygon
         class="fil0 str7"
         points="13174,42285 13271,42285 "
         id="polygon18690" /><polygon
         class="fil6"
         points="12835,42285 12844,42293 12954,42293 "
         id="polygon18692" /><polygon
         class="fil6"
         points="12835,42285 12928,42285 12954,42293 "
         id="polygon18694" /><polygon
         class="fil6"
         points="13174,42285 13149,42293 13263,42293 "
         id="polygon18696" /><polygon
         class="fil6"
         points="13174,42285 13271,42285 13263,42293 "
         id="polygon18698" /><polygon
         class="fil6"
         points="12844,42293 12865,42306 12992,42306 "
         id="polygon18700" /><polygon
         class="fil6"
         points="12844,42293 12954,42293 12992,42306 "
         id="polygon18702" /><polygon
         class="fil6"
         points="13149,42293 13115,42306 13242,42306 "
         id="polygon18704" /><polygon
         class="fil6"
         points="13149,42293 13263,42293 13242,42306 "
         id="polygon18706" /><polygon
         class="fil0 str7"
         points="12865,42306 12992,42306 "
         id="polygon18708" /><polygon
         class="fil0 str7"
         points="13115,42306 13242,42306 "
         id="polygon18710" /><polygon
         class="fil6"
         points="12865,42306 12873,42314 13051,42314 "
         id="polygon18712" /><polygon
         class="fil6"
         points="12865,42306 12992,42306 13051,42314 "
         id="polygon18714" /><polygon
         class="fil6"
         points="13115,42306 13051,42314 13233,42314 "
         id="polygon18716" /><polygon
         class="fil6"
         points="13115,42306 13242,42306 13233,42314 "
         id="polygon18718" /><polygon
         class="fil6"
         points="12873,42314 12907,42336 13199,42336 "
         id="polygon18720" /><polygon
         class="fil6"
         points="12873,42314 13233,42314 13199,42336 "
         id="polygon18722" /><polygon
         class="fil6"
         points="12907,42336 12979,42361 13127,42361 "
         id="polygon18724" /><polygon
         class="fil6"
         points="12907,42336 13199,42336 13127,42361 "
         id="polygon18726" /><polygon
         class="fil6"
         points="12979,42361 13127,42361 13051,42369 "
         id="polygon18728" /><polygon
         class="fil0 str1"
         points="13390,42031 13381,41959 13356,41887 13314,41823 13263,41768 13199,41730 13127,41705 13051,41696 12979,41705 12907,41730 12844,41768 12789,41823 12751,41887 12725,41959 12717,42031 12725,42107 12751,42179 12789,42242 12844,42293 12907,42336 12979,42361 13051,42369 13127,42361 13199,42336 13263,42293 13314,42242 13356,42179 13381,42107 "
         id="polygon18730" /><polygon
         class="fil0 str1"
         points="13335,42031 13326,41972 13305,41912 13271,41857 13229,41811 13174,41777 13115,41760 13051,41751 12992,41760 12928,41777 12878,41811 12831,41857 12797,41912 12776,41972 12772,42031 12776,42094 12797,42154 12831,42209 12878,42251 12928,42285 12992,42306 13051,42314 13115,42306 13174,42285 13229,42251 13271,42209 13305,42154 13326,42094 "
         id="polygon18732" /><polyline
         class="fil0 str1"
         points="12894,42132 12894,41933 13212,41933 13212,42132 12894,42132 13212,42132 "
         id="polyline18734" /><polyline
         class="fil0 str1"
         points="12894,42132 12894,41933 13212,41933 13212,42132 "
         id="polyline18736" /><polyline
         class="fil0 str1"
         points="12983,41933 12983,41925 12941,41925 12941,41933 "
         id="polyline18738" /><polyline
         class="fil0 str1"
         points="13165,41933 13165,41925 13119,41925 13119,41933 "
         id="polyline18740" /><polyline
         class="fil0 str1"
         points="12907,42132 12894,42132 12894,42116 "
         id="polyline18742" /><polyline
         class="fil0 str1"
         points="13212,42120 13212,42132 13199,42132 "
         id="polyline18744" /><polyline
         class="fil0 str1"
         points="12958,41959 12958,42027 12962,42027 "
         id="polyline18746" /><polyline
         class="fil0 str1"
         points="12958,41959 12962,41959 12962,42027 "
         id="polyline18748" /><polyline
         class="fil0 str1"
         points="12928,41993 12996,41993 12996,41997 "
         id="polyline18750" /><polyline
         class="fil0 str1"
         points="12928,41993 12928,41997 12996,41997 "
         id="polyline18752" /><polyline
         class="fil0 str1"
         points="13119,41993 13187,41993 13187,41997 "
         id="polyline18754" /><polyline
         class="fil0 str1"
         points="13119,41993 13119,41997 13187,41997 "
         id="polyline18756" /><polyline
         class="fil0 str1"
         points="13119,41933 13119,41925 13165,41925 13165,41933 "
         id="polyline18758" /><polyline
         class="fil0 str1"
         points="12983,41933 12983,41925 12941,41925 12941,41933 "
         id="polyline18760" /><polygon
         class="fil0 str1"
         points="12657,42433 13449,42433 13449,41633 12657,41633 "
         id="polygon18762" /></g><metadata
       id="CorelCorpID_0Corel-Layer" /></g></svg>