<?xml version="1.0" encoding="UTF-8" standalone="no"?>
<!-- Creator: CorelDRAW X8 -->

<svg
   xmlns:dc="http://purl.org/dc/elements/1.1/"
   xmlns:cc="http://creativecommons.org/ns#"
   xmlns:rdf="http://www.w3.org/1999/02/22-rdf-syntax-ns#"
   xmlns:svg="http://www.w3.org/2000/svg"
   xmlns="http://www.w3.org/2000/svg"
   xmlns:sodipodi="http://sodipodi.sourceforge.net/DTD/sodipodi-0.dtd"
   xmlns:inkscape="http://www.inkscape.org/namespaces/inkscape"
   xml:space="preserve"
   width="254.5mm"
   height="750mm"
   version="1.1"
   style="shape-rendering:geometricPrecision; text-rendering:geometricPrecision; image-rendering:optimizeQuality; fill-rule:evenodd; clip-rule:evenodd"
   viewBox="0 0 25450 75000"
   id="svg2"
   inkscape:version="0.91 r13725"
   sodipodi:docname="038.svg"><metadata
     id="metadata51242"><rdf:RDF><cc:Work
         rdf:about=""><dc:format>image/svg+xml</dc:format><dc:type
           rdf:resource="http://purl.org/dc/dcmitype/StillImage" /><dc:title></dc:title></cc:Work></rdf:RDF></metadata><sodipodi:namedview
     pagecolor="#ffffff"
     bordercolor="#666666"
     borderopacity="1"
     objecttolerance="10"
     gridtolerance="10"
     guidetolerance="10"
     inkscape:pageopacity="0"
     inkscape:pageshadow="2"
     inkscape:window-width="843"
     inkscape:window-height="999"
     id="namedview51240"
     showgrid="false"
     inkscape:zoom="1.4208948"
     inkscape:cx="441.18004"
     inkscape:cy="1402.4843"
     inkscape:window-x="1061"
     inkscape:window-y="1"
     inkscape:window-maximized="0"
     inkscape:current-layer="svg2" /><defs
     id="defs4"><style
       type="text/css"
       id="style6"><![CDATA[
       svg {
                position: absolute;
            }
    .str16 {stroke:red;stroke-width:59.27;stroke-linecap:round;stroke-linejoin:round}
    .str17 {stroke:yellow;stroke-width:59.27;stroke-linecap:round;stroke-linejoin:round}
    .str20 {stroke:#DDA56E;stroke-width:21.17;stroke-linecap:round;stroke-linejoin:round}
    .str18 {stroke:red;stroke-width:21.17;stroke-linecap:round;stroke-linejoin:round}
    .str21 {stroke:yellow;stroke-width:21.17;stroke-linecap:round;stroke-linejoin:round}
    .str15 {stroke:black;stroke-width:8.47;stroke-linecap:round;stroke-linejoin:round}
    .str0 {stroke:black;stroke-width:29.63;stroke-linecap:round;stroke-linejoin:round}
    .str1 {stroke:black;stroke-width:16.93;stroke-linecap:round;stroke-linejoin:round}
    .str10 {stroke:gray;stroke-width:16.93;stroke-linecap:round;stroke-linejoin:round}
    .str4 {stroke:black;stroke-width:4.23;stroke-linecap:round;stroke-linejoin:round}
    .str14 {stroke:#0037DD;stroke-width:4.23;stroke-linecap:round;stroke-linejoin:round}
    .str2 {stroke:#006EDD;stroke-width:4.23;stroke-linecap:round;stroke-linejoin:round}
    .str5 {stroke:#00B85C;stroke-width:4.23;stroke-linecap:round;stroke-linejoin:round}
    .str3 {stroke:#00DD00;stroke-width:4.23;stroke-linecap:round;stroke-linejoin:round}
    .str9 {stroke:lime;stroke-width:4.23;stroke-linecap:round;stroke-linejoin:round}
    .str12 {stroke:gray;stroke-width:4.23;stroke-linecap:round;stroke-linejoin:round}
    .str13 {stroke:#989898;stroke-width:4.23;stroke-linecap:round;stroke-linejoin:round}
    .str11 {stroke:#BABABA;stroke-width:4.23;stroke-linecap:round;stroke-linejoin:round}
    .str7 {stroke:red;stroke-width:4.23;stroke-linecap:round;stroke-linejoin:round}
    .str8 {stroke:#FF7F00;stroke-width:4.23;stroke-linecap:round;stroke-linejoin:round}
    .str6 {stroke:yellow;stroke-width:4.23;stroke-linecap:round;stroke-linejoin:round}
    .str23 {stroke:#00BFFF;stroke-width:25.4;stroke-linecap:round;stroke-linejoin:round}
    .str22 {stroke:#37DD00;stroke-width:25.4;stroke-linecap:round;stroke-linejoin:round}
    .str19 {stroke:black;stroke-width:12.7;stroke-linecap:round;stroke-linejoin:round}
    .fil0 {fill:none}
    .fil1 {fill:black}
    .fil13 {fill:#0037DD}
    .fil2 {fill:#006EDD}
    .fil3 {fill:#00B85C}
    .fil4 {fill:#00DD00}
    .fil9 {fill:lime}
    .fil7 {fill:gray}
    .fil12 {fill:#989898}
    .fil11 {fill:#B85C00}
    .fil10 {fill:#BABABA}
    .fil14 {fill:#FCFCFC}
    .fil6 {fill:red}
    .fil8 {fill:#FF7F00}
    .fil5 {fill:yellow}
   ]]></style></defs><g
     id="Слой_x0020_1"><g
       id="g58825"><polygon
         class="fil6"
         points="12746,42873 13343,42873 13343,42873 "
         id="polygon18764" /><polygon
         class="fil6"
         points="12746,42873 12746,42924 13343,42924 "
         id="polygon18766" /><polygon
         class="fil6"
         points="12746,42873 13343,42873 13343,42924 "
         id="polygon18768" /><polyline
         class="fil0 str7"
         points="12797,42924 12746,42924 13343,42924 13301,42924 "
         id="polyline18770" /><polygon
         class="fil6"
         points="12746,42924 12746,43131 12797,43131 "
         id="polygon18772" /><polygon
         class="fil6"
         points="12746,42924 12797,42924 12797,43131 "
         id="polygon18774" /><polygon
         class="fil6"
         points="13301,42924 13301,43131 13343,43131 "
         id="polygon18776" /><polygon
         class="fil6"
         points="13301,42924 13343,42924 13343,43131 "
         id="polygon18778" /><polygon
         class="fil6"
         points="12797,43131 13301,43131 13301,43131 "
         id="polygon18780" /><polygon
         class="fil6"
         points="12746,43131 12746,43178 13343,43178 "
         id="polygon18782" /><polygon
         class="fil6"
         points="12746,43131 13343,43131 13343,43178 "
         id="polygon18784" /><polygon
         class="fil6"
         points="12746,43178 13343,43178 13343,43178 "
         id="polygon18786" /><polygon
         class="fil0 str1"
         points="12657,43432 13449,43432 13449,42632 12657,42632 "
         id="polygon18788" /><polygon
         class="fil0 str1"
         points="13127,42928 12992,43026 13081,43038 13009,43072 12996,43051 12941,43110 13026,43098 13013,43076 13110,43030 13030,43021 13170,42954 "
         id="polygon18790" /><path
         class="fil0 str1"
         d="M12886 42924l0 207m335 -207l0 207"
         id="path18792" /><polygon
         class="fil1"
         points="13127,42928 13098,42954 13170,42954 "
         id="polygon18794" /><polygon
         class="fil1"
         points="13098,42954 12992,43021 13030,43021 "
         id="polygon18796" /><polygon
         class="fil1"
         points="13098,42954 13170,42954 13030,43021 "
         id="polygon18798" /><polygon
         class="fil0 str4"
         points="12992,43021 13043,43026 "
         id="polygon18800" /><polygon
         class="fil1"
         points="12992,43026 13043,43030 13110,43030 "
         id="polygon18802" /><polygon
         class="fil1"
         points="12992,43026 13043,43026 13110,43030 "
         id="polygon18804" /><line
         class="fil0 str4"
         x1="13043"
         y1="43030"
         x2="13098"
         y2="43038"
         id="line18806" /><polygon
         class="fil1"
         points="13043,43030 13110,43030 13098,43038 "
         id="polygon18808" /><polygon
         class="fil1"
         points="13081,43038 13051,43051 13068,43051 "
         id="polygon18810" /><polygon
         class="fil1"
         points="13081,43038 13098,43038 13068,43051 "
         id="polygon18812" /><polygon
         class="fil1"
         points="12996,43051 12979,43072 13009,43072 "
         id="polygon18814" /><polygon
         class="fil1"
         points="13051,43051 13009,43072 13030,43072 "
         id="polygon18816" /><polygon
         class="fil1"
         points="13051,43051 13068,43051 13030,43072 "
         id="polygon18818" /><polygon
         class="fil1"
         points="12979,43072 12971,43076 13013,43076 "
         id="polygon18820" /><polygon
         class="fil1"
         points="12979,43072 13030,43072 13013,43076 "
         id="polygon18822" /><polygon
         class="fil1"
         points="12971,43076 12954,43098 13026,43098 "
         id="polygon18824" /><polygon
         class="fil1"
         points="12971,43076 13013,43076 13026,43098 "
         id="polygon18826" /><polygon
         class="fil1"
         points="12954,43098 13026,43098 12941,43110 "
         id="polygon18828" /></g><metadata
       id="CorelCorpID_0Corel-Layer" /></g></svg>