<?xml version="1.0" encoding="UTF-8" standalone="no"?>
<!-- Creator: CorelDRAW X8 -->

<svg
   xmlns:dc="http://purl.org/dc/elements/1.1/"
   xmlns:cc="http://creativecommons.org/ns#"
   xmlns:rdf="http://www.w3.org/1999/02/22-rdf-syntax-ns#"
   xmlns:svg="http://www.w3.org/2000/svg"
   xmlns="http://www.w3.org/2000/svg"
   xmlns:sodipodi="http://sodipodi.sourceforge.net/DTD/sodipodi-0.dtd"
   xmlns:inkscape="http://www.inkscape.org/namespaces/inkscape"
   xml:space="preserve"
   width="254.5mm"
   height="750mm"
   version="1.1"
   style="shape-rendering:geometricPrecision; text-rendering:geometricPrecision; image-rendering:optimizeQuality; fill-rule:evenodd; clip-rule:evenodd"
   viewBox="0 0 25450 75000"
   id="svg2"
   inkscape:version="0.91 r13725"
   sodipodi:docname="040.svg"><metadata
     id="metadata51242"><rdf:RDF><cc:Work
         rdf:about=""><dc:format>image/svg+xml</dc:format><dc:type
           rdf:resource="http://purl.org/dc/dcmitype/StillImage" /><dc:title></dc:title></cc:Work></rdf:RDF></metadata><sodipodi:namedview
     pagecolor="#ffffff"
     bordercolor="#666666"
     borderopacity="1"
     objecttolerance="10"
     gridtolerance="10"
     guidetolerance="10"
     inkscape:pageopacity="0"
     inkscape:pageshadow="2"
     inkscape:window-width="843"
     inkscape:window-height="999"
     id="namedview51240"
     showgrid="false"
     inkscape:zoom="1.4208948"
     inkscape:cx="441.18004"
     inkscape:cy="1402.4843"
     inkscape:window-x="1061"
     inkscape:window-y="1"
     inkscape:window-maximized="0"
     inkscape:current-layer="svg2" /><defs
     id="defs4"><style
       type="text/css"
       id="style6"><![CDATA[
       svg {
                position: absolute;
            }
    .str16 {stroke:red;stroke-width:59.27;stroke-linecap:round;stroke-linejoin:round}
    .str17 {stroke:yellow;stroke-width:59.27;stroke-linecap:round;stroke-linejoin:round}
    .str20 {stroke:#DDA56E;stroke-width:21.17;stroke-linecap:round;stroke-linejoin:round}
    .str18 {stroke:red;stroke-width:21.17;stroke-linecap:round;stroke-linejoin:round}
    .str21 {stroke:yellow;stroke-width:21.17;stroke-linecap:round;stroke-linejoin:round}
    .str15 {stroke:black;stroke-width:8.47;stroke-linecap:round;stroke-linejoin:round}
    .str0 {stroke:black;stroke-width:29.63;stroke-linecap:round;stroke-linejoin:round}
    .str1 {stroke:black;stroke-width:16.93;stroke-linecap:round;stroke-linejoin:round}
    .str10 {stroke:gray;stroke-width:16.93;stroke-linecap:round;stroke-linejoin:round}
    .str4 {stroke:black;stroke-width:4.23;stroke-linecap:round;stroke-linejoin:round}
    .str14 {stroke:#0037DD;stroke-width:4.23;stroke-linecap:round;stroke-linejoin:round}
    .str2 {stroke:#006EDD;stroke-width:4.23;stroke-linecap:round;stroke-linejoin:round}
    .str5 {stroke:#00B85C;stroke-width:4.23;stroke-linecap:round;stroke-linejoin:round}
    .str3 {stroke:#00DD00;stroke-width:4.23;stroke-linecap:round;stroke-linejoin:round}
    .str9 {stroke:lime;stroke-width:4.23;stroke-linecap:round;stroke-linejoin:round}
    .str12 {stroke:gray;stroke-width:4.23;stroke-linecap:round;stroke-linejoin:round}
    .str13 {stroke:#989898;stroke-width:4.23;stroke-linecap:round;stroke-linejoin:round}
    .str11 {stroke:#BABABA;stroke-width:4.23;stroke-linecap:round;stroke-linejoin:round}
    .str7 {stroke:red;stroke-width:4.23;stroke-linecap:round;stroke-linejoin:round}
    .str8 {stroke:#FF7F00;stroke-width:4.23;stroke-linecap:round;stroke-linejoin:round}
    .str6 {stroke:yellow;stroke-width:4.23;stroke-linecap:round;stroke-linejoin:round}
    .str23 {stroke:#00BFFF;stroke-width:25.4;stroke-linecap:round;stroke-linejoin:round}
    .str22 {stroke:#37DD00;stroke-width:25.4;stroke-linecap:round;stroke-linejoin:round}
    .str19 {stroke:black;stroke-width:12.7;stroke-linecap:round;stroke-linejoin:round}
    .fil0 {fill:none}
    .fil1 {fill:black}
    .fil13 {fill:#0037DD}
    .fil2 {fill:#006EDD}
    .fil3 {fill:#00B85C}
    .fil4 {fill:#00DD00}
    .fil9 {fill:lime}
    .fil7 {fill:gray}
    .fil12 {fill:#989898}
    .fil11 {fill:#B85C00}
    .fil10 {fill:#BABABA}
    .fil14 {fill:#FCFCFC}
    .fil6 {fill:red}
    .fil8 {fill:#FF7F00}
    .fil5 {fill:yellow}
   ]]></style></defs><g
     id="Слой_x0020_1"><g
       id="g58871"><polygon
         class="fil6"
         points="13047,44821 13009,44825 13102,44825 "
         id="polygon18848" /><polyline
         class="fil0 str7"
         points="12996,44825 13106,44825 13009,44825 "
         id="polyline18850" /><polygon
         class="fil6"
         points="12996,44825 12958,44842 13149,44842 "
         id="polygon18852" /><polygon
         class="fil6"
         points="12996,44825 13106,44825 13149,44842 "
         id="polygon18854" /><path
         class="fil0 str7"
         d="M12950 44846l207 0m-199 -4l195 4"
         id="path18856" /><polygon
         class="fil6"
         points="12950,44846 12907,44876 13195,44876 "
         id="polygon18858" /><polygon
         class="fil6"
         points="12950,44846 13157,44846 13195,44876 "
         id="polygon18860" /><path
         class="fil0 str7"
         d="M12907 44880l292 0m-292 -4l288 4"
         id="path18862" /><polygon
         class="fil6"
         points="12907,44880 12873,44922 13229,44922 "
         id="polygon18864" /><polygon
         class="fil6"
         points="12907,44880 13199,44880 13229,44922 "
         id="polygon18866" /><polygon
         class="fil0 str7"
         points="12873,44922 13229,44922 "
         id="polygon18868" /><polygon
         class="fil6"
         points="12873,44922 12865,44939 13237,44939 "
         id="polygon18870" /><polygon
         class="fil6"
         points="12873,44922 13229,44922 13237,44939 "
         id="polygon18872" /><polygon
         class="fil6"
         points="12865,44939 12865,44943 13017,44943 "
         id="polygon18874" /><polygon
         class="fil6"
         points="12865,44939 13051,44939 13017,44943 "
         id="polygon18876" /><polygon
         class="fil6"
         points="13051,44939 13085,44943 13242,44943 "
         id="polygon18878" /><polygon
         class="fil6"
         points="13051,44939 13237,44939 13242,44943 "
         id="polygon18880" /><polygon
         class="fil6"
         points="12865,44943 12856,44965 12988,44965 "
         id="polygon18882" /><polygon
         class="fil6"
         points="12865,44943 13017,44943 12988,44965 "
         id="polygon18884" /><polygon
         class="fil6"
         points="13085,44943 13110,44965 13246,44965 "
         id="polygon18886" /><polygon
         class="fil6"
         points="13085,44943 13242,44943 13246,44965 "
         id="polygon18888" /><polygon
         class="fil6"
         points="12856,44965 12852,44969 12988,44969 "
         id="polygon18890" /><polygon
         class="fil6"
         points="12856,44965 12988,44965 12988,44969 "
         id="polygon18892" /><polygon
         class="fil6"
         points="13110,44965 13115,44969 13250,44969 "
         id="polygon18894" /><polygon
         class="fil6"
         points="13110,44965 13246,44965 13250,44969 "
         id="polygon18896" /><polygon
         class="fil6"
         points="12852,44969 12852,44973 12983,44973 "
         id="polygon18898" /><polygon
         class="fil6"
         points="12852,44969 12988,44969 12983,44973 "
         id="polygon18900" /><polygon
         class="fil6"
         points="13115,44969 13119,44973 13250,44973 "
         id="polygon18902" /><polygon
         class="fil6"
         points="13115,44969 13250,44969 13250,44973 "
         id="polygon18904" /><polygon
         class="fil6"
         points="12852,44973 12848,44994 12971,44994 "
         id="polygon18906" /><polygon
         class="fil6"
         points="12852,44973 12983,44973 12971,44994 "
         id="polygon18908" /><polygon
         class="fil6"
         points="13119,44973 13132,44994 13254,44994 "
         id="polygon18910" /><polygon
         class="fil6"
         points="13119,44973 13250,44973 13254,44994 "
         id="polygon18912" /><polygon
         class="fil6"
         points="12848,44994 12844,45020 12967,45020 "
         id="polygon18914" /><polygon
         class="fil6"
         points="12848,44994 12971,44994 12967,45020 "
         id="polygon18916" /><polygon
         class="fil6"
         points="13132,44994 13136,45020 13259,45020 "
         id="polygon18918" /><polygon
         class="fil6"
         points="13132,44994 13254,44994 13259,45020 "
         id="polygon18920" /><polygon
         class="fil6"
         points="12844,45020 12848,45024 12962,45024 "
         id="polygon18922" /><polygon
         class="fil6"
         points="12844,45020 12967,45020 12962,45024 "
         id="polygon18924" /><polygon
         class="fil6"
         points="13136,45020 13136,45024 13259,45024 "
         id="polygon18926" /><polygon
         class="fil6"
         points="13136,45020 13259,45020 13259,45024 "
         id="polygon18928" /><polygon
         class="fil6"
         points="12848,45024 12848,45032 12967,45032 "
         id="polygon18930" /><polygon
         class="fil6"
         points="12848,45024 12962,45024 12967,45032 "
         id="polygon18932" /><polygon
         class="fil6"
         points="13136,45024 13136,45032 13259,45032 "
         id="polygon18934" /><polygon
         class="fil6"
         points="13136,45024 13259,45024 13259,45032 "
         id="polygon18936" /><polygon
         class="fil6"
         points="12848,45032 12848,45058 12971,45058 "
         id="polygon18938" /><polygon
         class="fil6"
         points="12848,45032 12967,45032 12971,45058 "
         id="polygon18940" /><polygon
         class="fil6"
         points="13136,45032 13132,45058 13254,45058 "
         id="polygon18942" /><polygon
         class="fil6"
         points="13136,45032 13259,45032 13254,45058 "
         id="polygon18944" /><polygon
         class="fil6"
         points="12848,45058 12852,45075 12979,45075 "
         id="polygon18946" /><polygon
         class="fil6"
         points="12848,45058 12971,45058 12979,45075 "
         id="polygon18948" /><polygon
         class="fil6"
         points="13132,45058 13119,45075 13250,45075 "
         id="polygon18950" /><polygon
         class="fil6"
         points="13132,45058 13254,45058 13250,45075 "
         id="polygon18952" /><polygon
         class="fil6"
         points="12852,45075 12856,45087 12988,45087 "
         id="polygon18954" /><polygon
         class="fil6"
         points="12852,45075 12979,45075 12988,45087 "
         id="polygon18956" /><polygon
         class="fil6"
         points="13119,45075 13110,45087 13250,45087 "
         id="polygon18958" /><polygon
         class="fil6"
         points="13119,45075 13250,45075 13250,45087 "
         id="polygon18960" /><polyline
         class="fil0 str7"
         points="12992,45087 12856,45087 12988,45087 "
         id="polyline18962" /><polygon
         class="fil0 str7"
         points="13110,45087 13250,45087 "
         id="polygon18964" /><polygon
         class="fil6"
         points="12856,45087 12865,45104 13017,45104 "
         id="polygon18966" /><polygon
         class="fil6"
         points="12856,45087 12992,45087 13017,45104 "
         id="polygon18968" /><polygon
         class="fil6"
         points="13110,45087 13085,45104 13242,45104 "
         id="polygon18970" /><polygon
         class="fil6"
         points="13110,45087 13250,45087 13242,45104 "
         id="polygon18972" /><polygon
         class="fil6"
         points="12865,45104 12865,45113 13051,45113 "
         id="polygon18974" /><polygon
         class="fil6"
         points="12865,45104 13017,45104 13051,45113 "
         id="polygon18976" /><polygon
         class="fil6"
         points="13085,45104 13051,45113 13237,45113 "
         id="polygon18978" /><polygon
         class="fil6"
         points="13085,45104 13242,45104 13237,45113 "
         id="polygon18980" /><polygon
         class="fil6"
         points="12865,45113 12869,45121 13233,45121 "
         id="polygon18982" /><polygon
         class="fil6"
         points="12865,45113 13237,45113 13233,45121 "
         id="polygon18984" /><polygon
         class="fil6"
         points="12869,45121 12882,45138 13225,45138 "
         id="polygon18986" /><polygon
         class="fil6"
         points="12869,45121 13233,45121 13225,45138 "
         id="polygon18988" /><polygon
         class="fil6"
         points="12882,45138 12899,45163 13204,45163 "
         id="polygon18990" /><polygon
         class="fil6"
         points="12882,45138 13225,45138 13204,45163 "
         id="polygon18992" /><polygon
         class="fil6"
         points="12899,45163 12920,45180 13187,45180 "
         id="polygon18994" /><polygon
         class="fil6"
         points="12899,45163 13204,45163 13187,45180 "
         id="polygon18996" /><polygon
         class="fil6"
         points="12920,45180 12941,45202 13161,45202 "
         id="polygon18998" /><polygon
         class="fil6"
         points="12920,45180 13187,45180 13161,45202 "
         id="polygon19000" /><polygon
         class="fil6"
         points="12941,45202 12967,45214 13140,45214 "
         id="polygon19002" /><polygon
         class="fil6"
         points="12941,45202 13161,45202 13140,45214 "
         id="polygon19004" /><polygon
         class="fil6"
         points="12967,45214 12988,45223 13115,45223 "
         id="polygon19006" /><polygon
         class="fil6"
         points="12967,45214 13140,45214 13115,45223 "
         id="polygon19008" /><polygon
         class="fil6"
         points="12988,45223 13022,45231 13089,45231 "
         id="polygon19010" /><polygon
         class="fil6"
         points="12988,45223 13115,45223 13089,45231 "
         id="polygon19012" /><line
         class="fil0 str7"
         x1="13022"
         y1="45231"
         x2="13089"
         y2="45231"
         id="line19014" /><polygon
         class="fil1"
         points="13144,45219 13140,45210 13191,45185 "
         id="polygon19016" /><polygon
         class="fil1"
         points="13140,45210 13191,45185 13187,45180 "
         id="polygon19018" /><polygon
         class="fil1"
         points="13191,45185 13187,45180 13229,45142 "
         id="polygon19020" /><polygon
         class="fil1"
         points="13187,45180 13229,45142 13221,45138 "
         id="polygon19022" /><polygon
         class="fil1"
         points="13229,45142 13221,45138 13254,45087 "
         id="polygon19024" /><polygon
         class="fil1"
         points="13221,45138 13254,45087 13246,45087 "
         id="polygon19026" /><polygon
         class="fil1"
         points="13254,45087 13246,45087 13263,45032 "
         id="polygon19028" /><polygon
         class="fil1"
         points="13246,45087 13263,45032 13254,45032 "
         id="polygon19030" /><polygon
         class="fil1"
         points="13263,45032 13254,45032 13259,44973 "
         id="polygon19032" /><polygon
         class="fil1"
         points="13254,45032 13259,44973 13246,44977 "
         id="polygon19034" /><polygon
         class="fil1"
         points="13259,44973 13246,44977 13233,44918 "
         id="polygon19036" /><polygon
         class="fil1"
         points="13246,44977 13233,44918 13225,44926 "
         id="polygon19038" /><polygon
         class="fil1"
         points="13233,44918 13225,44926 13199,44876 "
         id="polygon19040" /><polygon
         class="fil1"
         points="13225,44926 13199,44876 13191,44880 "
         id="polygon19042" /><polygon
         class="fil1"
         points="13199,44876 13191,44880 13153,44838 "
         id="polygon19044" /><polygon
         class="fil1"
         points="13191,44880 13153,44838 13149,44846 "
         id="polygon19046" /><polygon
         class="fil1"
         points="13153,44838 13149,44846 13102,44821 "
         id="polygon19048" /><polygon
         class="fil1"
         points="13149,44846 13102,44821 13102,44829 "
         id="polygon19050" /><polygon
         class="fil1"
         points="13102,44821 13102,44829 13047,44816 "
         id="polygon19052" /><polygon
         class="fil1"
         points="13102,44829 13047,44816 13047,44825 "
         id="polygon19054" /><polygon
         class="fil1"
         points="13047,44816 13047,44825 12996,44821 "
         id="polygon19056" /><polygon
         class="fil1"
         points="13047,44825 12996,44821 12996,44833 "
         id="polygon19058" /><polygon
         class="fil1"
         points="12996,44821 12996,44833 12945,44842 "
         id="polygon19060" /><polygon
         class="fil1"
         points="12996,44833 12945,44842 12950,44850 "
         id="polygon19062" /><polygon
         class="fil1"
         points="12945,44842 12950,44850 12903,44876 "
         id="polygon19064" /><polygon
         class="fil1"
         points="12950,44850 12903,44876 12912,44884 "
         id="polygon19066" /><polygon
         class="fil1"
         points="12903,44876 12912,44884 12869,44918 "
         id="polygon19068" /><polygon
         class="fil1"
         points="12912,44884 12869,44918 12878,44922 "
         id="polygon19070" /><polygon
         class="fil1"
         points="12869,44918 12878,44922 12848,44969 "
         id="polygon19072" /><polygon
         class="fil1"
         points="12878,44922 12848,44969 12856,44969 "
         id="polygon19074" /><polygon
         class="fil1"
         points="12848,44969 12856,44969 12839,45020 "
         id="polygon19076" /><polygon
         class="fil1"
         points="12856,44969 12839,45020 12852,45020 "
         id="polygon19078" /><polygon
         class="fil1"
         points="12839,45020 12852,45020 12848,45075 "
         id="polygon19080" /><polygon
         class="fil1"
         points="12852,45020 12848,45075 12856,45070 "
         id="polygon19082" /><polygon
         class="fil1"
         points="12848,45075 12856,45070 12865,45125 "
         id="polygon19084" /><polygon
         class="fil1"
         points="12856,45070 12865,45125 12873,45121 "
         id="polygon19086" /><polygon
         class="fil1"
         points="12865,45125 12873,45121 12894,45168 "
         id="polygon19088" /><polygon
         class="fil1"
         points="12873,45121 12894,45168 12903,45163 "
         id="polygon19090" /><polygon
         class="fil1"
         points="12894,45168 12903,45163 12937,45202 "
         id="polygon19092" /><polygon
         class="fil1"
         points="12903,45163 12937,45202 12941,45197 "
         id="polygon19094" /><polygon
         class="fil1"
         points="12937,45202 12941,45197 12983,45227 "
         id="polygon19096" /><polygon
         class="fil1"
         points="12941,45197 12983,45227 12988,45219 "
         id="polygon19098" /><polygon
         class="fil1"
         points="12983,45227 12988,45219 13038,45235 "
         id="polygon19100" /><polygon
         class="fil1"
         points="12988,45219 13038,45235 13038,45227 "
         id="polygon19102" /><polygon
         class="fil1"
         points="13038,45235 13038,45227 13094,45235 "
         id="polygon19104" /><polygon
         class="fil1"
         points="13038,45227 13094,45235 13089,45227 "
         id="polygon19106" /><polygon
         class="fil1"
         points="13094,45235 13089,45227 13144,45219 "
         id="polygon19108" /><polygon
         class="fil1"
         points="13089,45227 13144,45219 13140,45210 "
         id="polygon19110" /><polygon
         class="fil0 str0"
         points="13136,45024 13132,44994 13110,44965 13085,44943 13051,44939 13017,44943 12988,44965 12971,44994 12962,45024 12971,45058 12988,45087 13017,45104 13051,45113 13085,45104 13110,45087 13132,45058 "
         id="polygon19112" /><polygon
         class="fil0 str1"
         points="12657,45434 13449,45434 13449,44634 12657,44634 "
         id="polygon19114" /><polygon
         class="fil1"
         points="13051,44939 13017,44943 13085,44943 "
         id="polygon19116" /><polygon
         class="fil1"
         points="13017,44943 12988,44965 13110,44965 "
         id="polygon19118" /><polygon
         class="fil1"
         points="13017,44943 13085,44943 13110,44965 "
         id="polygon19120" /><polygon
         class="fil1"
         points="12988,44965 12971,44994 13132,44994 "
         id="polygon19122" /><polygon
         class="fil1"
         points="12988,44965 13110,44965 13132,44994 "
         id="polygon19124" /><polygon
         class="fil1"
         points="12971,44994 12962,45024 13136,45024 "
         id="polygon19126" /><polygon
         class="fil1"
         points="12971,44994 13132,44994 13136,45024 "
         id="polygon19128" /><polygon
         class="fil1"
         points="12962,45024 12971,45058 13132,45058 "
         id="polygon19130" /><polygon
         class="fil1"
         points="12962,45024 13136,45024 13132,45058 "
         id="polygon19132" /><polygon
         class="fil1"
         points="12971,45058 12988,45087 13110,45087 "
         id="polygon19134" /><polygon
         class="fil1"
         points="12971,45058 13132,45058 13110,45087 "
         id="polygon19136" /><polygon
         class="fil1"
         points="12988,45087 13017,45104 13085,45104 "
         id="polygon19138" /><polygon
         class="fil1"
         points="12988,45087 13110,45087 13085,45104 "
         id="polygon19140" /><polygon
         class="fil1"
         points="13017,45104 13085,45104 13051,45113 "
         id="polygon19142" /></g><metadata
       id="CorelCorpID_0Corel-Layer" /></g></svg>