<?xml version="1.0" encoding="UTF-8" standalone="no"?>
<!-- Creator: CorelDRAW X8 -->

<svg
   xmlns:dc="http://purl.org/dc/elements/1.1/"
   xmlns:cc="http://creativecommons.org/ns#"
   xmlns:rdf="http://www.w3.org/1999/02/22-rdf-syntax-ns#"
   xmlns:svg="http://www.w3.org/2000/svg"
   xmlns="http://www.w3.org/2000/svg"
   xmlns:sodipodi="http://sodipodi.sourceforge.net/DTD/sodipodi-0.dtd"
   xmlns:inkscape="http://www.inkscape.org/namespaces/inkscape"
   xml:space="preserve"
   width="254.5mm"
   height="750mm"
   version="1.1"
   style="shape-rendering:geometricPrecision; text-rendering:geometricPrecision; image-rendering:optimizeQuality; fill-rule:evenodd; clip-rule:evenodd"
   viewBox="0 0 25450 75000"
   id="svg2"
   inkscape:version="0.91 r13725"
   sodipodi:docname="041.svg"><metadata
     id="metadata51242"><rdf:RDF><cc:Work
         rdf:about=""><dc:format>image/svg+xml</dc:format><dc:type
           rdf:resource="http://purl.org/dc/dcmitype/StillImage" /><dc:title /></cc:Work></rdf:RDF></metadata><sodipodi:namedview
     pagecolor="#ffffff"
     bordercolor="#666666"
     borderopacity="1"
     objecttolerance="10"
     gridtolerance="10"
     guidetolerance="10"
     inkscape:pageopacity="0"
     inkscape:pageshadow="2"
     inkscape:window-width="1920"
     inkscape:window-height="1018"
     id="namedview51240"
     showgrid="false"
     inkscape:zoom="11.367158"
     inkscape:cx="440.71153"
     inkscape:cy="1029.1386"
     inkscape:window-x="-8"
     inkscape:window-y="-8"
     inkscape:window-maximized="1"
     inkscape:current-layer="g59021" /><defs
     id="defs4"><style
       type="text/css"
       id="style6"><![CDATA[
       svg {
                position: absolute;
            }
    .str16 {stroke:red;stroke-width:59.27;stroke-linecap:round;stroke-linejoin:round}
    .str17 {stroke:yellow;stroke-width:59.27;stroke-linecap:round;stroke-linejoin:round}
    .str20 {stroke:#DDA56E;stroke-width:21.17;stroke-linecap:round;stroke-linejoin:round}
    .str18 {stroke:red;stroke-width:21.17;stroke-linecap:round;stroke-linejoin:round}
    .str21 {stroke:yellow;stroke-width:21.17;stroke-linecap:round;stroke-linejoin:round}
    .str15 {stroke:black;stroke-width:8.47;stroke-linecap:round;stroke-linejoin:round}
    .str0 {stroke:black;stroke-width:29.63;stroke-linecap:round;stroke-linejoin:round}
    .str1 {stroke:black;stroke-width:16.93;stroke-linecap:round;stroke-linejoin:round}
    .str10 {stroke:gray;stroke-width:16.93;stroke-linecap:round;stroke-linejoin:round}
    .str4 {stroke:black;stroke-width:4.23;stroke-linecap:round;stroke-linejoin:round}
    .str14 {stroke:#0037DD;stroke-width:4.23;stroke-linecap:round;stroke-linejoin:round}
    .str2 {stroke:#006EDD;stroke-width:4.23;stroke-linecap:round;stroke-linejoin:round}
    .str5 {stroke:#00B85C;stroke-width:4.23;stroke-linecap:round;stroke-linejoin:round}
    .str3 {stroke:#00DD00;stroke-width:4.23;stroke-linecap:round;stroke-linejoin:round}
    .str9 {stroke:lime;stroke-width:4.23;stroke-linecap:round;stroke-linejoin:round}
    .str12 {stroke:gray;stroke-width:4.23;stroke-linecap:round;stroke-linejoin:round}
    .str13 {stroke:#989898;stroke-width:4.23;stroke-linecap:round;stroke-linejoin:round}
    .str11 {stroke:#BABABA;stroke-width:4.23;stroke-linecap:round;stroke-linejoin:round}
    .str7 {stroke:red;stroke-width:4.23;stroke-linecap:round;stroke-linejoin:round}
    .str8 {stroke:#FF7F00;stroke-width:4.23;stroke-linecap:round;stroke-linejoin:round}
    .str6 {stroke:yellow;stroke-width:4.23;stroke-linecap:round;stroke-linejoin:round}
    .str23 {stroke:#00BFFF;stroke-width:25.4;stroke-linecap:round;stroke-linejoin:round}
    .str22 {stroke:#37DD00;stroke-width:25.4;stroke-linecap:round;stroke-linejoin:round}
    .str19 {stroke:black;stroke-width:12.7;stroke-linecap:round;stroke-linejoin:round}
    .fil0 {fill:none}
    .fil1 {fill:black}
    .fil13 {fill:#0037DD}
    .fil2 {fill:#006EDD}
    .fil3 {fill:#00B85C}
    .fil4 {fill:#00DD00}
    .fil9 {fill:lime}
    .fil7 {fill:gray}
    .fil12 {fill:#989898}
    .fil11 {fill:#B85C00}
    .fil10 {fill:#BABABA}
    .fil14 {fill:#FCFCFC}
    .fil6 {fill:red}
    .fil8 {fill:#FF7F00}
    .fil5 {fill:yellow}
   ]]></style></defs><g
     id="Слой_x0020_1"><g
       id="g59021">
    <polygon
         style="fill:#ffffff;stroke:#000000;stroke-width:16.93000031;stroke-linecap:round;stroke-linejoin:round"
         class="fil0 str1"
         points="13449,45633 12657,45633 12657,46434 13449,46434 "
         id="background-poly" />
    <polygon
         class="fil6"
         points="12657,45633 13449,45633 13449,45633 "
         id="polygon19144" /><polygon
         class="fil6"
         points="12657,45633 12657,45714 13449,45714 "
         id="polygon19146" /><polygon
         class="fil6"
         points="12657,45633 13449,45633 13449,45714 "
         id="polygon19148" /><polygon
         class="fil6"
         points="12886,45714 13038,45714 13038,45714 "
         id="polygon19150" /><polygon
         class="fil0 str7"
         points="12657,45714 12886,45714 "
         id="polygon19152" /><polygon
         class="fil0 str7"
         points="13038,45714 13449,45714 "
         id="polygon19154" /><polygon
         class="fil6"
         points="12890,45714 13034,45714 13034,45714 "
         id="polygon19156" /><polygon
         class="fil6"
         points="12657,45714 12657,45739 12886,45739 "
         id="polygon19158" /><polygon
         class="fil6"
         points="12657,45714 12886,45714 12886,45739 "
         id="polygon19160" /><polygon
         class="fil6"
         points="12890,45714 12890,45739 13034,45739 "
         id="polygon19162" /><polygon
         class="fil6"
         points="12890,45714 13034,45714 13034,45739 "
         id="polygon19164" /><polygon
         class="fil6"
         points="13038,45714 13038,45739 13449,45739 "
         id="polygon19166" /><polygon
         class="fil6"
         points="13038,45714 13449,45714 13449,45739 "
         id="polygon19168" /><polygon
         class="fil6"
         points="12657,45739 12657,45748 12886,45748 "
         id="polygon19170" /><polygon
         class="fil6"
         points="12657,45739 12886,45739 12886,45748 "
         id="polygon19172" /><polygon
         class="fil6"
         points="12890,45739 12890,45748 12941,45748 "
         id="polygon19174" /><polygon
         class="fil6"
         points="12890,45739 12962,45739 12941,45748 "
         id="polygon19176" /><polygon
         class="fil6"
         points="12962,45739 12983,45748 13034,45748 "
         id="polygon19178" /><polygon
         class="fil6"
         points="12962,45739 13034,45739 13034,45748 "
         id="polygon19180" /><polygon
         class="fil6"
         points="13038,45739 13038,45748 13449,45748 "
         id="polygon19182" /><polygon
         class="fil6"
         points="13038,45739 13449,45739 13449,45748 "
         id="polygon19184" /><polygon
         class="fil6"
         points="12657,45748 12657,45760 12886,45760 "
         id="polygon19186" /><polygon
         class="fil6"
         points="12657,45748 12886,45748 12886,45760 "
         id="polygon19188" /><polygon
         class="fil6"
         points="12890,45748 12890,45760 12928,45760 "
         id="polygon19190" /><polygon
         class="fil6"
         points="12890,45748 12941,45748 12928,45760 "
         id="polygon19192" /><polygon
         class="fil6"
         points="12983,45748 13000,45760 13034,45760 "
         id="polygon19194" /><polygon
         class="fil6"
         points="12983,45748 13034,45748 13034,45760 "
         id="polygon19196" /><polygon
         class="fil6"
         points="13038,45748 13038,45760 13449,45760 "
         id="polygon19198" /><polygon
         class="fil6"
         points="13038,45748 13449,45748 13449,45760 "
         id="polygon19200" /><polygon
         class="fil6"
         points="12657,45760 12657,45782 12886,45782 "
         id="polygon19202" /><polygon
         class="fil6"
         points="12657,45760 12886,45760 12886,45782 "
         id="polygon19204" /><polygon
         class="fil6"
         points="12890,45760 12890,45782 12920,45782 "
         id="polygon19206" /><polygon
         class="fil6"
         points="12890,45760 12928,45760 12920,45782 "
         id="polygon19208" /><polygon
         class="fil6"
         points="13000,45760 13005,45782 13034,45782 "
         id="polygon19210" /><polygon
         class="fil6"
         points="13000,45760 13034,45760 13034,45782 "
         id="polygon19212" /><polygon
         class="fil6"
         points="13038,45760 13038,45782 13449,45782 "
         id="polygon19214" /><polygon
         class="fil6"
         points="13038,45760 13449,45760 13449,45782 "
         id="polygon19216" /><polygon
         class="fil6"
         points="12657,45782 12657,45803 12886,45803 "
         id="polygon19218" /><polygon
         class="fil6"
         points="12657,45782 12886,45782 12886,45803 "
         id="polygon19220" /><polygon
         class="fil6"
         points="12890,45782 12890,45803 12928,45803 "
         id="polygon19222" /><polygon
         class="fil6"
         points="12890,45782 12920,45782 12928,45803 "
         id="polygon19224" /><polygon
         class="fil6"
         points="13005,45782 13000,45803 13034,45803 "
         id="polygon19226" /><polygon
         class="fil6"
         points="13005,45782 13034,45782 13034,45803 "
         id="polygon19228" /><polygon
         class="fil6"
         points="13038,45782 13038,45803 13449,45803 "
         id="polygon19230" /><polygon
         class="fil6"
         points="13038,45782 13449,45782 13449,45803 "
         id="polygon19232" /><polygon
         class="fil6"
         points="12657,45803 12657,45820 12886,45820 "
         id="polygon19234" /><polygon
         class="fil6"
         points="12657,45803 12886,45803 12886,45820 "
         id="polygon19236" /><polygon
         class="fil6"
         points="12890,45803 12890,45820 12941,45820 "
         id="polygon19238" /><polygon
         class="fil6"
         points="12890,45803 12928,45803 12941,45820 "
         id="polygon19240" /><polygon
         class="fil6"
         points="13000,45803 12983,45820 13034,45820 "
         id="polygon19242" /><polygon
         class="fil6"
         points="13000,45803 13034,45803 13034,45820 "
         id="polygon19244" /><polygon
         class="fil6"
         points="13038,45803 13038,45820 13449,45820 "
         id="polygon19246" /><polygon
         class="fil6"
         points="13038,45803 13449,45803 13449,45820 "
         id="polygon19248" /><polygon
         class="fil6"
         points="12657,45820 12657,45824 12886,45824 "
         id="polygon19250" /><polygon
         class="fil6"
         points="12657,45820 12886,45820 12886,45824 "
         id="polygon19252" /><polygon
         class="fil6"
         points="12890,45820 12890,45824 12962,45824 "
         id="polygon19254" /><polygon
         class="fil6"
         points="12890,45820 12941,45820 12962,45824 "
         id="polygon19256" /><polygon
         class="fil6"
         points="12983,45820 12962,45824 13034,45824 "
         id="polygon19258" /><polygon
         class="fil6"
         points="12983,45820 13034,45820 13034,45824 "
         id="polygon19260" /><polygon
         class="fil6"
         points="13038,45820 13038,45824 13449,45824 "
         id="polygon19262" /><polygon
         class="fil6"
         points="13038,45820 13449,45820 13449,45824 "
         id="polygon19264" /><polygon
         class="fil6"
         points="12657,45824 12657,45832 12886,45832 "
         id="polygon19266" /><polygon
         class="fil6"
         points="12657,45824 12886,45824 12886,45832 "
         id="polygon19268" /><polygon
         class="fil6"
         points="12890,45824 12890,45832 13034,45832 "
         id="polygon19270" /><polygon
         class="fil6"
         points="12890,45824 13034,45824 13034,45832 "
         id="polygon19272" /><polygon
         class="fil6"
         points="13038,45824 13038,45832 13449,45832 "
         id="polygon19274" /><polygon
         class="fil6"
         points="13038,45824 13449,45824 13449,45832 "
         id="polygon19276" /><polygon
         class="fil6"
         points="12657,45832 12657,45837 12886,45837 "
         id="polygon19278" /><polygon
         class="fil6"
         points="12657,45832 12886,45832 12886,45837 "
         id="polygon19280" /><polygon
         class="fil6"
         points="12890,45832 12890,45837 12954,45837 "
         id="polygon19282" /><polygon
         class="fil6"
         points="12890,45832 12967,45832 12954,45837 "
         id="polygon19284" /><polygon
         class="fil6"
         points="12967,45832 12975,45837 13034,45837 "
         id="polygon19286" /><polygon
         class="fil6"
         points="12967,45832 13034,45832 13034,45837 "
         id="polygon19288" /><polygon
         class="fil6"
         points="13038,45832 13038,45837 13449,45837 "
         id="polygon19290" /><polygon
         class="fil6"
         points="13038,45832 13449,45832 13449,45837 "
         id="polygon19292" /><polygon
         class="fil0 str7"
         points="12657,45837 12886,45837 "
         id="polygon19294" /><polygon
         class="fil0 str7"
         points="12890,45837 12954,45837 "
         id="polygon19296" /><polygon
         class="fil0 str7"
         points="12975,45837 13034,45837 "
         id="polygon19298" /><polygon
         class="fil0 str7"
         points="13038,45837 13449,45837 "
         id="polygon19300" /><polygon
         class="fil6"
         points="12657,45837 12657,45845 12886,45845 "
         id="polygon19302" /><polygon
         class="fil6"
         points="12657,45837 12886,45837 12886,45845 "
         id="polygon19304" /><polygon
         class="fil6"
         points="12890,45837 12890,45845 12950,45845 "
         id="polygon19306" /><polygon
         class="fil6"
         points="12890,45837 12954,45837 12950,45845 "
         id="polygon19308" /><polygon
         class="fil6"
         points="12975,45837 12983,45845 13034,45845 "
         id="polygon19310" /><polygon
         class="fil6"
         points="12975,45837 13034,45837 13034,45845 "
         id="polygon19312" /><polygon
         class="fil6"
         points="13038,45837 13038,45845 13449,45845 "
         id="polygon19314" /><polygon
         class="fil6"
         points="13038,45837 13449,45837 13449,45845 "
         id="polygon19316" /><polygon
         class="fil6"
         points="12983,45845 13034,45845 13034,45845 "
         id="polygon19318" /><polygon
         class="fil0 str7"
         points="12657,45845 12886,45845 "
         id="polygon19320" /><polygon
         class="fil0 str7"
         points="12890,45845 12950,45845 "
         id="polygon19322" /><polygon
         class="fil0 str7"
         points="13038,45845 13449,45845 "
         id="polygon19324" /><polygon
         class="fil6"
         points="12890,45845 12950,45845 12950,45845 "
         id="polygon19326" /><polyline
         class="fil0 str7"
         points="12657,45849 12886,45849 12657,45845 "
         id="polyline19328" /><polyline
         class="fil0 str7"
         points="13038,45849 13449,45849 13038,45845 "
         id="polyline19330" /><polygon
         class="fil6"
         points="12983,45849 13038,45849 13038,45849 "
         id="polygon19332" /><polygon
         class="fil0 str7"
         points="12657,45849 12886,45849 "
         id="polygon19334" /><polygon
         class="fil0 str7"
         points="12983,45849 13449,45849 "
         id="polygon19336" /><polygon
         class="fil6"
         points="12886,45849 12950,45849 12950,45849 "
         id="polygon19338" /><polygon
         class="fil6"
         points="12657,45849 12657,45870 12945,45870 "
         id="polygon19340" /><polygon
         class="fil6"
         points="12657,45849 12950,45849 12945,45870 "
         id="polygon19342" /><polygon
         class="fil6"
         points="12983,45849 12992,45870 13449,45870 "
         id="polygon19344" /><polygon
         class="fil6"
         points="12983,45849 13449,45849 13449,45870 "
         id="polygon19346" /><polygon
         class="fil6"
         points="12657,45870 12657,45887 12941,45887 "
         id="polygon19348" /><polygon
         class="fil6"
         points="12657,45870 12945,45870 12941,45887 "
         id="polygon19350" /><polygon
         class="fil6"
         points="12992,45870 12988,45887 13449,45887 "
         id="polygon19352" /><polygon
         class="fil6"
         points="12992,45870 13449,45870 13449,45887 "
         id="polygon19354" /><polygon
         class="fil0 str7"
         points="12657,45887 12941,45887 "
         id="polygon19356" /><polygon
         class="fil0 str7"
         points="12988,45887 13449,45887 "
         id="polygon19358" /><polygon
         class="fil6"
         points="12657,45887 12657,45925 12937,45925 "
         id="polygon19360" /><polygon
         class="fil6"
         points="12657,45887 12941,45887 12937,45925 "
         id="polygon19362" /><polygon
         class="fil6"
         points="12988,45887 12992,45925 13449,45925 "
         id="polygon19364" /><polygon
         class="fil6"
         points="12988,45887 13449,45887 13449,45925 "
         id="polygon19366" /><polygon
         class="fil6"
         points="12657,45925 12657,45951 12941,45951 "
         id="polygon19368" /><polygon
         class="fil6"
         points="12657,45925 12937,45925 12941,45951 "
         id="polygon19370" /><polygon
         class="fil6"
         points="12992,45925 12996,45951 13449,45951 "
         id="polygon19372" /><polygon
         class="fil6"
         points="12992,45925 13449,45925 13449,45951 "
         id="polygon19374" /><polygon
         class="fil6"
         points="12657,45951 12657,45968 12941,45968 "
         id="polygon19376" /><polygon
         class="fil6"
         points="12657,45951 12941,45951 12941,45968 "
         id="polygon19378" /><polygon
         class="fil6"
         points="12996,45951 13000,45968 13449,45968 "
         id="polygon19380" /><polygon
         class="fil6"
         points="12996,45951 13449,45951 13449,45968 "
         id="polygon19382" /><polygon
         class="fil6"
         points="12657,45968 12657,45976 12941,45976 "
         id="polygon19384" /><polygon
         class="fil6"
         points="12657,45968 12941,45968 12941,45976 "
         id="polygon19386" /><polygon
         class="fil6"
         points="13000,45968 13000,45976 13449,45976 "
         id="polygon19388" /><polygon
         class="fil6"
         points="13000,45968 13449,45968 13449,45976 "
         id="polygon19390" /><polygon
         class="fil6"
         points="12657,45976 12657,45989 12941,45989 "
         id="polygon19392" /><polygon
         class="fil6"
         points="12657,45976 12941,45976 12941,45989 "
         id="polygon19394" /><polygon
         class="fil6"
         points="13000,45976 13000,45989 13449,45989 "
         id="polygon19396" /><polygon
         class="fil6"
         points="13000,45976 13449,45976 13449,45989 "
         id="polygon19398" /><polyline
         class="fil0 str7"
         points="12890,45989 12657,45989 12941,45989 12903,45989 "
         id="polyline19400" /><polygon
         class="fil0 str7"
         points="13000,45989 13449,45989 "
         id="polygon19402" /><polygon
         class="fil6"
         points="12657,45989 12657,45997 12882,45997 "
         id="polygon19404" /><polygon
         class="fil6"
         points="12657,45989 12890,45989 12882,45997 "
         id="polygon19406" /><polygon
         class="fil6"
         points="12903,45989 12912,45997 12941,45997 "
         id="polygon19408" /><polygon
         class="fil6"
         points="12903,45989 12941,45989 12941,45997 "
         id="polygon19410" /><polygon
         class="fil6"
         points="13000,45989 13000,45997 13449,45997 "
         id="polygon19412" /><polygon
         class="fil6"
         points="13000,45989 13449,45989 13449,45997 "
         id="polygon19414" /><polyline
         class="fil0 str7"
         points="12878,45997 12657,45997 12882,45997 "
         id="polyline19416" /><polyline
         class="fil0 str7"
         points="12916,45997 12941,45997 12912,45997 "
         id="polyline19418" /><polygon
         class="fil0 str7"
         points="13000,45997 13449,45997 "
         id="polygon19420" /><polygon
         class="fil6"
         points="12657,45997 12657,46006 12878,46006 "
         id="polygon19422" /><polygon
         class="fil6"
         points="12657,45997 12878,45997 12878,46006 "
         id="polygon19424" /><polygon
         class="fil6"
         points="12916,45997 12920,46006 12941,46006 "
         id="polygon19426" /><polygon
         class="fil6"
         points="12916,45997 12941,45997 12941,46006 "
         id="polygon19428" /><polygon
         class="fil6"
         points="13000,45997 13000,46006 13449,46006 "
         id="polygon19430" /><polygon
         class="fil6"
         points="13000,45997 13449,45997 13449,46006 "
         id="polygon19432" /><polygon
         class="fil6"
         points="12657,46006 12657,46031 12878,46031 "
         id="polygon19434" /><polygon
         class="fil6"
         points="12657,46006 12878,46006 12878,46031 "
         id="polygon19436" /><polygon
         class="fil6"
         points="12920,46006 12924,46031 12941,46031 "
         id="polygon19438" /><polygon
         class="fil6"
         points="12920,46006 12941,46006 12941,46031 "
         id="polygon19440" /><polygon
         class="fil6"
         points="13000,46006 13000,46031 13449,46031 "
         id="polygon19442" /><polygon
         class="fil6"
         points="13000,46006 13449,46006 13449,46031 "
         id="polygon19444" /><polygon
         class="fil0 str7"
         points="12657,46031 12878,46031 "
         id="polygon19446" /><polygon
         class="fil0 str7"
         points="12924,46031 12941,46031 "
         id="polygon19448" /><polyline
         class="fil0 str7"
         points="13051,46031 13000,46031 13449,46031 13060,46031 "
         id="polyline19450" /><polyline
         class="fil0 str7"
         points="12878,46036 12657,46031 12878,46031 "
         id="polyline19452" /><polyline
         class="fil0 str7"
         points="12941,46036 12924,46031 12941,46031 "
         id="polyline19454" /><polyline
         class="fil0 str7"
         points="13030,46036 13000,46031 13051,46031 "
         id="polyline19456" /><polyline
         class="fil0 str7"
         points="13106,46036 13060,46031 13110,46031 13449,46036 "
         id="polyline19458" /><line
         class="fil0 str7"
         x1="13110"
         y1="46031"
         x2="13449"
         y2="46031"
         id="line19460" /><polygon
         class="fil0 str7"
         points="12657,46036 12878,46036 "
         id="polygon19462" /><polygon
         class="fil0 str7"
         points="12928,46036 12941,46036 "
         id="polygon19464" /><polygon
         class="fil0 str7"
         points="13000,46036 13026,46036 "
         id="polygon19466" /><polygon
         class="fil0 str7"
         points="13064,46036 13106,46036 "
         id="polygon19468" /><polygon
         class="fil0 str7"
         points="13123,46036 13449,46036 "
         id="polygon19470" /><polygon
         class="fil0 str7"
         points="12657,46036 12878,46036 "
         id="polygon19472" /><polygon
         class="fil0 str7"
         points="12928,46036 12941,46036 "
         id="polygon19474" /><polygon
         class="fil0 str7"
         points="13000,46036 13026,46036 "
         id="polygon19476" /><polyline
         class="fil0 str7"
         points="13102,46036 13068,46036 13106,46036 "
         id="polyline19478" /><polygon
         class="fil0 str7"
         points="13140,46036 13449,46036 "
         id="polygon19480" /><polyline
         class="fil0 str7"
         points="12657,46040 12878,46040 12657,46036 "
         id="polyline19482" /><polyline
         class="fil0 str7"
         points="12928,46040 12941,46040 12928,46036 "
         id="polyline19484" /><path
         class="fil0 str7"
         d="M13000 46040l17 0m-17 -4l22 4"
         id="path19486" /><polyline
         class="fil0 str7"
         points="13094,46040 13068,46036 13102,46036 "
         id="polyline19488" /><line
         class="fil0 str7"
         x1="13140"
         y1="46040"
         x2="13174"
         y2="46040"
         id="line19490" /><polyline
         class="fil0 str7"
         points="13140,46036 13191,46036 13449,46040 13191,46036 "
         id="polyline19492" /><polygon
         class="fil0 str7"
         points="12657,46040 12878,46040 "
         id="polygon19494" /><polygon
         class="fil0 str7"
         points="12928,46040 12941,46040 "
         id="polygon19496" /><polygon
         class="fil0 str7"
         points="13000,46040 13017,46040 "
         id="polygon19498" /><polygon
         class="fil0 str7"
         points="13077,46040 13094,46040 "
         id="polygon19500" /><polyline
         class="fil0 str7"
         points="13170,46040 13144,46040 13174,46040 "
         id="polyline19502" /><polygon
         class="fil0 str7"
         points="13204,46040 13449,46040 "
         id="polygon19504" /><polyline
         class="fil0 str7"
         points="12657,46044 12878,46044 12657,46040 "
         id="polyline19506" /><polyline
         class="fil0 str7"
         points="12928,46044 12941,46044 12928,46040 "
         id="polyline19508" /><polyline
         class="fil0 str7"
         points="13000,46044 13013,46044 13000,46040 "
         id="polyline19510" /><polyline
         class="fil0 str7"
         points="13089,46044 13081,46040 13094,46040 "
         id="polyline19512" /><polyline
         class="fil0 str7"
         points="13149,46044 13170,46044 13144,46040 "
         id="polyline19514" /><polyline
         class="fil0 str7"
         points="13208,46044 13449,46044 13208,46040 "
         id="polyline19516" /><polygon
         class="fil0 str7"
         points="12657,46044 12878,46044 "
         id="polygon19518" /><polygon
         class="fil0 str7"
         points="12928,46044 12941,46044 "
         id="polygon19520" /><polygon
         class="fil0 str7"
         points="13000,46044 13013,46044 "
         id="polygon19522" /><line
         class="fil0 str7"
         x1="13081"
         y1="46044"
         x2="13089"
         y2="46044"
         id="line19524" /><polygon
         class="fil0 str7"
         points="13149,46044 13170,46044 "
         id="polygon19526" /><polyline
         class="fil0 str7"
         points="13212,46044 13449,46044 13208,46044 "
         id="polyline19528" /><polygon
         class="fil6"
         points="12657,46044 12657,46048 12878,46048 "
         id="polygon19530" /><polygon
         class="fil6"
         points="12657,46044 12878,46044 12878,46048 "
         id="polygon19532" /><polygon
         class="fil6"
         points="12928,46044 12928,46048 12945,46048 "
         id="polygon19534" /><polygon
         class="fil6"
         points="12928,46044 12941,46044 12945,46048 "
         id="polygon19536" /><polygon
         class="fil6"
         points="13000,46044 13013,46044 13000,46048 "
         id="polygon19538" /><line
         class="fil0 str7"
         x1="13149"
         y1="46044"
         x2="13161"
         y2="46048"
         id="line19540" /><polygon
         class="fil6"
         points="13149,46044 13170,46044 13161,46048 "
         id="polygon19542" /><polygon
         class="fil6"
         points="13212,46044 13216,46048 13449,46048 "
         id="polygon19544" /><polygon
         class="fil6"
         points="13212,46044 13449,46044 13449,46048 "
         id="polygon19546" /><polyline
         class="fil0 str7"
         points="12657,46052 12878,46052 12657,46048 "
         id="polyline19548" /><polyline
         class="fil0 str7"
         points="12928,46052 12945,46052 12928,46048 "
         id="polyline19550" /><line
         class="fil0 str7"
         x1="13157"
         y1="46052"
         x2="13161"
         y2="46052"
         id="line19552" /><polyline
         class="fil0 str7"
         points="13216,46052 13449,46052 13216,46048 "
         id="polyline19554" /><polyline
         class="fil0 str7"
         points="12878,46057 12657,46052 12878,46052 "
         id="polyline19556" /><polyline
         class="fil0 str7"
         points="12945,46057 12928,46052 12945,46052 "
         id="polyline19558" /><polyline
         class="fil0 str7"
         points="13449,46057 13221,46052 13449,46052 "
         id="polyline19560" /><polygon
         class="fil6"
         points="12657,46057 12657,46061 12878,46061 "
         id="polygon19562" /><polygon
         class="fil6"
         points="12657,46057 12878,46057 12878,46061 "
         id="polygon19564" /><polygon
         class="fil6"
         points="12928,46057 12928,46061 12945,46061 "
         id="polygon19566" /><polygon
         class="fil6"
         points="12928,46057 12945,46057 12945,46061 "
         id="polygon19568" /><polygon
         class="fil6"
         points="13221,46057 13221,46061 13449,46061 "
         id="polygon19570" /><polygon
         class="fil6"
         points="13221,46057 13449,46057 13449,46061 "
         id="polygon19572" /><polygon
         class="fil6"
         points="12657,46061 12657,46074 12878,46074 "
         id="polygon19574" /><polygon
         class="fil6"
         points="12657,46061 12878,46061 12878,46074 "
         id="polygon19576" /><polygon
         class="fil6"
         points="12928,46061 12928,46074 12945,46074 "
         id="polygon19578" /><polygon
         class="fil6"
         points="12928,46061 12945,46061 12945,46074 "
         id="polygon19580" /><polygon
         class="fil6"
         points="13221,46061 13225,46074 13449,46074 "
         id="polygon19582" /><polygon
         class="fil6"
         points="13221,46061 13449,46061 13449,46074 "
         id="polygon19584" /><polygon
         class="fil6"
         points="12657,46074 12657,46078 12878,46078 "
         id="polygon19586" /><polygon
         class="fil6"
         points="12657,46074 12878,46074 12878,46078 "
         id="polygon19588" /><polygon
         class="fil6"
         points="12928,46074 12933,46078 12945,46078 "
         id="polygon19590" /><polygon
         class="fil6"
         points="12928,46074 12945,46074 12945,46078 "
         id="polygon19592" /><polygon
         class="fil6"
         points="13225,46074 13225,46078 13449,46078 "
         id="polygon19594" /><polygon
         class="fil6"
         points="13225,46074 13449,46074 13449,46078 "
         id="polygon19596" /><polygon
         class="fil0 str7"
         points="12657,46078 12878,46078 "
         id="polygon19598" /><polygon
         class="fil0 str7"
         points="12933,46078 12945,46078 "
         id="polygon19600" /><polygon
         class="fil0 str7"
         points="13225,46078 13449,46078 "
         id="polygon19602" /><polygon
         class="fil6"
         points="12657,46078 12657,46116 12886,46116 "
         id="polygon19604" /><polygon
         class="fil6"
         points="12657,46078 12878,46078 12886,46116 "
         id="polygon19606" /><polygon
         class="fil6"
         points="12933,46078 12933,46116 12950,46116 "
         id="polygon19608" /><polygon
         class="fil6"
         points="12933,46078 12945,46078 12950,46116 "
         id="polygon19610" /><polygon
         class="fil6"
         points="13225,46078 13225,46116 13449,46116 "
         id="polygon19612" /><polygon
         class="fil6"
         points="13225,46078 13449,46078 13449,46116 "
         id="polygon19614" /><polyline
         class="fil0 str7"
         points="12886,46120 12657,46116 12886,46116 "
         id="polyline19616" /><polyline
         class="fil0 str7"
         points="12950,46120 12933,46116 12950,46116 "
         id="polyline19618" /><polyline
         class="fil0 str7"
         points="13449,46120 13225,46116 13449,46116 "
         id="polyline19620" /><polygon
         class="fil6"
         points="12657,46120 12657,46124 12886,46124 "
         id="polygon19622" /><polygon
         class="fil6"
         points="12657,46120 12886,46120 12886,46124 "
         id="polygon19624" /><polygon
         class="fil6"
         points="12933,46120 12928,46124 12954,46124 "
         id="polygon19626" /><polygon
         class="fil6"
         points="12933,46120 12950,46120 12954,46124 "
         id="polygon19628" /><polygon
         class="fil6"
         points="13225,46120 13225,46124 13449,46124 "
         id="polygon19630" /><polygon
         class="fil6"
         points="13225,46120 13449,46120 13449,46124 "
         id="polygon19632" /><polyline
         class="fil0 str7"
         points="12657,46129 12886,46129 12657,46124 "
         id="polyline19634" /><polyline
         class="fil0 str7"
         points="12928,46129 12954,46129 12928,46124 "
         id="polyline19636" /><polyline
         class="fil0 str7"
         points="13225,46129 13449,46129 13225,46124 "
         id="polyline19638" /><polygon
         class="fil6"
         points="12657,46129 12657,46137 12886,46137 "
         id="polygon19640" /><polygon
         class="fil6"
         points="12657,46129 12886,46129 12886,46137 "
         id="polygon19642" /><polygon
         class="fil6"
         points="12928,46129 12933,46137 12950,46137 "
         id="polygon19644" /><polygon
         class="fil6"
         points="12928,46129 12954,46129 12950,46137 "
         id="polygon19646" /><polygon
         class="fil6"
         points="13225,46129 13225,46137 13449,46137 "
         id="polygon19648" /><polygon
         class="fil6"
         points="13225,46129 13449,46129 13449,46137 "
         id="polygon19650" /><polygon
         class="fil0 str7"
         points="12657,46137 12886,46137 "
         id="polygon19652" /><polygon
         class="fil0 str7"
         points="12933,46137 12950,46137 "
         id="polygon19654" /><polygon
         class="fil0 str7"
         points="13225,46137 13449,46137 "
         id="polygon19656" /><polyline
         class="fil0 str7"
         points="12886,46141 12657,46137 12886,46137 "
         id="polyline19658" /><line
         class="fil0 str7"
         x1="12933"
         y1="46137"
         x2="12945"
         y2="46137"
         id="line19660" /><polyline
         class="fil0 str7"
         points="13449,46141 13225,46137 13449,46137 "
         id="polyline19662" /><polygon
         class="fil6"
         points="12657,46141 12657,46154 12890,46154 "
         id="polygon19664" /><polygon
         class="fil6"
         points="12657,46141 12886,46141 12890,46154 "
         id="polygon19666" /><polygon
         class="fil6"
         points="13225,46141 13225,46154 13449,46154 "
         id="polygon19668" /><polygon
         class="fil6"
         points="13225,46141 13449,46141 13449,46154 "
         id="polygon19670" /><polygon
         class="fil6"
         points="12657,46154 12657,46179 12894,46179 "
         id="polygon19672" /><polygon
         class="fil6"
         points="12657,46154 12890,46154 12894,46179 "
         id="polygon19674" /><polygon
         class="fil6"
         points="13225,46154 13225,46179 13449,46179 "
         id="polygon19676" /><polygon
         class="fil6"
         points="13225,46154 13449,46154 13449,46179 "
         id="polygon19678" /><polygon
         class="fil6"
         points="12657,46179 12657,46230 12907,46230 "
         id="polygon19680" /><polygon
         class="fil6"
         points="12657,46179 12894,46179 12907,46230 "
         id="polygon19682" /><polygon
         class="fil6"
         points="13225,46179 13221,46230 13449,46230 "
         id="polygon19684" /><polygon
         class="fil6"
         points="13225,46179 13449,46179 13449,46230 "
         id="polygon19686" /><polygon
         class="fil6"
         points="12657,46230 12657,46256 12916,46256 "
         id="polygon19688" /><polygon
         class="fil6"
         points="12657,46230 12907,46230 12916,46256 "
         id="polygon19690" /><polygon
         class="fil6"
         points="13221,46230 13221,46256 13449,46256 "
         id="polygon19692" /><polygon
         class="fil6"
         points="13221,46230 13449,46230 13449,46256 "
         id="polygon19694" /><polygon
         class="fil6"
         points="12657,46256 12657,46285 12928,46285 "
         id="polygon19696" /><polygon
         class="fil6"
         points="12657,46256 12916,46256 12928,46285 "
         id="polygon19698" /><polygon
         class="fil6"
         points="13221,46256 13216,46285 13449,46285 "
         id="polygon19700" /><polygon
         class="fil6"
         points="13221,46256 13449,46256 13449,46285 "
         id="polygon19702" /><polygon
         class="fil0 str7"
         points="12657,46285 12928,46285 "
         id="polygon19704" /><polygon
         class="fil0 str7"
         points="13216,46285 13449,46285 "
         id="polygon19706" /><polygon
         class="fil6"
         points="12657,46285 12657,46307 12945,46307 "
         id="polygon19708" /><polygon
         class="fil6"
         points="12657,46285 12928,46285 12945,46307 "
         id="polygon19710" /><polygon
         class="fil6"
         points="13216,46285 13204,46307 13449,46307 "
         id="polygon19712" /><polygon
         class="fil6"
         points="13216,46285 13449,46285 13449,46307 "
         id="polygon19714" /><polygon
         class="fil6"
         points="12657,46307 12657,46319 12958,46319 "
         id="polygon19716" /><polygon
         class="fil6"
         points="12657,46307 12945,46307 12958,46319 "
         id="polygon19718" /><polygon
         class="fil6"
         points="13204,46307 13195,46319 13449,46319 "
         id="polygon19720" /><polygon
         class="fil6"
         points="13204,46307 13449,46307 13449,46319 "
         id="polygon19722" /><polyline
         class="fil0 str7"
         points="12962,46323 12657,46319 12962,46319 "
         id="polyline19724" /><polyline
         class="fil0 str7"
         points="13449,46323 13195,46319 13449,46319 "
         id="polyline19726" /><polygon
         class="fil6"
         points="12657,46323 12657,46336 12950,46336 "
         id="polygon19728" /><polygon
         class="fil6"
         points="12657,46323 12962,46323 12950,46336 "
         id="polygon19730" /><polygon
         class="fil6"
         points="13199,46323 13208,46336 13449,46336 "
         id="polygon19732" /><polygon
         class="fil6"
         points="13199,46323 13449,46323 13449,46336 "
         id="polygon19734" /><polygon
         class="fil6"
         points="12657,46336 12657,46349 12941,46349 "
         id="polygon19736" /><polygon
         class="fil6"
         points="12657,46336 12950,46336 12941,46349 "
         id="polygon19738" /><polygon
         class="fil6"
         points="13208,46336 13216,46349 13449,46349 "
         id="polygon19740" /><polygon
         class="fil6"
         points="13208,46336 13449,46336 13449,46349 "
         id="polygon19742" /><polygon
         class="fil6"
         points="12941,46349 13216,46349 13216,46349 "
         id="polygon19744" /><polygon
         class="fil6"
         points="12657,46349 12657,46434 13449,46434 "
         id="polygon19746" /><polygon
         class="fil6"
         points="12657,46349 13449,46349 13449,46434 "
         id="polygon19748" /><polygon
         class="fil6"
         points="12657,46434 13449,46434 13449,46434 "
         id="polygon19750" /><polygon
         class="fil0 str1"
         points="12657,46434 13449,46434 13449,45633 12657,45633 "
         id="polygon19752" /><polyline
         class="fil0 str1"
         points="12941,46349 13216,46349 13195,46319 13216,46285 13225,46074 13221,46057 13208,46040 13191,46036 13174,46040 13161,46052 13140,46036 13110,46031 13085,46044 13060,46031 13030,46031 13005,46044 13000,46044 12992,45904 12992,45875 12983,45849 13038,45849 13038,45714 12886,45714 12886,45849 12950,45849 12937,45925 12941,45976 12945,46061 12950,46133 "
         id="polyline19754" /><polyline
         class="fil0 str1"
         points="12933,46137 12941,46141 12950,46133 "
         id="polyline19756" /><polyline
         class="fil0 str1"
         points="12933,46137 12933,46078 12924,46019 12916,46002 12903,45989 12890,45989 12878,45997 12878,46078 12903,46218 12928,46285 12962,46323 12941,46349 "
         id="polyline19758" /><polyline
         class="fil0 str1"
         points="12983,45845 13034,45845 13034,45714 12890,45714 12890,45845 12950,45845 12967,45832 "
         id="polyline19760" /><polyline
         class="fil0 str1"
         points="12983,45845 12975,45837 12967,45832 "
         id="polyline19762" /><polygon
         class="fil0 str1"
         points="13005,45782 13000,45760 12983,45748 12962,45739 12941,45748 12928,45760 12920,45782 12928,45803 12941,45820 12962,45824 12983,45820 13000,45803 "
         id="polygon19764" /><path
         style="fill:#ffffff;fill-opacity:1"
         d="m 459.44339,1641.757 c 0.27724,-0.2773 0.15186,-0.6483 -0.41279,-1.2215 -0.86533,-0.8786 -1.33967,-2.2216 -1.93251,-5.4719 -0.54937,-3.0119 -0.66312,-5.0083 -0.29345,-5.1502 0.2567,-0.098 0.38821,-0.01 0.59395,0.3993 0.27046,0.5382 0.35371,1.0995 0.43649,2.9426 0.0777,1.7294 0.0796,1.7383 0.41795,1.9278 0.3217,0.1801 0.35683,0.1734 0.65583,-0.1256 l 0.31592,-0.3159 -0.13239,-2.1717 c -0.0728,-1.1945 -0.17905,-2.8828 -0.23608,-3.7519 -0.087,-1.3255 -0.0661,-1.7855 0.12947,-2.855 0.23368,-1.2777 0.38279,-1.6319 0.59188,-1.406 0.26516,0.2865 0.38302,1.1801 0.5243,3.975 0.083,1.6422 0.20519,3.0558 0.27151,3.1414 0.17618,0.2272 0.59713,0.1888 1.02319,-0.093 0.48203,-0.3193 1.06259,-0.3148 1.70531,0.013 0.48511,0.2475 0.53661,0.2509 0.93235,0.062 0.59751,-0.2849 1.15225,-0.2482 1.68129,0.1113 0.55294,0.3757 0.65298,0.3816 1.05904,0.062 0.56914,-0.4477 1.2258,-0.2104 1.40248,0.5069 0.0342,0.1389 -0.008,1.9003 -0.0932,3.9142 l -0.15542,3.6616 -0.39575,0.6432 c -0.38349,0.6233 -0.38945,0.6542 -0.1925,0.9973 l 0.20326,0.3542 -4.1247,0 c -3.2081,0 -4.09153,-0.033 -3.97541,-0.1493 z"
         id="path3665"
         inkscape:connector-curvature="0"
         transform="matrix(28.222224,0,0,28.222224,-8.6127392e-4,0)" /><path
         style="fill:#ffffff;fill-opacity:1"
         d="m 458.99402,1623.2698 c -0.32884,-0.051 -0.76871,-0.6934 -0.7694,-1.1235 -5.9e-4,-0.3621 0.63783,-1.0169 0.99144,-1.0169 0.14551,0 0.43215,0.087 0.63697,0.1926 1.11743,0.5779 0.42521,2.1475 -0.85901,1.9478 z"
         id="path3667"
         inkscape:connector-curvature="0"
         transform="matrix(28.222224,0,0,28.222224,-8.6127392e-4,0)" /></g><metadata
       id="CorelCorpID_0Corel-Layer" /></g></svg>