<?xml version="1.0" encoding="UTF-8" standalone="no"?>
<!-- Creator: CorelDRAW X8 -->

<svg
   xmlns:dc="http://purl.org/dc/elements/1.1/"
   xmlns:cc="http://creativecommons.org/ns#"
   xmlns:rdf="http://www.w3.org/1999/02/22-rdf-syntax-ns#"
   xmlns:svg="http://www.w3.org/2000/svg"
   xmlns="http://www.w3.org/2000/svg"
   xmlns:sodipodi="http://sodipodi.sourceforge.net/DTD/sodipodi-0.dtd"
   xmlns:inkscape="http://www.inkscape.org/namespaces/inkscape"
   xml:space="preserve"
   width="254.5mm"
   height="750mm"
   version="1.1"
   style="shape-rendering:geometricPrecision; text-rendering:geometricPrecision; image-rendering:optimizeQuality; fill-rule:evenodd; clip-rule:evenodd"
   viewBox="0 0 25450 75000"
   id="svg2"
   inkscape:version="0.91 r13725"
   sodipodi:docname="042.svg"><metadata
     id="metadata51242"><rdf:RDF><cc:Work
         rdf:about=""><dc:format>image/svg+xml</dc:format><dc:type
           rdf:resource="http://purl.org/dc/dcmitype/StillImage" /><dc:title /></cc:Work></rdf:RDF></metadata><sodipodi:namedview
     pagecolor="#ffffff"
     bordercolor="#666666"
     borderopacity="1"
     objecttolerance="10"
     gridtolerance="10"
     guidetolerance="10"
     inkscape:pageopacity="0"
     inkscape:pageshadow="2"
     inkscape:window-width="843"
     inkscape:window-height="999"
     id="namedview51240"
     showgrid="false"
     inkscape:zoom="11.367158"
     inkscape:cx="460.77386"
     inkscape:cy="1002.0829"
     inkscape:window-x="1061"
     inkscape:window-y="1"
     inkscape:window-maximized="0"
     inkscape:current-layer="Слой_x0020_1" /><defs
     id="defs4"><style
       type="text/css"
       id="style6"><![CDATA[
       svg {
                position: absolute;
            }
    .str16 {stroke:red;stroke-width:59.27;stroke-linecap:round;stroke-linejoin:round}
    .str17 {stroke:yellow;stroke-width:59.27;stroke-linecap:round;stroke-linejoin:round}
    .str20 {stroke:#DDA56E;stroke-width:21.17;stroke-linecap:round;stroke-linejoin:round}
    .str18 {stroke:red;stroke-width:21.17;stroke-linecap:round;stroke-linejoin:round}
    .str21 {stroke:yellow;stroke-width:21.17;stroke-linecap:round;stroke-linejoin:round}
    .str15 {stroke:black;stroke-width:8.47;stroke-linecap:round;stroke-linejoin:round}
    .str0 {stroke:black;stroke-width:29.63;stroke-linecap:round;stroke-linejoin:round}
    .str1 {stroke:black;stroke-width:16.93;stroke-linecap:round;stroke-linejoin:round}
    .str10 {stroke:gray;stroke-width:16.93;stroke-linecap:round;stroke-linejoin:round}
    .str4 {stroke:black;stroke-width:4.23;stroke-linecap:round;stroke-linejoin:round}
    .str14 {stroke:#0037DD;stroke-width:4.23;stroke-linecap:round;stroke-linejoin:round}
    .str2 {stroke:#006EDD;stroke-width:4.23;stroke-linecap:round;stroke-linejoin:round}
    .str5 {stroke:#00B85C;stroke-width:4.23;stroke-linecap:round;stroke-linejoin:round}
    .str3 {stroke:#00DD00;stroke-width:4.23;stroke-linecap:round;stroke-linejoin:round}
    .str9 {stroke:lime;stroke-width:4.23;stroke-linecap:round;stroke-linejoin:round}
    .str12 {stroke:gray;stroke-width:4.23;stroke-linecap:round;stroke-linejoin:round}
    .str13 {stroke:#989898;stroke-width:4.23;stroke-linecap:round;stroke-linejoin:round}
    .str11 {stroke:#BABABA;stroke-width:4.23;stroke-linecap:round;stroke-linejoin:round}
    .str7 {stroke:red;stroke-width:4.23;stroke-linecap:round;stroke-linejoin:round}
    .str8 {stroke:#FF7F00;stroke-width:4.23;stroke-linecap:round;stroke-linejoin:round}
    .str6 {stroke:yellow;stroke-width:4.23;stroke-linecap:round;stroke-linejoin:round}
    .str23 {stroke:#00BFFF;stroke-width:25.4;stroke-linecap:round;stroke-linejoin:round}
    .str22 {stroke:#37DD00;stroke-width:25.4;stroke-linecap:round;stroke-linejoin:round}
    .str19 {stroke:black;stroke-width:12.7;stroke-linecap:round;stroke-linejoin:round}
    .fil0 {fill:none}
    .fil1 {fill:black}
    .fil13 {fill:#0037DD}
    .fil2 {fill:#006EDD}
    .fil3 {fill:#00B85C}
    .fil4 {fill:#00DD00}
    .fil9 {fill:lime}
    .fil7 {fill:gray}
    .fil12 {fill:#989898}
    .fil11 {fill:#B85C00}
    .fil10 {fill:#BABABA}
    .fil14 {fill:#FCFCFC}
    .fil6 {fill:red}
    .fil8 {fill:#FF7F00}
    .fil5 {fill:yellow}
   ]]></style></defs><g
     id="Слой_x0020_1"><g
       id="g59334"><polygon
         style="fill:#ffffff;stroke:#000000;stroke-width:16.93000031;stroke-linecap:round;stroke-linejoin:round"
         class="fil0 str1"
         points="13449,47428 13449,46632 12657,46632 12657,47428 "
         id="background-poly" /><polygon
         class="fil0 str1"
         points="12657,47428 13449,47428 13449,46632 12657,46632 "
         id="polygon19766" /><polygon
         class="fil0 str1"
         points="13373,47030 13364,46958 13339,46891 13301,46831 13250,46781 13191,46742 13123,46721 13051,46713 12983,46721 12916,46742 12856,46781 12806,46831 12768,46891 12742,46958 12734,47030 12742,47102 12768,47166 12806,47229 12856,47276 12916,47314 12983,47339 13051,47348 13123,47339 13191,47314 13250,47276 13301,47229 13339,47166 13364,47102 "
         id="polygon19768" /><polyline
         class="fil0 str1"
         points="13081,47073 13187,46975 13208,46937 13216,46895 13208,46853 13187,46814 13140,46781 13085,46768 13030,46772 12983,46785 12945,46810 12916,46848 12899,46891 12899,46933 12916,46971 12933,46975 12945,46967 13009,46886 "
         id="polyline19770" /><polyline
         class="fil0 str1"
         points="13127,46865 13098,46853 13064,46853 13034,46861 13009,46886 "
         id="polyline19772" /><polyline
         class="fil0 str1"
         points="13140,46920 13149,46899 13144,46878 13127,46865 "
         id="polyline19774" /><polyline
         class="fil0 str1"
         points="13140,46920 13081,47001 13030,47094 13009,47140 13005,47191 13013,47242 13064,47314 "
         id="polyline19776" /><polyline
         class="fil0 str1"
         points="13081,47073 13055,47115 13038,47166 13034,47217 13043,47267 13064,47314 "
         id="polyline19778" /><line
         class="fil0 str7"
         x1="13030"
         y1="46772"
         x2="13098"
         y2="46772"
         id="line19780" /><polygon
         class="fil6"
         points="13030,46772 12992,46781 13140,46781 "
         id="polygon19782" /><polygon
         class="fil6"
         points="13030,46772 13098,46772 13140,46781 "
         id="polygon19784" /><polyline
         class="fil0 str7"
         points="12983,46785 13144,46785 12992,46781 "
         id="polyline19786" /><polygon
         class="fil6"
         points="12983,46785 12945,46810 13187,46810 "
         id="polygon19788" /><polygon
         class="fil6"
         points="12983,46785 13144,46785 13187,46810 "
         id="polygon19790" /><polyline
         class="fil0 str7"
         points="13187,46814 12945,46810 13187,46810 "
         id="polyline19792" /><polygon
         class="fil6"
         points="12945,46814 12916,46848 13208,46848 "
         id="polygon19794" /><polygon
         class="fil6"
         points="12945,46814 13187,46814 13208,46848 "
         id="polygon19796" /><polyline
         class="fil0 str7"
         points="13208,46853 12916,46848 13208,46848 "
         id="polyline19798" /><polyline
         class="fil0 str7"
         points="12916,46853 13208,46853 12916,46853 13060,46853 "
         id="polyline19800" /><polyline
         class="fil0 str7"
         points="12916,46853 13208,46853 13064,46853 "
         id="polyline19802" /><polygon
         class="fil6"
         points="12916,46853 12912,46861 13034,46861 "
         id="polygon19804" /><polygon
         class="fil6"
         points="12916,46853 13060,46853 13034,46861 "
         id="polygon19806" /><polygon
         class="fil6"
         points="13098,46853 13119,46861 13212,46861 "
         id="polygon19808" /><polygon
         class="fil6"
         points="13098,46853 13208,46853 13212,46861 "
         id="polygon19810" /><polyline
         class="fil0 str7"
         points="12912,46865 13030,46865 12912,46861 "
         id="polyline19812" /><polygon
         class="fil0 str7"
         points="13119,46861 13212,46865 "
         id="polygon19814" /><polygon
         class="fil6"
         points="12912,46865 12907,46878 13017,46878 "
         id="polygon19816" /><polygon
         class="fil6"
         points="12912,46865 13030,46865 13017,46878 "
         id="polygon19818" /><polygon
         class="fil6"
         points="13127,46865 13140,46878 13212,46878 "
         id="polygon19820" /><polygon
         class="fil6"
         points="13127,46865 13212,46865 13212,46878 "
         id="polygon19822" /><polygon
         class="fil6"
         points="12907,46878 12903,46886 13009,46886 "
         id="polygon19824" /><polygon
         class="fil6"
         points="12907,46878 13017,46878 13009,46886 "
         id="polygon19826" /><polygon
         class="fil6"
         points="13140,46878 13144,46886 13216,46886 "
         id="polygon19828" /><polygon
         class="fil6"
         points="13140,46878 13212,46878 13216,46886 "
         id="polygon19830" /><polygon
         class="fil6"
         points="12903,46886 12899,46891 13000,46891 "
         id="polygon19832" /><polygon
         class="fil6"
         points="12903,46886 13009,46886 13000,46891 "
         id="polygon19834" /><polygon
         class="fil6"
         points="13144,46886 13149,46891 13216,46891 "
         id="polygon19836" /><polygon
         class="fil6"
         points="13144,46886 13216,46886 13216,46891 "
         id="polygon19838" /><polyline
         class="fil0 str7"
         points="12899,46895 13000,46895 12899,46891 "
         id="polyline19840" /><polyline
         class="fil0 str7"
         points="13149,46895 13216,46895 13149,46891 "
         id="polyline19842" /><polygon
         class="fil0 str7"
         points="12899,46895 13000,46895 "
         id="polygon19844" /><polygon
         class="fil0 str7"
         points="13149,46895 13216,46895 "
         id="polygon19846" /><polygon
         class="fil6"
         points="12899,46895 12899,46912 12988,46912 "
         id="polygon19848" /><polygon
         class="fil6"
         points="12899,46895 13000,46895 12988,46912 "
         id="polygon19850" /><polygon
         class="fil6"
         points="13149,46895 13144,46912 13212,46912 "
         id="polygon19852" /><polygon
         class="fil6"
         points="13149,46895 13216,46895 13212,46912 "
         id="polygon19854" /><polygon
         class="fil6"
         points="12899,46912 12899,46925 12979,46925 "
         id="polygon19856" /><polygon
         class="fil6"
         points="12899,46912 12988,46912 12979,46925 "
         id="polygon19858" /><polygon
         class="fil6"
         points="13144,46912 13136,46925 13208,46925 "
         id="polygon19860" /><polygon
         class="fil6"
         points="13144,46912 13212,46912 13208,46925 "
         id="polygon19862" /><polygon
         class="fil0 str7"
         points="12899,46925 12979,46925 "
         id="polygon19864" /><polygon
         class="fil0 str7"
         points="13136,46925 13208,46925 "
         id="polygon19866" /><polygon
         class="fil6"
         points="12899,46925 12899,46933 12971,46933 "
         id="polygon19868" /><polygon
         class="fil6"
         points="12899,46925 12979,46925 12971,46933 "
         id="polygon19870" /><polygon
         class="fil6"
         points="13136,46925 13132,46933 13208,46933 "
         id="polygon19872" /><polygon
         class="fil6"
         points="13136,46925 13208,46925 13208,46933 "
         id="polygon19874" /><polyline
         class="fil0 str7"
         points="12971,46937 12899,46933 12971,46933 "
         id="polyline19876" /><polyline
         class="fil0 str7"
         points="13208,46937 13132,46933 13208,46933 "
         id="polyline19878" /><polygon
         class="fil6"
         points="12903,46937 12916,46967 12945,46967 "
         id="polygon19880" /><polygon
         class="fil6"
         points="12903,46937 12971,46937 12945,46967 "
         id="polygon19882" /><polygon
         class="fil6"
         points="13127,46937 13106,46967 13187,46967 "
         id="polygon19884" /><polygon
         class="fil6"
         points="13127,46937 13208,46937 13187,46967 "
         id="polygon19886" /><polyline
         class="fil0 str7"
         points="12941,46971 12916,46967 12945,46967 "
         id="polyline19888" /><polyline
         class="fil0 str7"
         points="13187,46971 13106,46967 13187,46967 "
         id="polyline19890" /><polyline
         class="fil0 str7"
         points="12933,46975 12916,46971 12937,46971 "
         id="polyline19892" /><path
         class="fil0 str7"
         d="M13102 46971l85 4m-81 -4l81 0m-259 4l5 0"
         id="path19894" /><polygon
         class="fil0 str7"
         points="13102,46975 13182,46975 "
         id="polygon19896" /><polygon
         class="fil6"
         points="13102,46975 13077,47005 13149,47005 "
         id="polygon19898" /><polygon
         class="fil6"
         points="13102,46975 13182,46975 13149,47005 "
         id="polygon19900" /><polygon
         class="fil6"
         points="13077,47005 13068,47022 13132,47022 "
         id="polygon19902" /><polygon
         class="fil6"
         points="13077,47005 13149,47005 13132,47022 "
         id="polygon19904" /><polygon
         class="fil6"
         points="13068,47022 13038,47073 13081,47073 "
         id="polygon19906" /><polygon
         class="fil6"
         points="13068,47022 13132,47022 13081,47073 "
         id="polygon19908" /><polygon
         class="fil6"
         points="13038,47073 13030,47094 13068,47094 "
         id="polygon19910" /><polygon
         class="fil6"
         points="13038,47073 13081,47073 13068,47094 "
         id="polygon19912" /><polygon
         class="fil6"
         points="13030,47094 13022,47115 13055,47115 "
         id="polygon19914" /><polygon
         class="fil6"
         points="13030,47094 13068,47094 13055,47115 "
         id="polygon19916" /><polygon
         class="fil6"
         points="13022,47115 13009,47140 13047,47140 "
         id="polygon19918" /><polygon
         class="fil6"
         points="13022,47115 13055,47115 13047,47140 "
         id="polygon19920" /><polygon
         class="fil6"
         points="13009,47140 13009,47166 13038,47166 "
         id="polygon19922" /><polygon
         class="fil6"
         points="13009,47140 13047,47140 13038,47166 "
         id="polygon19924" /><polygon
         class="fil6"
         points="13009,47166 13005,47191 13038,47191 "
         id="polygon19926" /><polygon
         class="fil6"
         points="13009,47166 13038,47166 13038,47191 "
         id="polygon19928" /><polygon
         class="fil6"
         points="13005,47191 13009,47217 13034,47217 "
         id="polygon19930" /><polygon
         class="fil6"
         points="13005,47191 13038,47191 13034,47217 "
         id="polygon19932" /><polygon
         class="fil6"
         points="13009,47217 13013,47242 13043,47242 "
         id="polygon19934" /><polygon
         class="fil6"
         points="13009,47217 13034,47217 13043,47242 "
         id="polygon19936" /><polygon
         class="fil6"
         points="13013,47242 13026,47267 13043,47267 "
         id="polygon19938" /><polygon
         class="fil6"
         points="13013,47242 13043,47242 13043,47267 "
         id="polygon19940" /><polygon
         class="fil6"
         points="13026,47267 13034,47280 13051,47280 "
         id="polygon19942" /><polygon
         class="fil6"
         points="13026,47267 13043,47267 13051,47280 "
         id="polygon19944" /><line
         class="fil0 str7"
         x1="13034"
         y1="47280"
         x2="13064"
         y2="47314"
         id="line19946" /><polygon
         class="fil6"
         points="13034,47280 13051,47280 13064,47314 "
         id="polygon19948" /><polygon
         class="fil0 str7"
         points="13060,47314 13064,47314 "
         id="polygon19950" /><line
         class="fil0 str7"
         x1="13064"
         y1="47314"
         x2="13060"
         y2="47314"
         id="line19952" /><line
         class="fil0 str7"
         x1="13064"
         y1="47314"
         x2="13068"
         y2="47314"
         id="line19954" /></g><metadata
       id="CorelCorpID_0Corel-Layer" /></g></svg>