<?xml version="1.0" encoding="UTF-8" standalone="no"?>
<!-- Creator: CorelDRAW X8 -->

<svg
   xmlns:dc="http://purl.org/dc/elements/1.1/"
   xmlns:cc="http://creativecommons.org/ns#"
   xmlns:rdf="http://www.w3.org/1999/02/22-rdf-syntax-ns#"
   xmlns:svg="http://www.w3.org/2000/svg"
   xmlns="http://www.w3.org/2000/svg"
   xmlns:sodipodi="http://sodipodi.sourceforge.net/DTD/sodipodi-0.dtd"
   xmlns:inkscape="http://www.inkscape.org/namespaces/inkscape"
   xml:space="preserve"
   width="254.5mm"
   height="750mm"
   version="1.1"
   style="shape-rendering:geometricPrecision; text-rendering:geometricPrecision; image-rendering:optimizeQuality; fill-rule:evenodd; clip-rule:evenodd"
   viewBox="0 0 25450 75000"
   id="svg2"
   inkscape:version="0.91 r13725"
   sodipodi:docname="043.svg"><metadata
     id="metadata51242"><rdf:RDF><cc:Work
         rdf:about=""><dc:format>image/svg+xml</dc:format><dc:type
           rdf:resource="http://purl.org/dc/dcmitype/StillImage" /><dc:title /></cc:Work></rdf:RDF></metadata><sodipodi:namedview
     pagecolor="#ffffff"
     bordercolor="#666666"
     borderopacity="1"
     objecttolerance="10"
     gridtolerance="10"
     guidetolerance="10"
     inkscape:pageopacity="0"
     inkscape:pageshadow="2"
     inkscape:window-width="1920"
     inkscape:window-height="1018"
     id="namedview51240"
     showgrid="false"
     inkscape:zoom="11.367158"
     inkscape:cx="454.46437"
     inkscape:cy="965.77994"
     inkscape:window-x="-8"
     inkscape:window-y="-8"
     inkscape:window-maximized="1"
     inkscape:current-layer="Слой_x0020_1" /><defs
     id="defs4"><style
       type="text/css"
       id="style6"><![CDATA[
       svg {
                position: absolute;
            }
    .str16 {stroke:red;stroke-width:59.27;stroke-linecap:round;stroke-linejoin:round}
    .str17 {stroke:yellow;stroke-width:59.27;stroke-linecap:round;stroke-linejoin:round}
    .str20 {stroke:#DDA56E;stroke-width:21.17;stroke-linecap:round;stroke-linejoin:round}
    .str18 {stroke:red;stroke-width:21.17;stroke-linecap:round;stroke-linejoin:round}
    .str21 {stroke:yellow;stroke-width:21.17;stroke-linecap:round;stroke-linejoin:round}
    .str15 {stroke:black;stroke-width:8.47;stroke-linecap:round;stroke-linejoin:round}
    .str0 {stroke:black;stroke-width:29.63;stroke-linecap:round;stroke-linejoin:round}
    .str1 {stroke:black;stroke-width:16.93;stroke-linecap:round;stroke-linejoin:round}
    .str10 {stroke:gray;stroke-width:16.93;stroke-linecap:round;stroke-linejoin:round}
    .str4 {stroke:black;stroke-width:4.23;stroke-linecap:round;stroke-linejoin:round}
    .str14 {stroke:#0037DD;stroke-width:4.23;stroke-linecap:round;stroke-linejoin:round}
    .str2 {stroke:#006EDD;stroke-width:4.23;stroke-linecap:round;stroke-linejoin:round}
    .str5 {stroke:#00B85C;stroke-width:4.23;stroke-linecap:round;stroke-linejoin:round}
    .str3 {stroke:#00DD00;stroke-width:4.23;stroke-linecap:round;stroke-linejoin:round}
    .str9 {stroke:lime;stroke-width:4.23;stroke-linecap:round;stroke-linejoin:round}
    .str12 {stroke:gray;stroke-width:4.23;stroke-linecap:round;stroke-linejoin:round}
    .str13 {stroke:#989898;stroke-width:4.23;stroke-linecap:round;stroke-linejoin:round}
    .str11 {stroke:#BABABA;stroke-width:4.23;stroke-linecap:round;stroke-linejoin:round}
    .str7 {stroke:red;stroke-width:4.23;stroke-linecap:round;stroke-linejoin:round}
    .str8 {stroke:#FF7F00;stroke-width:4.23;stroke-linecap:round;stroke-linejoin:round}
    .str6 {stroke:yellow;stroke-width:4.23;stroke-linecap:round;stroke-linejoin:round}
    .str23 {stroke:#00BFFF;stroke-width:25.4;stroke-linecap:round;stroke-linejoin:round}
    .str22 {stroke:#37DD00;stroke-width:25.4;stroke-linecap:round;stroke-linejoin:round}
    .str19 {stroke:black;stroke-width:12.7;stroke-linecap:round;stroke-linejoin:round}
    .fil0 {fill:none}
    .fil1 {fill:black}
    .fil13 {fill:#0037DD}
    .fil2 {fill:#006EDD}
    .fil3 {fill:#00B85C}
    .fil4 {fill:#00DD00}
    .fil9 {fill:lime}
    .fil7 {fill:gray}
    .fil12 {fill:#989898}
    .fil11 {fill:#B85C00}
    .fil10 {fill:#BABABA}
    .fil14 {fill:#FCFCFC}
    .fil6 {fill:red}
    .fil8 {fill:#FF7F00}
    .fil5 {fill:yellow}
   ]]></style></defs><g
     id="Слой_x0020_1"><g
       id="g59431"><polygon
         style="fill:#ffffff;stroke:#000000;stroke-width:16.93000031;stroke-linecap:round;stroke-linejoin:round"
         class="fil0 str1"
         points="13449,48427 13449,47632 12657,47632 12657,48427 "
         id="background-poly" /><polygon
         class="fil6"
         points="13013,47831 13094,47831 13094,47831 "
         id="polygon19956" /><polygon
         class="fil6"
         points="13013,47831 13013,48106 13094,48106 "
         id="polygon19958" /><polygon
         class="fil6"
         points="13013,47831 13094,47831 13094,48106 "
         id="polygon19960" /><polygon
         class="fil6"
         points="13013,48106 12983,48127 13123,48127 "
         id="polygon19962" /><polygon
         class="fil6"
         points="13013,48106 13094,48106 13123,48127 "
         id="polygon19964" /><polygon
         class="fil6"
         points="12983,48127 12962,48156 13144,48156 "
         id="polygon19966" /><polygon
         class="fil6"
         points="12983,48127 13123,48127 13144,48156 "
         id="polygon19968" /><polygon
         class="fil6"
         points="12962,48156 12958,48195 13149,48195 "
         id="polygon19970" /><polygon
         class="fil6"
         points="12962,48156 13144,48156 13149,48195 "
         id="polygon19972" /><polygon
         class="fil6"
         points="12958,48195 12967,48228 13140,48228 "
         id="polygon19974" /><polygon
         class="fil6"
         points="12958,48195 13149,48195 13140,48228 "
         id="polygon19976" /><polygon
         class="fil6"
         points="12967,48228 12988,48262 13119,48262 "
         id="polygon19978" /><polygon
         class="fil6"
         points="12967,48228 13140,48228 13119,48262 "
         id="polygon19980" /><polygon
         class="fil6"
         points="12988,48262 13017,48279 13089,48279 "
         id="polygon19982" /><polygon
         class="fil6"
         points="12988,48262 13119,48262 13089,48279 "
         id="polygon19984" /><polygon
         class="fil6"
         points="13017,48279 13089,48279 13051,48288 "
         id="polygon19986" /><polygon
         class="fil0 str1"
         points="12657,48427 13449,48427 13449,47632 12657,47632 "
         id="polygon19988" /><polyline
         class="fil0 str1"
         points="13013,47831 13094,47831 13094,48106 "
         id="polyline19990" /><polygon
         class="fil0 str1"
         points="13373,48029 13364,47957 13339,47894 13301,47831 13250,47780 13191,47742 13123,47720 13051,47712 12983,47720 12916,47742 12856,47780 12806,47831 12768,47894 12742,47957 12734,48029 12742,48101 12768,48169 12806,48228 12856,48279 12916,48317 12983,48339 13051,48347 13123,48339 13191,48317 13250,48279 13301,48228 13339,48169 13364,48101 "
         id="polygon19992" /><polyline
         class="fil0 str1"
         points="13013,48106 12983,48127 12962,48156 12958,48195 12967,48228 12988,48262 13017,48279 13051,48288 13089,48279 13119,48262 13140,48228 13149,48195 13144,48156 13123,48127 13094,48106 "
         id="polyline19994" /><line
         class="fil0 str1"
         x1="13013"
         y1="48106"
         x2="13013"
         y2="47831"
         id="line19996" /></g><metadata
       id="CorelCorpID_0Corel-Layer" /></g></svg>